<svg width="432" height="432" xmlns="http://www.w3.org/2000/svg" display="block"><g fill-rule="evenodd"><path d="M204.167 19.686c-6.396.798-12.691 2.1-19.363 4.004-4.498 1.283-8.191 2.732-5.174 2.03 24.321-5.659 45.005-5.363 66.414.951 71.147 20.982 132.329 106.646 132.392 185.366.029 36.347-12.925 73.924-34.953 101.389-24.276 30.268-49.632 49.385-77.657 58.549-4.57 1.495-2.115 1.203 3.515-.417 31.607-9.098 62.64-32.108 86.325-64.007 22.913-30.859 35.204-79.344 29.788-117.505C371.418 91.143 284.675 9.629 204.167 19.686m-36.887 9.261c-20.243 6.22-40.496 20.236-52.662 36.447-1.481 1.973-2.93 3.587-3.219 3.587-.755 0-11.317 5.815-16.643 9.162l-4.525 2.845-3.333-2.674C73.162 67.296 57.089 58.549 45.023 55.526c-4.728-1.184-4.168-2.042-4.356 6.678l-.158 7.342 1.984 1.763c1.091.969 3.903 2.753 6.25 3.965 9.077 4.687 26.924 15.657 26.623 16.364-.074.174-1.801 1.753-3.838 3.508-34.643 29.848-50.336 58.348-53.914 97.91-4.003 44.274 17.152 96.542 53.033 131.026 48.473 46.586 127.153 69.284 181.785 52.443 6.634-2.045 6.756-2.394.299-.859-59.332 14.102-142.548-16.01-186.089-67.337-45.016-53.066-53.813-122.606-21.931-173.375 8.846-14.087 34.495-40.934 37.388-39.134 5.775 3.593 12.301 10.016 20.003 19.689 3.041 3.82 6.94 8.344 8.664 10.053l3.135 3.109-3.362 2.371c-6.511 4.591-15.95 8.369-23.27 9.315-6.305.814-7.43 1.314-2.321 1.031 13.296-.737 23.848-5.056 34.962-14.312 20.697-17.235 28.856-37.749 14.585-36.67-5.125.388-5.753 1.068-1.27 1.375 5.132.352 5.838.796 5.535 3.488-.445 3.944-5.765 12.946-12.239 20.711-1.86 2.23-1.3 2.683-10.017-8.11-7.065-8.748-13.646-15.806-18.804-20.169l-3.249-2.747 1.27-1.064c1.936-1.621 12.419-8.086 16.197-9.988 2.577-1.297 3.639-2.143 4.587-3.652 10.637-16.923 31.332-33.124 52.476-41.078 5.975-2.247 5.211-2.349-1.701-.225M45.406 56.755c21.292 8.59 51.949 31.06 68.16 49.958 3.059 3.565 6.708 7.668 8.111 9.118l2.55 2.637-1.667 2.035c-.917 1.119-3.115 3.318-4.884 4.886l-3.216 2.852-1.58-1.748c-.868-.962-3.011-3.826-4.762-6.366-7.187-10.426-11.289-15.762-14.184-18.448-7.582-7.037-25.643-18.431-42.361-26.724-4.109-2.038-8.058-4.326-8.797-5.098l-1.341-1.401v-6.449c0-7.281-.247-6.954 3.971-5.252m283.914 95.339c-4.185 2.085-4.823 4.034-3.177 9.712 3.406 11.745 16.169 10.591 16.208-1.465.023-7.369-6.504-11.5-13.031-8.247m-32.898 48.876c-4.693 2.323-5.682 5.175-3.438 9.91 4.206 8.871 12.569 11.329 15.805 4.645 4.498-9.292-3.644-18.873-12.367-14.555m-38.32 18c-9.554 2.456-12.467 16.187-4.705 22.176 11.343 8.751 21.372 5.302 21.372-7.35 0-10.885-7.174-17.266-16.667-14.826m78.406 5.313c-3.152 2.142-2.997 5.913.351 8.546 3.079 2.422 7.784-2.146 6.185-6.005-1.572-3.796-3.555-4.567-6.536-2.541" fill="#fff"/><path d="M41.667 62.231v6.668l1.401 1.18c.771.648 5.094 3.024 9.607 5.279 16.937 8.462 36.291 20.898 42.66 27.41 2.248 2.298 6.839 8.369 10.686 14.13 3.665 5.489 7.839 10.88 8.423 10.88.282 0 2.553-2.031 5.046-4.514l4.533-4.514-4.902-5.556a7893.67 7893.67 0 0 1-9.48-10.766C95.97 86.868 62.835 63.531 44.743 56.722l-3.076-1.158v6.667" fill="#a32929"/><path d="M198.843 22.265c-33.962 3.511-66.19 22.293-82.338 47.985-.948 1.509-2.01 2.355-4.587 3.652-3.778 1.902-14.261 8.367-16.197 9.988l-1.27 1.064 3.249 2.747c5.158 4.363 11.739 11.421 18.804 20.169 8.717 10.793 8.157 10.34 10.017 8.11 6.474-7.765 11.794-16.767 12.239-20.711.303-2.692-.403-3.136-5.535-3.488-4.483-.307-3.855-.987 1.27-1.375 14.271-1.079 6.112 19.435-14.585 36.67-11.114 9.256-21.666 13.575-34.962 14.312-5.109.283-3.984-.217 2.321-1.031 7.32-.946 16.759-4.724 23.27-9.315l3.362-2.371-3.135-3.109c-1.724-1.709-5.623-6.233-8.664-10.053-7.702-9.673-14.228-16.096-20.003-19.689-2.893-1.8-28.542 25.047-37.388 39.134-40.17 63.968-14.324 156.246 57.472 205.187 56.794 38.715 122.75 49.29 173.974 27.892 36.533-15.26 74.349-54.343 89.572-92.57 19.064-47.874 16.652-95.325-7.353-144.676-34.844-71.63-98.37-114.844-159.533-108.522M41.33 66.204c0 1.146.09 1.614.2 1.041.111-.573.111-1.51 0-2.083-.11-.573-.2-.104-.2 1.042m79.966 49.682c0 .079.677.756 1.505 1.504l1.505 1.36-1.36-1.505c-1.268-1.402-1.65-1.717-1.65-1.359m-1.404 7.146l-2.531 2.662 2.662-2.53c2.473-2.351 2.874-2.794 2.531-2.794-.073 0-1.271 1.198-2.662 2.662m217.82 28.947c7.682 4.351 5.736 17.128-2.716 17.828-5.237.435-9.327-4.895-9.603-12.512-.176-4.844 7.389-8.108 12.319-5.316m-33.858 48.453c6.912 2.628 8.494 14.358 2.449 18.157-6.509 4.091-18.287-9.306-13.238-15.057 2.636-3.002 7.427-4.378 10.789-3.1m-37.709 18.806c9.145 2.716 12.176 19.867 4.48 25.356-2.233 1.594-8.329 1.448-12.042-.287-8.951-4.183-11.361-9.667-8.182-18.613 2.087-5.874 8.646-8.563 15.744-6.456m75.424 5.049c2.46 3.127 2.401 5.529-.198 7.98-2.873 2.709-7.112.207-7.112-4.197 0-3.748 5.215-6.447 7.31-3.783" fill="#749a4b"/></g></svg>