<svg width="432" height="432" xmlns="http://www.w3.org/2000/svg" display="block"><g fill-rule="evenodd"><path d="M98.404 24.537c.14 2.674.554 9.132.919 14.352.366 5.22.797 13.553.959 18.518l.294 9.028-2.648-2.546c-1.456-1.401-9.895-10.046-18.753-19.213-13.771-14.25-19.684-19.862-18.933-17.969.096.243 2.913 5.947 6.261 12.677 8.727 17.547 15.685 33.301 14.708 33.301-.314 0-21.705-12.21-42.893-24.482-8.843-5.123-16.184-9.314-16.313-9.314-.128 0 9.766 11.699 21.988 25.997C56.215 79.185 66.132 90.967 66.03 91.069c-.102.102-3.177.473-6.835.825-3.657.353-10.815 1.167-15.908 1.81-8.609 1.087-18.963 2.113-21.429 2.125-2.445.011 7.37 7.451 14.597 11.066 16.221 8.112 36.664 10.978 44.005 6.168l1.133-.743-.295 2.521c-.295 2.519-.294 2.518 1.258-1.647 8.486-22.76 24.654-35.713 50.515-40.467 11.888-2.185 25.906 1.371 36.605 9.287 10.625 7.861 31.358 33.536 39.547 48.974l2.736 5.158-8.41 4.207c-23.921 11.969-36.882 21.262-36.882 26.443 0 1.177 1.904 4.087 3.702 5.658.583.509 2.058 2.118 3.278 3.575l2.219 2.65 2.307-2.899c4.878-6.13 12.234-12.377 20.67-17.552 4.23-2.595 17.791-10.654 18.373-10.919.175-.079 1.26 1.483 2.411 3.472 1.151 1.99 3.772 5.596 5.823 8.015 9.821 11.579 8.635 17.148-4.838 22.728-10.066 4.169-15.202 7.185-17.609 10.341-1.751 2.295-1.329 3.389 2.435 6.323 1.72 1.34 3.901 3.164 4.846 4.054l1.72 1.617 4.003-4.253c8.44-8.966 17.169-14.433 24.891-15.591l2.045-.307 6.97 9.188 6.97 9.187-1.588 1.638c-.873.901-3.9 2.88-6.726 4.398-5.474 2.941-9.716 6.392-12.083 9.833l-1.453 2.112 2.969 2.684c3.594 3.248 2.918 3.225 6.742.234 3.741-2.925 6.651-4.466 10.923-5.783 3.946-1.217 11.101-2.481 11.497-2.031.165.188 10.68 15.133 23.368 33.212a35458.196 35458.196 0 0 0 67.285 95.556c6.013 8.506 12.496 17.235 14.405 19.398 12.468 14.123 14.648 18.055 12.757 23.008-2.626 6.875-8.645 5.3-21.975-5.752-6.199-5.14-10.624-8.602-8.606-6.733 20.124 18.638 27.681 22.01 31.694 14.143 2.783-5.455.351-11.332-9.402-22.722-3.653-4.267-11.057-14.787-28.185-40.047-19.837-29.255-41.114-60.381-72.383-105.887l-6.909-10.054-2.083.254c-2.578.314-9.548 1.476-11.111 1.852-.821.198-.483-.195 1.157-1.347 1.273-.894 3.443-2.781 4.821-4.193l2.506-2.566-9.634-12.872-9.718-12.985c-.046-.062-2.203.266-4.793.728-2.591.463-4.71.818-4.71.79 0-.028.408-.852.907-1.83 2.797-5.487 1.04-12.337-5.004-19.509-3.936-4.669-6.065-7.605-8.775-12.102-1.351-2.241-2.842-4.586-3.314-5.212l-.859-1.136-2.704 1.718c-1.488.945-7.392 4.529-13.121 7.964-12.45 7.466-17.257 10.962-23.253 16.905l-4.503 4.464-1.168-1.22c-1.709-1.783-1.493-2.41 1.895-5.514 5.654-5.182 14.711-10.729 32.017-19.61l10.775-5.529-1.019-1.693a76.997 76.997 0 0 0-1.804-2.851c-.432-.636-1.463-2.511-2.29-4.166-4.716-9.438-22.95-33.226-32.371-42.23-13.032-12.456-25.15-18.086-38.814-18.033-5.926.023-12.933 1.054-14.636 2.154-.803.519-7.83 2.553-8.818 2.553-.149 0-.274-.885-.279-1.968-.027-6.841-6.693-24.891-16.454-44.56l-3.907-7.87.255 4.861m-19.768 102.4c-2.048 11.116.656 24.374 7.248 35.53 3.92 6.632 6.241 9.2 15.273 16.896 4.584 3.905 17.292 14.766 28.241 24.136 46.8 40.048 70.648 59.258 96.528 77.755 18.76 13.408 23.072 16.851 36.805 29.377 16.675 15.21 20.288 17.918 31.482 23.594 8.202 4.16 12.577 7.14 25.231 17.187 13.449 10.678 20.063 15.141 26.729 18.036 3.528 1.532 3.364 1.393-2.273-1.927-5.667-3.337-10.553-7.109-20.34-15.7-14.779-12.975-20.846-17.446-30.427-22.424-6.468-3.36-12.021-7.789-23.226-18.521-16.901-16.19-21.255-19.824-40.74-34.007-21.026-15.304-36.31-27.358-78.871-62.204-14.04-11.495-31.361-25.547-38.49-31.227-16.259-12.953-17.297-13.852-20.339-17.621-8.82-10.927-13.685-25.852-12.325-37.814.575-5.067.328-5.589-.506-1.066m135.414 65.717c-2.653 2.653-2.902 2.795-3.796 2.169-.842-.59 4.805-5.008 6.401-5.008.129 0-1.044 1.277-2.605 2.839" fill="#fff"/><path d="M133.796 72.686c-26.446 4.499-43.856 18.792-51.807 42.531-6.502 19.412-.196 43.85 14.385 55.755 1.103.901 8.36 6.71 16.126 12.91 7.766 6.2 25.579 20.654 39.583 32.12 41.688 34.132 54.711 44.404 75.695 59.709 17.199 12.545 24.671 18.557 33.771 27.177 20.898 19.794 24.685 22.983 30.878 26.005 8.454 4.124 15.9 9.504 28.933 20.905 14.502 12.686 19.148 16.142 27.371 20.365 4.736 2.432 5.539 3.009 13.538 9.712 13.064 10.948 18.84 12.954 22.101 7.677 2.826-4.572.435-9.925-9.292-20.805-2.207-2.469-4.771-5.424-5.697-6.567-1.929-2.381-29.18-40.937-70.572-99.853-15.709-22.358-29.356-41.722-30.328-43.03l-1.767-2.38-3.612.664c-8.413 1.545-12.737 3.252-17.556 6.928-2.129 1.625-4.046 2.954-4.259 2.954-.509 0-6.102-5.064-6.102-5.525 0-2.41 6.824-8.371 14.035-12.262 4.101-2.213 7.261-4.59 7.261-5.463 0-.258-3.061-4.519-6.802-9.468l-6.803-9-1.86.314c-8.093 1.368-15.096 5.66-23.996 14.709l-4.972 5.054-1.764-1.564c-.97-.86-3.063-2.558-4.65-3.774-6.958-5.328-3.585-9.326 14.135-16.755 14.942-6.265 15.8-10.93 4.46-24.245-1.315-1.545-3.393-4.479-4.616-6.521-2.079-3.469-2.287-3.673-3.165-3.102-.516.336-4.585 2.746-9.041 5.356-16.688 9.774-24.978 16.408-30.686 24.558-.476.679-.94.947-1.175.678-.214-.244-2.2-2.474-4.413-4.955-5.034-5.644-5.321-6.314-3.808-8.895 3.483-5.943 14.302-13.287 34.275-23.265 5.359-2.677 9.835-4.954 9.947-5.059 1.53-1.431-20.632-33.301-30.36-43.658-14.909-15.875-31.136-22.701-47.391-19.935" fill="#d54728"/><path d="M91.035 7.179c-.539 1.405-.305 5.561.901 16.021 2.199 19.066.99 24.597-4.589 21-1.062-.685-7.972-7.323-15.356-14.751-13.848-13.929-16.854-16.395-18.633-15.28-2.188 1.371-1.034 6.013 4.763 19.164 10.029 22.75 8.706 23.385-17.835 8.57-10.189-5.688-15.197-8.182-19.476-9.699-13.594-4.821-11.073 1.79 10.669 27.981 9.428 11.357 13.13 16.242 14.662 19.347l1.208 2.449-1.066 1.135c-2.375 2.528-9.822 4.25-25.913 5.992C4.161 90.863 5.324 90.313 8.746 94.61c14.563 18.285 44.718 32.441 63.857 29.977 7.281-.937 8.747-2.111 8.011-6.416-.054-.318.066-.58.268-.582.203-.002.416-1.169.474-2.593l.106-2.59-1.068.7c-7.273 4.766-27.79 1.865-43.939-6.211-7.227-3.615-17.042-11.055-14.597-11.066 2.466-.012 12.82-1.038 21.429-2.125 5.093-.643 12.251-1.457 15.908-1.81 3.658-.352 6.733-.723 6.835-.825.102-.102-9.815-11.884-22.037-26.183-12.222-14.298-22.116-25.997-21.988-25.997.129 0 7.47 4.191 16.313 9.314 21.188 12.272 42.579 24.482 42.893 24.482.977 0-5.981-15.754-14.708-33.301-3.348-6.73-6.165-12.434-6.261-12.677-.751-1.893 5.162 3.719 18.933 17.969 8.858 9.167 17.297 17.812 18.753 19.213l2.648 2.546-.294-9.028c-.162-4.965-.593-13.298-.959-18.518-.365-5.22-.779-11.678-.919-14.352l-.255-4.861 3.907 7.87c9.761 19.669 16.427 37.719 16.454 44.56.005 1.083.12 1.968.257 1.968.702 0 8.002-1.978 8.55-2.316 1.721-1.064-4.066-17.861-10.766-31.249-10.452-20.886-23.667-38.148-25.516-33.33M78.836 132.176c.004 1.273.094 1.739.2 1.035.106-.704.103-1.745-.006-2.315-.11-.569-.197.007-.194 1.28m91.997 41.117c0 .08.677.757 1.505 1.505l1.505 1.359-1.36-1.504c-1.268-1.403-1.65-1.718-1.65-1.36m91.204 130.093c0 .079.677.756 1.505 1.504l1.504 1.36-1.359-1.505c-1.268-1.402-1.65-1.717-1.65-1.359" fill="#749a4b"/></g></svg>