<svg width="353" height="302" viewBox="0 0 353 302" xmlns="http://www.w3.org/2000/svg"><title>Slice 1</title><g fill="none" fill-rule="evenodd"><path d="M176.3 48.5c-70.5 0-127.7 57.2-127.7 127.7 0 51.2 30.2 95.4 73.7 115.7-.5-2.4-.2-4.9.8-6.8.1-.3-1.4-3.3-2.1-5.4-.9-2.9 1.1-5.6.9-8.6-.4-5.4-3.4-9.3-7.5-11.8-4.3-2.7-8.3-5.8-12.4-8.8-3.2-2.3-6.5-4.5-8.4-8.2-.5-1.1-1.7-1.8-2.6-2.8-.7-.7-.8-.6-1.5-1.4-.2-.2-.9-.8-.9-1.2 0-.4.7-1 1-1.2 1.7-1.1 3.3-.8 5 0 2.1 1 4.1 2.4 6 3.7 2.6 1.8 5.4 3.3 8.5 3.8.7-5.8.1-8.1-2.6-12.8-2.2-3.9-3.3-3.9-4.4-8.3-.3-1-1-2-1.4-3-1.2-3-2.4-6-3.4-9-.6-1.8 0-3.1 1.6-3.6s2.6.3 3.4 1.7c.4.7.9 1.4 1.3 2.2 2.9 5.9 4.4 8 8.3 13.3.8 1.1 1.4 2.1 3 2-.1-.5-.1-1.1-.2-1.6-1.8-6.4-3.7-12.8-5.4-19.2-.5-1.9-.8-3.8-1.1-5.7-.3-1.4.2-2.4 1.6-2.9 1.5-.5 2.8-.2 3.7 1.1.5.8.8 1.8 1.2 2.7 2.7 7.3 5.4 14.6 8 22 .5 1.3 1 2.3 3 2-.3-6.4-.6-12.7-.9-19.1-.1-1.4-.5-2.7-.4-4.1.1-.8.7-1.8 1.4-2.1 2-1 4.3.3 4.6 2.7.8 5.3 1.5 10.6 2.2 15.9.3 2.2.6 4.3.9 6.5.2 1.2.6 2.2 2.5 2 .6-1.1 1.5-2.3 1.8-3.7.9-3.8 1.7-7.7 2.4-11.5.2-1.1.2-2.2.4-3.2.4-1.8 1.6-2.7 4-2.2 1 .6 1.4 2.3 1 4.2-1 4.1-.2 8.5-.8 12.6-.6 4.1-.8 8.1-.2 12.2.6 4.5 1.5 9 1.7 13.4.1 2.7.8 4.4 3.1 5.1.6 3 5.4 25.4 7.4 26.8.4.3.7.9.9 1.4.8-11.7 1.3-22.7 3.4-34.3.5-2.8 2.2-6.2 2.7-9 1-5.1 1.5-22.2 1.7-22.7.3-1.1 3.5-2.5 3.6-3.6.4-4.2-.5-8.2-1.6-12.2-1-3.8-2.2-7.6-2.8-11.5-1.8-11.9-8-18.8-9.9-22-1-1.6-2.9-3.7-1.9-5.7 3.4-2.5 5.2 1.1 6.8 3 3 3.5 2.4 2.4 5.7 5.7.6.6 3.1 1.7 4 1.2 2.8-1.8 1.4-5.2.6-8.3-.9-3.5-1.5-9.6-2-13.1-.2-1.4-.5-3-.3-4.3.2-1.3.8-2.6 2.3-3.1 2-.7 3.3 1.1 3.5 3 .6 4 1.4 10.5 2.2 14.4.2 1.2.8 3.7 2.1 3.6 3.5-1.2 2.3-6.7 2.3-8.9 0-3.1-.3-9.5-.5-12.6-.1-2.5.2-6 3.1-6.2 2.8-.2 3.5 3.6 3.7 6.2.2 3.1.3 9.5.8 12.6.2 1.2 1.3 7 2.2 6.9 3.2-.1 2.1-9 3.1-11.8.5-1.5.2-3.4.5-5 .3-2.1.8-4.6 3.5-4.4 2.5.2 2.9 2.6 3 4.8 0 1.5.2 2.9.1 4.4-.5 6.9-1 16.4-1.4 23.3-.1 1.8.5 6.9 1.4 7.1.8.2 1.9-2 3.5-3.8 3-3.3 5.9-6.3 10.9-6.7.9-.1 1.3.1 2.1.3.7.2 1.8 1 1.8 1.5.1 1.8-3 3.6-4.7 4.9-1 .7-2 2.3-2.6 3-7.8 8.5-10.6 15.7-15.1 26.1-1.8 4.1-1.7 9-2.6 13.4-.8 3.8 6.2 6.5 6 8-.4 3.7-2.7 22.2-2.9 25.4-.4 6.5-.5 30.9.1 38.7.3 3.7-.5 7.6 2 10.9.3.4.3 1.1.3 1.8 4.1-.6 7.8-1.3 10.7-2 2.9-5.7 5.1-11.7 6.4-18.2.7-3.4 1.1-7 2.2-10.3 2.4-7.3 2.7-14.7.4-22.3-.9-3.1-1.7-6.3-2-9.4-.7-7.3.5-13.3.7-17.8 0-1.3-1.1-5.3-1.1-6.6 0-1.9 1.3-2.3 2.3-2.1 1.6.3 2.4 2.4 3.8 3.7.5-4.4.9-8.3 1.3-12.2.2-1.3.4-2.7.9-3.7.4-.8 1.6-1.6 2.3-1.4.9.2 2.1 1.2 2.4 2.1.5 1.5.5 3.1.5 4.7 0 3-.4 6-.3 9.1.1 2.3-.8 6.4.9 6.6.9.4 1.2-2.8 1.4-4.2 1.1-6 2.4-12 3.6-18 .1-.5.3-1 .5-1.5.8-1.5 2.1-1.8 3.5-1.4 1.5.4 2.4 1.5 2.1 3.3l-.3 2.7c-.6 4.9-1.2 9.9-1.7 14.8-.2 2.4-1.2 7.4.3 8 1 .6 1.8-1.5 2.1-2.2 1.8-4.8 3.6-9.6 5.3-14.5.6-1.8 1-3.8 1.6-5.6.5-1.5 1.5-2.3 3.1-2.1 1.5.2 2.6 1.7 2.6 3.5 0 .8-.2 1.6-.4 2.3-.8 3-1.7 6-2.6 9-1.1 3.9-2.3 7.7-3.2 11.6-.4 1.7-.6 4 1.2 5.1 1.6 1 3.2-.1 4.4-1.1 3-2.6 5.9-5.4 8.8-8.1 2.5-2.4 3.1-3.2 5-2.1 1.3 1.4.8 2.3.8 2.6-2 2.6-3.8 5.3-5.9 7.7-3.5 4.2-8 7.6-10 13.2-2.1 5.9-4.1 12-6 18-.2.6.3 1.7.7 2.4 1.1 1.8 2.4 3.4 3.6 5.2.9 1.3.1 2.4 0 4-.2 2.4-.4 4.5-.8 6.3 32.9-23.1 54.4-61.3 54.4-104.5.1-71-57-128.1-127.6-128.1z" fill="#FFB819"/><path d="M46 266.9l.5-.3.5-.3.5-.3.7-.3.5-.2.7-.2.5-.1.8-.1h.6l.6.1.6.1.8.3.5.2.6.2.5.2.7.5.9.6.4.4.7.6.4.4.5.6.3.4.5.6 1.1 1.3.5.6.3.4.4.7.3.5.3.5.2.5.3.8.1.5.1.6.1.5.1.5.1 1.4v2l-.1.5-.1.4-.4.1h-.7l-1.3-.2h-.5l-1.1.1h-1l-.4-.2-.2-.3v-.5l-.1-1.4-.1-.6-.1-.5-.2-.9-.2-.5-.2-.6-.3-.5-.5-.7-.3-.5-1.5-1.6-.4-.4-.2-.2-.5-.3-.5-.2-.5-.1h-.3l-.5.2-.4.4-.2.2-.2.5-.1.3v.6l.1.3.2.5.3.6.3.5 1.8 2.8.5 1 .2.5.3.8.2.5.1.6.3 1.3v.6l.1.6v1.4l-.2.5-.2.6-.3.5-.4.7-.3.4-.5.6-.8.8-.5.3-.7.5-.5.2-.4.2-.5.2-.8.2-.5.1h-1l-.8-.1-.6-.1-.5-.2-.5-.2-.7-.3-1-.6-.5-.3-.6-.5-.4-.4-.8-.7-.6-.5-.4-.4-.4-.4-.4-.4-.6-.9-.3-.5-.1-.2-.3-.5-.6-1.1-.3-.6-.2-.6-.2-.6-.2-.6-.1-.6-.2-.5-.1-.8-.1-.5v-.6l.1-.4.3-.2.4-.1.8-.1h3.3l.5.1.3.2.1.2.1.4.1.6.2.5.1.3.2.5.1.3.3.6.4.7.3.5.5.8.6.7.4.4.5.4.5.3.2.1.5.1h.3l.5-.1.5-.3.3-.4.2-.5v-.5l-.1-.5-.1-.3-.2-.5-.5-.8-.7-1-.3-.5-.5-1.1-.4-1.1-.4-.7-.2-.5-.3-1-.2-.7-.1-.5-.1-.6-.1-.5v-1.3l.1-.6.1-.5.2-.7.2-.5.3-.5.3-.4.5-.6.4-.4zm-11.7-30.5l.5-.3.9-.6.5-.3.3-.1.4-.1h.3l.3.1.2.3.3.5.3.5.6 1.3.2.5.4.8.3.6.4 1.2.1.3-.1.2-.3.2-.4.3-.5.3-1.1.5-2.9 1.5-1.9 1.1-.5.3-2 .9-2.4 1.3-.3.3v.3l.1.2.4.1.6.1 2.2.5 3.3.7 2.2.4.4.1.2.2.1.2.1.4.1.4-.1.5-1.1 2.5-.9 2-.2.5-1 2.6-.2.6.2.2.4-.1 2-.9.5-.3 1.9-1.2.5-.3 1.9-1.1.5-.3 2-1 .5-.2.9-.5.5-.2.5-.2.4-.1h.3l.2.2.5.8.3.5.5 1.3.3.5.9 1.4.4.7.1.4-.1.3-.2.2-.3.2-.7.4-1 .4-4.8 2.5-1.6.9-.5.3-1.7.8-.5.3-1.6 1-.5.3-1.7.8-.5.2-1.6 1-.5.2-1.7.7-.5.3-1.1.7-.5.3-.4.2H28l-.3-.1-.2-.2-.2-.4-.2-.6-.2-.8-.3-.5-.6-.9-.3-.5-.3-.5-.6-1.2-.2-.4v-.4l.2-.5.6-1.7.2-.5.8-1.6.2-.5.7-1.7.3-.5.7-1.6.2-.5v-.4l-.2-.3-.3-.2-.5-.1-1.7-.3-.6-.1-1.7-.4-.6-.1-1.8-.5-.6-.1-1.4-.3-.5-.1-.4-.1-.3-.2-.2-.4-.8-1.7-.7-1.5-.3-.5-.6-.9-.2-.5-.1-.4-.1-.2.1-.3.2-.2.4-.2 1.5-.6.5-.2 1.6-.9.5-.3 1.7-.8.5-.3 1.6-.9.5-.3 1.6-1 .5-.3 1.7-.7.5-.3 1.6-1 .5-.3 1.7-.7.5-.3zM27 204.8l.4-.2.4.1.3.3.2.4.1.5.2.8.1.5.4 1.5.7 2.1v.5l-.2.3-.3.3-2.6 1.9-.3.3v.3l.1.4.4 2.1.2.5.7 2.6.5 2 .1.5.2.5.4 1.6.2.4.2.2.5.1 2.5.1h.6l.5.2.3.5.2.5.5 2 .2.5.7 2.1.2.4-.1.5-.3.4-.5.1h-.9l-1.2-.2-.6-.1-2.1-.3-.5-.1-2.2-.3-.6-.1-2.1-.3-.6-.1-2.2-.4-.5-.1-3.1-.4-2.3-.4-.6-.1-1.7-.3-.6-.1-1.7-.2-.6-.1-1.6-.2-.4-.1-.3-.3-.2-.5-.5-1.5-.7-2.6-.4-1.6-.1-.6.2-.5.4-.3 1.2-.9.5-.3 1.4-1.3.4-.3 1.5-1.2.4-.3 1.6-1.1.4-.3 1.4-1.2.4-.3 1.5-1.2.4-.3 1.5-1.2.4-.3 1.8-1.6 1.4-1.3.4-.4 1.9-1.5 1.5-1zm-6.3 14.1l-.4.3-2.1 1.4-.5.3-1.8 1.2-.4.3-.1.4v.5l.2.3.4.2 2.6.3.6.1 2.5.2h.5l.4-.2.1-.4-.1-.5-.6-2.1-.3-1.6-.3-.4-.3-.2-.4-.1zm4.8-40.6l.2.4.2 2.5.1 1.9v.6l.2 1.6v.5l-.1.3-.3.3-1.5 1.3-.3.3-1.4 1.3-.4.4-1.5 1.1-.4.4-1.4 1.3-.3.3-.1.2v1.5l.1.5.2.3.5.1 1.9-.1.6-.1 2-.3.6-.1.8-.1h1.6l.2.2.1.4.1.6v1.7l.2 1.6v2.6l-.1.2-.3.1-.5.1-.5.1h-3.4l-.6.1-1.9.3-.6.1-1.9.2-.6.1-1.9.1h-.6l-1.9.3-.6.1-1.9.1h-.6l-1.9.1H7l-1.9.2h-.6l-1.2.2h-.7l-.5-.1-.3-.2-.1-.4-.1-.3-.1-.5-.1-1.6-.2-4.2-.4-2.4-.1-.6-.1-2.3-.1-1.3v-.6l.1-.5.1-.8.1-.5.2-.5.2-.6.2-.5.2-.5.4-.7.3-.4.3-.4.4-.4.7-.6.4-.4.6-.5.5-.3.5-.3.5-.2.6-.2.6-.1.8-.1.6-.1H10l.6.1.6.1.5.2.5.2.6.3.5.3.4.3.4.3.6.5.4.4.4.7.3.4.3.4.1.4.1.3.3-.2 1.7-1.4.4-.4 1.6-1.4.4-.4 1.6-1.4.4-.4 1.2-1.2.4-.3.4-.2.8-.4zm-12.8 11.1l-.2-.4-.3-.4-.5-.3-.5-.2-.6-.1H10l-.6.1-.6.1-.5.2-.5.3-.4.4-.3.4-.2.5-.1.8v.6l.1 1.8v.6l.3 1.8.1.4.1.2.2.2H8l.8-.1.6-.1.6-.1.6-.1 1.9-.1.4-.1.2-.1.1-.3v-2.8l-.3-2.3-.2-.9zm-8.3-34.2l.5.1H6l.6.1.3.1.4.1.2.1.2.2v1l-.2 1.1-.1.6v2.2l-.1.9v.7l.1.4.2.2.5.1 2.1.3h2.7l.6.1 2.1.3.6.1 2.1.1 3.2.2 2.1.2h.5l1.6-.1h.6l.4.1.2.2v.5l-.1.7-.2.9-.1.6v2.2l-.2 1.6-.1.4-.1.2h-1l-1.5-.2-.6-.1-2.6-.2-2.1-.2h-.6l-2.1-.2h-3.3l-2.7-.2-2.1-.1H7l-.3.1-.1.3v2.2l-.1.9-.1.6v1.9l-.1.3-.1.4-.2.2-.2.1H4.6l-1.1-.1H1.7l-.6-.1-.5-.1-.2-.2-.1-.2v-.4l.1-.8.2-1.3V171l.3-2.1v-3.2l.2-2v-.6l.1-2.6.2-2.6v-1.2l.1-.6.1-.3.1-.4.2-.2.3-.2h1.1zm24.2-21.9l.5.2 1.8.6.3.1.2.2.1.2-.9 4.5-.1.6-.5 1.8-.1.6-.3 1.8-.1.6-.5 2.4-.5 1.8-.1.6-.5 3-.3 1.2-.2.4-.2.2h-.7l-.8-.1-.6-.1-.5-.1-.5-.1-1.8-.5-.6-.1-1.8-.4-.6-.1-1.8-.3-.6-.1-1.8-.5-2.9-.7-1.8-.5-.6-.1-1.8-.3-.6-.1-.8-.2-1-.3-.5-.1-1.8-.5-.5-.1-.3-.2-.1-.2v-.8l.6-2.2.4-2.1.1-.6.6-2 .1-.6.3-2.1.1-.6 1.1-4.7.1-.6.2-1.2.2-.9.2-.5.2-.2h.8l.9.2.8.3.6.1.9.2.5.1.5.1.4.2.2.2.1.2v.4l-.1.3-.1.6-.8 3.2-.1.6-.3 1.8-.1.6-.5 1.8-.5 1.5-.1.5v.7l.1.2.2.1.4.2.8.3.6.1.6.1.4.1h.3l.2-.1.2-.4.3-1.1.2-1.1.7-3.3.7-3.9.3-1.1.2-.4.2-.2.2-.1.4.1.6.1.6.1 1.1.3.8.1 1 .3.4.2.2.2.1.3v.4l-.2.7-.5 1.5-.2.5-.4 2.8-.6 2.2-.1.6-.4 1.4-.1.6-.1.4.1.2.2.2.5.2.8.3.5.2.8.2h.7l.2-.1.1-.4.5-1.9.1-.6.3-1.9.7-2.4.1-.5.4-2.5.1-.5.2-.5.4-1.2.1-.2.2-.1.4.1zM41.3 109v.5l-.9 2.3-.8 1.8-.2.5-.5 1.5-.2.4-.3.2-.4.2-1.9.4-.5.1-1.8.5-.5.1-1.9.3-.5.1-1.8.5-.4.1-.2.2-.2.4-.5 1-.1.4.1.3.4.3 1.8.8.5.2 1.9.6.5.2.8.3.5.2.5.2.4.2.1.2v.4l-.2.5-.7 1.5-.5 1.5-.2.5-.7 1.5-.2.4-.2.1-.4-.1-.5-.2-.5-.2-.8-.4-.5-.2-1.7-.8-.5-.2-1.8-.6-.5-.2-1.7-.7-.5-.2-1.7-.8-.5-.2-1.8-.6-.5-.2-1.7-.8H16l-1.7-.8-.5-.2-1.8-.7-.5-.2-1.1-.4-.5-.2-.2-.1-.4-.3-.2-.3.1-.4.1-.3.2-.5.7-1.4 1.7-3.8.8-2.3.2-.5 1-2.1.5-1.2.3-.5.3-.4.5-.6.4-.4.4-.4.4-.4.4-.4.4-.3.7-.4.4-.2.5-.2.5-.2.8-.2.5-.1.8-.1h1.2l.6.1.6.1.5.2.7.2.5.2.5.2.5.3.5.3.5.3.4.4.4.4.4.5.3.5.3.5.2.4.3.7.1.5.1.8.1.5.1.5-.1.5v.3h.3l2.1-.5.5-.1 2.1-.5.5-.2 2.1-.5.5-.2 1.6-.5.5-.1h.4l.3-.3zm-16.4 4v-.5l-.1-.5-.3-.5-.4-.4-.5-.3-.5-.2-.6-.2-.6-.2-.5-.1h-.6l-.5.1-.4.2-.4.4-.5.7-.3.5-.7 1.6-.2.5-.6 1.7-.1.4v.3l.1.3.3.2.8.3.5.1.6.2.6.2 1.8.8.4.1h.2l.2-.2.2-.4.8-1.6.2-.5.7-2.2.4-.8zm34.9-34.5l.4.4.3.2.3.3.1.3-.1.3-.2.3-.2.2-.3.4-2.5 3L56 86l-1.7 2.7-1.3 1.6-1.6 2.1-.9 1.4-.3.4-.3.4-.3.3-.3.1H49l-.4-.2-.5-.3-1-.9-.4-.3-1.6-1-.5-.3-1.5-1.2-.5-.3-3.4-2.6-.5-.3-3.5-2.4-.5-.3-1.5-1.1-2.4-1.8-.9-.6-.4-.3-.2-.2-.3-.4-.1-.2.1-.3.2-.4.2-.2.3-.4 1.1-1.3.3-.5 1.5-2 .2-.3.3-.1h.3l2.5 1.8 1.7 1.2.5.3 1.6 1.3.5.3 1.7 1.2.5.3 1.7 1.1.5.3 3.6 2.9.3.2.2.1h.2l.2-.1.3-.3.8-.9.6-.9.3-.5 3-4.1.3-.5.6-1 .3-.5.3-.4.3-.3.3-.1.3.1.3.2 1.6 1.1.5.3zm9.7-25.3l.8.8.3.4.5.6.3.4.5.7.3.5.5.7.3.5.3.7.2.5.3.7.2.5.2.8.1.6v.6l-.1.6-.1.9-.1.5-.2.8-.2.5-.3.8-.3.5-.4.7-.3.5-.5.7-.3.4-.7.8-1.2 1.1-.6.5v.5l-1.5 1.2-.5.3-.2.2-.5.3-.3.1-.6.2-.8.3-.6.1-.6.1-1.2.1h-.5l-.7-.1-.5-.1-1-.3-.6-.1-.6-.2-.6-.2-.5-.2-.4-.3-.5-.3-.6-.4-.5-.4-.5-.4-.9-.8-.4-.4-1.4-1.6-.4-.4-1.6-1.5-.4-.4-1.4-1.6-2.3-2.3-.8-.7-.4-.4-.4-.4-.3-.5v-.4l.2-.4.8-.9 1-.9.4-.4.8-.8.4-.3.6-.5.4-.2h.4l.4.3.4.3.4.4.9 1 .4.4 1.6 1.5.4.4L55 62l.4.4 1.4 1.6.4.4 1.5 1.6.4.4.7.6.5.3.7.4.5.2.8.3.5.1h.8l.5-.1.7-.3.5-.3.7-.6.4-.4.5-.8.3-.5.3-.7.1-.5.1-.7v-.5l-.2-.8-.2-.5-.3-.5-.3-.5-.6-.8-.4-.4-1.6-1.4-.4-.4-1.5-1.6-.4-.4-1.5-1.6-.4-.4-1.6-1.5-.4-.4-1.1-1-.6-.6-.2-.4v-.4l.2-.4.5-.5 1.4-1.2.4-.4.9-1.1.4-.4.4-.3.4-.2h.4l.3.3.8.7.4.4.5.6.4.4 1.6 1.5.4.4 1.5 1.6.4.4 1.4 1.6zm20-23.6l.3.5 2.9 4.3 1.2 1.6.3.5 2.7 3.8.3.5.1.3.3.5.9 1.5 1.2 1.7.2.4.1.4v.5l-.2.4-.2.3-.4.3-1.4 1.1-.4.3-.7.5-.5.3-.4.2-.4.1h-.5l-.5-.2-1-.5-.5-.2-2.1-.7-.5-.2-2.1-.6-.5-.2-2.1-.8-.5-.2-2.1-.6-.5-.2-2.1-.7-.4-.1-.1.2.2.4.9 1.5.3.5 1 1.4.3.5 1.1 1.6.3.5 1 1.7.3.4 1 1 .3.4.2.4-.1.3-.2.2-.3.3-.2.2-.5.4-1.4.9-.5.3-1.2.9-.5.3-.5.3-.4.2h-.3l-.3-.1-.3-.3-.2-.2-.3-.4-.6-1-.3-.5-1.1-1.5-.3-.5-2.4-3.6-.3-.5-1-1.6-.3-.5-1.4-2-1.2-1.5-.3-.5-.9-1.6-.3-.4L68 41l-.3-.4-.5-.7-.3-.5-.2-.5-.2-.4-.1-.3.1-.2.3-.3.8-.7.9-.5 2.2-1.5.4-.2h.2l.4.1 2.1.5.5.2 2 .7.5.2 2.1.7.5.2 2 .7.5.2 2.1.6.5.1 2 .7h.4l.3-.1.1-.3-.2-.3-1-1.1-.3-.4-.8-1.3-.3-.5-1.3-1.7-.3-.5-1.1-1.9-.3-.4-.8-1-.5-.7-.2-.4v-.3l.1-.3.3-.3.3-.2.5-.4 1.4-.8.5-.3.9-.7.5-.3.7-.4.4-.2.3-.1.3.1.3.4.2.2.4.5.6.9.3.5zm34.2 2.1l-.1.4-.3.8-.3.5-.4.7-.3.4-.5.6-.3.4-.6.7-.4.4-.5.4-.5.3-.7.5-1.1.6-.6.3-.8.4-1.7.8-.6.2-.6.2-.6.1-.6.1-.6.1-1.6.3-.8.1h-.5l-.8-.1-.5-.1-.5-.1-.6-.1-1.2-.3-.6-.2-.5-.3-.6-.3-.5-.3-.5-.3-.4-.3-.6-.5-1.1-1.1-.5-.5-.8-.8V35l-.4-.7-.2-.5-.2-.5-.2-.5-.4-1.1-.2-.5-.1-.5-.2-.8-.1-.5-.1-.6v-.5l-.1-.7v-1.8l.1-.6.1-.6.1-.6.2-.6.2-.6.2-.5.3-.5.2-.5.7-1.2.3-.4.3-.5.8-.9.5-.4.4-.4 1-.7.5-.3.5-.3 1-.5.7-.4.5-.2.7-.3 1.3-.4.5-.1.8-.2 1.3-.2h.5l.9.1.6.1 1.1.2 1.3.3.5.1.3.1.3.1.2.2.1.3-.1.3-.1.5-.2.5-.2.5-.2.4-.2.5-.3.9-.2.5-.1.2-.2.4-.2.2-.2.1h-.7l-.8-.2h-1.9l-.8.1-.5.1-.8.3-.5.2-.7.4-.5.4-.6.5-.4.4-.3.3-.5.6-.3.5-.1.3-.2.6-.1.6v1.7l.1.6.2.6.2.5.4 1 .2.5.4.8.2.5.5.7.4.4.5.4.5.4.8.5.5.2.8.2.5.1h1.4l.8-.1.6-.1.8-.3.7-.3.4-.3.2-.2.4-.4.7-.7.4-.5.4-.4.3-.4.4-.7.3-.5.2-.4.2-.2.3-.1.5.1.5.2.2.1.5.2.8.4.5.2 1.3.6.5.3.2.1.3.2zm25.2-6.8l.2.5.3.8.2.5.1.5-.1.5-.2.3-.4.1-.5.2-1.9.4-.5.1-1.8.6-.5.1h-.5l-.3-.2-.2-.5-.7-2.2-.2-.5-.5-2.2-.1-.5-.6-2.2-.1-.5-.2-.2h-.4l-.8.2-1.3.4-.5.2-2.7.6-1.9.4-.4.1-.3.2-.1.4.1.5.6 2.2.1.5.5 2.2.2.5.5 1.4.2.8v.5l-.2.4-.4.2-.5.2-.5.1-1.5.2-.6.1-1.6.5-.6.1-.3.1h-.4l-.3-.1-.2-.1-.2-.4-.1-.3-.1-.5-.2-1-.7-2.9-.4-1.8-.1-.5-.4-1.8-.1-.5-.6-1.8-.1-.5-.5-1.8-.6-2.4-.1-.6-.4-1.8-.1-.6-.5-1.8-.2-.5-.5-1.1-.2-.7v-.4l.2-.3.4-.2.5-.2.5-.1 1.5-.3.5-.1 1.3-.4.5-.1.5-.1h.5l.3.2.2.4.1.2.1.5.3 1.6.1.6.5 2.2.7 2.8.1.4.2.2.2.1.4-.1.5-.1.5-.1 1.2-.5.5-.2 2.2-.5 2-.4.5-.1.2-.1.3-.3.1-.3-.1-.4-.4-2.3-.1-.5-.6-2.2-.1-.5-.6-2.2v-.6l.3-.6.4-.2.5-.1 1.9-.4.5-.1 1.5-.5.6-.1.3-.1h.5l.3.2.3.4.1.5.2 1.4.1.6.6 1.8.1.5.4 1.8.1.5.6 1.8.1.5.3 1.8.1.5.4 1.8.1.5.5 1.8.1.5.4 1.8zm28.3.5l-.4.2-2.5.2-1.9.1h-.6l-1.6.2h-.5l-.3-.1-.3-.3-1.2-1.5-.3-.4-1.2-1.4-.4-.4-1.1-1.5-.3-.4-1.2-1.4-.3-.3-.2-.1h-1.5l-.5.1-.3.2-.1.5.1 1.9.1.6.3 2 .1.6.1.8v1.6l-.2.2-.4.1h-2.3l-1.6.2h-2.6l-.2-.1-.1-.3-.1-.5-.1-.5v-4l-.2-1.9-.1-.6-.2-1.9v-3.1l-.2-1.9V9.2l-.1-1.9v-.6l-.2-1.9v-.6l-.2-1.2v-.7l.1-.5.2-.3.4-.1.3-.1.5-.1h1.6l4.2-.2 2.4-.3h2.9l1.3-.1h.6l.5.1.8.2.5.1.5.2.6.2.5.2.5.2.7.4.4.3.4.3.4.4.5.7.3.4.5.6.3.5.3.5.2.6.1.6.1.6.1.8v1.8l-.1.6-.1.6-.2.5-.2.5-.3.6-.3.5-.3.4-.3.4-.5.6-.4.3-.7.4-.4.3-.4.3-.4.1-.3.1.2.3 1.4 1.7.3.4 1.4 1.6.4.4 1.4 1.7.4.4 1.2 1.2.3.4.2.4-.2.4zm-10.8-12.9l.4-.2.4-.3.3-.4.2-.5.1-.6v-.6l-.1-.6-.1-.6-.2-.5-.3-.5-.3-.4-.4-.3-.5-.2-.8-.1h-.6l-1.8.1h-.6l-1.8.2-.4.1-.2.1-.2.2v.4l.1.8.1.6.1.6.1.6.1 1.9.1.4.1.2.3.1h2.8l2.3-.3.8-.2zm40.9 2.8l-.1.6-.2.8-.1.5-.3 1-.2.8-.1.5-.2.6-.2.5-.4.7-.3.5-1.1 1.5-.4.4-.4.4-.4.3-.6.5-.4.3-.5.3-.5.3-.7.4-.5.2-.6.2-.5.2-.7.2-.5.1-1.2.2-.6.1-.6.1-.6.1h-1.2l-1.9-.2-1.2-.2-1.1-.2-.5-.2-.5-.2-1.8-.8-.5-.2-.6-.3-1.1-.6-.5-.3-.5-.4-.4-.4-.4-.4-.4-.5-.3-.5-.8-1-.3-.5-.3-.5-.2-.5-.2-.7-.4-1.6-.1-.8v-1.1l-.1-.5v-1.9l.1-.6.1-.6.1-.6.1-.6.2-.6.2-.6.2-.6.2-.5.3-.5.3-.8.3-.5.2-.3.3-.5.6-.7.4-.5.2-.3.5-.4.6-.4.5-.3.5-.3 1.1-.6.5-.2.5-.2.5-.2.8-.2.5-.1.5-.1.5-.1 1.4-.1h3.4l1 .2.8.1.6.1.6.2.6.2.6.2.5.2.5.2.5.2.7.4.5.3 1.1.8.4.4.4.4.5.6.3.4.3.4.3.5.4.7.2.5.2.5.2.5.3.7.2.5.2.6.1.5.1.8.1 1.1v1.2l.4.8zm-7.5-.1l.1-.6v-1.2l-.1-1.1-.1-.5-.3-.8-.2-.5-.4-.7-.3-.4-.5-.6-.4-.4-.9-.6-.5-.3-.5-.2-.5-.2-1.1-.2h-1.8l-.9.1-.6.2-.9.3-.5.3-.6.4-.4.4-.4.5-.3.4-.1.2-.4.7-.2.5-.1.2-.2.5-.1.5-.1.5-.1.5-.1.5v1.5l.1.5v.3l.1.5.1.3.2.5.1.3.3.5.2.3.4.5.6.7.5.4.5.3.5.3.7.3.5.2.9.2.6.1h1.5l.8-.1.5-.2.8-.4.5-.3.6-.5.4-.3.5-.5.4-.5.4-.7.3-.5.3-.8.1-.5.1-.8zm38.4 9.3l-.2.5-.3.8-.2.5-.5.9-.3.8-.2.5-.3.5-.3.5-.6.6-.4.4-1.4 1.2-.4.3-.5.3-.5.3-.7.4-.5.2-.5.2-.5.2-.7.2-.5.1-.6.1-.5.1-.8.1h-3.5l-.6-.1-.6-.1-1.8-.6-1.1-.4-1.1-.5-.4-.2-.5-.3-1.6-1.2-.5-.3-.5-.4-.9-.8-.4-.4-.4-.5-.3-.5-.3-.5-.3-.6-.2-.6-.6-1.2-.2-.5-.2-.5-.1-.5-.1-.8v-2.5l.1-.5.1-.6.1-.5.1-.8.1-.5.1-.6.2-.6.2-.6.2-.6.2-.6.3-.5.3-.5.4-.5.3-.5.4-.5.5-.7.4-.5.2-.3.4-.4.7-.6.5-.4.3-.2.5-.3.7-.3.5-.2.5-.2 1.2-.4.5-.1.6-.1.5-.1.8-.1h1.6l1.4.2.5.1 1.7.3 1.1.3 1 .4.8.3.5.2.5.3.5.3.5.3.5.3.5.3.5.3.6.5.4.3.9 1 .3.4.3.5.4.7.3.5.3.5.2.5.3.8.1.5.1.5.1.5.2.8.1.5.1.6v.5l-.1.8-.1 1.1-.1.6-.1.6-.2 1.3zm-7.3-1.7l.2-.6.1-.6.1-.5.1-1.1v-.5l-.1-.9-.1-.5-.3-.8-.2-.5-.3-.7-.3-.4-.7-.8-.4-.4-.5-.3-.5-.3-1.1-.4-.5-.1-.7-.2-.5-.1h-1.5l-.9.2-.6.2-.7.3-.5.3-.5.4-.4.4-.2.2-.5.6-.3.5-.2.2-.2.4-.2.4-.2.5-.2.5-.2.5-.1.5-.1.6-.1.3v1.6l.1.6.1.3.2.6.1.3.3.5.5.8.4.5.5.4.4.4.6.5.5.3.8.4.6.2.9.2.6.1.8.1.5-.1.9-.2.5-.2.7-.4.5-.3.6-.4.5-.4.6-.6.4-.4.4-.7.2-.5.1-.9zm32 25.9l-.2.5-.4 1-.2.5-.2.2-.2.3-.3.2-.3.1-.4-.1-.5-.2-.5-.3-1.2-.8-.5-.3-.8-.4-.5-.3-1.1-.8-.2-.2v-.2l.1-.3.2-.4.2-.5.6-1 1.6-2.9 1-2 .3-.5 1.2-1.8 1.3-2.4.1-.4-.1-.2-.2-.1-.4.2-.5.3-2.1.8-3.1 1.2-2.1.8-.4.1h-.3l-.2-.1-.3-.3-.3-.3-.2-.4-.5-2.7-.3-2.1-.1-.5-.6-2.7-.2-.6h-.2l-.2.3-1.2 1.9-.3.5-1 2-.3.5-1 2-.3.5-1.1 1.9-.3.5-.5.9-.3.5-.3.5-.3.4-.2.1-.2-.1-.9-.4-.5-.2-1.1-.8-.5-.2-1.5-.7-.7-.4-.3-.3-.1-.3.1-.2.1-.3.4-.7.6-.9 2.7-4.7.9-1.7.3-.5.9-1.6.2-.5.8-1.7.3-.5 1-1.6.3-.5.8-1.7.3-.5 1-1.6.3-.5.5-1.2.3-.5.3-.4.2-.1.3-.1.3.1.4.2.5.4.6.5.5.3 1 .4.6.2.5.2 1.1.7.4.2.3.3.1.5.4 1.8.1.6.2 1.8.1.6.3 1.8.1.6.3 1.7.1.5.2.3.3.2h.4l.4-.2 1.6-.7.5-.3 1.7-.6.5-.2 1.7-.6.5-.2 1.4-.5.5-.8.4-.1h.4l.4.3 1.6 1 1.4.8.5.3 1 .5.5.3.3.3.2.2.1.3-.1.3-.2.4-.9 1.3-.3.5-.9 1.7-.3.5-.9 1.6-.3.5-.9 1.6-.3.5-.8 1.7-.3.5-1 1.6-.3.5-.8 1.7-.3.5-1 1.6-.3.5zM286 61.6l-.4.4-.4.4-.4.4-.6.5-.5.3-.7.3-.5.2-.7.2-.5.1-.6.1h-.6l-.8-.1-.6-.1-.6-.1-.5-.1-.8-.3-1-.4-.5-.3-.8-.5-.4-.3-.6-.4-.4-.3-.6-.5-1.4-1-.6-.5-.4-.3-.6-.6-.4-.4-.4-.5-.3-.5-.4-.7-.2-.5-.2-.5-.2-.5-.2-.5-.4-1.3-.1-.5-.2-.8-.1-.5v-.9l.1-.2.3-.1h.2l.5-.1 1.3-.1.5-.1 1-.3.5-.1.5-.1.4.1.3.3.1.5.4 1.3.2.6.2.5.4.8.3.5.3.5.4.4.6.5.4.4 1.8 1.3.5.3.3.1.5.2.5.1h.5l.3-.1.5-.3.4-.5.1-.3.1-.6v-.3l-.1-.6-.1-.3-.3-.5-.4-.5-.4-.5-2.4-2.4-.7-.8-.3-.5-.4-.7-.3-.5-.2-.5-.5-1.2-.1-.5-.2-.6-.1-.5-.1-.8v-.6l.1-.6.2-.5.3-.7.3-.5.4-.7.7-.9.4-.4.6-.6.4-.3.4-.3.5-.3.8-.4.5-.2.5-.1.5-.1h1.4l.6.1.5.1.8.1 1.1.4.5.2.7.4.5.3.9.6.7.4.5.3.4.3.4.4.7.8.4.4.1.2.4.4.8.9.4.5.3.5.3.5.3.5.2.5.3.5.3.7.2.5.1.5v.4l-.2.3-.4.2-.7.3-.5.1-2.2.5-.6.1h-.5l-.3-.1-.2-.2-.2-.4-.2-.6-.3-.5-.1-.2-.3-.5-.2-.2-.4-.5-.5-.7-.4-.4-.7-.6-.7-.6-.5-.4-.5-.3-.5-.2-.2-.1h-.8l-.5.2-.4.4-.2.4-.1.5.1.5.2.4.1.2.3.4.6.6.9.8.4.5.7 1 .6 1 .5.7.3.4.5.9.3.7.2.5.2.5.2.5.2 1.3v1.2l-.1.8-.1.5-.1.6-.2.5-.4.7-.3.5zm24.9 39.1l-.4.3-.8.7-.4.3-.3.1-.3.2h-.3l-.3-.1-.3-.3-.3-.4-.3-.5-.7-1.2-.3-.5-.5-.7-.3-.5-.6-1.2-.1-.2.1-.2.3-.2.4-.3.4-.3 1-.6 2.7-1.9 1.8-1.3.5-.3 1.9-1.1 2.3-1.6.3-.3v-.3l-.1-.2h-1l-2.2-.3-3.3-.3-2.3-.2-.4-.1-.2-.1-.2-.2-.2-.4-.2-.4v-.5l.8-2.6.7-2.1.2-.5.7-2.7.1-.6-.2-.1-.4.2-1.9 1.2-.5.3-1.8 1.4-.5.3-1.8 1.3-.5.3-1.8 1.2-.4.3-1 .5-.5.3-.5.3-.4.2h-.3l-.2-.2-.6-.7-.3-.4-.7-1.2-.4-.4-1.1-1.3-.5-.7-.2-.4.1-.3.2-.2.3-.3.7-.5.9-.6 4.5-3.1 1.5-1.1.5-.3 1.6-1 .4-.3 1.5-1.2.5-.3 1.6-1 .5-.3 1.5-1.2.5-.3 1.6-.9.5-.3 1-.9.5-.3.4-.2h.3l.3.1.2.2.3.4.3.5.3.7.3.5.7.8.4.5.3.4.7 1.1.3.4.1.4-.1.5-.4 1.8-.2.5-.6 1.7-.2.5-.5 1.7-.2.6-.5 1.7-.1.5v.4l.2.3.3.2.5.1 1.8.1h.6l1.8.2h.6l1.8.2h.6l1.4.1h.5l.4.1.3.2.2.4 1 1.6.9 1.4.3.5.7.8.3.5.2.4.1.2v.3l-.2.2-.4.2-1.4.8-.5.3-1.5 1.1-.5.3-1.6 1-.5.3-1.5 1.1-.5.3-1.5 1.2-.5.3-1.6.9-.5.3-1.5 1.1-.5.3-1.6.9-.5.3zm21.8 25.5l-.5.2-.8.2-.5.1-1.1.2-.8.2-.5.1-.6.1-.5.1h-1.3l-1.8-.3-.5-.1-.6-.2-.5-.2-.8-.3-.5-.2-.5-.3-.5-.3-.6-.4-.4-.3-.5-.4-.4-.4-.5-.5-.3-.4-.8-.9-.4-.5-.3-.5-.4-.5-.3-.5-.3-.5-.7-1.8-.4-1.1-.3-1.1-.1-.5-.1-.5-.1-2-.1-.6v-1.8l.1-.6.1-.6.1-.6.2-.6.3-.6.3-.5.5-1.2.3-.5.3-.5.3-.4.5-.5 1.3-1.1.6-.5.4-.3.5-.3.4-.3.7-.4.5-.2.5-.3.6-.2.6-.2.6-.2.6-.2.6-.1.6-.1.6-.1h1.2l.8-.1h.9l.6.1.9.2.6.1.3.1.6.2.7.4.5.3.5.3 1.1.7.4.3.5.3.4.4.6.6.4.4.4.4.3.4.7 1.1.3.4.9 1.5.5 1 .3 1 .3.8.2.6.1.6.1.6.1.6.1.6.1.5v1.9l-.2 1.3-.1.5-.2.6-.3.8-.2.5-.2.5-.3.5-.4.7-.3.4-.3.4-.3.4-.5.6-.3.4-.4.4-.4.4-.7.5-.9.6-.5.3-.5.3-1.2.6zm-3.4-6.6l.6-.2.5-.3.5-.2.9-.6.4-.3.6-.7.3-.4.4-.7.2-.5.3-.7.1-.5.1-1v-.5l-.1-.6-.1-.6-.4-1.1-.2-.5-.3-.7-.3-.4-.6-.8-.4-.4-.7-.6-.5-.3-.7-.3-.5-.2-.6-.2-.5-.1h-1.9l-.5.1-.5.1-.5.2-.5.2-.5.2-.5.2-.5.3-.3.2-.4.3-.2.2-.4.4-.2.2-.3.4-.2.3-.3.5-.1.3-.2.6-.3.9-.1.6v1.2l.1.8.1.5.2.9.2.6.4.8.3.5.5.6.4.4.8.5.5.3.7.3.5.2.7.2.6.1h1.5l.8-.1.5-.1.6-.5zm21.2 31.3h-.8l-.6-.1-1-.3-.6-.1-2.1-.2-.6-.1-2-.5-.6-.1-2-.2-.6-.1-2-.3-.6-.1-2-.3-.6-.1-2-.5-.6-.1-2-.3-.6-.1-2-.4-.6-.1-2-.4-.4-.1-.2-.2-.1-.4-.5-2.5-.2-.5-.6-1.9-.2-.6v-.5l.2-.3.4-.3 1.7-1.2.5-.3 1.7-1.3.5-.3 1.7-1.2.5-.3 1.8-1 .5-.3 1.6-1.2.5-.3 1.7-1.3.5-.3 1.7-1.1.5-.4 1.6-1.2.5-.3 1.8-1 .5-.3.9-.8.5-.3.3-.2.4-.2h.3l.3.2.2.4.1.2.1.5.2 1.6.4 1.6.4 2.2.1.5v.3l-.2.3-.3.2-.5.2-1.1.6-.5.3-1.6 1.2-.5.3-1.7 1.1-.5.3-2 1.2-.5.3-2 1.2-2.6 1.5-.3.3-.1.3.2.3.4.1 2.3.4h.6l2.4.1h.6l2.3.5.6.1 2 .2.6.1 2 .5.6.1 1.4.1.6.1.5.2.2.2.2.4.1.2.2.5.1.9.5 2.2.5 1.6.1.6v.4l-.2.3zm-19.9 27.8h-2.9l-.3-.1-.1-.2-.4-4.6v-2.5l-.1-.6-.2-1.8-.1-.6-.1-2.4.1-1.8v-.6l-.3-3v-1.2l.1-.4.2-.3.2-.1.4-.1.8-.1.6-.1h1l1.9.1h.6l1.9-.1.6-.1 1.9-.2.6-.1h1.9l3-.1h1.9l.6-.1 1.9-.2.6-.1h4.7l.3.1.1.2v.3l.1.5v2.3l.1 2.1v3.3l.2 2.1v.6l.2 4.8.1.6.2 1.2v.9l-.1.5-.2.2-.2.1-.5.1h-2.5l-.9.1-.5.1h-.9l-.3-.1-.1-.2-.1-.4v-.3l-.1-.6-.1-3.3v-.6l-.2-1.8v-4.5l-.1-.3-.1-.4-.2-.2h-.2l-.4-.1h-1.4l-.6.1-.4.1-.2.1-.2.1-.1.4v1.1l.1 1.1.2 3.3.4 3.9v1.1l-.1.4-.2.2-.2.1-.4.1-.6.1-.6.1-1.2.1-.8.1h-1.1l-.4-.1-.3-.1-.2-.2-.1-.4v-.7l.1-1.6v-.6l-.3-2.8v-4.3l-.1-.6-.1-.4-.1-.2-.3-.1h-.5l-.9-.1h-1.4l-.4.1-.2.1-.1.1v2.9l.2 1.9v3.1l.3 2.5v1l-.1 1.3-.1.2-.2.2-.4.1zm-3.6 31.8h-2.2l-.3-.1-.4-.1-.3-.2-.1-.2v-.9l.1-.6.3-1.4.1-.6.1-.9.1-.6.4-1.3.1-.2.2-.1h1.4l1.2.2 3.3.5 2.2.2.6.1 2.1.4 2.7.4h.4l.2-.2v-.2l-.3-.3-.4-.4-1.5-1.7-2.3-2.5-1.6-1.6-.2-.4-.1-.3v-.3l.1-.4.2-.4.3-.3 2.3-1.5 1.9-1.1.5-.3 2.3-1.5.5-.4v-.2l-.4-.1-2.2-.4-.6-.1-2.2-.2-.6-.1-2.2-.2-.6-.1-2.2-.3-.5-.1-1.1-.1-.6-.1-.6-.1-.4-.1-.2-.2v-1.8l.3-1.4v-.6l.1-1.7.1-.8.1-.4.2-.2h.7l.8.1 1.1.2 5.4.7 1.9.2.6.1 1.8.3h.6l1.9.2.6.1 1.8.4.6.1 1.9.1.6.1 1.8.4.6.1h1.3l.6.1.4.1.2.2.1.2v.8l-.2.6-.3.7-.1.6v2.2l-.2 1.3-.1.5-.2.4-.4.3-1.5 1-.5.3-1.6.8-.5.3-1.5 1-.5.3-1.5.9-.4.3-.2.3v.4l.1.3.3.4 1.3 1.2.4.4 1.2 1.3.4.4 1.2 1.4.4.4 1 1.1.3.3.2.3.1.4-.1.4-.4 1.8-.3 1.6-.1.6-.1 1.1-.1.6-.1.4-.1.2-.2.2h-.3l-.4-.1-1.6-.4-.6-.1-1.9-.2-.6-.1-1.8-.3-.6-.1-1.9-.2-.6-.1-1.9-.1-.6-.1-1.8-.4-.6-.1-1.9-.1-.6-.1-1.8-.4-.6-.1zm-7.7 24.1l-.5-.2-1.8-.7-.3-.1-.2-.2-.1-.2 1.3-4.4.2-.5.7-1.7.1-.5.4-1.8.1-.5.8-2.3.7-1.7.2-.5.8-2.9.4-1.1.2-.4.2-.2h.3l.4.1.8.2.5.1.5.2.5.2 1.7.7.5.2 1.8.6.5.1 1.8.5.5.1 1.8.7 2.8 1 1.7.7.5.1 1.8.5.5.1.8.3 1 .4.5.2 1.7.7.5.2.2.2.1.2-.1.3-.1.5-.9 2.1-.7 2-.2.5-.8 2-.2.5-.5 2.1-.2.5-1.6 4.5-.2.6-.3 1.2-.3.8-.3.4-.2.1h-.3l-.5-.1-.9-.3-.8-.3-.6-.2-.8-.2-.5-.1-.5-.2-.4-.2-.2-.2-.1-.2.1-.4.1-.3.1-.5 1.1-3.1.2-.5.5-1.7.2-.5.7-1.7.6-1.5.2-.5.1-.3v-.4l-.1-.2-.2-.1-.3-.2-.8-.3-.5-.2-.6-.2-.4-.1h-.3l-.2.1-.2.3-.4 1-.3 1.1-1.1 3.2-1.1 3.8-.4 1-.2.3-.2.1h-.2l-.4-.1-.6-.1-.6-.2-1.1-.4-.8-.2-1-.4-.4-.2-.2-.2-.1-.3v-.4l.2-.7.7-1.4.2-.5.7-2.7.8-2.1.2-.5.6-1.3.2-.6.1-.4v-.2l-.2-.2-.5-.2-.8-.4-.5-.2-.7-.2-.3-.1h-.3l-.2.1-.2.4-.7 1.8-.2.5-.5 1.9-.9 2.3-.2.5-.7 2.4-.2.5-.2.5-.5 1.2-.2.2-.2.1-.4-.1zm2 32.5l-.5-.3-4.6-2.5-1.8-.9-.5-.3-4.1-2.2-.5-.3-.2-.2-.5-.3-1.4-.9-1.8-.9-.4-.3-.3-.3-.2-.4v-.4l.1-.3.2-.4.8-1.6.2-.5.4-.8.3-.5.3-.4.4-.3.5-.2.6-.1h1.2l.6-.1 2.2-.4.5-.1 2.1-.4.6-.1 2.2-.2.5-.1 2.1-.4.5-.1 2.1-.3.4-.1v-.3l-.3-.3-1.5-.9-.5-.3-1.6-.8-.5-.3-1.8-.9-.5-.3-1.7-1-.5-.2-1.3-.5-.5-.2-.4-.3-.1-.3.1-.2.1-.4.1-.3.3-.5.8-1.4.3-.5.6-1.3.3-.5.3-.4.2-.3.3-.2h.3l.3.1.2.1.5.3 1 .6.5.3 1.7.8.5.3 3.7 2.1.5.3 1.6 1 .5.3 2.1 1.2 1.7.8.5.3 1.6 1 .5.2 1.7.8.5.2.7.4.4.3.4.3.3.2.2.2v.2l-.1.4-.4 1-.6.9-1.3 2.3-.2.4-.2.1h-.4l-2.1.5-.5.1-2.1.3-.5.1-2.1.3-.5.1-2.2.3-.5.1-2.1.4-.5.1-2.2.3-.4.1-.2.2v.3l.3.2 1.4.5.5.2 1.3.8.5.3 2 .9.5.3 1.8 1.1.5.2 1.2.5.8.4.4.3.2.3v.3l-.1.4-.1.3-.3.5-.9 1.3-.3.5-.5 1.1-.3.4-.4.7-.2.3-.2.2-.3.1-.5-.2-.3-.1-.5-.3-.9-.6-.5-.3zm-14.8 24.2l-.4-.4-.9-.6-.4-.4-.2-.2-.3-.3-.1-.2v-.3l.2-.4.3-.4.7-.8.4-.4.9-1.3.3-.4.6-.6.3-.4.1-.2.1-.3-.1-.2-.3-.3-1.5-1.4-.4-.4-1.7-1.2-.4-.4-1.6-1.4-.4-.4-1.7-1.2-2.5-2-1.6-1.3-.4-.3-1.4-.8-.5-.3-.3-.3v-.2l.2-.4.4-.5.6-.6.4-.4.9-1.3.4-.4 1.1-1.2.3-.3.2-.1.3.2.5.4 1.1 1 .4.4 2.1 1.6 1.6 1.3.4.3 1.6 1.3.4.3 1.7 1.2.5.3 2.1 1.7 1.7 1.2.4.3.3.1.3-.2.3-.4.6-.9.4-.5.6-.7.4-.5.3-.5.5-.7.3-.4.2-.2.3-.3.2-.1h.3l.3.2.2.2.5.3.8.7.4.3 1.1.7.4.4.3.4.1.3v.2l-.2.3-.5.6-.9 1-.3.4-.8 1.4-.3.4-1.4 1.5-.3.4-1.5 2.2-1.3 1.6-.3.4-1.6 2.1-1.6 2-.7 1-.4.4-.2.2-.3.3-.3.1h-.3l-.4-.2-.2-.2-.4-.3z" fill="#000"/><g fill="#FFF"><path d="M230.6 120.9c-3.6 4.9-1.7 10-.9 11.1 5.3 7.6 11.9 18.5 17.3 26 1.9 2.7 4 5.2 5.7 8 1.8 3 3.4 7.2 5.4 9.1 4.2 3.4 5.2 8.7 9.1 11.9"/><path d="M230.6 120.9c-1.3 2.3-1.7 5-1.3 7.4.2 1.2.7 2.4 1.3 3.2l2.4 3.2c1.6 2.1 3.1 4.3 4.6 6.5l4.5 6.5 4.4 6.5c1.5 2.2 3 4.3 4.6 6.4.8 1.1 1.6 2.2 2.3 3.4.7 1.1 1.4 2.4 2 3.6l1.7 3.6c.6 1.1 1.2 2.2 1.9 3l-.1-.1c2.1 1.9 3.4 4.3 4.4 6.6 1.1 2.3 2.1 4.5 3.8 6.4-2.2-1.4-3.8-3.6-5.2-5.6-1.4-2.1-2.9-4-4.7-5.3l-.1-.1c-1.2-1.1-2-2.3-2.7-3.4-.7-1.2-1.4-2.3-2-3.5-.6-1.1-1.3-2.2-2-3.2s-1.5-2-2.3-3.1c-1.6-2.1-3.3-4.3-4.8-6.4-1.5-2.2-2.9-4.4-4.4-6.7-1.4-2.2-2.8-4.5-4.2-6.8l-4-6.8-2-3.4c-.8-1.5-1-2.9-1.1-4.3 0-2.9 1.2-5.7 3-7.6z"/></g><g fill="#FFF"><path d="M267.2 187.1l.1.1c1.4 1.1 3.4 7 5.9 5.3 2.2-1.5-.2-4.8-.8-7.3l-8.7-35.1c-4.4-.4-5.2.4-6.8.9-.2-.4-.6-1.1-.8-1.5 2.7-2.1 4.5-1.5 6.7-2.6-.4-1.5-.8-2.9-1.3-4.6-3-.3-5.6.8-8.9 2.7-.2-1-1.7-2.2-1.3-2.7 1-1.2 4.7-1.5 5.9-1.7 3.7-.6 3.8-2.2 2.6-4.9-.3-.6-.3-1.4-.5-2.4-4.3 1.2-8.1 1.6-12.5 4.5.1-.8-1.5-2.7-.7-3.3 1.9-1.7 6.7-2.7 13.1-3.9-.1-.9-.1-1.3-.2-2.4-.2-1.3-.9-3.5-1.2-4.7-1.5-5.8-4.3-10.4-11.1-10.3 0 0-.1 0-.4.1h-2.9c-5 .7-8 2.4-10.7 5l-1.9 2.7"/><path d="M267.2 187.1c.9.7 1.4 1.7 2.1 2.6.6.9 1.3 1.8 2.1 2.4.4.3.8.4 1.2.2.4-.2.8-.6.9-.9.3-.8-.1-1.8-.5-2.8-.4-1-.9-2-1.3-3.1l-.9-3.2c-.6-2.1-1.2-4.2-1.8-6.4l-3.5-12.7-3.4-12.7 1.5 1.3c-1.1-.1-2.2-.1-3.1 0-.5.1-.9.2-1.3.3-.4.2-1 .4-1.7.6l-1.4.4-.8-1.4-.9-1.5-.7-1.2 1.2-1c1.1-.9 2.5-1.6 3.9-2 1.4-.3 2.3-.5 3-.9l-.9 2.2-1.3-4.6 1.6 1.4c-2.5-.3-5.1 1-7.8 2.5l-2.8-1.3c.1.2 0-.1-.2-.4-.2-.3-.5-.6-.8-1.2-.1-.3-.5-.8-.3-2 .1-.5.8-1.3.7-1.1l.3-.3c.8-.6 1.1-.7 1.7-.9.9-.3 1.8-.5 2.6-.6l2.3-.3.6-.1.4-.1c.2-.1.5-.2.6-.2.1-.1.1-.1.1 0v-.1c0-.2-.1-.4-.2-.7-.1-.3-.2-.6-.4-1-.5-1.3-.4-2-.5-2.7l2.4 1.5c-2.2.6-4.4 1.1-6.4 1.7-2 .6-3.9 1.4-5.6 2.5l-2.8-1.7c0 .6 0 .2-.1-.1l-.5-1.1c-.1-.5-.5-.9-.2-2.3.1-.4.4-.7.6-1l.3-.2c.1-.1.3-.2.6-.4.5-.3.8-.4 1.2-.6.4-.2.8-.3 1.1-.5.7-.3 1.5-.5 2.2-.7 2.9-.8 5.8-1.2 8.6-1.6l-1.2 1.7c-.1-.6-.1-1.2-.1-1.6 0-.5-.1-.8-.2-1.3l-.7-2.9-.3-1.4c-.1-.5-.2-1-.4-1.4-.3-.9-.6-1.8-1-2.6-.8-1.7-1.8-3.2-3.3-4.1-1.4-1-3.3-1.4-5.1-1.5h.1l-.4.1h-.1l-2.9-.1h.1c-1.9.2-3.9.6-5.7 1.3-1.8.7-3.5 1.8-5 3.1l-2.1 2.6 1.8-2.8c1.4-1.5 3-2.8 4.8-3.7 1.8-.9 3.8-1.5 5.9-1.9h.1l2.9-.1h-.2l.4-.1h.1c2.1-.1 4.3.2 6.3 1.4 1.9 1.1 3.4 2.9 4.3 4.8.5 1 .9 1.9 1.2 2.9.2.5.3 1 .5 1.5l.4 1.5.8 2.9c.1.4.3 1.1.3 1.7.1.6.1 1 .2 1.4l.3 1.4-1.5.3c-2.8.6-5.6 1.2-8.3 2-.7.2-1.3.4-1.9.6-.3.1-.6.2-.9.4-.3.1-.6.3-.7.4-.1 0-.2.1-.3.2l-.1.1c.2-.1.3-.3.4-.5.1-.7 0-.4.2-.2l.4.9c.1.4.5.7.4 2l-2.8-1.7c2-1.4 4.2-2.4 6.5-3.1 2.3-.7 4.4-1.1 6.5-1.8l2-.6.4 2.1c.2.9.3 1.8.3 1.9.1.3.3.8.5 1.2.2.5.3 1 .4 1.6.1.6 0 1.4-.3 2.2-.3.8-1 1.4-1.5 1.7-.6.4-1.1.5-1.6.7l-.8.2-.6.1-2.4.3c-.7.1-1.4.3-2 .5-.2.1-.6.3-.5.2l-.1.1c-.2.3.4-.3.4-.7.1-.8-.1-.9 0-.9 0 .1.3.4.5.8s.6.8.9 1.7l-2.8-1.3c1.4-.8 2.9-1.5 4.6-2.1 1.7-.6 3.6-.9 5.5-.7l1.3.1.3 1.2 1.3 4.6.4 1.5-1.4.7c-1.4.8-2.9.9-3.9 1.1-1 .2-1.7.6-2.5 1.2l.5-2.2.8 1.5-2.1-.9c.4-.1.9-.3 1.6-.6.7-.2 1.4-.4 2.1-.4 1.4-.1 2.6 0 3.9.1l1.2.1.3 1.2 2.9 12.9 2.8 12.9c.5 2.1 1 4.3 1.4 6.5l.7 3.2c.2 1 .7 2 1 3.1.3 1.1.8 2.3.2 3.6-.3.7-.8 1.1-1.5 1.3-.7.2-1.4-.1-1.9-.5-.9-.8-1.4-1.8-2-2.7-.5-1.1-.9-2.2-1.7-2.9z"/></g><path d="M258.5 127.6c.2.9.3 1.9.4 2.6.1.9.1 1.4.2 1.8v1.7c.1.9.2 1.6.4 1.9.2.4.7 1.6.8 2.1.1.5.4 2.6.5 3.1.1.5.5 1.5.5 1.5l2.3 7.8-.9 2.4-10.2-.5-8.2-15.4-1.1-4.3 6.5-2.9 8.8-1.8zm-12.4-14.4c1.8-4.2.2-15.6-1.5-16-.9-.2-2.3 8.1-4.1 8.1-1.4 0-4-9-5.3-8.5-1.4.5.1 7.9-1.3 8.4-1.7.6-7.3-7.7-9.6-6.9-.6 2.7 4 11.4 3 12.4-1.1 1.2-9.1-.4-10-.3.2 1 .9 2.5 1.4 3.2 3.2 5.1 7.9 7.5 12 7.2l1.3.2 1.3-.8.4-1.4-1.1-.7c-2.2 2.1-10-1.5-12.2-5.8 3.4.7 7.2.8 10.7 1.4l-4.7-12.7s6.8 7 9.4 9.6c.9.9.1-10.5.1-10.5.2.2 4.5 10.1 4.9 10.2.3.1 3.9-9.3 3.9-9.3s.7 11.8-1.4 12.1l-.7 2.9 1.8.8 1.3-1.1.4-2.5z" fill="#FFF"/><path d="M243.2 113.2c-8.3 1.2-12.6 7.7-12.6 7.7-3.6 4.9-1.7 10-.9 11.1 5.3 7.6 11.9 18.5 17.3 26 1.9 2.7 4 5.2 5.7 8 1.8 3 3.4 7.2 5.4 9.1 4.2 3.4 5.2 8.8 9.2 12 1.4 1.1 3.4 7 5.9 5.3 2.2-1.5-.2-4.8-.8-7.3l-8.7-35.1c-4.4-.4-5.2.4-6.8.9-.2-.4-.6-1.1-.8-1.5 2.7-2.1 4.5-1.5 6.7-2.6-.4-1.5-.8-2.9-1.3-4.6-3-.3-5.6.8-8.9 2.7-.2-1-1.7-2.2-1.3-2.7 1-1.2 4.7-1.5 5.9-1.7 3.7-.6 3.8-2.2 2.6-4.9-.3-.6-.3-1.4-.5-2.4-4.3 1.2-8.1 1.6-12.5 4.5.1-.8-1.5-2.7-.7-3.3 1.9-1.7 6.7-2.7 13.1-3.9-.1-.9-.1-1.3-.2-2.4-.2-1.3-.9-3.5-1.2-4.7-1.5-5.8-4.3-10.4-11.1-10.3l-3.5.1z" fill="#D4451D"/><path d="M46 266.9l.5-.3.5-.3.5-.3.7-.3.5-.2.7-.2.5-.1.8-.1h.6l.6.1.6.1.8.3.5.2.6.2.5.2.7.5.9.6.4.4.7.6.4.4.5.6.3.4.5.6 1.1 1.3.5.6.3.4.4.7.3.5.3.5.2.5.3.8.1.5.1.6.1.5.1.5.1 1.4v2l-.1.5-.1.4-.4.1h-.7l-1.3-.2h-.5l-1.1.1h-1l-.4-.2-.2-.3v-.5l-.1-1.4-.1-.6-.1-.5-.2-.9-.2-.5-.2-.6-.3-.5-.5-.7-.3-.5-1.5-1.6-.4-.4-.2-.2-.5-.3-.5-.2-.5-.1h-.3l-.5.2-.4.4-.2.2-.2.5-.1.3v.6l.1.3.2.5.3.6.3.5 1.8 2.8.5 1 .2.5.3.8.2.5.1.6.3 1.3v.6l.1.6v1.4l-.2.5-.2.6-.3.5-.4.7-.3.4-.5.6-.8.8-.5.3-.7.5-.5.2-.4.2-.5.2-.8.2-.5.1h-1l-.8-.1-.6-.1-.5-.2-.5-.2-.7-.3-1-.6-.5-.3-.6-.5-.4-.4-.8-.7-.6-.5-.4-.4-.4-.4-.4-.4-.6-.9-.3-.5-.1-.2-.3-.5-.6-1.1-.3-.6-.2-.6-.2-.6-.2-.6-.1-.6-.2-.5-.1-.8-.1-.5v-.6l.1-.4.3-.2.4-.1.8-.1h3.3l.5.1.3.2.1.2.1.4.1.6.2.5.1.3.2.5.1.3.3.6.4.7.3.5.5.8.6.7.4.4.5.4.5.3.2.1.5.1h.3l.5-.1.5-.3.3-.4.2-.5v-.5l-.1-.5-.1-.3-.2-.5-.5-.8-.7-1-.3-.5-.5-1.1-.4-1.1-.4-.7-.2-.5-.3-1-.2-.7-.1-.5-.1-.6-.1-.5v-1.3l.1-.6.1-.5.2-.7.2-.5.3-.5.3-.4.5-.6.4-.4zm-11.7-30.5l.5-.3.9-.6.5-.3.3-.1.4-.1h.3l.3.1.2.3.3.5.3.5.6 1.3.2.5.4.8.3.6.4 1.2.1.3-.1.2-.3.2-.4.3-.5.3-1.1.5-2.9 1.5-1.9 1.1-.5.3-2 .9-2.4 1.3-.3.3v.3l.1.2.4.1.6.1 2.2.5 3.3.7 2.2.4.4.1.2.2.1.2.1.4.1.4-.1.5-1.1 2.5-.9 2-.2.5-1 2.6-.2.6.2.2.4-.1 2-.9.5-.3 1.9-1.2.5-.3 1.9-1.1.5-.3 2-1 .5-.2.9-.5.5-.2.5-.2.4-.1h.3l.2.2.5.8.3.5.5 1.3.3.5.9 1.4.4.7.1.4-.1.3-.2.2-.3.2-.7.4-1 .4-4.8 2.5-1.6.9-.5.3-1.7.8-.5.3-1.6 1-.5.3-1.7.8-.5.2-1.6 1-.5.2-1.7.7-.5.3-1.1.7-.5.3-.4.2H28l-.3-.1-.2-.2-.2-.4-.2-.6-.2-.8-.3-.5-.6-.9-.3-.5-.3-.5-.6-1.2-.2-.4v-.4l.2-.5.6-1.7.2-.5.8-1.6.2-.5.7-1.7.3-.5.7-1.6.2-.5v-.4l-.2-.3-.3-.2-.5-.1-1.7-.3-.6-.1-1.7-.4-.6-.1-1.8-.5-.6-.1-1.4-.3-.5-.1-.4-.1-.3-.2-.2-.4-.8-1.7-.7-1.5-.3-.5-.6-.9-.2-.5-.1-.4-.1-.2.1-.3.2-.2.4-.2 1.5-.6.5-.2 1.6-.9.5-.3 1.7-.8.5-.3 1.6-.9.5-.3 1.6-1 .5-.3 1.7-.7.5-.3 1.6-1 .5-.3 1.7-.7.5-.3zM27 204.8l.4-.2.4.1.3.3.2.4.1.5.2.8.1.5.4 1.5.7 2.1v.5l-.2.3-.3.3-2.6 1.9-.3.3v.3l.1.4.4 2.1.2.5.7 2.6.5 2 .1.5.2.5.4 1.6.2.4.2.2.5.1 2.5.1h.6l.5.2.3.5.2.5.5 2 .2.5.7 2.1.2.4-.1.5-.3.4-.5.1h-.9l-1.2-.2-.6-.1-2.1-.3-.5-.1-2.2-.3-.6-.1-2.1-.3-.6-.1-2.2-.4-.5-.1-3.1-.4-2.3-.4-.6-.1-1.7-.3-.6-.1-1.7-.2-.6-.1-1.6-.2-.4-.1-.3-.3-.2-.5-.5-1.5-.7-2.6-.4-1.6-.1-.6.2-.5.4-.3 1.2-.9.5-.3 1.4-1.3.4-.3 1.5-1.2.4-.3 1.6-1.1.4-.3 1.4-1.2.4-.3 1.5-1.2.4-.3 1.5-1.2.4-.3 1.8-1.6 1.4-1.3.4-.4 1.9-1.5 1.5-1zm-6.3 14.1l-.4.3-2.1 1.4-.5.3-1.8 1.2-.4.3-.1.4v.5l.2.3.4.2 2.6.3.6.1 2.5.2h.5l.4-.2.1-.4-.1-.5-.6-2.1-.3-1.6-.3-.4-.3-.2-.4-.1zm4.8-40.6l.2.4.2 2.5.1 1.9v.6l.2 1.6v.5l-.1.3-.3.3-1.5 1.3-.3.3-1.4 1.3-.4.4-1.5 1.1-.4.4-1.4 1.3-.3.3-.1.2v1.5l.1.5.2.3.5.1 1.9-.1.6-.1 2-.3.6-.1.8-.1h1.6l.2.2.1.4.1.6v1.7l.2 1.6v2.6l-.1.2-.3.1-.5.1-.5.1h-3.4l-.6.1-1.9.3-.6.1-1.9.2-.6.1-1.9.1h-.6l-1.9.3-.6.1-1.9.1h-.6l-1.9.1H7l-1.9.2h-.6l-1.2.2h-.7l-.5-.1-.3-.2-.1-.4-.1-.3-.1-.5-.1-1.6-.2-4.2-.4-2.4-.1-.6-.1-2.3-.1-1.3v-.6l.1-.5.1-.8.1-.5.2-.5.2-.6.2-.5.2-.5.4-.7.3-.4.3-.4.4-.4.7-.6.4-.4.6-.5.5-.3.5-.3.5-.2.6-.2.6-.1.8-.1.6-.1H10l.6.1.6.1.5.2.5.2.6.3.5.3.4.3.4.3.6.5.4.4.4.7.3.4.3.4.1.4.1.3.3-.2 1.7-1.4.4-.4 1.6-1.4.4-.4 1.6-1.4.4-.4 1.2-1.2.4-.3.4-.2.8-.4zm-12.8 11.1l-.2-.4-.3-.4-.5-.3-.5-.2-.6-.1H10l-.6.1-.6.1-.5.2-.5.3-.4.4-.3.4-.2.5-.1.8v.6l.1 1.8v.6l.3 1.8.1.4.1.2.2.2H8l.8-.1.6-.1.6-.1.6-.1 1.9-.1.4-.1.2-.1.1-.3v-2.8l-.3-2.3-.2-.9zm-8.3-34.2l.5.1H6l.6.1.3.1.4.1.2.1.2.2v1l-.2 1.1-.1.6v2.2l-.1.9v.7l.1.4.2.2.5.1 2.1.3h2.7l.6.1 2.1.3.6.1 2.1.1 3.2.2 2.1.2h.5l1.6-.1h.6l.4.1.2.2v.5l-.1.7-.2.9-.1.6v2.2l-.2 1.6-.1.4-.1.2h-1l-1.5-.2-.6-.1-2.6-.2-2.1-.2h-.6l-2.1-.2h-3.3l-2.7-.2-2.1-.1H7l-.3.1-.1.3v2.2l-.1.9-.1.6v1.9l-.1.3-.1.4-.2.2-.2.1H4.6l-1.1-.1H1.7l-.6-.1-.5-.1-.2-.2-.1-.2v-.4l.1-.8.2-1.3V171l.3-2.1v-3.2l.2-2v-.6l.1-2.6.2-2.6v-1.2l.1-.6.1-.3.1-.4.2-.2.3-.2h1.1zm24.2-21.9l.5.2 1.8.6.3.1.2.2.1.2-.9 4.5-.1.6-.5 1.8-.1.6-.3 1.8-.1.6-.5 2.4-.5 1.8-.1.6-.5 3-.3 1.2-.2.4-.2.2h-.7l-.8-.1-.6-.1-.5-.1-.5-.1-1.8-.5-.6-.1-1.8-.4-.6-.1-1.8-.3-.6-.1-1.8-.5-2.9-.7-1.8-.5-.6-.1-1.8-.3-.6-.1-.8-.2-1-.3-.5-.1-1.8-.5-.5-.1-.3-.2-.1-.2v-.8l.6-2.2.4-2.1.1-.6.6-2 .1-.6.3-2.1.1-.6 1.1-4.7.1-.6.2-1.2.2-.9.2-.5.2-.2h.8l.9.2.8.3.6.1.9.2.5.1.5.1.4.2.2.2.1.2v.4l-.1.3-.1.6-.8 3.2-.1.6-.3 1.8-.1.6-.5 1.8-.5 1.5-.1.5v.7l.1.2.2.1.4.2.8.3.6.1.6.1.4.1h.3l.2-.1.2-.4.3-1.1.2-1.1.7-3.3.7-3.9.3-1.1.2-.4.2-.2.2-.1.4.1.6.1.6.1 1.1.3.8.1 1 .3.4.2.2.2.1.3v.4l-.2.7-.5 1.5-.2.5-.4 2.8-.6 2.2-.1.6-.4 1.4-.1.6-.1.4.1.2.2.2.5.2.8.3.5.2.8.2h.7l.2-.1.1-.4.5-1.9.1-.6.3-1.9.7-2.4.1-.5.4-2.5.1-.5.2-.5.4-1.2.1-.2.2-.1.4.1zM41.3 109v.5l-.9 2.3-.8 1.8-.2.5-.5 1.5-.2.4-.3.2-.4.2-1.9.4-.5.1-1.8.5-.5.1-1.9.3-.5.1-1.8.5-.4.1-.2.2-.2.4-.5 1-.1.4.1.3.4.3 1.8.8.5.2 1.9.6.5.2.8.3.5.2.5.2.4.2.1.2v.4l-.2.5-.7 1.5-.5 1.5-.2.5-.7 1.5-.2.4-.2.1-.4-.1-.5-.2-.5-.2-.8-.4-.5-.2-1.7-.8-.5-.2-1.8-.6-.5-.2-1.7-.7-.5-.2-1.7-.8-.5-.2-1.8-.6-.5-.2-1.7-.8H16l-1.7-.8-.5-.2-1.8-.7-.5-.2-1.1-.4-.5-.2-.2-.1-.4-.3-.2-.3.1-.4.1-.3.2-.5.7-1.4 1.7-3.8.8-2.3.2-.5 1-2.1.5-1.2.3-.5.3-.4.5-.6.4-.4.4-.4.4-.4.4-.4.4-.3.7-.4.4-.2.5-.2.5-.2.8-.2.5-.1.8-.1h1.2l.6.1.6.1.5.2.7.2.5.2.5.2.5.3.5.3.5.3.4.4.4.4.4.5.3.5.3.5.2.4.3.7.1.5.1.8.1.5.1.5-.1.5v.3h.3l2.1-.5.5-.1 2.1-.5.5-.2 2.1-.5.5-.2 1.6-.5.5-.1h.4l.3-.3zm-16.4 4v-.5l-.1-.5-.3-.5-.4-.4-.5-.3-.5-.2-.6-.2-.6-.2-.5-.1h-.6l-.5.1-.4.2-.4.4-.5.7-.3.5-.7 1.6-.2.5-.6 1.7-.1.4v.3l.1.3.3.2.8.3.5.1.6.2.6.2 1.8.8.4.1h.2l.2-.2.2-.4.8-1.6.2-.5.7-2.2.4-.8zm34.9-34.5l.4.4.3.2.3.3.1.3-.1.3-.2.3-.2.2-.3.4-2.5 3L56 86l-1.7 2.7-1.3 1.6-1.6 2.1-.9 1.4-.3.4-.3.4-.3.3-.3.1H49l-.4-.2-.5-.3-1-.9-.4-.3-1.6-1-.5-.3-1.5-1.2-.5-.3-3.4-2.6-.5-.3-3.5-2.4-.5-.3-1.5-1.1-2.4-1.8-.9-.6-.4-.3-.2-.2-.3-.4-.1-.2.1-.3.2-.4.2-.2.3-.4 1.1-1.3.3-.5 1.5-2 .2-.3.3-.1h.3l2.5 1.8 1.7 1.2.5.3 1.6 1.3.5.3 1.7 1.2.5.3 1.7 1.1.5.3 3.6 2.9.3.2.2.1h.2l.2-.1.3-.3.8-.9.6-.9.3-.5 3-4.1.3-.5.6-1 .3-.5.3-.4.3-.3.3-.1.3.1.3.2 1.6 1.1.5.3zm9.7-25.3l.8.8.3.4.5.6.3.4.5.7.3.5.5.7.3.5.3.7.2.5.3.7.2.5.2.8.1.6v.6l-.1.6-.1.9-.1.5-.2.8-.2.5-.3.8-.3.5-.4.7-.3.5-.5.7-.3.4-.7.8-1.2 1.1-.6.5v.5l-1.5 1.2-.5.3-.2.2-.5.3-.3.1-.6.2-.8.3-.6.1-.6.1-1.2.1h-.5l-.7-.1-.5-.1-1-.3-.6-.1-.6-.2-.6-.2-.5-.2-.4-.3-.5-.3-.6-.4-.5-.4-.5-.4-.9-.8-.4-.4-1.4-1.6-.4-.4-1.6-1.5-.4-.4-1.4-1.6-2.3-2.3-.8-.7-.4-.4-.4-.4-.3-.5v-.4l.2-.4.8-.9 1-.9.4-.4.8-.8.4-.3.6-.5.4-.2h.4l.4.3.4.3.4.4.9 1 .4.4 1.6 1.5.4.4L55 62l.4.4 1.4 1.6.4.4 1.5 1.6.4.4.7.6.5.3.7.4.5.2.8.3.5.1h.8l.5-.1.7-.3.5-.3.7-.6.4-.4.5-.8.3-.5.3-.7.1-.5.1-.7v-.5l-.2-.8-.2-.5-.3-.5-.3-.5-.6-.8-.4-.4-1.6-1.4-.4-.4-1.5-1.6-.4-.4-1.5-1.6-.4-.4-1.6-1.5-.4-.4-1.1-1-.6-.6-.2-.4v-.4l.2-.4.5-.5 1.4-1.2.4-.4.9-1.1.4-.4.4-.3.4-.2h.4l.3.3.8.7.4.4.5.6.4.4 1.6 1.5.4.4 1.5 1.6.4.4 1.4 1.6zm20-23.6l.3.5 2.9 4.3 1.2 1.6.3.5 2.7 3.8.3.5.1.3.3.5.9 1.5 1.2 1.7.2.4.1.4v.5l-.2.4-.2.3-.4.3-1.4 1.1-.4.3-.7.5-.5.3-.4.2-.4.1h-.5l-.5-.2-1-.5-.5-.2-2.1-.7-.5-.2-2.1-.6-.5-.2-2.1-.8-.5-.2-2.1-.6-.5-.2-2.1-.7-.4-.1-.1.2.2.4.9 1.5.3.5 1 1.4.3.5 1.1 1.6.3.5 1 1.7.3.4 1 1 .3.4.2.4-.1.3-.2.2-.3.3-.2.2-.5.4-1.4.9-.5.3-1.2.9-.5.3-.5.3-.4.2h-.3l-.3-.1-.3-.3-.2-.2-.3-.4-.6-1-.3-.5-1.1-1.5-.3-.5-2.4-3.6-.3-.5-1-1.6-.3-.5-1.4-2-1.2-1.5-.3-.5-.9-1.6-.3-.4L68 41l-.3-.4-.5-.7-.3-.5-.2-.5-.2-.4-.1-.3.1-.2.3-.3.8-.7.9-.5 2.2-1.5.4-.2h.2l.4.1 2.1.5.5.2 2 .7.5.2 2.1.7.5.2 2 .7.5.2 2.1.6.5.1 2 .7h.4l.3-.1.1-.3-.2-.3-1-1.1-.3-.4-.8-1.3-.3-.5-1.3-1.7-.3-.5-1.1-1.9-.3-.4-.8-1-.5-.7-.2-.4v-.3l.1-.3.3-.3.3-.2.5-.4 1.4-.8.5-.3.9-.7.5-.3.7-.4.4-.2.3-.1.3.1.3.4.2.2.4.5.6.9.3.5zm34.2 2.1l-.1.4-.3.8-.3.5-.4.7-.3.4-.5.6-.3.4-.6.7-.4.4-.5.4-.5.3-.7.5-1.1.6-.6.3-.8.4-1.7.8-.6.2-.6.2-.6.1-.6.1-.6.1-1.6.3-.8.1h-.5l-.8-.1-.5-.1-.5-.1-.6-.1-1.2-.3-.6-.2-.5-.3-.6-.3-.5-.3-.5-.3-.4-.3-.6-.5-1.1-1.1-.5-.5-.8-.8V35l-.4-.7-.2-.5-.2-.5-.2-.5-.4-1.1-.2-.5-.1-.5-.2-.8-.1-.5-.1-.6v-.5l-.1-.7v-1.8l.1-.6.1-.6.1-.6.2-.6.2-.6.2-.5.3-.5.2-.5.7-1.2.3-.4.3-.5.8-.9.5-.4.4-.4 1-.7.5-.3.5-.3 1-.5.7-.4.5-.2.7-.3 1.3-.4.5-.1.8-.2 1.3-.2h.5l.9.1.6.1 1.1.2 1.3.3.5.1.3.1.3.1.2.2.1.3-.1.3-.1.5-.2.5-.2.5-.2.4-.2.5-.3.9-.2.5-.1.2-.2.4-.2.2-.2.1h-.7l-.8-.2h-1.9l-.8.1-.5.1-.8.3-.5.2-.7.4-.5.4-.6.5-.4.4-.3.3-.5.6-.3.5-.1.3-.2.6-.1.6v1.7l.1.6.2.6.2.5.4 1 .2.5.4.8.2.5.5.7.4.4.5.4.5.4.8.5.5.2.8.2.5.1h1.4l.8-.1.6-.1.8-.3.7-.3.4-.3.2-.2.4-.4.7-.7.4-.5.4-.4.3-.4.4-.7.3-.5.2-.4.2-.2.3-.1.5.1.5.2.2.1.5.2.8.4.5.2 1.3.6.5.3.2.1.3.2zm25.2-6.8l.2.5.3.8.2.5.1.5-.1.5-.2.3-.4.1-.5.2-1.9.4-.5.1-1.8.6-.5.1h-.5l-.3-.2-.2-.5-.7-2.2-.2-.5-.5-2.2-.1-.5-.6-2.2-.1-.5-.2-.2h-.4l-.8.2-1.3.4-.5.2-2.7.6-1.9.4-.4.1-.3.2-.1.4.1.5.6 2.2.1.5.5 2.2.2.5.5 1.4.2.8v.5l-.2.4-.4.2-.5.2-.5.1-1.5.2-.6.1-1.6.5-.6.1-.3.1h-.4l-.3-.1-.2-.1-.2-.4-.1-.3-.1-.5-.2-1-.7-2.9-.4-1.8-.1-.5-.4-1.8-.1-.5-.6-1.8-.1-.5-.5-1.8-.6-2.4-.1-.6-.4-1.8-.1-.6-.5-1.8-.2-.5-.5-1.1-.2-.7v-.4l.2-.3.4-.2.5-.2.5-.1 1.5-.3.5-.1 1.3-.4.5-.1.5-.1h.5l.3.2.2.4.1.2.1.5.3 1.6.1.6.5 2.2.7 2.8.1.4.2.2.2.1.4-.1.5-.1.5-.1 1.2-.5.5-.2 2.2-.5 2-.4.5-.1.2-.1.3-.3.1-.3-.1-.4-.4-2.3-.1-.5-.6-2.2-.1-.5-.6-2.2v-.6l.3-.6.4-.2.5-.1 1.9-.4.5-.1 1.5-.5.6-.1.3-.1h.5l.3.2.3.4.1.5.2 1.4.1.6.6 1.8.1.5.4 1.8.1.5.6 1.8.1.5.3 1.8.1.5.4 1.8.1.5.5 1.8.1.5.4 1.8zm28.3.5l-.4.2-2.5.2-1.9.1h-.6l-1.6.2h-.5l-.3-.1-.3-.3-1.2-1.5-.3-.4-1.2-1.4-.4-.4-1.1-1.5-.3-.4-1.2-1.4-.3-.3-.2-.1h-1.5l-.5.1-.3.2-.1.5.1 1.9.1.6.3 2 .1.6.1.8v1.6l-.2.2-.4.1h-2.3l-1.6.2h-2.6l-.2-.1-.1-.3-.1-.5-.1-.5v-4l-.2-1.9-.1-.6-.2-1.9v-3.1l-.2-1.9V9.2l-.1-1.9v-.6l-.2-1.9v-.6l-.2-1.2v-.7l.1-.5.2-.3.4-.1.3-.1.5-.1h1.6l4.2-.2 2.4-.3h2.9l1.3-.1h.6l.5.1.8.2.5.1.5.2.6.2.5.2.5.2.7.4.4.3.4.3.4.4.5.7.3.4.5.6.3.5.3.5.2.6.1.6.1.6.1.8v1.8l-.1.6-.1.6-.2.5-.2.5-.3.6-.3.5-.3.4-.3.4-.5.6-.4.3-.7.4-.4.3-.4.3-.4.1-.3.1.2.3 1.4 1.7.3.4 1.4 1.6.4.4 1.4 1.7.4.4 1.2 1.2.3.4.2.4-.2.4zm-10.8-12.9l.4-.2.4-.3.3-.4.2-.5.1-.6v-.6l-.1-.6-.1-.6-.2-.5-.3-.5-.3-.4-.4-.3-.5-.2-.8-.1h-.6l-1.8.1h-.6l-1.8.2-.4.1-.2.1-.2.2v.4l.1.8.1.6.1.6.1.6.1 1.9.1.4.1.2.3.1h2.8l2.3-.3.8-.2zm40.9 2.8l-.1.6-.2.8-.1.5-.3 1-.2.8-.1.5-.2.6-.2.5-.4.7-.3.5-1.1 1.5-.4.4-.4.4-.4.3-.6.5-.4.3-.5.3-.5.3-.7.4-.5.2-.6.2-.5.2-.7.2-.5.1-1.2.2-.6.1-.6.1-.6.1h-1.2l-1.9-.2-1.2-.2-1.1-.2-.5-.2-.5-.2-1.8-.8-.5-.2-.6-.3-1.1-.6-.5-.3-.5-.4-.4-.4-.4-.4-.4-.5-.3-.5-.8-1-.3-.5-.3-.5-.2-.5-.2-.7-.4-1.6-.1-.8v-1.1l-.1-.5v-1.9l.1-.6.1-.6.1-.6.1-.6.2-.6.2-.6.2-.6.2-.5.3-.5.3-.8.3-.5.2-.3.3-.5.6-.7.4-.5.2-.3.5-.4.6-.4.5-.3.5-.3 1.1-.6.5-.2.5-.2.5-.2.8-.2.5-.1.5-.1.5-.1 1.4-.1h3.4l1 .2.8.1.6.1.6.2.6.2.6.2.5.2.5.2.5.2.7.4.5.3 1.1.8.4.4.4.4.5.6.3.4.3.4.3.5.4.7.2.5.2.5.2.5.3.7.2.5.2.6.1.5.1.8.1 1.1v1.2l.4.8zm-7.5-.1l.1-.6v-1.2l-.1-1.1-.1-.5-.3-.8-.2-.5-.4-.7-.3-.4-.5-.6-.4-.4-.9-.6-.5-.3-.5-.2-.5-.2-1.1-.2h-1.8l-.9.1-.6.2-.9.3-.5.3-.6.4-.4.4-.4.5-.3.4-.1.2-.4.7-.2.5-.1.2-.2.5-.1.5-.1.5-.1.5-.1.5v1.5l.1.5v.3l.1.5.1.3.2.5.1.3.3.5.2.3.4.5.6.7.5.4.5.3.5.3.7.3.5.2.9.2.6.1h1.5l.8-.1.5-.2.8-.4.5-.3.6-.5.4-.3.5-.5.4-.5.4-.7.3-.5.3-.8.1-.5.1-.8zm38.4 9.3l-.2.5-.3.8-.2.5-.5.9-.3.8-.2.5-.3.5-.3.5-.6.6-.4.4-1.4 1.2-.4.3-.5.3-.5.3-.7.4-.5.2-.5.2-.5.2-.7.2-.5.1-.6.1-.5.1-.8.1h-3.5l-.6-.1-.6-.1-1.8-.6-1.1-.4-1.1-.5-.4-.2-.5-.3-1.6-1.2-.5-.3-.5-.4-.9-.8-.4-.4-.4-.5-.3-.5-.3-.5-.3-.6-.2-.6-.6-1.2-.2-.5-.2-.5-.1-.5-.1-.8v-2.5l.1-.5.1-.6.1-.5.1-.8.1-.5.1-.6.2-.6.2-.6.2-.6.2-.6.3-.5.3-.5.4-.5.3-.5.4-.5.5-.7.4-.5.2-.3.4-.4.7-.6.5-.4.3-.2.5-.3.7-.3.5-.2.5-.2 1.2-.4.5-.1.6-.1.5-.1.8-.1h1.6l1.4.2.5.1 1.7.3 1.1.3 1 .4.8.3.5.2.5.3.5.3.5.3.5.3.5.3.5.3.6.5.4.3.9 1 .3.4.3.5.4.7.3.5.3.5.2.5.3.8.1.5.1.5.1.5.2.8.1.5.1.6v.5l-.1.8-.1 1.1-.1.6-.1.6-.2 1.3zm-7.3-1.7l.2-.6.1-.6.1-.5.1-1.1v-.5l-.1-.9-.1-.5-.3-.8-.2-.5-.3-.7-.3-.4-.7-.8-.4-.4-.5-.3-.5-.3-1.1-.4-.5-.1-.7-.2-.5-.1h-1.5l-.9.2-.6.2-.7.3-.5.3-.5.4-.4.4-.2.2-.5.6-.3.5-.2.2-.2.4-.2.4-.2.5-.2.5-.2.5-.1.5-.1.6-.1.3v1.6l.1.6.1.3.2.6.1.3.3.5.5.8.4.5.5.4.4.4.6.5.5.3.8.4.6.2.9.2.6.1.8.1.5-.1.9-.2.5-.2.7-.4.5-.3.6-.4.5-.4.6-.6.4-.4.4-.7.2-.5.1-.9zm32 25.9l-.2.5-.4 1-.2.5-.2.2-.2.3-.3.2-.3.1-.4-.1-.5-.2-.5-.3-1.2-.8-.5-.3-.8-.4-.5-.3-1.1-.8-.2-.2v-.2l.1-.3.2-.4.2-.5.6-1 1.6-2.9 1-2 .3-.5 1.2-1.8 1.3-2.4.1-.4-.1-.2-.2-.1-.4.2-.5.3-2.1.8-3.1 1.2-2.1.8-.4.1h-.3l-.2-.1-.3-.3-.3-.3-.2-.4-.5-2.7-.3-2.1-.1-.5-.6-2.7-.2-.6h-.2l-.2.3-1.2 1.9-.3.5-1 2-.3.5-1 2-.3.5-1.1 1.9-.3.5-.5.9-.3.5-.3.5-.3.4-.2.1-.2-.1-.9-.4-.5-.2-1.1-.8-.5-.2-1.5-.7-.7-.4-.3-.3-.1-.3.1-.2.1-.3.4-.7.6-.9 2.7-4.7.9-1.7.3-.5.9-1.6.2-.5.8-1.7.3-.5 1-1.6.3-.5.8-1.7.3-.5 1-1.6.3-.5.5-1.2.3-.5.3-.4.2-.1.3-.1.3.1.4.2.5.4.6.5.5.3 1 .4.6.2.5.2 1.1.7.4.2.3.3.1.5.4 1.8.1.6.2 1.8.1.6.3 1.8.1.6.3 1.7.1.5.2.3.3.2h.4l.4-.2 1.6-.7.5-.3 1.7-.6.5-.2 1.7-.6.5-.2 1.4-.5.5-.8.4-.1h.4l.4.3 1.6 1 1.4.8.5.3 1 .5.5.3.3.3.2.2.1.3-.1.3-.2.4-.9 1.3-.3.5-.9 1.7-.3.5-.9 1.6-.3.5-.9 1.6-.3.5-.8 1.7-.3.5-1 1.6-.3.5-.8 1.7-.3.5-1 1.6-.3.5zM286 61.6l-.4.4-.4.4-.4.4-.6.5-.5.3-.7.3-.5.2-.7.2-.5.1-.6.1h-.6l-.8-.1-.6-.1-.6-.1-.5-.1-.8-.3-1-.4-.5-.3-.8-.5-.4-.3-.6-.4-.4-.3-.6-.5-1.4-1-.6-.5-.4-.3-.6-.6-.4-.4-.4-.5-.3-.5-.4-.7-.2-.5-.2-.5-.2-.5-.2-.5-.4-1.3-.1-.5-.2-.8-.1-.5v-.9l.1-.2.3-.1h.2l.5-.1 1.3-.1.5-.1 1-.3.5-.1.5-.1.4.1.3.3.1.5.4 1.3.2.6.2.5.4.8.3.5.3.5.4.4.6.5.4.4 1.8 1.3.5.3.3.1.5.2.5.1h.5l.3-.1.5-.3.4-.5.1-.3.1-.6v-.3l-.1-.6-.1-.3-.3-.5-.4-.5-.4-.5-2.4-2.4-.7-.8-.3-.5-.4-.7-.3-.5-.2-.5-.5-1.2-.1-.5-.2-.6-.1-.5-.1-.8v-.6l.1-.6.2-.5.3-.7.3-.5.4-.7.7-.9.4-.4.6-.6.4-.3.4-.3.5-.3.8-.4.5-.2.5-.1.5-.1h1.4l.6.1.5.1.8.1 1.1.4.5.2.7.4.5.3.9.6.7.4.5.3.4.3.4.4.7.8.4.4.1.2.4.4.8.9.4.5.3.5.3.5.3.5.2.5.3.5.3.7.2.5.1.5v.4l-.2.3-.4.2-.7.3-.5.1-2.2.5-.6.1h-.5l-.3-.1-.2-.2-.2-.4-.2-.6-.3-.5-.1-.2-.3-.5-.2-.2-.4-.5-.5-.7-.4-.4-.7-.6-.7-.6-.5-.4-.5-.3-.5-.2-.2-.1h-.8l-.5.2-.4.4-.2.4-.1.5.1.5.2.4.1.2.3.4.6.6.9.8.4.5.7 1 .6 1 .5.7.3.4.5.9.3.7.2.5.2.5.2.5.2 1.3v1.2l-.1.8-.1.5-.1.6-.2.5-.4.7-.3.5zm24.9 39.1l-.4.3-.8.7-.4.3-.3.1-.3.2h-.3l-.3-.1-.3-.3-.3-.4-.3-.5-.7-1.2-.3-.5-.5-.7-.3-.5-.6-1.2-.1-.2.1-.2.3-.2.4-.3.4-.3 1-.6 2.7-1.9 1.8-1.3.5-.3 1.9-1.1 2.3-1.6.3-.3v-.3l-.1-.2h-1l-2.2-.3-3.3-.3-2.3-.2-.4-.1-.2-.1-.2-.2-.2-.4-.2-.4v-.5l.8-2.6.7-2.1.2-.5.7-2.7.1-.6-.2-.1-.4.2-1.9 1.2-.5.3-1.8 1.4-.5.3-1.8 1.3-.5.3-1.8 1.2-.4.3-1 .5-.5.3-.5.3-.4.2h-.3l-.2-.2-.6-.7-.3-.4-.7-1.2-.4-.4-1.1-1.3-.5-.7-.2-.4.1-.3.2-.2.3-.3.7-.5.9-.6 4.5-3.1 1.5-1.1.5-.3 1.6-1 .4-.3 1.5-1.2.5-.3 1.6-1 .5-.3 1.5-1.2.5-.3 1.6-.9.5-.3 1-.9.5-.3.4-.2h.3l.3.1.2.2.3.4.3.5.3.7.3.5.7.8.4.5.3.4.7 1.1.3.4.1.4-.1.5-.4 1.8-.2.5-.6 1.7-.2.5-.5 1.7-.2.6-.5 1.7-.1.5v.4l.2.3.3.2.5.1 1.8.1h.6l1.8.2h.6l1.8.2h.6l1.4.1h.5l.4.1.3.2.2.4 1 1.6.9 1.4.3.5.7.8.3.5.2.4.1.2v.3l-.2.2-.4.2-1.4.8-.5.3-1.5 1.1-.5.3-1.6 1-.5.3-1.5 1.1-.5.3-1.5 1.2-.5.3-1.6.9-.5.3-1.5 1.1-.5.3-1.6.9-.5.3zm21.8 25.5l-.5.2-.8.2-.5.1-1.1.2-.8.2-.5.1-.6.1-.5.1h-1.3l-1.8-.3-.5-.1-.6-.2-.5-.2-.8-.3-.5-.2-.5-.3-.5-.3-.6-.4-.4-.3-.5-.4-.4-.4-.5-.5-.3-.4-.8-.9-.4-.5-.3-.5-.4-.5-.3-.5-.3-.5-.7-1.8-.4-1.1-.3-1.1-.1-.5-.1-.5-.1-2-.1-.6v-1.8l.1-.6.1-.6.1-.6.2-.6.3-.6.3-.5.5-1.2.3-.5.3-.5.3-.4.5-.5 1.3-1.1.6-.5.4-.3.5-.3.4-.3.7-.4.5-.2.5-.3.6-.2.6-.2.6-.2.6-.2.6-.1.6-.1.6-.1h1.2l.8-.1h.9l.6.1.9.2.6.1.3.1.6.2.7.4.5.3.5.3 1.1.7.4.3.5.3.4.4.6.6.4.4.4.4.3.4.7 1.1.3.4.9 1.5.5 1 .3 1 .3.8.2.6.1.6.1.6.1.6.1.6.1.5v1.9l-.2 1.3-.1.5-.2.6-.3.8-.2.5-.2.5-.3.5-.4.7-.3.4-.3.4-.3.4-.5.6-.3.4-.4.4-.4.4-.7.5-.9.6-.5.3-.5.3-1.2.6zm-3.4-6.6l.6-.2.5-.3.5-.2.9-.6.4-.3.6-.7.3-.4.4-.7.2-.5.3-.7.1-.5.1-1v-.5l-.1-.6-.1-.6-.4-1.1-.2-.5-.3-.7-.3-.4-.6-.8-.4-.4-.7-.6-.5-.3-.7-.3-.5-.2-.6-.2-.5-.1h-1.9l-.5.1-.5.1-.5.2-.5.2-.5.2-.5.2-.5.3-.3.2-.4.3-.2.2-.4.4-.2.2-.3.4-.2.3-.3.5-.1.3-.2.6-.3.9-.1.6v1.2l.1.8.1.5.2.9.2.6.4.8.3.5.5.6.4.4.8.5.5.3.7.3.5.2.7.2.6.1h1.5l.8-.1.5-.1.6-.5zm21.2 31.3h-.8l-.6-.1-1-.3-.6-.1-2.1-.2-.6-.1-2-.5-.6-.1-2-.2-.6-.1-2-.3-.6-.1-2-.3-.6-.1-2-.5-.6-.1-2-.3-.6-.1-2-.4-.6-.1-2-.4-.4-.1-.2-.2-.1-.4-.5-2.5-.2-.5-.6-1.9-.2-.6v-.5l.2-.3.4-.3 1.7-1.2.5-.3 1.7-1.3.5-.3 1.7-1.2.5-.3 1.8-1 .5-.3 1.6-1.2.5-.3 1.7-1.3.5-.3 1.7-1.1.5-.4 1.6-1.2.5-.3 1.8-1 .5-.3.9-.8.5-.3.3-.2.4-.2h.3l.3.2.2.4.1.2.1.5.2 1.6.4 1.6.4 2.2.1.5v.3l-.2.3-.3.2-.5.2-1.1.6-.5.3-1.6 1.2-.5.3-1.7 1.1-.5.3-2 1.2-.5.3-2 1.2-2.6 1.5-.3.3-.1.3.2.3.4.1 2.3.4h.6l2.4.1h.6l2.3.5.6.1 2 .2.6.1 2 .5.6.1 1.4.1.6.1.5.2.2.2.2.4.1.2.2.5.1.9.5 2.2.5 1.6.1.6v.4l-.2.3zm-19.9 27.8h-2.9l-.3-.1-.1-.2-.4-4.6v-2.5l-.1-.6-.2-1.8-.1-.6-.1-2.4.1-1.8v-.6l-.3-3v-1.2l.1-.4.2-.3.2-.1.4-.1.8-.1.6-.1h1l1.9.1h.6l1.9-.1.6-.1 1.9-.2.6-.1h1.9l3-.1h1.9l.6-.1 1.9-.2.6-.1h4.7l.3.1.1.2v.3l.1.5v2.3l.1 2.1v3.3l.2 2.1v.6l.2 4.8.1.6.2 1.2v.9l-.1.5-.2.2-.2.1-.5.1h-2.5l-.9.1-.5.1h-.9l-.3-.1-.1-.2-.1-.4v-.3l-.1-.6-.1-3.3v-.6l-.2-1.8v-4.5l-.1-.3-.1-.4-.2-.2h-.2l-.4-.1h-1.4l-.6.1-.4.1-.2.1-.2.1-.1.4v1.1l.1 1.1.2 3.3.4 3.9v1.1l-.1.4-.2.2-.2.1-.4.1-.6.1-.6.1-1.2.1-.8.1h-1.1l-.4-.1-.3-.1-.2-.2-.1-.4v-.7l.1-1.6v-.6l-.3-2.8v-4.3l-.1-.6-.1-.4-.1-.2-.3-.1h-.5l-.9-.1h-1.4l-.4.1-.2.1-.1.1v2.9l.2 1.9v3.1l.3 2.5v1l-.1 1.3-.1.2-.2.2-.4.1zm-3.6 31.8h-2.2l-.3-.1-.4-.1-.3-.2-.1-.2v-.9l.1-.6.3-1.4.1-.6.1-.9.1-.6.4-1.3.1-.2.2-.1h1.4l1.2.2 3.3.5 2.2.2.6.1 2.1.4 2.7.4h.4l.2-.2v-.2l-.3-.3-.4-.4-1.5-1.7-2.3-2.5-1.6-1.6-.2-.4-.1-.3v-.3l.1-.4.2-.4.3-.3 2.3-1.5 1.9-1.1.5-.3 2.3-1.5.5-.4v-.2l-.4-.1-2.2-.4-.6-.1-2.2-.2-.6-.1-2.2-.2-.6-.1-2.2-.3-.5-.1-1.1-.1-.6-.1-.6-.1-.4-.1-.2-.2v-1.8l.3-1.4v-.6l.1-1.7.1-.8.1-.4.2-.2h.7l.8.1 1.1.2 5.4.7 1.9.2.6.1 1.8.3h.6l1.9.2.6.1 1.8.4.6.1 1.9.1.6.1 1.8.4.6.1h1.3l.6.1.4.1.2.2.1.2v.8l-.2.6-.3.7-.1.6v2.2l-.2 1.3-.1.5-.2.4-.4.3-1.5 1-.5.3-1.6.8-.5.3-1.5 1-.5.3-1.5.9-.4.3-.2.3v.4l.1.3.3.4 1.3 1.2.4.4 1.2 1.3.4.4 1.2 1.4.4.4 1 1.1.3.3.2.3.1.4-.1.4-.4 1.8-.3 1.6-.1.6-.1 1.1-.1.6-.1.4-.1.2-.2.2h-.3l-.4-.1-1.6-.4-.6-.1-1.9-.2-.6-.1-1.8-.3-.6-.1-1.9-.2-.6-.1-1.9-.1-.6-.1-1.8-.4-.6-.1-1.9-.1-.6-.1-1.8-.4-.6-.1zm-7.7 24.1l-.5-.2-1.8-.7-.3-.1-.2-.2-.1-.2 1.3-4.4.2-.5.7-1.7.1-.5.4-1.8.1-.5.8-2.3.7-1.7.2-.5.8-2.9.4-1.1.2-.4.2-.2h.3l.4.1.8.2.5.1.5.2.5.2 1.7.7.5.2 1.8.6.5.1 1.8.5.5.1 1.8.7 2.8 1 1.7.7.5.1 1.8.5.5.1.8.3 1 .4.5.2 1.7.7.5.2.2.2.1.2-.1.3-.1.5-.9 2.1-.7 2-.2.5-.8 2-.2.5-.5 2.1-.2.5-1.6 4.5-.2.6-.3 1.2-.3.8-.3.4-.2.1h-.3l-.5-.1-.9-.3-.8-.3-.6-.2-.8-.2-.5-.1-.5-.2-.4-.2-.2-.2-.1-.2.1-.4.1-.3.1-.5 1.1-3.1.2-.5.5-1.7.2-.5.7-1.7.6-1.5.2-.5.1-.3v-.4l-.1-.2-.2-.1-.3-.2-.8-.3-.5-.2-.6-.2-.4-.1h-.3l-.2.1-.2.3-.4 1-.3 1.1-1.1 3.2-1.1 3.8-.4 1-.2.3-.2.1h-.2l-.4-.1-.6-.1-.6-.2-1.1-.4-.8-.2-1-.4-.4-.2-.2-.2-.1-.3v-.4l.2-.7.7-1.4.2-.5.7-2.7.8-2.1.2-.5.6-1.3.2-.6.1-.4v-.2l-.2-.2-.5-.2-.8-.4-.5-.2-.7-.2-.3-.1h-.3l-.2.1-.2.4-.7 1.8-.2.5-.5 1.9-.9 2.3-.2.5-.7 2.4-.2.5-.2.5-.5 1.2-.2.2-.2.1-.4-.1zm2 32.5l-.5-.3-4.6-2.5-1.8-.9-.5-.3-4.1-2.2-.5-.3-.2-.2-.5-.3-1.4-.9-1.8-.9-.4-.3-.3-.3-.2-.4v-.4l.1-.3.2-.4.8-1.6.2-.5.4-.8.3-.5.3-.4.4-.3.5-.2.6-.1h1.2l.6-.1 2.2-.4.5-.1 2.1-.4.6-.1 2.2-.2.5-.1 2.1-.4.5-.1 2.1-.3.4-.1v-.3l-.3-.3-1.5-.9-.5-.3-1.6-.8-.5-.3-1.8-.9-.5-.3-1.7-1-.5-.2-1.3-.5-.5-.2-.4-.3-.1-.3.1-.2.1-.4.1-.3.3-.5.8-1.4.3-.5.6-1.3.3-.5.3-.4.2-.3.3-.2h.3l.3.1.2.1.5.3 1 .6.5.3 1.7.8.5.3 3.7 2.1.5.3 1.6 1 .5.3 2.1 1.2 1.7.8.5.3 1.6 1 .5.2 1.7.8.5.2.7.4.4.3.4.3.3.2.2.2v.2l-.1.4-.4 1-.6.9-1.3 2.3-.2.4-.2.1h-.4l-2.1.5-.5.1-2.1.3-.5.1-2.1.3-.5.1-2.2.3-.5.1-2.1.4-.5.1-2.2.3-.4.1-.2.2v.3l.3.2 1.4.5.5.2 1.3.8.5.3 2 .9.5.3 1.8 1.1.5.2 1.2.5.8.4.4.3.2.3v.3l-.1.4-.1.3-.3.5-.9 1.3-.3.5-.5 1.1-.3.4-.4.7-.2.3-.2.2-.3.1-.5-.2-.3-.1-.5-.3-.9-.6-.5-.3zm-14.8 24.2l-.4-.4-.9-.6-.4-.4-.2-.2-.3-.3-.1-.2v-.3l.2-.4.3-.4.7-.8.4-.4.9-1.3.3-.4.6-.6.3-.4.1-.2.1-.3-.1-.2-.3-.3-1.5-1.4-.4-.4-1.7-1.2-.4-.4-1.6-1.4-.4-.4-1.7-1.2-2.5-2-1.6-1.3-.4-.3-1.4-.8-.5-.3-.3-.3v-.2l.2-.4.4-.5.6-.6.4-.4.9-1.3.4-.4 1.1-1.2.3-.3.2-.1.3.2.5.4 1.1 1 .4.4 2.1 1.6 1.6 1.3.4.3 1.6 1.3.4.3 1.7 1.2.5.3 2.1 1.7 1.7 1.2.4.3.3.1.3-.2.3-.4.6-.9.4-.5.6-.7.4-.5.3-.5.5-.7.3-.4.2-.2.3-.3.2-.1h.3l.3.2.2.2.5.3.8.7.4.3 1.1.7.4.4.3.4.1.3v.2l-.2.3-.5.6-.9 1-.3.4-.8 1.4-.3.4-1.4 1.5-.3.4-1.5 2.2-1.3 1.6-.3.4-1.6 2.1-1.6 2-.7 1-.4.4-.2.2-.3.3-.3.1h-.3l-.4-.2-.2-.2-.4-.3z" fill="#A32A29"/><g fill="#FFF"><path d="M104.6 112.1c2-8.7 6.1-13 11.6-15.2.7-.3 1 .1 1.2 1 .2 1.1.9.9.5 1.1-5.6 2-9.3 6.5-10.5 13.2 4.4.8 8.1 4.9 9.1 10 .9 4.8 1.7 9.7 3.4 14.3 1 2.9 3.4 5.4 5.4 7.9 6.6 8.5 6.1 25.7-3.6 32.4-5 3.5-10.2 3.7-15.9 1.7-2.3-.8-5.3-1.5-7.4-.7"/><path d="M104.4 112c.7-3.3 1.8-6.7 3.8-9.6 1-1.4 2.2-2.7 3.6-3.8.7-.5 1.4-1 2.2-1.4l1.2-.6.6-.3c.1 0 .2-.1.4-.1.2-.1.4-.1.6-.1.5.1.9.5 1 .8.1.3.2.5.3.8.2.6 0 .3.5.7.1.1.2.2.2.3.1.1 0 .5-.2.7-.1.1-.2.2-.3.2l-.1.1-.1.1-.3.1-.6.2c-.4.2-.7.3-1.1.5-1.4.8-2.7 1.8-3.8 3-2.1 2.4-3.4 5.5-3.9 8.7l-.9-1.3c2.3.4 4.4 1.6 6 3.1 1.6 1.6 2.8 3.5 3.6 5.6.7 2.2 1 4.2 1.4 6.2.4 2 .9 4 1.4 5.9.6 1.9 1.1 3.9 2 5.4.9 1.6 2.2 3.1 3.5 4.7 1.4 1.5 2.7 3.4 3.7 5.5 1 2 1.6 4.2 2 6.3.3 2.2.6 4.4.4 6.6-.1 2.2-.5 4.4-1.1 6.5-.6 2.1-1.6 4.2-2.8 6.1-1.3 1.8-2.8 3.6-4.8 4.8-1.8 1.2-3.9 2.3-6.1 2.7-2.2.5-4.5.5-6.6.1-2.1-.3-4.2-1.2-6-1.9-1.9-.7-3.8-1.2-5.8-.8l-.1-.4c2-.9 4.3-.6 6.3-.2 2.1.5 3.9 1 5.9 1.1 1.9.1 3.8-.1 5.6-.7 1.8-.6 3.4-1.4 4.9-2.7 1.4-1.1 2.6-2.6 3.6-4.1.9-1.6 1.6-3.3 2.1-5.2 1-3.6 1.1-7.6.6-11.3-.3-1.9-.8-3.7-1.5-5.5-.7-1.6-1.6-3.2-2.9-4.8-1.2-1.6-2.6-3.3-3.6-5.3-1.1-2.2-1.5-4.1-2-6.2-.5-2-.9-4.1-1.3-6.1s-.6-4.2-1.1-5.9c-1.1-3.5-4-6.7-7.5-7.4l-1.3-.1.2-1c.7-3.5 2.2-6.9 4.7-9.6 1.3-1.3 2.8-2.4 4.4-3.2l1.2-.6.6-.2.3-.1.2-.1-.2.2c-.2.1-.2.5-.1.6 0 .1.1.2.2.3.1.1-.2-.1-.2-.2-.1-.1-.2-.3-.3-.4-.1-.1-.1-.3-.2-.5l-.1-.3c0-.4-.3-.6-.1-.5.1-.1-.5.2-.8.3-.4.1-.8.3-1.1.5-.7.4-1.5.8-2.1 1.3-1.4.9-2.6 2.1-3.6 3.4-2 2.7-3.3 5.9-4.1 9.2l-.5-.1z"/></g><g fill="#FFF"><path d="M98.3 177.7c-9.4 3.5-19.4-4-21-13.7-.4-2.6-.4-5.2-.5-7.9.6-5.9 2.9-11.1 7.2-15 6-5.3 9.4-11.7 10.5-19.6.7-4.8 5.4-8.9 10.1-9.5"/><path d="M98.3 177.9c-.7.2-1.4.5-2.2.7-.8.2-1.5.3-2.3.3-1.6.1-3.1-.1-4.6-.5-1.5-.4-3-1-4.3-1.8-.7-.4-1.3-.9-1.9-1.3-.6-.5-1.2-1-1.7-1.6-1.1-1.1-2.1-2.4-2.9-3.8-.8-1.4-1.4-2.9-1.8-4.4-.9-3.1-.8-6.3-1-9.2v-.2c.3-4.7 1.9-9.5 4.9-13.5.7-1 1.6-1.9 2.4-2.7.8-.8 1.6-1.6 2.2-2.4 1.4-1.6 2.7-3.3 3.7-5.2 1.1-1.8 2-3.7 2.7-5.7.4-1 .7-2 .9-3.1.1-.5.3-1 .4-1.6l.2-.9c.1-.3.1-.5.2-.9.4-1.4 1.1-2.5 1.9-3.5.8-1 1.7-1.8 2.7-2.5 2-1.4 4.4-2.2 6.7-2.2l.1.4c-2.2.6-4 1.9-5.5 3.4-.7.8-1.4 1.6-1.9 2.5-.5.8-.8 1.9-1 2.7-.1.2-.1.5-.1.8l-.1.8c-.1.6-.1 1.2-.2 1.8-.2 1.2-.4 2.4-.7 3.5-.6 2.3-1.6 4.6-2.8 6.7-1.2 2.1-2.8 4-4.4 5.7-.9.9-1.8 1.7-2.6 2.4-.9.7-1.6 1.4-2.3 2.2-2.7 3.1-4.3 7.3-4.9 11.6v-.2c.1 3.1-.1 6.1.5 8.9.3 1.4.8 2.7 1.4 4 .7 1.3 1.4 2.5 2.4 3.6.4.6 1 1 1.5 1.6.6.4 1.1 1 1.7 1.4 1.2.9 2.5 1.5 3.9 2 1.4.4 2.8.8 4.3.7.7 0 1.5-.1 2.2-.2.7-.1 1.5-.4 2.2-.5l.1.2z"/></g><path d="M121.5 176.7c-5 3.5-10.2 3.7-15.9 1.7-2.3-.8-5.3-1.5-7.4-.7-9.4 3.5-19.4-4-21-13.7-.4-2.6-.4-5.2-.5-7.9.6-5.9 2.9-11.1 7.2-15 6-5.3 9.4-11.7 10.5-19.6.7-4.8 5.4-8.9 10.1-9.5 2-8.7 6.1-13 11.6-15.2.7-.3 1 .1 1.2 1 .2 1.1.9.9.5 1.1-5.6 2-9.3 6.5-10.5 13.2 4.4.8 8.1 4.9 9.1 10 .9 4.8 1.7 9.7 3.4 14.3 1 2.9 3.4 5.4 5.4 7.9 6.5 8.5 6 25.7-3.7 32.4z" fill="#73984A"/><path d="M112.6 167.1c-.9-.7-3.4-.8-4.2 0-.8.7-.8 3.2-.1 4.2.6.9 2.3 2.6 4.7.5 1.7-2.8.5-4.1-.4-4.7zm5.6 1.3c.2 1 1.4 1.9 2.4 2.1.7.1 2.4-1.1 2.3-1.8-.1-1 .1-3.4-2.4-3.6-1.8.5-2.4 2.6-2.3 3.3zm4.8-10.5c0-.7-1.1-1.9-1.9-2-.6-.1-1.9 1.1-1.9 1.8-.1.9.6 3 2 2.8 1.3 0 1.8-1.6 1.8-2.6zm-7.6 4.8c.5-.2 1-1.6.9-2.3-.1-.5-1.3-1.3-1.8-1.1-.6.3-1.9 1.5-1.4 2.6.4 1.2 1.7 1.1 2.3.8z" fill="#FFF"/><g fill="#FFF"><path d="M159.4 81.2s7-1.9 15.8.6c8.1 2.3 13 7.3 13 7.3l.6 1.1c.6 2.1 1.4 4.3 1.5 6.4.2 4.3-1.2 8.2-4 11.7-4 5-9 8.9-14.9 11.3-5.5 2.3-9.8 1-14-4.5"/><path d="M159.3 81.1c2.5-.7 5.1-.9 7.8-1 2.6 0 5.2.3 7.8.9.7.1 1.3.3 1.9.5.6.2 1.3.4 1.9.6 1.3.4 2.5 1 3.7 1.6 1.2.6 2.3 1.3 3.4 2 1.1.8 2.2 1.5 3.2 2.5l.1.1.1.2.7 1.1.1.1.1.2c.6 2.1 1.5 4.3 1.7 6.9.1 1.1 0 2.5-.1 3.7-.2 1.2-.5 2.4-.9 3.6-.4 1.2-1 2.3-1.6 3.3-.6 1-1.4 2.1-2.1 3-1.5 1.9-3.1 3.6-4.9 5.2-1.8 1.5-3.8 2.9-6 3.9-2.2 1.1-4.2 2-6.8 2.5-2.5.5-5.3.1-7.4-1.3-2.1-1.4-3.6-3.3-4.7-5.3l.3-.2c1.6 1.6 3.4 3 5.3 3.7 1.9.8 3.9.7 5.8.1 1.8-.6 3.9-1.7 5.6-2.8 1.8-1.1 3.6-2.4 5.2-3.7 1.7-1.3 3.2-2.9 4.6-4.4.8-.9 1.4-1.6 2-2.4.6-.8 1.1-1.7 1.5-2.7.4-.9.7-1.9.9-2.9.2-1 .3-1.9.3-3.1 0-1.9-.7-4.1-1.2-6.3l.1.3-.6-1.1.2.3c-.8-.8-1.8-1.7-2.8-2.4-1-.7-2-1.4-3.1-2.1-1.1-.6-2.2-1.2-3.3-1.7-.6-.3-1.1-.5-1.7-.7-.6-.2-1.2-.5-1.8-.6-2.4-.7-4.9-1.2-7.5-1.4-2.5-.2-5.1-.1-7.6.4l-.2-.6z"/></g><g fill="#FFF"><path d="M157.4 115.2c-3.7-4.8-5.6-10.5-6.6-16.4-1.2-7.7 1.6-12.3 6.6-16.7l2-.9"/><path d="M157.3 115.3c-2.1-2.3-3.8-5-5.1-7.8-.7-1.4-1.2-2.9-1.7-4.4-.2-.8-.5-1.5-.6-2.3-.2-.8-.4-1.5-.5-2.3-.2-.7-.3-1.6-.4-2.4-.1-.8-.1-1.7-.1-2.5 0-1.7.3-3.5 1.1-5.1 1.5-3.2 4.2-5.5 7-6.9l.2-.1c.7-.1 1.5-.2 2.2-.3l.2.4c-.6.5-1.1 1-1.7 1.4l.2-.1c-.9 1.3-1.7 2.5-2.5 3.7-.4.6-.7 1.2-1 1.8-.3.6-.6 1.2-.8 1.8-.5 1.2-.9 2.5-1.2 3.8-.1.7-.2 1.4-.2 2.1v2.1c.1 1.4.3 2.9.6 4.4.3 1.5.6 2.9 1 4.3.8 2.9 2.1 5.6 3.7 8.2l-.4.2z"/></g><path d="M188.8 90.2l-31.4-8.1c-2.9-1.8-2.7-6-2.1-6.4.6-.4 4.1 1.8 4.9 1.1.3-.3-.9-6.7.4-7.2 1.2-.4 5.6 5.6 6.6 5.8 1-.4 3.6-4.7 4.4-4.6.8.1 2.7 5.3 3.8 5.5 1.1.3 5.9-4.8 7.2-4.2.8.3.6 6 1.1 6.8 1 .5 8.2-1.5 8.8-.5.5.6-3.3 4.8-3 5.8.5 1.3 4.4 1.6 4.4 2.4 0 2.1-2.9 4.4-5.1 3.6zM188 89c2.5.1 3.2-1.5 3.5-2-1.6-.7-3-.9-5-1.7 0-.5 3.1-4.7 3.2-5.5-4.5.8-7.4 2.1-7.7 1.8-.4-.2-.8-4.5-.7-5.9-.3-.1-6.2 4.3-6.7 3.9-.4-.3-2.7-5.8-3-5.8-1.5 1.9-2.5 2.7-3.8 4.5-1.9-2.2-4-3.4-5.8-5.5-.4.2-.3 3.2.7 6.1-2.1.2-4.1-.7-5.8-1 .2.7.9 2.3 2.7 3.2 0 0 8.6-.4 14.2 1.1C179.3 83.7 188 89 188 89z" fill="#FFF"/><path d="M159.4 81.2s7-1.9 15.8.6c8.1 2.3 13 7.3 13 7.3l.6 1.1c.6 2.1 1.4 4.3 1.5 6.4.2 4.3-1.2 8.2-4 11.7-4 5-9 8.9-14.9 11.3-5.5 2.3-9.8 1-14-4.5-3.7-4.8-5.6-10.5-6.6-16.4-1.2-7.7 1.6-12.3 6.6-16.7l2-.8z" fill="#A32A29"/><path d="M172.4 90.7c-2.7 1-4.3 3-3.3 4.4.5.7 2.2 1.4 2.7 1.1 2.2-1.5 1.3-3.6.6-5.5zm-11.8-2.5c-1.4 1.8-3.7 2.5-2.4 4.9.3.6 2 1.2 2.5.8 2-1.4.9-3.2-.1-5.7zm3.5 10.3c-1.8 1.3-3.3 2.6-2.2 4.8.2.4 1.7.7 2.1.4 1.6-1.4 1.7-3.2.1-5.2zm19-4.6c-2.5.2-3.4 1.7-3.3 3.6 0 .5 1.5 1.6 2 1.4 2.5-.9 1.5-3 1.3-5zm-8.2 7.5c-1.8 1.2-3.4 2.2-2.4 4.5.2.5 1.9 1 2.2.7 1.8-1.5 1.2-3.2.2-5.2zm-7.4 6.7c-1.7 1.2-3.2 2.3-2.5 4.5.2.5 1.9 1 2.3.7 2.1-1.5 1-3.2.2-5.2z" fill="#FFF"/></g></svg>