<svg width="432" height="432" xmlns="http://www.w3.org/2000/svg" display="block"><g fill-rule="evenodd"><path d="M25.265 12.656c-3.323 3.323-4.607 27.019-2.134 39.402 3.646 18.263 12.304 33.651 27.935 49.648l5.511 5.641-.975 2.93c-1.389 4.173-2.304 9.359-2.576 14.594l-.235 4.527.684-4.155c2.427-14.744 8.255-25.58 17.915-33.309 14.39-11.513 36.371-15.15 56.431-9.337 2.181.632 11.346 4.092 20.364 7.689 52.915 21.102 64.223 23.345 97.417 19.323 10.963-1.329 25.029-1.413 32.327-.193 55.685 9.306 103.036 53.946 107.188 101.053l.404 4.577.064-3.77c.8-47.413-46.216-96.862-102.939-108.266-11.877-2.388-21.76-2.569-38.665-.71-31.059 3.417-39.216 1.872-91.249-17.278-25.032-9.214-29.194-10.228-41.852-10.203-17.732.034-32.08 5.432-43.455 16.346l-3.176 3.048-2.994-3.241C40.761 68.786 33.356 45.205 37.973 16.836c.508-3.121.271-3.791-.444-1.254-7.507 26.63-.147 52.439 21.199 74.338l5.293 5.429-3.329 5.566c-1.83 3.062-3.41 5.566-3.511 5.566-.321 0-9.68-11.202-12.569-15.046C26.388 67.194 20.05 44.452 24.251 18.374c.987-6.131 1.759-6.623 7.861-5.01 2.968.784 5.388.83 5.388.101 0-.174-.695-.235-1.545-.136-.85.099-2.955-.255-4.678-.787-3.974-1.227-4.684-1.214-6.012.114m27.054 124.238c.059 19.583 5.31 31.266 21.5 47.841 27.726 28.385 40.233 53.148 46.993 93.043 7.504 44.283 30.789 73.284 77.105 96.033 54.781 26.906 118.454 1.648 131.933-52.337 2.617-10.483 6.178-16.001 16.742-25.941 20.64-19.424 24.627-24.158 30.97-36.779 5.578-11.097 7.629-19.859 7.848-33.523.139-8.625.116-9.017-.206-3.472-1.589 27.435-11.787 45.314-38.489 67.479-13.464 11.176-19.245 18.973-21.88 29.512-8.767 35.06-41.403 58.537-81.409 58.561-19.813.012-33.655-4.651-60.093-20.241-21.395-12.617-36.032-28.236-46.324-49.431-5.526-11.381-7.188-16.963-10.827-36.372-6.725-35.874-23.751-65.536-52.282-91.09-12.947-11.595-19.447-24.209-20.508-39.8-.267-3.921-1.083-6.567-1.073-3.483m248.013 18.241c-5.056 1.191-6.813 2.97-6.813 6.899 0 8.509 4.268 12.504 13.358 12.502 9.082-.002 11.493-9.049 4.369-16.391-3.372-3.474-5.938-4.182-10.914-3.01m36.011 27.198c-4.206 2.479-4.63 3.222-4.63 8.099.001 9.093 5.412 15.431 12.853 15.055 9.621-.486 14.398-6.937 11.925-16.103-1.659-6.148-14.222-10.545-20.148-7.051m-40.283 9.485c-4.43 1.727-5.522 3.216-5.238 7.142.773 10.686 11.487 14.795 15.834 6.073 3.274-6.57-4.089-15.753-10.596-13.215m25.113 33.195c-9.67 2.431-17.149 15.851-12.477 22.39 10.069 14.097 31.328 10.045 31.345-5.973l.005-4.635-2.221-3.566c-4.403-7.068-10.078-9.868-16.652-8.216" fill="#fff"/><path d="M25.983 13.368c-1.016 1.016-1.673 4.426-2.42 12.558-2.408 26.192 6.406 48.765 29.646 75.926 2.07 2.419 3.852 4.398 3.961 4.398.108 0 1.666-2.472 3.461-5.494l3.264-5.495-2.173-1.913C40.966 75.079 30.566 45.672 36.077 20.833c.593-2.673 1.18-5.329 1.305-5.902.203-.938.09-1.013-1.147-.766-.804.161-2.805-.127-4.829-.695-4.213-1.183-4.339-1.185-5.423-.102" fill="#a32929"/><path d="M101.856 80.106c-31.792 3.283-51.372 27.004-48.624 58.91 1.518 17.636 7.335 29.221 20.668 41.161 28.531 25.554 45.557 55.216 52.282 91.09 3.639 19.409 5.301 24.991 10.827 36.372 10.292 21.195 24.929 36.814 46.324 49.431 26.438 15.59 40.28 20.253 60.093 20.241 40.006-.024 72.642-23.501 81.409-58.561 2.65-10.601 8.457-18.397 22.139-29.726 20.815-17.236 30.805-31.19 35.615-49.747 10.231-39.469-8.819-80.48-50.182-108.031-27.887-18.574-55.428-25.44-86.805-21.637-33.194 4.022-44.502 1.779-97.417-19.323-24.377-9.721-32.813-11.575-46.329-10.18m-45.837 7.521c0 .07 1.614 1.685 3.587 3.588l3.588 3.461-3.46-3.588c-3.214-3.332-3.715-3.799-3.715-3.461m252.083 67.858c10.193 6.253 9.371 19.049-1.225 19.051-9.09.002-13.358-3.993-13.358-12.502 0-5.587 9.325-9.774 14.583-6.549m41.591 27.595c6.386 3.155 7.507 5.097 7.159 12.404-.448 9.42-13.895 13.854-20.524 6.767-11.495-12.288-1.557-26.544 13.365-19.171m-47.929 9.278c5.158 3.413 7.056 8.332 4.892 12.675-4.347 8.722-15.061 4.613-15.834-6.073-.418-5.778 6.175-9.756 10.942-6.602m28.431 33.306c2.768 1.314 5.298 3.823 7.63 7.565l2.221 3.566-.005 4.635c-.017 16.018-21.276 20.07-31.345 5.973-7.096-9.933 9.984-27.203 21.499-21.739" fill="#749a4b"/></g></svg>