<svg id="Layer_1" xmlns="http://www.w3.org/2000/svg" viewBox="0 0 612 488.4"><style>.st0{fill:#ffb819}.st1{fill:#fff}.st2{font-family:&apos;MyriadPro-Regular&apos;}.st3{font-size:12px}</style><circle class="st0" cx="254.2" cy="137.3" r="29.7"/><path class="st1" d="M261.7 137.3h-4.9v17.6h-7.3v-17.6h-5.4v-6.2h5.4v-4c0-2.9 1.4-7.4 7.4-7.4h5.4v6h-3.9c-.6 0-1.5.3-1.5 1.7v3.7h5.6l-.8 6.2z"/><circle class="st0" cx="338.4" cy="137.3" r="29.7"/><path class="st1" d="M356.1 130.1c0-2.9-2.4-5.3-5.3-5.3h-24.9c-2.9 0-5.3 2.4-5.3 5.3v14.2c0 2.9 2.4 5.3 5.3 5.3h24.9c2.9 0 5.3-2.4 5.3-5.3v-14.2zm-21.3 13.2v-13.4l10.1 6.7-10.1 6.7z"/><circle class="st0" cx="422.5" cy="137.3" r="29.7"/><path class="st1" d="M440.8 125.9c-1.3.6-2.8 1-4.3 1.2 1.6-.9 2.7-2.4 3.3-4.2-1.5.9-3.1 1.5-4.8 1.8-1.4-1.5-3.3-2.4-5.5-2.4-4.2 0-7.5 3.4-7.5 7.5 0 .6.1 1.2.2 1.7-6.3-.3-11.8-3.3-15.5-7.9-.6 1.1-1 2.4-1 3.8 0 2.6 1.3 4.9 3.3 6.3-1.2 0-2.4-.4-3.4-.9v.1c0 3.6 2.6 6.7 6 7.4-.6.2-1.3.3-2 .3-.5 0-1 0-1.4-.1 1 3 3.7 5.2 7 5.2-2.6 2-5.8 3.2-9.3 3.2-.6 0-1.2 0-1.8-.1 3.3 2.1 7.3 3.4 11.5 3.4 13.8 0 21.4-11.5 21.4-21.4v-1c1.6-1.1 2.8-2.4 3.8-3.9z"/><path class="st0" d="M271.8 337.9h-4.9v17.6h-7.3v-17.6h-5.4v-6.2h5.4v-4c0-2.9 1.4-7.4 7.4-7.4h5.4v6h-3.9c-.6 0-1.5.3-1.5 1.7v3.7h5.6l-.8 6.2zm94.4-7.2c0-2.9-2.4-5.3-5.3-5.3H336c-2.9 0-5.3 2.4-5.3 5.3V345c0 2.9 2.4 5.3 5.3 5.3h24.9c2.9 0 5.3-2.4 5.3-5.3v-14.3zm-21.3 13.2v-13.4l10.1 6.7-10.1 6.7zm106-17.4c-1.3.6-2.8 1-4.3 1.2 1.6-.9 2.7-2.4 3.3-4.2-1.5.9-3.1 1.5-4.8 1.8-1.4-1.5-3.3-2.4-5.5-2.4-4.2 0-7.5 3.4-7.5 7.5 0 .6.1 1.2.2 1.7-6.3-.3-11.8-3.3-15.5-7.9-.6 1.1-1 2.4-1 3.8 0 2.6 1.3 4.9 3.3 6.3-1.2 0-2.4-.4-3.4-.9v.1c0 3.6 2.6 6.7 6 7.4-.6.2-1.3.3-2 .3-.5 0-1 0-1.4-.1 1 3 3.7 5.2 7 5.2-2.6 2-5.8 3.2-9.3 3.2-.6 0-1.2 0-1.8-.1 3.3 2.1 7.3 3.4 11.5 3.4 13.8 0 21.4-11.5 21.4-21.4v-1c1.5-1.1 2.8-2.4 3.8-3.9z"/><text transform="translate(253.3 397)" class="st2 st3">use the non-circle icons for the Articles</text></svg>