<svg version="1" xmlns="http://www.w3.org/2000/svg" width="1152" height="1152" viewBox="0 0 864.000000 864.000000"><path d="M419.8 26.5c-6.4 3.5-16.2 21.8-34.8 65-13.7 31.8-22 48.8-26.3 53.9l-3.3 3.9-5.7-1.7c-3.1-.9-12.8-5.3-21.4-9.7-8.7-4.5-24.4-12.6-34.9-17.9-18.7-9.6-29.8-14-35.4-14-4 0-7.6 4.7-9.1 11.7-1.7 8.2-.6 37.4 2.5 66.8 2.7 25.7 3.2 45.8 1.3 51.5-.7 2.1-2.5 4.2-4.6 5.4-4.9 2.9-22.9 3.2-55.5 1.1-31-2-44.6-1.7-47.6 1-4.4 4-1.9 16.9 9.4 47.6 9.3 25.5 13.6 39.2 14.3 45.8.5 5.5.4 6-1.9 7.5-5.9 3.9-15.8 6.3-59 14.7C51.6 369.9 35 376 35 385.7c0 4.7 1.9 8 8.2 13.9 9.6 9.1 22.4 16.9 56.7 34.8 23.4 12.2 28.1 15.1 28.1 17.2 0 5.8-9.8 16.1-28.9 30.2-18.5 13.7-24.6 18.9-26.6 22.6-1.8 3.4-1.8 3.4.8 7.9 1.5 2.5 5.3 6.6 8.4 9.1 7.5 6 25.6 14.9 35.8 17.7 11.2 3 31.6 3.7 41.8 1.5l7.5-1.7.4-4.7c.4-3.8 4.6-16.5 10.3-31.5.7-1.6.3-1.5-4.1.4-13.2 5.6-34.6 7.7-50.6 4.9l-6.7-1.2 3-3.8c1.7-2.1 10.4-10.6 19.3-18.9 17.9-16.5 27.7-27.4 35.5-39.6 5-7.8 5-8 2.8-8.7-36.8-10.6-54.7-17.8-72.3-29-6.5-4.1-13.8-11.3-12.9-12.7.2-.5 3-1.2 6.1-1.6 8.8-1.1 33.5-7.6 58.4-15.5 20.8-6.5 39.1-11.4 53.2-14l5.8-1.1-1.6-3.7c-4-9.4-9.1-24.6-15.4-46.2-3.8-12.9-8.1-26.8-9.4-30.9-1.4-4-2.3-7.8-1.9-8.4.9-1.4 17-.3 51.3 3.8 16.2 1.9 34.5 3.8 40.6 4.2 11 .6 11.2.6 12.5-1.8 1.1-2 1.4-13.4 1.4-61.6 0-32.5.2-59.3.5-59.6.3-.3 5.2 2.4 11 5.9 11.8 7.3 44.3 23.7 56.5 28.5 9.7 3.8 17.5 6 18.8 5.2 1.9-1.1 4.7-9.3 11.2-32.3 8.3-29.3 16-53 23.8-72.9l6-15.5 2.4 3c3 3.7 16 29.4 29.7 59 5.9 12.7 11.7 24.3 13 25.8l2.2 2.8 9.2-7.2c5.1-3.9 16.4-13.2 25-20.6 16.5-14.3 30-25 30.6-24.3.1.2 1.7 3.8 3.4 7.9 5.4 13.4 6.4 25.5 2.8 37.3l-1.4 4.5 9.7.5c5.3.3 11.1.9 12.9 1.2 3.1.7 3.3.6 5.8-5.1 4.3-9.8 5.7-18.3 5.1-32.4-.6-14.2-2.3-21.3-7.5-32-4.4-9-15.3-21-19.2-21-4 0-10.1 3.6-20 12-25.3 21.4-35.5 28-43.5 28-3.9 0-4.7-.5-8.7-4.8-5.1-5.8-11.9-18.5-22.2-42-14.1-32-21.2-44.3-25.5-44.2-.9.1-2.8.7-4.3 1.5z"/><path d="M517.5 182c-53 15.8-111.2 45.5-157.9 80.5-37.7 28.2-75.3 65.6-104.6 103.9-23.5 30.9-45.5 67.4-60.4 100.3-10.2 22.6-12.6 30.3-15.7 49.6l-2.8 17.8 2.5 13.7c17.2 94 53.8 151.9 122 193.3 29.6 18 79.9 38.7 127.4 52.4 51.2 14.7 92.3 21.2 141 22.2 72.8 1.5 126.6-10.2 165-35.8 12.6-8.4 29.7-25.5 37.9-37.9 18.6-28.1 28-59.3 34-112.6 6.6-57.8 3.8-120-7.9-178.1-6.5-31.9-18.4-73-28.7-99.3-23-58.3-61.4-104.5-111.6-134.2-21-12.4-39.4-19.5-82.2-31.7-20.4-5.9-25.6-7-34.5-7.5-10.1-.5-11-.4-23.5 3.4zm76.7 123.3c7 4.7 12.4 10.6 15.1 16.6 3.1 6.7 3.2 23.6.1 27.8-2.9 4-17.5 11.2-25.5 12.5-6.3 1.1-6.7 1-11.9-1.8-3-1.6-8.7-6.1-12.6-9.9-15.2-15-18.8-33.1-10.9-54.2 4.4-11.5 2-11.2 22.2-2.5 9.8 4.3 20.4 9.4 23.5 11.5zM433.9 407.5c32 6.8 46.4 17.1 51.6 37 2.4 9.4 2 16.8-1.2 21.6-3.4 5.1-12.8 12.2-22.3 16.8-16.8 8.1-30.5 3-39.4-14.7-4.9-9.7-6.8-19.2-6.9-34.7-.2-17.2 1.6-28.5 4.4-28.5 1 0 7.2 1.1 13.8 2.5zM600.5 463c30.1 4.4 46.4 16 52.1 37.3.7 2.8 1.4 6.5 1.4 8.2-.1 6-11.8 18.3-22 22.8-4 1.8-5.1 1.9-10.5.8-13.2-2.7-22.7-9.4-28.3-19.9-4.2-7.8-6.1-16.3-6.7-29.7-.3-6.1-.7-13.1-1-15.8l-.4-4.7h4.2c2.3 0 7.4.5 11.2 1zm-287.7 84.6c18.2 3.6 27.9 6.8 34.9 11.5 9.4 6.5 15 16.5 16 28.9.5 6.4.5 6.6-3.6 11.7-6.2 7.9-17.3 15.6-24.7 17.3-4 .9-14.4-.7-19.9-3-8.1-3.5-14.4-10.8-18-20.9-.8-2.4-3.1-12.4-5.1-22.3-1.9-9.8-4.2-19.7-5-22-2.5-7.1-4-7 25.4-1.2zm174 37c19.3 5 33 21.1 36.6 43.1.9 4.9-1.4 10.1-7.2 16.5-6.1 6.7-10.9 9.8-15.6 9.8-9.5 0-22.2-5.5-29-12.5-9.7-9.9-14.3-24-17.1-52.2l-.6-6.2 4.8-.4c7.4-.7 21.9.3 28.1 1.9zM630 620.5c23.5 4.1 33.6 8.1 41.1 16.3 7.9 8.5 12.5 24.3 9.4 31.8-2.1 5.1-13.2 15.6-19.9 18.9-6.2 3-7.6 3-16.6-.4-16-6.1-24.8-19.4-28.4-43.1-2.5-16.3-3-26-1.4-26 .7 0 7.9 1.1 15.8 2.5z"/></svg>