<svg xmlns="http://www.w3.org/2000/svg" id="Layer_1" viewBox="0 0 59.400002 59.400002" width="59.4" height="59.4"><style id="style3546">.st0{fill:#ffb819}.st1{fill:#fff}.st2{font-family:&apos;MyriadPro-Regular&apos;}.st3{font-size:12px}</style><g id="g3564" transform="translate(-392.8 -107.6)"><circle id="circle3566" r="29.7" cy="137.3" cx="422.5" class="st0" fill="#ffb819"/><g id="g3568"><path id="path3570" d="M440.8 125.9c-1.3.6-2.8 1-4.3 1.2 1.6-.9 2.7-2.4 3.3-4.2-1.5.9-3.1 1.5-4.8 1.8-1.4-1.5-3.3-2.4-5.5-2.4-4.2 0-7.5 3.4-7.5 7.5 0 .6.1 1.2.2 1.7-6.3-.3-11.8-3.3-15.5-7.9-.6 1.1-1 2.4-1 3.8 0 2.6 1.3 4.9 3.3 6.3-1.2 0-2.4-.4-3.4-.9v.1c0 3.6 2.6 6.7 6 7.4-.6.2-1.3.3-2 .3-.5 0-1 0-1.4-.1 1 3 3.7 5.2 7 5.2-2.6 2-5.8 3.2-9.3 3.2-.6 0-1.2 0-1.8-.1 3.3 2.1 7.3 3.4 11.5 3.4 13.8 0 21.4-11.5 21.4-21.4v-1c1.6-1.1 2.8-2.4 3.8-3.9z" class="st1" fill="#fff"/></g></g></svg>