<svg id="svg" version="1.1" width="432" height="432" xmlns="http://www.w3.org/2000/svg" xmlns:xlink="http://www.w3.org/1999/xlink" style="display: block;"><g id="svgg"><path id="path0" d="M204.167 19.686 C 197.771 20.484,191.476 21.786,184.804 23.690 C 180.306 24.973,176.613 26.422,179.630 25.720 C 203.951 20.061,224.635 20.357,246.044 26.671 C 317.191 47.653,378.373 133.317,378.436 212.037 C 378.465 248.384,365.511 285.961,343.483 313.426 C 319.207 343.694,293.851 362.811,265.826 371.975 C 261.256 373.470,263.711 373.178,269.341 371.558 C 300.948 362.460,331.981 339.450,355.666 307.551 C 378.579 276.692,390.870 228.207,385.454 190.046 C 371.418 91.143,284.675 9.629,204.167 19.686 M167.280 28.947 C 147.037 35.167,126.784 49.183,114.618 65.394 C 113.137 67.367,111.688 68.981,111.399 68.981 C 110.644 68.981,100.082 74.796,94.756 78.143 L 90.231 80.988 86.898 78.314 C 73.162 67.296,57.089 58.549,45.023 55.526 C 40.295 54.342,40.855 53.484,40.667 62.204 L 40.509 69.546 42.493 71.309 C 43.584 72.278,46.396 74.062,48.743 75.274 C 57.820 79.961,75.667 90.931,75.366 91.638 C 75.292 91.812,73.565 93.391,71.528 95.146 C 36.885 124.994,21.192 153.494,17.614 193.056 C 13.611 237.330,34.766 289.598,70.647 324.082 C 119.120 370.668,197.800 393.366,252.432 376.525 C 259.066 374.480,259.188 374.131,252.731 375.666 C 193.399 389.768,110.183 359.656,66.642 308.329 C 21.626 255.263,12.829 185.723,44.711 134.954 C 53.557 120.867,79.206 94.020,82.099 95.820 C 87.874 99.413,94.400 105.836,102.102 115.509 C 105.143 119.329,109.042 123.853,110.766 125.562 L 113.901 128.671 110.539 131.042 C 104.028 135.633,94.589 139.411,87.269 140.357 C 80.964 141.171,79.839 141.671,84.948 141.388 C 98.244 140.651,108.796 136.332,119.910 127.076 C 140.607 109.841,148.766 89.327,134.495 90.406 C 129.370 90.794,128.742 91.474,133.225 91.781 C 138.357 92.133,139.063 92.577,138.760 95.269 C 138.315 99.213,132.995 108.215,126.521 115.980 C 124.661 118.210,125.221 118.663,116.504 107.870 C 109.439 99.122,102.858 92.064,97.700 87.701 L 94.451 84.954 95.721 83.890 C 97.657 82.269,108.140 75.804,111.918 73.902 C 114.495 72.605,115.557 71.759,116.505 70.250 C 127.142 53.327,147.837 37.126,168.981 29.172 C 174.956 26.925,174.192 26.823,167.280 28.947 M45.406 56.755 C 66.698 65.345,97.355 87.815,113.566 106.713 C 116.625 110.278,120.274 114.381,121.677 115.831 L 124.227 118.468 122.560 120.503 C 121.643 121.622,119.445 123.821,117.676 125.389 L 114.460 128.241 112.880 126.493 C 112.012 125.531,109.869 122.667,108.118 120.127 C 100.931 109.701,96.829 104.365,93.934 101.679 C 86.352 94.642,68.291 83.248,51.573 74.955 C 47.464 72.917,43.515 70.629,42.776 69.857 L 41.435 68.456 41.435 62.007 C 41.435 54.726,41.188 55.053,45.406 56.755 M329.320 152.094 C 325.135 154.179,324.497 156.128,326.143 161.806 C 329.549 173.551,342.312 172.397,342.351 160.341 C 342.374 152.972,335.847 148.841,329.320 152.094 M296.422 200.970 C 291.729 203.293,290.740 206.145,292.984 210.880 C 297.190 219.751,305.553 222.209,308.789 215.525 C 313.287 206.233,305.145 196.652,296.422 200.970 M258.102 218.970 C 248.548 221.426,245.635 235.157,253.397 241.146 C 264.740 249.897,274.769 246.448,274.769 233.796 C 274.769 222.911,267.595 216.530,258.102 218.970 M336.508 224.283 C 333.356 226.425,333.511 230.196,336.859 232.829 C 339.938 235.251,344.643 230.683,343.044 226.824 C 341.472 223.028,339.489 222.257,336.508 224.283 " stroke="none" fill="#ffffff" fill-rule="evenodd"></path><path id="path1" d="M41.667 62.231 L 41.667 68.899 43.068 70.079 C 43.839 70.727,48.162 73.103,52.675 75.358 C 69.612 83.820,88.966 96.256,95.335 102.768 C 97.583 105.066,102.174 111.137,106.021 116.898 C 109.686 122.387,113.860 127.778,114.444 127.778 C 114.726 127.778,116.997 125.747,119.490 123.264 L 124.023 118.750 119.121 113.194 C 116.425 110.139,112.159 105.294,109.641 102.428 C 95.970 86.868,62.835 63.531,44.743 56.722 L 41.667 55.564 41.667 62.231 " stroke="none" fill="#a32929" fill-rule="evenodd"></path><path id="path2" d="M198.843 22.265 C 164.881 25.776,132.653 44.558,116.505 70.250 C 115.557 71.759,114.495 72.605,111.918 73.902 C 108.140 75.804,97.657 82.269,95.721 83.890 L 94.451 84.954 97.700 87.701 C 102.858 92.064,109.439 99.122,116.504 107.870 C 125.221 118.663,124.661 118.210,126.521 115.980 C 132.995 108.215,138.315 99.213,138.760 95.269 C 139.063 92.577,138.357 92.133,133.225 91.781 C 128.742 91.474,129.370 90.794,134.495 90.406 C 148.766 89.327,140.607 109.841,119.910 127.076 C 108.796 136.332,98.244 140.651,84.948 141.388 C 79.839 141.671,80.964 141.171,87.269 140.357 C 94.589 139.411,104.028 135.633,110.539 131.042 L 113.901 128.671 110.766 125.562 C 109.042 123.853,105.143 119.329,102.102 115.509 C 94.400 105.836,87.874 99.413,82.099 95.820 C 79.206 94.020,53.557 120.867,44.711 134.954 C 4.541 198.922,30.387 291.200,102.183 340.141 C 158.977 378.856,224.933 389.431,276.157 368.033 C 312.690 352.773,350.506 313.690,365.729 275.463 C 384.793 227.589,382.381 180.138,358.376 130.787 C 323.532 59.157,260.006 15.943,198.843 22.265 M41.330 66.204 C 41.330 67.350,41.420 67.818,41.530 67.245 C 41.641 66.672,41.641 65.735,41.530 65.162 C 41.420 64.589,41.330 65.058,41.330 66.204 M121.296 115.886 C 121.296 115.965,121.973 116.642,122.801 117.390 L 124.306 118.750 122.946 117.245 C 121.678 115.843,121.296 115.528,121.296 115.886 M119.892 123.032 L 117.361 125.694 120.023 123.164 C 122.496 120.813,122.897 120.370,122.554 120.370 C 122.481 120.370,121.283 121.568,119.892 123.032 M337.712 151.979 C 345.394 156.330,343.448 169.107,334.996 169.807 C 329.759 170.242,325.669 164.912,325.393 157.295 C 325.217 152.451,332.782 149.187,337.712 151.979 M303.854 200.432 C 310.766 203.060,312.348 214.790,306.303 218.589 C 299.794 222.680,288.016 209.283,293.065 203.532 C 295.701 200.530,300.492 199.154,303.854 200.432 M266.145 219.238 C 275.290 221.954,278.321 239.105,270.625 244.594 C 268.392 246.188,262.296 246.042,258.583 244.307 C 249.632 240.124,247.222 234.640,250.401 225.694 C 252.488 219.820,259.047 217.131,266.145 219.238 M341.569 224.287 C 344.029 227.414,343.970 229.816,341.371 232.267 C 338.498 234.976,334.259 232.474,334.259 228.070 C 334.259 224.322,339.474 221.623,341.569 224.287 " stroke="none" fill="#749a4b" fill-rule="evenodd"></path></g></svg>
