<svg id="svg" version="1.1" width="432" height="432" xmlns="http://www.w3.org/2000/svg" xmlns:xlink="http://www.w3.org/1999/xlink" style="display: block;"><g id="svgg"><path id="path0" d="M74.540 8.580 C 72.447 9.524,70.948 10.943,69.912 12.963 C 69.454 13.854,68.619 15.000,68.055 15.509 C 63.688 19.453,63.913 24.434,68.711 30.015 C 69.878 31.372,70.833 32.544,70.833 32.618 C 70.833 33.586,69.101 37.074,67.669 38.991 C 64.019 43.876,63.065 46.601,60.422 59.696 C 58.395 69.737,58.582 70.093,61.113 61.013 C 65.022 46.995,66.410 43.706,70.157 39.583 C 74.109 35.236,74.529 30.645,71.309 26.990 C 67.395 22.548,67.304 21.359,70.597 17.696 C 71.745 16.419,72.685 15.172,72.685 14.925 C 72.685 13.901,74.706 12.024,76.334 11.536 C 81.346 10.034,87.706 13.816,88.644 18.855 C 88.823 19.816,89.663 22.012,90.510 23.735 C 92.995 28.789,93.031 30.029,90.770 32.889 C 85.138 40.013,84.758 42.078,84.471 67.130 C 84.275 84.187,84.087 88.813,83.484 91.443 L 82.739 94.691 85.119 99.814 C 86.429 102.632,87.500 105.132,87.500 105.370 C 87.500 108.284,97.490 136.874,103.014 149.769 C 147.167 252.834,224.974 307.206,325.074 304.946 C 337.646 304.662,340.408 304.837,351.852 306.641 C 363.966 308.551,365.725 308.483,356.250 306.470 C 341.622 303.363,341.049 303.291,327.083 302.784 C 273.237 300.830,240.043 290.803,200.926 264.673 C 153.794 233.190,116.592 181.309,91.396 111.928 C 89.574 106.911,87.424 102.002,85.869 99.307 L 83.323 94.897 84.494 92.587 C 85.791 90.026,86.929 80.064,87.955 62.269 C 88.937 45.239,90.020 41.359,95.447 35.421 L 97.859 32.782 97.300 29.470 C 96.992 27.642,96.019 24.665,95.130 22.829 C 94.244 20.999,93.516 19.124,93.514 18.663 C 93.477 11.816,81.490 5.445,74.540 8.580 M46.004 87.159 C 26.743 108.332,23.300 114.896,19.478 137.731 C 12.671 178.393,21.184 209.876,51.247 255.220 C 78.761 296.720,105.406 324.381,135.209 342.385 C 184.833 372.362,214.542 382.717,267.593 388.528 C 277.588 389.623,305.107 389.318,312.269 388.033 C 343.169 382.488,368.569 363.712,382.963 335.775 C 387.685 326.610,386.425 320.788,377.626 311.123 C 375.014 308.254,375.072 309.157,377.725 312.662 C 382.861 319.447,385.237 326.653,383.114 329.007 C 382.690 329.477,380.974 332.195,379.301 335.047 C 363.145 362.578,335.268 380.436,303.935 383.326 C 279.267 385.601,231.078 381.427,209.981 375.187 C 182.121 366.948,143.182 346.413,119.708 327.583 C 87.864 302.036,40.698 236.408,28.344 200.455 C 20.711 178.242,19.427 151.299,24.836 126.852 C 28.119 112.015,30.193 108.093,43.627 91.322 C 47.452 86.546,50.789 82.378,51.042 82.060 C 51.295 81.742,51.425 81.484,51.330 81.488 C 51.235 81.491,48.838 84.043,46.004 87.159 M72.470 101.505 C 77.679 159.054,101.900 214.346,138.408 252.026 C 189.573 304.833,275.665 329.094,363.632 315.493 C 367.692 314.865,371.151 314.352,371.320 314.352 C 371.488 314.352,371.744 315.862,371.889 317.708 C 372.196 321.634,373.035 323.849,375.111 326.213 C 377.185 328.575,381.944 330.632,381.944 329.167 C 381.944 328.912,381.624 328.704,381.232 328.704 C 376.859 328.704,373.148 322.922,373.148 316.109 L 373.148 312.426 371.875 312.691 C 357.472 315.687,316.197 317.186,297.917 315.376 C 222.615 307.922,167.976 280.606,131.492 232.176 C 105.997 198.334,84.435 149.004,73.362 99.190 C 72.801 96.667,72.178 98.284,72.470 101.505 M83.499 198.607 C 81.176 199.544,80.191 203.274,81.865 204.789 C 83.053 205.865,85.890 205.777,87.037 204.630 C 89.732 201.934,86.957 197.211,83.499 198.607 M81.829 222.259 C 79.558 223.582,78.989 227.474,80.801 229.286 C 84.406 232.891,90.453 229.509,88.887 224.763 C 88.051 222.231,84.215 220.870,81.829 222.259 M99.074 236.574 C 97.836 237.812,97.818 240.531,99.044 241.187 C 101.491 242.497,104.167 241.122,104.167 238.554 C 104.167 237.159,102.602 235.648,101.157 235.648 C 100.521 235.648,99.583 236.065,99.074 236.574 M114.219 252.139 C 113.605 252.753,113.879 254.990,114.602 255.267 C 115.774 255.717,117.180 254.544,117.031 253.241 C 116.899 252.087,115.010 251.348,114.219 252.139 M127.778 262.037 C 125.025 264.790,128.124 269.420,131.787 268.027 C 133.438 267.400,133.780 266.836,133.789 264.733 C 133.802 261.667,129.898 259.916,127.778 262.037 " stroke="none" fill="#ffffff" fill-rule="evenodd"></path><path id="path1" d="M375.294 312.796 C 374.216 320.664,375.750 324.863,380.609 327.342 C 385.890 330.036,384.965 323.950,378.617 314.236 C 375.874 310.039,375.684 309.956,375.294 312.796 " stroke="none" fill="#a32929" fill-rule="evenodd"></path><path id="path2" d="M75.463 11.898 C 74.572 12.356,73.515 13.386,73.115 14.187 C 72.715 14.987,71.513 16.636,70.443 17.852 C 67.322 21.397,67.435 22.594,71.309 26.990 C 74.529 30.645,74.109 35.236,70.157 39.583 C 66.474 43.636,65.331 46.204,62.029 57.853 C 57.385 74.238,57.545 73.948,43.452 91.541 C 30.214 108.066,28.110 112.058,24.836 126.852 C 19.427 151.299,20.711 178.242,28.344 200.455 C 40.698 236.408,87.864 302.036,119.708 327.583 C 143.182 346.413,182.121 366.948,209.981 375.187 C 231.078 381.427,279.267 385.601,303.935 383.326 C 335.268 380.436,363.145 362.578,379.301 335.047 C 380.974 332.195,382.649 329.518,383.022 329.099 C 383.630 328.416,383.574 328.312,382.475 328.091 C 376.803 326.951,373.894 320.646,375.351 312.647 C 375.986 309.163,376.046 309.195,367.393 308.507 C 363.160 308.170,356.317 307.358,352.186 306.703 C 340.409 304.834,337.734 304.660,325.074 304.946 C 270.993 306.167,227.685 292.657,186.343 261.668 C 142.160 228.549,106.725 173.066,88.188 107.978 C 87.516 105.618,85.965 101.568,84.742 98.977 L 82.518 94.267 83.319 91.925 C 84.015 89.891,84.158 86.724,84.414 67.824 C 84.586 55.056,84.913 45.204,85.204 43.981 C 85.925 40.956,88.586 35.651,90.770 32.889 C 93.028 30.032,92.995 28.801,90.521 23.735 C 89.679 22.012,88.839 19.873,88.653 18.981 C 87.459 13.261,80.293 9.412,75.463 11.898 M73.362 99.190 C 84.435 149.004,105.997 198.334,131.492 232.176 C 167.976 280.606,222.615 307.922,297.917 315.376 C 316.197 317.186,357.472 315.687,371.875 312.691 L 373.148 312.426 373.148 316.109 C 373.148 322.922,376.859 328.704,381.232 328.704 C 381.624 328.704,381.944 328.912,381.944 329.167 C 381.944 330.632,377.185 328.575,375.111 326.213 C 373.035 323.849,372.196 321.634,371.889 317.708 C 371.744 315.862,371.488 314.352,371.320 314.352 C 371.151 314.352,367.692 314.865,363.632 315.493 C 275.665 329.094,189.573 304.833,138.408 252.026 C 101.900 214.346,77.679 159.054,72.470 101.505 C 72.178 98.284,72.801 96.667,73.362 99.190 M86.891 199.155 C 88.287 200.465,88.362 203.305,87.037 204.630 C 84.957 206.710,81.019 205.367,81.019 202.578 C 81.019 199.116,84.617 197.018,86.891 199.155 M87.021 222.446 C 91.349 224.683,88.460 231.675,83.586 230.760 C 80.231 230.131,78.756 227.106,80.324 224.074 C 81.540 221.722,84.317 221.047,87.021 222.446 M103.241 236.574 C 105.920 239.253,102.485 243.029,99.044 241.187 C 96.895 240.038,98.570 235.648,101.157 235.648 C 101.794 235.648,102.731 236.065,103.241 236.574 M117.031 253.241 C 117.180 254.544,115.774 255.717,114.602 255.267 C 113.879 254.990,113.605 252.753,114.219 252.139 C 115.010 251.348,116.899 252.087,117.031 253.241 M132.576 262.071 C 134.686 263.730,134.241 267.095,131.787 268.027 C 129.130 269.038,126.852 267.400,126.852 264.480 C 126.852 261.447,130.065 260.095,132.576 262.071 " stroke="none" fill="#fcb427" fill-rule="evenodd"></path></g></svg>
