<svg id="svg" version="1.1" width="432" height="432" xmlns="http://www.w3.org/2000/svg" xmlns:xlink="http://www.w3.org/1999/xlink" style="display: block;"><g id="svgg"><path id="path0" d="M98.404 24.537 C 98.544 27.211,98.958 33.669,99.323 38.889 C 99.689 44.109,100.120 52.442,100.282 57.407 L 100.576 66.435 97.928 63.889 C 96.472 62.488,88.033 53.843,79.175 44.676 C 65.404 30.426,59.491 24.814,60.242 26.707 C 60.338 26.950,63.155 32.654,66.503 39.384 C 75.230 56.931,82.188 72.685,81.211 72.685 C 80.897 72.685,59.506 60.475,38.318 48.203 C 29.475 43.080,22.134 38.889,22.005 38.889 C 21.877 38.889,31.771 50.588,43.993 64.886 C 56.215 79.185,66.132 90.967,66.030 91.069 C 65.928 91.171,62.853 91.542,59.195 91.894 C 55.538 92.247,48.380 93.061,43.287 93.704 C 34.678 94.791,24.324 95.817,21.858 95.829 C 19.413 95.840,29.228 103.280,36.455 106.895 C 52.676 115.007,73.119 117.873,80.460 113.063 L 81.593 112.320 81.298 114.841 C 81.003 117.360,81.004 117.359,82.556 113.194 C 91.042 90.434,107.210 77.481,133.071 72.727 C 144.959 70.542,158.977 74.098,169.676 82.014 C 180.301 89.875,201.034 115.550,209.223 130.988 L 211.959 136.146 203.549 140.353 C 179.628 152.322,166.667 161.615,166.667 166.796 C 166.667 167.973,168.571 170.883,170.369 172.454 C 170.952 172.963,172.427 174.572,173.647 176.029 L 175.866 178.679 178.173 175.780 C 183.051 169.650,190.407 163.403,198.843 158.228 C 203.073 155.633,216.634 147.574,217.216 147.309 C 217.391 147.230,218.476 148.792,219.627 150.781 C 220.778 152.771,223.399 156.377,225.450 158.796 C 235.271 170.375,234.085 175.944,220.612 181.524 C 210.546 185.693,205.410 188.709,203.003 191.865 C 201.252 194.160,201.674 195.254,205.438 198.188 C 207.158 199.528,209.339 201.352,210.284 202.242 L 212.004 203.859 216.007 199.606 C 224.447 190.640,233.176 185.173,240.898 184.015 L 242.943 183.708 249.913 192.896 L 256.883 202.083 255.295 203.721 C 254.422 204.622,251.395 206.601,248.569 208.119 C 243.095 211.060,238.853 214.511,236.486 217.952 L 235.033 220.064 238.002 222.748 C 241.596 225.996,240.920 225.973,244.744 222.982 C 248.485 220.057,251.395 218.516,255.667 217.199 C 259.613 215.982,266.768 214.718,267.164 215.168 C 267.329 215.356,277.844 230.301,290.532 248.380 C 314.079 281.932,338.279 316.300,357.817 343.936 C 363.830 352.442,370.313 361.171,372.222 363.334 C 384.690 377.457,386.870 381.389,384.979 386.342 C 382.353 393.217,376.334 391.642,363.004 380.590 C 356.805 375.450,352.380 371.988,354.398 373.857 C 374.522 392.495,382.079 395.867,386.092 388.000 C 388.875 382.545,386.443 376.668,376.690 365.278 C 373.037 361.011,365.633 350.491,348.505 325.231 C 328.668 295.976,307.391 264.850,276.122 219.344 L 269.213 209.290 267.130 209.544 C 264.552 209.858,257.582 211.020,256.019 211.396 C 255.198 211.594,255.536 211.201,257.176 210.049 C 258.449 209.155,260.619 207.268,261.997 205.856 L 264.503 203.290 254.869 190.418 C 249.571 183.339,245.198 177.495,245.151 177.433 C 245.105 177.371,242.948 177.699,240.358 178.161 C 237.767 178.624,235.648 178.979,235.648 178.951 C 235.648 178.923,236.056 178.099,236.555 177.121 C 239.352 171.634,237.595 164.784,231.551 157.612 C 227.615 152.943,225.486 150.007,222.776 145.510 C 221.425 143.269,219.934 140.924,219.462 140.298 L 218.603 139.162 215.899 140.880 C 214.411 141.825,208.507 145.409,202.778 148.844 C 190.328 156.310,185.521 159.806,179.525 165.749 L 175.022 170.213 173.854 168.993 C 172.145 167.210,172.361 166.583,175.749 163.479 C 181.403 158.297,190.460 152.750,207.766 143.869 L 218.541 138.340 217.522 136.647 C 216.962 135.716,216.150 134.433,215.718 133.796 C 215.286 133.160,214.255 131.285,213.428 129.630 C 208.712 120.192,190.478 96.404,181.057 87.400 C 168.025 74.944,155.907 69.314,142.243 69.367 C 136.317 69.390,129.310 70.421,127.607 71.521 C 126.804 72.040,119.777 74.074,118.789 74.074 C 118.640 74.074,118.515 73.189,118.510 72.106 C 118.483 65.265,111.817 47.215,102.056 27.546 L 98.149 19.676 98.404 24.537 M78.636 126.937 C 76.588 138.053,79.292 151.311,85.884 162.467 C 89.804 169.099,92.125 171.667,101.157 179.363 C 105.741 183.268,118.449 194.129,129.398 203.499 C 176.198 243.547,200.046 262.757,225.926 281.254 C 244.686 294.662,248.998 298.105,262.731 310.631 C 279.406 325.841,283.019 328.549,294.213 334.225 C 302.415 338.385,306.790 341.365,319.444 351.412 C 332.893 362.090,339.507 366.553,346.173 369.448 C 349.701 370.980,349.537 370.841,343.900 367.521 C 338.233 364.184,333.347 360.412,323.560 351.821 C 308.781 338.846,302.714 334.375,293.133 329.397 C 286.665 326.037,281.112 321.608,269.907 310.876 C 253.006 294.686,248.652 291.052,229.167 276.869 C 208.141 261.565,192.857 249.511,150.296 214.665 C 136.256 203.170,118.935 189.118,111.806 183.438 C 95.547 170.485,94.509 169.586,91.467 165.817 C 82.647 154.890,77.782 139.965,79.142 128.003 C 79.717 122.936,79.470 122.414,78.636 126.937 M214.050 192.654 C 211.397 195.307,211.148 195.449,210.254 194.823 C 209.412 194.233,215.059 189.815,216.655 189.815 C 216.784 189.815,215.611 191.092,214.050 192.654 " stroke="none" fill="#ffffff" fill-rule="evenodd"></path><path id="path1" d="M133.796 72.686 C 107.350 77.185,89.940 91.478,81.989 115.217 C 75.487 134.629,81.793 159.067,96.374 170.972 C 97.477 171.873,104.734 177.682,112.500 183.882 C 120.266 190.082,138.079 204.536,152.083 216.002 C 193.771 250.134,206.794 260.406,227.778 275.711 C 244.977 288.256,252.449 294.268,261.549 302.888 C 282.447 322.682,286.234 325.871,292.427 328.893 C 300.881 333.017,308.327 338.397,321.360 349.798 C 335.862 362.484,340.508 365.940,348.731 370.163 C 353.467 372.595,354.270 373.172,362.269 379.875 C 375.333 390.823,381.109 392.829,384.370 387.552 C 387.196 382.980,384.805 377.627,375.078 366.747 C 372.871 364.278,370.307 361.323,369.381 360.180 C 367.452 357.799,340.201 319.243,298.809 260.327 C 283.100 237.969,269.453 218.605,268.481 217.297 L 266.714 214.917 263.102 215.581 C 254.689 217.126,250.365 218.833,245.546 222.509 C 243.417 224.134,241.500 225.463,241.287 225.463 C 240.778 225.463,235.185 220.399,235.185 219.938 C 235.185 217.528,242.009 211.567,249.220 207.676 C 253.321 205.463,256.481 203.086,256.481 202.213 C 256.481 201.955,253.420 197.694,249.679 192.745 L 242.876 183.745 241.016 184.059 C 232.923 185.427,225.920 189.719,217.020 198.768 L 212.048 203.822 210.284 202.258 C 209.314 201.398,207.221 199.700,205.634 198.484 C 198.676 193.156,202.049 189.158,219.769 181.729 C 234.711 175.464,235.569 170.799,224.229 157.484 C 222.914 155.939,220.836 153.005,219.613 150.963 C 217.534 147.494,217.326 147.290,216.448 147.861 C 215.932 148.197,211.863 150.607,207.407 153.217 C 190.719 162.991,182.429 169.625,176.721 177.775 C 176.245 178.454,175.781 178.722,175.546 178.453 C 175.332 178.209,173.346 175.979,171.133 173.498 C 166.099 167.854,165.812 167.184,167.325 164.603 C 170.808 158.660,181.627 151.316,201.600 141.338 C 206.959 138.661,211.435 136.384,211.547 136.279 C 213.077 134.848,190.915 102.978,181.187 92.621 C 166.278 76.746,150.051 69.920,133.796 72.686 " stroke="none" fill="#d54728" fill-rule="evenodd"></path><path id="path2" d="M91.035 7.179 C 90.496 8.584,90.730 12.740,91.936 23.200 C 94.135 42.266,92.926 47.797,87.347 44.200 C 86.285 43.515,79.375 36.877,71.991 29.449 C 58.143 15.520,55.137 13.054,53.358 14.169 C 51.170 15.540,52.324 20.182,58.121 33.333 C 68.150 56.083,66.827 56.718,40.286 41.903 C 30.097 36.215,25.089 33.721,20.810 32.204 C 7.216 27.383,9.737 33.994,31.479 60.185 C 40.907 71.542,44.609 76.427,46.141 79.532 L 47.349 81.981 46.283 83.116 C 43.908 85.644,36.461 87.366,20.370 89.108 C 4.161 90.863,5.324 90.313,8.746 94.610 C 23.309 112.895,53.464 127.051,72.603 124.587 C 79.884 123.650,81.350 122.476,80.614 118.171 C 80.560 117.853,80.680 117.591,80.882 117.589 C 81.085 117.587,81.298 116.420,81.356 114.996 L 81.462 112.406 80.394 113.106 C 73.121 117.872,52.604 114.971,36.455 106.895 C 29.228 103.280,19.413 95.840,21.858 95.829 C 24.324 95.817,34.678 94.791,43.287 93.704 C 48.380 93.061,55.538 92.247,59.195 91.894 C 62.853 91.542,65.928 91.171,66.030 91.069 C 66.132 90.967,56.215 79.185,43.993 64.886 C 31.771 50.588,21.877 38.889,22.005 38.889 C 22.134 38.889,29.475 43.080,38.318 48.203 C 59.506 60.475,80.897 72.685,81.211 72.685 C 82.188 72.685,75.230 56.931,66.503 39.384 C 63.155 32.654,60.338 26.950,60.242 26.707 C 59.491 24.814,65.404 30.426,79.175 44.676 C 88.033 53.843,96.472 62.488,97.928 63.889 L 100.576 66.435 100.282 57.407 C 100.120 52.442,99.689 44.109,99.323 38.889 C 98.958 33.669,98.544 27.211,98.404 24.537 L 98.149 19.676 102.056 27.546 C 111.817 47.215,118.483 65.265,118.510 72.106 C 118.515 73.189,118.630 74.074,118.767 74.074 C 119.469 74.074,126.769 72.096,127.317 71.758 C 129.038 70.694,123.251 53.897,116.551 40.509 C 106.099 19.623,92.884 2.361,91.035 7.179 M78.836 132.176 C 78.840 133.449,78.930 133.915,79.036 133.211 C 79.142 132.507,79.139 131.466,79.030 130.896 C 78.920 130.327,78.833 130.903,78.836 132.176 M170.833 173.293 C 170.833 173.373,171.510 174.050,172.338 174.798 L 173.843 176.157 172.483 174.653 C 171.215 173.250,170.833 172.935,170.833 173.293 M262.037 303.386 C 262.037 303.465,262.714 304.142,263.542 304.890 L 265.046 306.250 263.687 304.745 C 262.419 303.343,262.037 303.028,262.037 303.386 " stroke="none" fill="#749a4b" fill-rule="evenodd"></path></g></svg>
