<svg id="svg" version="1.1" width="432" height="432" xmlns="http://www.w3.org/2000/svg" xmlns:xlink="http://www.w3.org/1999/xlink" style="display: block;"><g id="svgg"><path id="path0" d="M154.167 16.742 C 141.406 19.125,135.638 26.261,137.738 37.068 C 139.667 47.000,137.791 54.467,132.027 59.803 C 130.360 61.346,112.493 73.132,85.153 90.722 C 29.095 126.789,31.868 124.925,29.884 127.872 C 27.084 132.030,27.194 127.377,27.637 222.917 L 28.046 310.880 29.034 313.335 C 32.652 322.323,33.531 322.752,118.519 357.036 C 181.897 382.603,183.990 383.365,193.594 384.369 C 204.706 385.531,209.478 384.353,235.042 374.135 C 245.179 370.083,278.334 357.042,308.720 345.154 C 375.565 319.002,371.285 320.772,373.812 318.244 C 377.667 314.389,377.330 322.824,377.630 222.685 L 377.897 133.565 376.905 129.451 C 374.551 119.683,370.744 115.597,355.093 106.035 C 327.231 89.013,312.015 80.049,303.726 75.771 C 289.868 68.621,290.119 68.997,289.352 54.167 C 288.271 33.261,288.123 32.564,283.906 28.620 C 279.491 24.490,275.847 23.363,265.509 22.931 C 261.690 22.771,244.919 21.821,228.241 20.819 C 211.563 19.818,195.938 18.881,193.519 18.736 C 183.996 18.168,165.853 16.616,163.750 16.191 C 160.862 15.606,159.973 15.657,154.167 16.742 M213.657 26.830 C 224.606 27.346,238.461 27.977,244.444 28.232 C 262.331 28.996,264.343 29.251,268.804 31.319 C 276.780 35.015,279.450 42.980,278.248 59.491 C 277.350 71.816,273.901 74.926,262.731 73.484 L 259.954 73.125 262.411 74.105 C 265.445 75.315,267.912 77.700,268.307 79.807 C 268.950 83.230,268.428 83.819,239.354 112.500 C 224.255 127.396,206.082 145.678,198.971 153.126 C 185.606 167.125,183.951 168.521,179.681 169.407 C 176.744 170.017,178.121 170.220,157.498 166.138 C 148.508 164.358,140.904 162.987,140.600 163.089 C 140.295 163.192,140.880 163.429,141.898 163.617 C 147.791 164.701,172.002 172.299,175.573 174.184 C 180.058 176.551,183.767 181.307,185.158 186.474 C 185.978 189.517,186.524 202.870,187.029 232.176 C 187.284 246.944,187.706 263.611,187.968 269.213 C 192.793 372.509,192.858 369.106,186.010 371.966 C 182.342 373.498,183.779 374.017,144.444 356.953 C 98.749 337.129,87.499 332.443,58.110 320.994 C 39.518 313.752,38.493 313.181,37.566 309.562 C 37.136 307.885,36.781 296.315,35.413 239.583 C 34.468 200.332,34.204 150.868,34.929 148.686 C 36.194 144.878,39.504 142.610,43.851 142.574 L 46.065 142.556 44.640 141.936 C 37.399 138.783,36.374 131.099,42.421 125.300 C 47.703 120.235,128.124 69.300,141.239 62.714 C 146.823 59.910,150.706 59.118,155.938 59.717 C 161.343 60.337,162.313 60.259,159.259 59.450 C 153.060 57.808,152.004 57.385,150.703 56.027 C 148.960 54.208,148.673 50.734,149.721 44.141 C 150.129 41.573,150.463 38.308,150.463 36.883 C 150.463 31.794,153.708 26.455,157.280 25.666 C 157.987 25.510,158.719 25.348,158.908 25.307 C 160.188 25.026,197.261 26.057,213.657 26.830 M156.808 28.600 C 153.973 30.349,153.307 33.006,153.150 43.185 C 153.034 50.747,153.125 52.414,153.673 52.756 C 154.391 53.203,157.464 53.653,169.676 55.101 C 183.196 56.704,195.581 59.114,211.343 63.208 C 227.419 67.384,242.860 69.991,256.701 70.867 C 272.401 71.861,273.746 70.837,272.457 58.877 C 270.340 39.233,269.331 37.961,255.324 37.274 C 231.875 36.123,214.799 34.452,186.574 30.545 C 175.895 29.066,162.765 27.768,158.796 27.797 C 158.414 27.800,157.520 28.161,156.808 28.600 M148.734 61.310 C 144.733 62.791,142.301 64.343,130.710 72.812 C 114.237 84.849,88.381 103.223,71.296 115.033 C 47.990 131.144,48.335 130.895,47.493 132.181 L 46.717 133.365 49.169 134.480 C 50.517 135.094,53.912 136.042,56.713 136.587 C 69.009 138.982,125.634 152.908,162.027 162.489 C 182.378 167.847,180.084 168.503,195.370 152.952 C 209.705 138.370,260.648 82.448,260.648 81.295 C 260.648 80.576,254.810 79.334,241.898 77.307 C 220.455 73.941,182.552 67.369,175.378 65.773 C 169.420 64.448,153.732 60.813,152.315 60.429 C 151.933 60.326,150.322 60.722,148.734 61.310 M288.556 77.822 C 296.140 80.376,310.055 88.305,335.185 104.391 C 360.276 120.452,360.073 120.300,359.099 122.254 C 358.495 123.465,358.573 123.433,347.284 127.081 C 342.863 128.509,332.446 132.143,324.136 135.156 C 308.626 140.780,293.445 145.871,286.686 147.715 C 284.584 148.289,282.950 148.845,283.056 148.951 C 283.161 149.056,287.694 147.895,293.129 146.370 C 315.893 139.981,357.668 129.167,359.585 129.167 C 363.262 129.167,368.112 132.418,368.717 135.289 C 368.839 135.869,369.039 156.030,369.162 180.093 C 369.371 220.941,369.665 236.153,370.832 266.481 C 372.712 315.351,373.841 311.934,352.879 320.785 C 328.996 330.869,316.913 335.680,282.407 348.841 C 242.486 364.069,238.436 365.635,221.138 372.538 C 199.101 381.332,199.391 381.469,198.873 362.037 C 198.440 345.793,197.791 327.879,196.752 303.472 C 196.253 291.759,195.633 276.759,195.374 270.139 C 195.115 263.519,194.554 251.539,194.127 243.519 C 193.701 235.498,193.341 221.748,193.327 212.963 C 193.275 180.737,195.273 175.161,208.333 171.075 C 214.662 169.094,252.688 157.886,268.157 153.441 C 275.979 151.193,282.310 149.286,282.226 149.202 C 282.143 149.118,277.618 150.182,272.171 151.567 C 266.725 152.952,255.394 155.687,246.991 157.647 C 231.663 161.220,213.041 166.117,206.399 168.319 C 198.159 171.052,194.640 166.817,200.074 160.708 C 201.123 159.529,206.375 153.565,211.746 147.454 C 246.409 108.014,274.345 80.521,282.848 77.480 C 285.049 76.693,285.238 76.704,288.556 77.822 M282.320 87.462 C 276.316 92.015,263.121 104.266,242.137 124.769 C 235.622 131.134,223.574 142.783,215.364 150.655 C 207.154 158.526,200.510 165.187,200.600 165.457 C 200.911 166.391,203.023 166.488,205.787 165.695 C 207.315 165.257,212.419 163.823,217.130 162.510 C 221.840 161.197,236.840 156.397,250.463 151.845 C 283.059 140.951,295.186 137.511,322.222 131.489 C 348.512 125.633,358.338 122.897,358.327 121.436 C 358.311 119.135,341.944 110.495,311.111 96.513 C 283.036 83.781,285.962 84.701,282.320 87.462 M336.343 140.307 C 302.146 151.680,272.684 160.829,226.157 174.525 C 202.409 181.515,203.452 180.792,202.111 191.204 C 201.242 197.950,200.246 218.726,200.738 219.840 C 200.923 220.259,201.197 254.910,201.347 296.841 L 201.620 373.081 202.592 374.388 C 204.618 377.112,203.583 377.511,273.136 347.122 C 311.628 330.305,325.407 324.426,345.833 316.108 C 363.547 308.895,364.026 308.633,365.204 305.522 C 367.477 299.521,368.495 187.560,366.647 146.848 C 365.873 129.787,367.146 130.062,336.343 140.307 M356.098 148.914 C 357.100 149.821,357.309 155.638,356.410 157.611 C 355.524 159.556,355.504 159.564,306.229 175.449 C 280.013 183.900,249.606 193.707,238.657 197.242 C 216.336 204.448,216.611 204.369,215.126 203.996 C 211.506 203.088,212.382 192.282,216.265 189.946 C 217.122 189.430,222.616 187.611,228.472 185.903 C 245.153 181.041,280.815 170.220,307.176 162.023 C 341.991 151.196,342.603 151.010,348.046 149.550 C 353.904 147.978,354.970 147.894,356.098 148.914 M42.847 151.505 C 42.748 151.823,42.549 173.854,42.404 200.463 C 42.258 227.072,41.934 257.593,41.684 268.287 C 40.814 305.371,40.835 309.548,41.898 310.617 C 43.958 312.687,90.927 331.612,128.704 345.593 C 136.470 348.467,151.844 354.193,162.869 358.318 C 178.677 364.232,183.052 365.704,183.564 365.279 C 184.110 364.826,184.203 360.044,184.150 335.263 C 184.112 317.797,184.396 294.469,184.846 278.009 C 186.351 222.999,186.250 209.371,184.212 191.898 C 182.493 177.154,177.387 174.920,125.463 166.189 C 109.076 163.433,92.397 160.316,64.730 154.838 C 43.839 150.702,43.129 150.594,42.847 151.505 M354.948 289.716 C 355.896 290.319,356.481 292.545,356.481 295.551 C 356.481 299.065,355.791 299.887,351.358 301.650 C 344.904 304.216,312.373 316.404,297.917 321.672 C 289.514 324.734,274.472 330.270,264.489 333.974 C 238.481 343.624,216.770 351.389,215.797 351.389 C 213.903 351.389,213.280 349.815,213.236 344.915 C 213.175 338.180,212.172 338.848,233.333 331.546 C 256.821 323.441,268.428 319.334,308.796 304.844 C 353.880 288.660,353.490 288.788,354.948 289.716 " stroke="none" fill="#ffffff" fill-rule="evenodd"></path><path id="path1" d="M158.908 25.307 C 158.719 25.348,157.987 25.510,157.280 25.666 C 153.708 26.455,150.463 31.794,150.463 36.883 C 150.463 38.308,150.129 41.573,149.721 44.141 C 148.673 50.734,148.960 54.208,150.703 56.027 C 152.004 57.385,153.060 57.808,159.259 59.450 C 162.313 60.259,161.343 60.337,155.938 59.717 C 150.706 59.118,146.823 59.910,141.239 62.714 C 128.124 69.300,47.703 120.235,42.421 125.300 C 36.374 131.099,37.399 138.783,44.640 141.936 L 46.065 142.556 43.851 142.574 C 39.504 142.610,36.194 144.878,34.929 148.686 C 34.204 150.868,34.468 200.332,35.413 239.583 C 36.781 296.315,37.136 307.885,37.566 309.562 C 38.493 313.181,39.518 313.752,58.110 320.994 C 87.499 332.443,98.749 337.129,144.444 356.953 C 183.779 374.017,182.342 373.498,186.010 371.966 C 192.858 369.106,192.793 372.509,187.968 269.213 C 187.706 263.611,187.284 246.944,187.029 232.176 C 186.051 175.394,186.723 177.112,162.500 169.514 C 151.365 166.021,144.882 164.166,141.898 163.617 C 140.880 163.429,140.295 163.192,140.600 163.089 C 140.904 162.987,148.508 164.358,157.498 166.138 C 178.121 170.220,176.744 170.017,179.681 169.407 C 183.951 168.521,185.606 167.125,198.971 153.126 C 206.082 145.678,224.255 127.396,239.354 112.500 C 268.428 83.819,268.950 83.230,268.307 79.807 C 267.912 77.700,265.445 75.315,262.411 74.105 L 259.954 73.125 262.731 73.484 C 273.901 74.926,277.350 71.816,278.248 59.491 C 279.450 42.980,276.780 35.015,268.804 31.319 C 264.343 29.251,262.331 28.996,244.444 28.232 C 238.461 27.977,224.606 27.346,213.657 26.830 C 197.261 26.057,160.188 25.026,158.908 25.307 M166.435 28.255 C 170.255 28.510,179.317 29.540,186.574 30.545 C 214.799 34.452,231.875 36.123,255.324 37.274 C 269.331 37.961,270.340 39.233,272.457 58.877 C 273.746 70.837,272.401 71.861,256.701 70.867 C 242.860 69.991,227.419 67.384,211.343 63.208 C 195.581 59.114,183.196 56.704,169.676 55.101 C 157.464 53.653,154.391 53.203,153.673 52.756 C 153.125 52.414,153.034 50.747,153.150 43.185 C 153.307 33.006,153.973 30.349,156.808 28.600 C 158.342 27.654,157.746 27.676,166.435 28.255 M161.111 62.510 C 165.567 63.550,171.987 65.019,175.378 65.773 C 182.552 67.369,220.455 73.941,241.898 77.307 C 254.810 79.334,260.648 80.576,260.648 81.295 C 260.648 82.448,209.705 138.370,195.370 152.952 C 180.084 168.503,182.378 167.847,162.027 162.489 C 125.634 152.908,69.009 138.982,56.713 136.587 C 53.912 136.042,50.517 135.094,49.169 134.480 L 46.717 133.365 47.493 132.181 C 48.335 130.895,47.990 131.144,71.296 115.033 C 88.381 103.223,114.237 84.849,130.710 72.812 C 143.944 63.142,149.844 59.761,152.315 60.429 C 152.697 60.533,156.655 61.469,161.111 62.510 M282.848 77.480 C 274.345 80.521,246.409 108.014,211.746 147.454 C 206.375 153.565,201.123 159.529,200.074 160.708 C 194.640 166.817,198.159 171.052,206.399 168.319 C 213.041 166.117,231.663 161.220,246.991 157.647 C 255.394 155.687,266.725 152.952,272.171 151.567 C 277.618 150.182,282.143 149.118,282.226 149.202 C 282.310 149.286,275.979 151.193,268.157 153.441 C 252.688 157.886,214.662 169.094,208.333 171.075 C 195.273 175.161,193.275 180.737,193.327 212.963 C 193.341 221.748,193.701 235.498,194.127 243.519 C 194.554 251.539,195.115 263.519,195.374 270.139 C 195.633 276.759,196.253 291.759,196.752 303.472 C 197.791 327.879,198.440 345.793,198.873 362.037 C 199.391 381.469,199.101 381.332,221.138 372.538 C 238.436 365.635,242.486 364.069,282.407 348.841 C 339.121 327.209,363.472 317.004,367.609 313.135 C 372.279 308.766,372.394 307.097,370.832 266.481 C 369.665 236.153,369.371 220.941,369.162 180.093 C 369.039 156.030,368.839 135.869,368.717 135.289 C 368.112 132.418,363.262 129.167,359.585 129.167 C 357.668 129.167,315.893 139.981,293.129 146.370 C 287.694 147.895,283.161 149.056,283.056 148.951 C 282.950 148.845,284.584 148.289,286.686 147.715 C 293.445 145.871,308.626 140.780,324.136 135.156 C 332.446 132.143,342.863 128.509,347.284 127.081 C 358.573 123.433,358.495 123.465,359.099 122.254 C 360.073 120.300,360.276 120.452,335.185 104.391 C 310.055 88.305,296.140 80.376,288.556 77.822 C 285.238 76.704,285.049 76.693,282.848 77.480 M292.361 88.085 C 328.570 103.775,358.309 118.810,358.327 121.436 C 358.338 122.897,348.512 125.633,322.222 131.489 C 295.186 137.511,283.059 140.951,250.463 151.845 C 236.840 156.397,221.840 161.197,217.130 162.510 C 212.419 163.823,207.315 165.257,205.787 165.695 C 203.023 166.488,200.911 166.391,200.600 165.457 C 200.510 165.187,207.154 158.526,215.364 150.655 C 223.574 142.783,235.622 131.134,242.137 124.769 C 263.121 104.266,276.316 92.015,282.320 87.462 C 285.657 84.932,284.989 84.890,292.361 88.085 M363.261 133.627 C 366.611 135.217,366.742 136.847,367.663 188.657 C 368.247 221.489,366.554 301.959,365.204 305.522 C 364.026 308.633,363.547 308.895,345.833 316.108 C 325.407 324.426,311.628 330.305,273.136 347.122 C 203.583 377.511,204.618 377.112,202.592 374.388 L 201.620 373.081 201.347 296.841 C 201.197 254.910,200.923 220.259,200.738 219.840 C 200.246 218.726,201.242 197.950,202.111 191.204 C 203.452 180.792,202.409 181.515,226.157 174.525 C 272.684 160.829,302.146 151.680,336.343 140.307 C 359.290 132.675,360.579 132.355,363.261 133.627 M64.730 154.838 C 92.397 160.316,109.076 163.433,125.463 166.189 C 177.387 174.920,182.493 177.154,184.212 191.898 C 186.250 209.371,186.351 222.999,184.846 278.009 C 184.396 294.469,184.112 317.797,184.150 335.263 C 184.203 360.044,184.110 364.826,183.564 365.279 C 183.052 365.704,178.677 364.232,162.869 358.318 C 151.844 354.193,136.470 348.467,128.704 345.593 C 90.927 331.612,43.958 312.687,41.898 310.617 C 40.835 309.548,40.814 305.371,41.684 268.287 C 41.934 257.593,42.258 227.072,42.404 200.463 C 42.549 173.854,42.748 151.823,42.847 151.505 C 43.129 150.594,43.839 150.702,64.730 154.838 M213.106 344.213 C 213.109 345.741,213.195 346.310,213.298 345.478 C 213.402 344.646,213.399 343.396,213.294 342.700 C 213.188 342.004,213.104 342.685,213.106 344.213 " stroke="none" fill="#fcb427" fill-rule="evenodd"></path><path id="path2" d="M347.685 149.771 C 344.502 150.627,330.544 154.867,316.667 159.194 C 280.987 170.318,242.234 182.091,225.000 187.041 C 214.117 190.167,213.212 191.013,213.201 198.073 C 213.191 204.484,213.950 204.938,221.065 202.781 C 233.225 199.095,353.756 159.933,354.752 159.344 C 357.923 157.472,357.701 148.077,354.488 148.181 C 353.929 148.199,350.868 148.915,347.685 149.771 M352.546 289.667 C 350.401 290.147,345.200 291.968,310.185 304.492 C 267.775 319.662,235.186 331.136,223.739 334.928 C 213.525 338.311,213.426 338.407,213.426 344.943 C 213.426 350.243,214.198 351.760,216.591 351.160 C 218.502 350.681,240.039 342.895,265.278 333.559 C 277.882 328.896,294.028 322.957,301.157 320.361 C 308.287 317.765,321.204 312.972,329.861 309.710 C 358.993 298.734,356.770 300.008,356.321 294.552 C 356.043 291.170,355.052 289.173,353.768 289.406 C 353.605 289.435,353.056 289.553,352.546 289.667 " stroke="none" fill="#749a4b" fill-rule="evenodd"></path></g></svg>
