<?xml version="1.0" standalone="no"?>
<!DOCTYPE svg PUBLIC "-//W3C//DTD SVG 20010904//EN"
 "http://www.w3.org/TR/2001/REC-SVG-20010904/DTD/svg10.dtd">
<svg version="1.0" xmlns="http://www.w3.org/2000/svg"
 width="864.000000pt" height="864.000000pt" viewBox="0 0 864.000000 864.000000"
 preserveAspectRatio="xMidYMid meet">

<g transform="translate(0.000000,864.000000) scale(0.100000,-0.100000)"
fill="#000000" stroke="none">
<path d="M561 8351 c-22 -22 -36 -95 -52 -271 -52 -566 138 -1053 640 -1640
45 -52 84 -95 86 -95 2 0 36 53 75 119 l70 118 -47 42 c-83 73 -223 238 -306
361 -127 190 -210 381 -254 585 -14 68 -18 129 -18 300 1 187 4 229 24 320 13
58 26 115 28 127 5 21 2 22 -24 17 -18 -3 -61 3 -105 15 -91 26 -93 26 -117 2z"/>
<path d="M2180 6903 c-70 -7 -235 -45 -304 -70 -239 -86 -403 -214 -542 -424
-78 -116 -123 -225 -157 -379 -32 -143 -31 -424 1 -569 43 -190 95 -317 188
-456 64 -97 108 -143 290 -307 586 -527 959 -1214 1094 -2018 47 -280 109
-474 221 -700 129 -259 271 -454 488 -670 175 -174 234 -219 491 -370 403
-237 583 -323 805 -381 453 -119 949 -73 1365 127 455 219 771 592 886 1047
35 136 56 186 120 285 73 112 213 255 419 427 248 207 390 363 517 568 281
451 334 1047 141 1567 -302 811 -1214 1523 -2158 1684 -239 41 -412 40 -795
-4 -227 -27 -525 -36 -653 -21 -274 32 -720 176 -1457 469 -344 137 -426 163
-585 187 -90 13 -283 18 -375 8z m4490 -1625 c55 -37 118 -123 136 -184 26
-90 2 -165 -66 -207 -28 -18 -50 -22 -115 -22 -95 0 -171 24 -221 67 -68 60
-98 249 -47 299 64 64 247 92 313 47z m807 -556 c32 -10 91 -37 130 -60 80
-47 97 -74 108 -179 10 -88 -8 -166 -48 -199 -89 -75 -237 -112 -322 -80 -112
43 -209 229 -190 366 6 43 14 56 60 98 80 73 152 88 262 54z m-935 -252 c64
-55 111 -132 111 -178 0 -70 -66 -161 -130 -183 -115 -37 -233 75 -249 236 -6
55 -4 63 20 92 35 41 101 72 157 73 40 0 52 -5 91 -40z m601 -704 c54 -27 120
-96 169 -179 41 -68 42 -73 42 -156 0 -100 -27 -172 -85 -230 -65 -65 -209
-111 -304 -97 -119 18 -310 162 -334 252 -32 121 115 356 259 412 70 28 194
26 253 -2z"/>
</g>
</svg>
