<svg id="svg" version="1.1" width="432" height="432" xmlns="http://www.w3.org/2000/svg" xmlns:xlink="http://www.w3.org/1999/xlink" style="display: block;"><g id="svgg"><path id="path0" d="M192.244 41.927 C 188.680 51.075,185.139 61.925,181.226 75.694 C 176.865 91.035,176.493 91.865,174.114 91.546 C 170.018 90.996,150.954 82.154,140.998 76.186 C 138.211 74.515,135.856 73.148,135.765 73.148 C 135.674 73.148,135.662 85.179,135.739 99.884 C 135.860 122.958,135.783 126.874,135.174 128.472 L 134.468 130.324 130.410 130.206 C 128.178 130.142,119.121 129.265,110.283 128.257 C 94.754 126.488,87.347 125.924,86.801 126.471 C 86.657 126.615,87.576 130.145,88.843 134.315 C 90.110 138.486,92.108 145.164,93.282 149.155 C 94.457 153.147,96.344 158.856,97.477 161.842 C 98.610 164.828,99.537 167.407,99.537 167.573 C 99.537 167.739,97.983 168.136,96.084 168.455 C 90.762 169.350,82.637 171.493,72.222 174.751 C 59.388 178.765,53.553 180.373,47.760 181.490 C 42.095 182.584,42.245 182.502,43.209 183.974 C 45.930 188.127,63.132 196.381,77.083 200.228 C 81.257 201.379,82.624 201.940,82.578 202.483 C 82.354 205.109,76.829 211.712,65.589 222.782 C 59.201 229.073,54.073 234.319,54.193 234.440 C 56.550 236.797,73.553 235.508,80.741 232.427 C 82.781 231.553,82.945 231.540,82.635 232.286 C 77.011 245.822,76.365 253.128,79.172 271.445 C 86.470 319.059,112.864 346.069,171.296 365.721 C 210.277 378.831,245.613 383.022,282.870 378.954 C 286.308 378.579,293.079 378.056,297.917 377.792 C 343.227 375.321,369.057 353.901,378.954 310.593 C 390.120 261.733,384.413 204.822,363.589 157.380 C 348.461 122.916,321.460 96.911,289.358 85.888 C 277.171 81.703,258.819 77.061,252.662 76.606 C 250.434 76.441,248.613 76.168,248.616 76.000 C 248.619 75.832,248.931 74.672,249.311 73.422 C 250.790 68.546,250.060 62.346,247.166 55.208 C 246.248 52.943,245.476 53.439,232.176 64.856 C 227.593 68.790,222.130 73.311,220.036 74.904 L 216.229 77.800 214.972 75.821 C 214.281 74.733,211.288 68.633,208.321 62.266 C 201.836 48.348,197.175 39.143,195.680 37.297 L 194.578 35.937 192.244 41.927 M263.194 84.971 C 298.393 95.018,311.960 102.296,329.486 120.533 C 364.662 157.135,382.384 233.572,371.762 302.874 C 367.088 333.369,355.660 352.386,334.868 364.265 C 305.512 381.037,250.257 382.480,199.034 367.813 C 124.854 346.571,94.002 316.454,82.615 254.167 L 81.388 247.455 82.654 239.121 C 84.302 228.268,88.202 218.060,96.586 202.660 C 125.855 148.892,172.180 108.495,228.225 87.866 C 245.615 81.465,249.722 81.125,263.194 84.971 M254.858 135.379 C 249.788 146.844,252.240 157.272,261.713 164.528 C 266.918 168.515,270.057 168.674,276.966 165.303 C 282.295 162.703,283.025 161.584,283.017 156.023 C 283.004 146.456,279.441 142.774,263.557 135.913 C 255.141 132.278,256.201 132.343,254.858 135.379 M193.135 191.072 C 189.124 217.425,201.688 232.263,218.403 220.912 C 224.485 216.781,225.897 214.181,225.084 208.604 C 223.380 196.916,214.405 190.534,195.800 187.781 L 193.684 187.468 193.135 191.072 M271.444 220.718 C 272.143 237.258,276.609 243.992,288.420 246.313 C 292.386 247.092,301.582 240.535,302.509 236.266 C 303.214 233.019,300.180 225.687,296.683 222.190 C 292.251 217.758,281.033 213.909,272.499 213.892 L 271.156 213.889 271.444 220.718 M133.160 253.575 C 133.529 254.792,134.546 259.329,135.422 263.657 C 138.883 280.777,142.828 285.648,153.233 285.648 C 160.308 285.648,169.063 277.452,168.266 271.576 C 166.654 259.687,160.818 256.275,134.185 251.656 L 132.490 251.362 133.160 253.575 M210.648 272.279 C 210.648 285.428,215.950 297.224,223.327 300.488 C 231.131 303.940,234.979 303.195,239.572 297.343 C 242.366 293.782,242.648 292.538,241.601 288.379 C 238.409 275.709,230.427 269.932,216.088 269.914 L 210.648 269.907 210.648 272.279 M284.046 288.734 C 286.040 308.932,289.445 315.269,300.077 318.578 L 302.899 319.457 305.411 318.307 C 311.508 315.515,315.526 310.159,315.124 305.358 C 314.264 295.104,307.837 290.142,291.984 287.496 C 288.881 286.978,285.766 286.437,285.061 286.294 L 283.779 286.034 284.046 288.734 " stroke="none" fill="#ffffff" fill-rule="evenodd"></path><path id="path1" d="M239.583 84.238 C 179.604 102.174,126.173 146.882,95.704 204.630 C 87.759 219.687,84.536 228.301,82.830 239.033 L 81.520 247.279 82.683 253.616 C 92.705 308.221,116.058 336.445,168.287 357.075 C 250.507 389.551,330.737 383.799,357.355 343.519 C 388.122 296.961,376.250 176.289,336.176 128.241 C 320.892 109.917,304.873 98.681,283.650 91.399 C 258.629 82.814,249.374 81.310,239.583 84.238 M275.083 141.354 C 281.108 145.360,283.080 148.932,283.093 155.869 C 283.104 161.748,282.680 162.428,277.280 165.188 C 269.086 169.376,265.644 168.827,258.990 162.269 C 251.210 154.601,249.921 143.861,255.524 133.393 C 256.102 132.313,269.980 137.962,275.083 141.354 M200.860 188.662 C 218.006 192.282,225.463 199.119,225.463 211.218 C 225.463 219.798,209.815 228.205,201.934 223.860 C 194.414 219.714,190.442 205.042,192.997 190.856 C 193.711 186.894,193.183 187.041,200.860 188.662 M278.009 214.372 C 293.340 216.571,302.807 224.621,302.761 235.417 C 302.740 240.347,293.026 247.407,287.738 246.335 C 277.149 244.188,272.169 237.142,271.512 223.380 C 271.378 220.579,271.181 217.297,271.073 216.088 L 270.877 213.889 272.823 213.898 C 273.893 213.903,276.227 214.116,278.009 214.372 M144.822 253.505 C 161.611 256.819,167.481 261.483,168.381 272.223 C 168.947 278.966,158.779 286.730,150.938 285.543 C 141.419 284.103,138.540 280.165,135.388 264.270 C 134.485 259.718,133.445 255.140,133.077 254.096 C 131.906 250.778,131.187 250.814,144.822 253.505 M225.361 270.655 C 234.293 272.981,240.637 280.428,242.337 290.579 C 243.072 294.968,236.290 302.785,231.759 302.772 C 219.094 302.736,212.443 293.400,210.426 272.827 L 210.145 269.960 212.364 269.761 C 215.803 269.452,222.515 269.914,225.361 270.655 M291.678 287.277 C 302.529 289.164,307.229 291.020,310.707 294.794 C 314.335 298.729,316.502 306.078,315.056 309.540 C 313.354 313.611,304.918 319.896,301.950 319.302 C 294.635 317.839,289.036 312.769,286.613 305.412 C 284.807 299.930,283.179 286.111,284.339 286.111 C 284.690 286.111,287.993 286.636,291.678 287.277 " stroke="none" fill="#a32929" fill-rule="evenodd"></path><path id="path2" d="M194.365 12.283 C 191.411 13.887,186.860 22.382,178.253 42.361 C 171.913 57.076,168.073 64.934,166.062 67.305 L 164.539 69.102 161.907 68.336 C 160.459 67.916,155.990 65.884,151.975 63.821 C 147.961 61.759,140.695 58.031,135.830 55.538 C 119.955 47.401,116.768 47.242,115.252 54.509 C 114.464 58.289,114.968 71.816,116.403 85.417 C 117.656 97.293,117.886 106.640,116.988 109.236 C 115.672 113.039,110.198 113.635,89.157 112.267 C 74.834 111.335,68.523 111.471,67.121 112.739 C 65.089 114.578,66.267 120.549,71.469 134.775 C 78.115 152.950,79.312 158.073,77.235 159.434 C 74.477 161.241,69.902 162.378,49.898 166.228 C 5.422 174.788,4.922 179.578,46.252 201.126 C 57.061 206.761,59.259 208.105,59.259 209.079 C 59.259 211.775,54.716 216.525,45.894 223.054 C 32.831 232.722,31.950 233.764,33.947 237.173 C 39.341 246.377,61.399 253.464,74.306 250.140 L 77.546 249.306 77.844 246.991 C 78.082 245.141,80.886 236.538,82.638 232.286 C 82.945 231.540,82.782 231.552,80.741 232.427 C 73.553 235.508,56.550 236.797,54.193 234.440 C 54.073 234.319,59.201 229.073,65.589 222.782 C 76.829 211.712,82.354 205.109,82.578 202.483 C 82.624 201.940,81.257 201.379,77.083 200.228 C 63.132 196.381,45.930 188.127,43.209 183.974 C 42.245 182.502,42.095 182.584,47.760 181.490 C 53.553 180.373,59.388 178.765,72.222 174.751 C 82.637 171.493,90.762 169.350,96.084 168.455 C 97.983 168.136,99.537 167.739,99.537 167.573 C 99.537 167.407,98.610 164.828,97.477 161.842 C 96.344 158.856,94.457 153.147,93.282 149.155 C 92.108 145.164,90.110 138.486,88.843 134.315 C 87.576 130.145,86.657 126.615,86.801 126.471 C 87.347 125.924,94.754 126.488,110.283 128.257 C 119.121 129.265,128.178 130.142,130.410 130.206 L 134.468 130.324 135.174 128.472 C 135.783 126.874,135.860 122.958,135.739 99.884 C 135.662 85.179,135.674 73.148,135.765 73.148 C 135.856 73.148,138.211 74.515,140.998 76.186 C 150.954 82.154,170.018 90.996,174.114 91.546 C 176.493 91.865,176.865 91.035,181.226 75.694 C 185.139 61.925,188.680 51.075,192.244 41.927 L 194.578 35.937 195.680 37.297 C 197.175 39.143,201.836 48.348,208.321 62.266 C 211.288 68.633,214.281 74.733,214.972 75.821 L 216.229 77.800 220.036 74.904 C 222.130 73.311,227.593 68.790,232.176 64.856 C 245.476 53.439,246.248 52.943,247.166 55.208 C 250.087 62.415,250.784 68.487,249.274 73.573 C 248.388 76.556,247.909 76.209,253.704 76.784 C 256.377 77.050,258.981 77.330,259.491 77.407 C 262.048 77.793,264.559 68.361,264.199 59.722 C 263.801 50.174,261.370 43.814,256.015 38.310 C 251.719 33.895,250.413 34.133,242.593 40.753 C 220.924 59.095,219.943 58.847,208.142 32.039 C 199.909 13.337,197.853 10.389,194.365 12.283 M250.116 82.727 C 250.561 82.843,251.291 82.843,251.736 82.727 C 252.182 82.610,251.817 82.515,250.926 82.515 C 250.035 82.515,249.670 82.610,250.116 82.727 M147.888 136.690 L 146.528 138.194 148.032 136.835 C 149.435 135.567,149.750 135.185,149.392 135.185 C 149.312 135.185,148.635 135.862,147.888 136.690 M251.969 146.991 C 251.974 148.009,252.069 148.371,252.179 147.796 C 252.290 147.220,252.286 146.386,252.170 145.944 C 252.054 145.501,251.963 145.972,251.969 146.991 M192.285 200.000 C 192.285 201.910,192.367 202.691,192.467 201.736 C 192.567 200.781,192.567 199.219,192.467 198.264 C 192.367 197.309,192.285 198.090,192.285 200.000 M206.366 225.327 C 206.939 225.437,207.876 225.437,208.449 225.327 C 209.022 225.216,208.553 225.126,207.407 225.126 C 206.262 225.126,205.793 225.216,206.366 225.327 M298.821 241.319 L 296.991 243.287 298.958 241.457 C 300.788 239.755,301.139 239.352,300.788 239.352 C 300.713 239.352,299.827 240.237,298.821 241.319 M374.676 255.556 C 374.676 256.956,374.763 257.529,374.869 256.829 C 374.975 256.128,374.975 254.983,374.869 254.282 C 374.763 253.582,374.676 254.155,374.676 255.556 M374.680 268.750 C 374.683 270.278,374.770 270.847,374.873 270.015 C 374.976 269.183,374.973 267.933,374.868 267.237 C 374.762 266.541,374.678 267.222,374.680 268.750 M215.394 269.776 C 216.094 269.882,217.240 269.882,217.940 269.776 C 218.640 269.670,218.067 269.583,216.667 269.583 C 215.266 269.583,214.693 269.670,215.394 269.776 M311.321 314.005 L 309.491 315.972 311.458 314.142 C 313.288 312.440,313.639 312.037,313.288 312.037 C 313.213 312.037,312.327 312.922,311.321 314.005 M290.278 312.645 C 290.278 312.725,290.955 313.402,291.782 314.149 L 293.287 315.509 291.927 314.005 C 290.660 312.602,290.278 312.287,290.278 312.645 M115.972 325.463 C 117.226 326.736,118.356 327.778,118.484 327.778 C 118.611 327.778,117.689 326.736,116.435 325.463 C 115.181 324.190,114.051 323.148,113.924 323.148 C 113.796 323.148,114.718 324.190,115.972 325.463 " stroke="none" fill="#749a4b" fill-rule="evenodd"></path></g></svg>
