<?xml version="1.0" standalone="no"?>
<!DOCTYPE svg PUBLIC "-//W3C//DTD SVG 20010904//EN"
 "http://www.w3.org/TR/2001/REC-SVG-20010904/DTD/svg10.dtd">
<svg version="1.0" xmlns="http://www.w3.org/2000/svg"
 width="864.000000pt" height="864.000000pt" viewBox="0 0 864.000000 864.000000"
 preserveAspectRatio="xMidYMid meet">

<g transform="translate(0.000000,864.000000) scale(0.100000,-0.100000)"
fill="#000000" stroke="none">
<path d="M4198 8375 c-64 -35 -162 -218 -348 -650 -137 -318 -220 -488 -263
-539 l-33 -39 -57 17 c-31 9 -128 53 -214 97 -87 45 -244 126 -349 179 -187
96 -298 140 -354 140 -40 0 -76 -47 -91 -117 -17 -82 -6 -374 25 -668 27 -257
32 -458 13 -515 -7 -21 -25 -42 -46 -54 -49 -29 -229 -32 -555 -11 -310 20
-446 17 -476 -10 -44 -40 -19 -169 94 -476 93 -255 136 -392 143 -458 5 -55 4
-60 -19 -75 -59 -39 -158 -63 -590 -147 -562 -108 -728 -169 -728 -266 0 -47
19 -80 82 -139 96 -91 224 -169 567 -348 234 -122 281 -151 281 -172 0 -58
-98 -161 -289 -302 -185 -137 -246 -189 -266 -226 -18 -34 -18 -34 8 -79 15
-25 53 -66 84 -91 75 -60 256 -149 358 -177 112 -30 316 -37 418 -15 l75 17 4
47 c4 38 46 165 103 315 7 16 3 15 -41 -4 -132 -56 -346 -77 -506 -49 l-67 12
30 38 c17 21 104 106 193 189 179 165 277 274 355 396 50 78 50 80 28 87 -368
106 -547 178 -723 290 -65 41 -138 113 -129 127 2 5 30 12 61 16 88 11 335 76
584 155 208 65 391 114 532 140 l58 11 -16 37 c-40 94 -91 246 -154 462 -38
129 -81 268 -94 309 -14 40 -23 78 -19 84 9 14 170 3 513 -38 162 -19 345 -38
406 -42 110 -6 112 -6 125 18 11 20 14 134 14 616 0 325 2 593 5 596 3 3 52
-24 110 -59 118 -73 443 -237 565 -285 97 -38 175 -60 188 -52 19 11 47 93
112 323 83 293 160 530 238 729 l60 155 24 -30 c30 -37 160 -294 297 -590 59
-127 117 -243 130 -258 l22 -28 92 72 c51 39 164 132 250 206 165 143 300 250
306 243 1 -2 17 -38 34 -79 54 -134 64 -255 28 -373 l-14 -45 97 -5 c53 -3
111 -9 129 -12 31 -7 33 -6 58 51 43 98 57 183 51 324 -6 142 -23 213 -75 320
-44 90 -153 210 -192 210 -40 0 -101 -36 -200 -120 -253 -214 -355 -280 -435
-280 -39 0 -47 5 -87 48 -51 58 -119 185 -222 420 -141 320 -212 443 -255 442
-9 -1 -28 -7 -43 -15z"/>
<path d="M5175 6820 c-530 -158 -1112 -455 -1579 -805 -377 -282 -753 -656
-1046 -1039 -235 -309 -455 -674 -604 -1003 -102 -226 -126 -303 -157 -496
l-28 -178 25 -137 c172 -940 538 -1519 1220 -1933 296 -180 799 -387 1274
-524 512 -147 923 -212 1410 -222 728 -15 1266 102 1650 358 126 84 297 255
379 379 186 281 280 593 340 1126 66 578 38 1200 -79 1781 -65 319 -184 730
-287 993 -230 583 -614 1045 -1116 1342 -210 124 -394 195 -822 317 -204 59
-256 70 -345 75 -101 5 -110 4 -235 -34z m767 -1233 c70 -47 124 -106 151
-166 31 -67 32 -236 1 -278 -29 -40 -175 -112 -255 -125 -63 -11 -67 -10 -119
18 -30 16 -87 61 -126 99 -152 150 -188 331 -109 542 44 115 20 112 222 25 98
-43 204 -94 235 -115z m-1603 -1022 c320 -68 464 -171 516 -370 24 -94 20
-168 -12 -216 -34 -51 -128 -122 -223 -168 -168 -81 -305 -30 -394 147 -49 97
-68 192 -69 347 -2 172 16 285 44 285 10 0 72 -11 138 -25z m1666 -555 c301
-44 464 -160 521 -373 7 -28 14 -65 14 -82 -1 -60 -118 -183 -220 -228 -40
-18 -51 -19 -105 -8 -132 27 -227 94 -283 199 -42 78 -61 163 -67 297 -3 61
-7 131 -10 158 l-4 47 42 0 c23 0 74 -5 112 -10z m-2877 -846 c182 -36 279
-68 349 -115 94 -65 150 -165 160 -289 5 -64 5 -66 -36 -117 -62 -79 -173
-156 -247 -173 -40 -9 -144 7 -199 30 -81 35 -144 108 -180 209 -8 24 -31 124
-51 223 -19 98 -42 197 -50 220 -25 71 -40 70 254 12z m1740 -370 c193 -50
330 -211 366 -431 9 -49 -14 -101 -72 -165 -61 -67 -109 -98 -156 -98 -95 0
-222 55 -290 125 -97 99 -143 240 -171 522 l-6 62 48 4 c74 7 219 -3 281 -19z
m1432 -359 c235 -41 336 -81 411 -163 79 -85 125 -243 94 -318 -21 -51 -132
-156 -199 -189 -62 -30 -76 -30 -166 4 -160 61 -248 194 -284 431 -25 163 -30
260 -14 260 7 0 79 -11 158 -25z"/>
</g>
</svg>
