<?xml version="1.0" standalone="no"?>
<!DOCTYPE svg PUBLIC "-//W3C//DTD SVG 20010904//EN"
 "http://www.w3.org/TR/2001/REC-SVG-20010904/DTD/svg10.dtd">
<svg version="1.0" xmlns="http://www.w3.org/2000/svg"
 width="864.000000pt" height="864.000000pt" viewBox="0 0 864.000000 864.000000"
 preserveAspectRatio="xMidYMid meet">

<g transform="translate(0.000000,864.000000) scale(0.100000,-0.100000)"
fill="#000000" stroke="none">
<path d="M660 7994 c-135 -97 -252 -179 -259 -184 -13 -7 -5 -102 52 -672 232
-2280 272 -2761 327 -3903 26 -560 80 -1872 80 -1966 0 -23 21 -36 257 -152
l258 -127 160 -16 c201 -22 734 -24 945 -6 562 50 1025 156 1490 339 633 249
1180 638 1830 1299 918 935 1615 2069 1849 3009 99 398 141 778 141 1269 0
376 -22 678 -68 961 l-17 100 -160 7 c-1341 61 -2035 84 -5160 172 -671 19
-1278 37 -1350 40 l-130 5 -245 -175z m3750 -605 c135 -31 255 -122 350 -266
60 -91 226 -411 288 -555 l20 -47 -81 -73 c-45 -40 -92 -81 -104 -92 -22 -18
-23 -18 -150 52 -70 39 -201 107 -290 151 -253 127 -309 178 -382 349 -67 154
-74 229 -31 310 75 142 222 208 380 171z m1915 -98 c22 -10 48 -27 57 -37 50
-56 77 -185 79 -374 1 -105 -8 -138 -62 -217 -36 -53 -174 -199 -231 -244
l-37 -30 -29 58 c-47 92 -118 281 -142 373 -41 158 -26 243 67 387 62 94 195
132 298 84z m-4347 -2157 c77 -38 171 -145 226 -257 83 -168 92 -266 40 -444
-27 -95 -111 -304 -147 -368 -22 -39 -24 -40 -100 -51 l-78 -10 -28 35 c-84
106 -232 382 -282 525 -26 75 -35 219 -20 301 43 230 221 353 389 269z m2036
-700 c145 -37 334 -154 427 -266 97 -117 128 -212 104 -317 -29 -120 -96 -210
-194 -258 -52 -26 -65 -28 -176 -27 -108 0 -129 3 -215 33 -257 88 -455 251
-589 486 -50 86 -115 250 -107 270 4 12 251 64 396 84 110 15 286 13 354 -5z
m-1001 -1556 c53 -70 77 -134 77 -202 0 -113 -42 -272 -103 -391 -39 -75 -179
-217 -265 -269 -99 -59 -164 -79 -263 -80 -79 -1 -91 2 -155 34 -85 43 -125
97 -148 199 -55 240 30 443 242 579 153 98 350 159 524 161 64 1 68 0 91 -31z"/>
<path d="M7742 7974 c2 -5 25 -52 51 -104 80 -165 132 -355 157 -580 25 -224
39 -623 30 -805 -14 -259 -66 -739 -105 -965 -113 -656 -469 -1347 -1159
-2245 -318 -414 -465 -586 -740 -861 -879 -878 -1861 -1390 -3106 -1618 -424
-78 -1029 -47 -1490 75 -175 46 -240 81 -347 183 -89 84 -93 87 -128 80 l-37
-7 7 -136 c6 -133 7 -137 35 -163 38 -35 200 -130 308 -180 295 -136 582 -181
1019 -159 764 40 1497 228 2198 566 632 304 1140 679 1756 1294 436 437 754
824 1074 1306 690 1040 965 1891 965 2986 0 558 -82 1046 -208 1233 -39 57
-116 95 -211 103 -43 4 -72 2 -69 -3z"/>
</g>
</svg>
