<svg version="1" xmlns="http://www.w3.org/2000/svg" width="1152" height="1153.333" viewBox="0 0 864.000000 865.000000"><path d="M441 47.6c-42.7 3.8-72.9 12.1-104.9 29-32.8 17.3-65 45.9-82.5 73.2-3.6 5.7-4.9 6.7-13.1 11-9.8 5.3-24.5 14.2-31.4 19.2l-4.3 3.2 7.8 7c13 11.7 23.9 23.4 37.9 40.8 7.4 9.1 14.7 18 16.3 19.9l2.9 3.5 6.2-7.9c12.6-15.8 20.9-29.7 23.2-39 1.6-6.5.4-7.4-11.2-8.9-5.2-.6-8.9-1.5-8.2-1.9.7-.4 4.7-1.3 9.1-1.9 7.1-1 8.2-1 11.8.8 3.1 1.5 4.2 2.8 5.3 6.2 1.2 3.8 1.1 5.2-.3 11-3.7 15.4-14.1 31-33 49.5-25.5 25.2-47.3 37.4-74.5 42.1-10.1 1.7-25.1 2.2-25.1.7 0-.4 3.7-1.1 8.2-1.5 20.1-1.5 42.3-10 59.6-22.6l4.4-3.2-7.4-7.6c-4.1-4.2-12.9-14.5-19.6-22.9-6.7-8.3-14.4-17.4-17.1-20.1-5.2-5.2-24.8-21.2-26-21.2-1.6.1-31 28.2-42.9 41-38.9 42.2-59.9 82.2-70.7 134.3-7.7 37.5-8.3 71.5-1.9 106.7 16.1 88.3 65.1 170.5 135.3 226.9 59.8 47.9 136.9 83.4 210.1 96.5 43 7.7 89.9 8.7 125.7 2.6 60.4-10.3 116.9-40 166.2-87.5 15.7-15.1 40-42.9 53.9-61.6 27.7-37.5 45.9-79.7 58.3-135.4 5.4-24.3 7-38.1 7.6-63.2.9-37.6-3.3-70.6-13.8-107.8-38.4-135.8-143.2-256-258.1-296-28.6-9.9-52.4-14.3-81.3-14.9-9.9-.2-20-.2-22.5 0zm289.2 280.6c2.1 1.2 5 3.9 6.5 6.1 2.5 3.6 2.8 4.9 2.8 12.7 0 7.9-.3 9-2.8 12.8-1.6 2.2-4.4 4.8-6.2 5.6-4.3 2.1-12.9 2.1-16.4 0-5.4-3.2-10.5-13.7-11.7-23.9-.6-5.2-.5-5.8 2.2-8.6 7.4-7.8 17-9.5 25.6-4.7zm-73.9 104.1c4.8 2.1 9.5 6.4 11.9 11.1 4.4 8.4 1.9 22-5.1 27.9-5.9 4.9-15 3.1-22.9-4.6-4.8-4.6-9.7-13.3-10.7-19.1-.7-3.5-.4-4.1 3.6-8.3 7.4-7.6 15.7-10.1 23.2-7zm-78.8 41.6c4.4 2 10.4 8.1 13.1 13.3 9 17.4 2.9 40.2-11.8 44-9.4 2.4-24.7-3.1-34.1-12.4-6.7-6.5-8.4-12.2-6.6-22.1 2.4-13.5 6.8-19.9 16.2-23.4 5.2-1.9 18.5-1.6 23.2.6zm159.7 8.8c.9 1 2.6 3.8 3.8 6.2 1.9 3.7 2 4.7.9 7.3-.7 1.6-2.5 4.3-4.1 5.9-5.4 5.3-12.1 2.9-15.4-5.6-2.1-5.8-.9-9.1 4.8-12.8 4.9-3.1 7.9-3.4 10-1z"/><path d="M90 134.4v14.4l3 2.6c1.7 1.4 11 6.5 20.8 11.4 36.6 18.3 78.4 45.1 92.1 59.2 4.9 4.9 14.8 18.1 23.1 30.5 7.9 11.9 16.9 23.5 18.2 23.5.6 0 5.5-4.4 10.9-9.8l9.8-9.7-10.6-12c-5.8-6.6-15-17.1-20.5-23.3-29.5-33.6-101.1-84-140.2-98.7L90 120v14.4z"/></svg>