<svg width="432" height="432" xmlns="http://www.w3.org/2000/svg" display="block"><g fill-rule="evenodd"><path d="M74.54 8.58c-2.093.944-3.592 2.363-4.628 4.383-.458.891-1.293 2.037-1.857 2.546-4.367 3.944-4.142 8.925.656 14.506 1.167 1.357 2.122 2.529 2.122 2.603 0 .968-1.732 4.456-3.164 6.373-3.65 4.885-4.604 7.61-7.247 20.705-2.027 10.041-1.84 10.397.691 1.317 3.909-14.018 5.297-17.307 9.044-21.43 3.952-4.347 4.372-8.938 1.152-12.593-3.914-4.442-4.005-5.631-.712-9.294 1.148-1.277 2.088-2.524 2.088-2.771 0-1.024 2.021-2.901 3.649-3.389 5.012-1.502 11.372 2.28 12.31 7.319.179.961 1.019 3.157 1.866 4.88 2.485 5.054 2.521 6.294.26 9.154-5.632 7.124-6.012 9.189-6.299 34.241-.196 17.057-.384 21.683-.987 24.313l-.745 3.248 2.38 5.123c1.31 2.818 2.381 5.318 2.381 5.556 0 2.914 9.99 31.504 15.514 44.399 44.153 103.065 121.96 157.437 222.06 155.177 12.572-.284 15.334-.109 26.778 1.695 12.114 1.91 13.873 1.842 4.398-.171-14.628-3.107-15.201-3.179-29.167-3.686-53.846-1.954-87.04-11.981-126.157-38.111-47.132-31.483-84.334-83.364-109.53-152.745-1.822-5.017-3.972-9.926-5.527-12.621l-2.546-4.41 1.171-2.31c1.297-2.561 2.435-12.523 3.461-30.318.982-17.03 2.065-20.91 7.492-26.848l2.412-2.639-.559-3.312c-.308-1.828-1.281-4.805-2.17-6.641-.886-1.83-1.614-3.705-1.616-4.166C93.477 11.816 81.49 5.445 74.54 8.58M46.004 87.159c-19.261 21.173-22.704 27.737-26.526 50.572-6.807 40.662 1.706 72.145 31.769 117.489 27.514 41.5 54.159 69.161 83.962 87.165 49.624 29.977 79.333 40.332 132.384 46.143 9.995 1.095 37.514.79 44.676-.495 30.9-5.545 56.3-24.321 70.694-52.258 4.722-9.165 3.462-14.987-5.337-24.652-2.612-2.869-2.554-1.966.099 1.539 5.136 6.785 7.512 13.991 5.389 16.345-.424.47-2.14 3.188-3.813 6.04-16.156 27.531-44.033 45.389-75.366 48.279-24.668 2.275-72.857-1.899-93.954-8.139-27.86-8.239-66.799-28.774-90.273-47.604-31.844-25.547-79.01-91.175-91.364-127.128-7.633-22.213-8.917-49.156-3.508-73.603 3.283-14.837 5.357-18.759 18.791-35.53 3.825-4.776 7.162-8.944 7.415-9.262.253-.318.383-.576.288-.572-.095.003-2.492 2.555-5.326 5.671m26.466 14.346c5.209 57.549 29.43 112.841 65.938 150.521 51.165 52.807 137.257 77.068 225.224 63.467 4.06-.628 7.519-1.141 7.688-1.141.168 0 .424 1.51.569 3.356.307 3.926 1.146 6.141 3.222 8.505 2.074 2.362 6.833 4.419 6.833 2.954 0-.255-.32-.463-.712-.463-4.373 0-8.084-5.782-8.084-12.595v-3.683l-1.273.265c-14.403 2.996-55.678 4.495-73.958 2.685-75.302-7.454-129.941-34.77-166.425-83.2-25.495-33.842-47.057-83.172-58.13-132.986-.561-2.523-1.184-.906-.892 2.315m11.029 97.102c-2.323.937-3.308 4.667-1.634 6.182 1.188 1.076 4.025.988 5.172-.159 2.695-2.696-.08-7.419-3.538-6.023m-1.67 23.652c-2.271 1.323-2.84 5.215-1.028 7.027 3.605 3.605 9.652.223 8.086-4.523-.836-2.532-4.672-3.893-7.058-2.504m17.245 14.315c-1.238 1.238-1.256 3.957-.03 4.613 2.447 1.31 5.123-.065 5.123-2.633 0-1.395-1.565-2.906-3.01-2.906-.636 0-1.574.417-2.083.926m15.145 15.565c-.614.614-.34 2.851.383 3.128 1.172.45 2.578-.723 2.429-2.026-.132-1.154-2.021-1.893-2.812-1.102m13.559 9.898c-2.753 2.753.346 7.383 4.009 5.99 1.651-.627 1.993-1.191 2.002-3.294.013-3.066-3.891-4.817-6.011-2.696" fill="#fff"/><path d="M375.294 312.796c-1.078 7.868.456 12.067 5.315 14.546 5.281 2.694 4.356-3.392-1.992-13.106-2.743-4.197-2.933-4.28-3.323-1.44" fill="#a32929"/><path d="M75.463 11.898c-.891.458-1.948 1.488-2.348 2.289-.4.8-1.602 2.449-2.672 3.665-3.121 3.545-3.008 4.742.866 9.138 3.22 3.655 2.8 8.246-1.152 12.593-3.683 4.053-4.826 6.621-8.128 18.27-4.644 16.385-4.484 16.095-18.577 33.688-13.238 16.525-15.342 20.517-18.616 35.311-5.409 24.447-4.125 51.39 3.508 73.603 12.354 35.953 59.52 101.581 91.364 127.128 23.474 18.83 62.413 39.365 90.273 47.604 21.097 6.24 69.286 10.414 93.954 8.139 31.333-2.89 59.21-20.748 75.366-48.279 1.673-2.852 3.348-5.529 3.721-5.948.608-.683.552-.787-.547-1.008-5.672-1.14-8.581-7.445-7.124-15.444.635-3.484.695-3.452-7.958-4.14-4.233-.337-11.076-1.149-15.207-1.804-11.777-1.869-14.452-2.043-27.112-1.757-54.081 1.221-97.389-12.289-138.731-43.278-44.183-33.119-79.618-88.602-98.155-153.69-.672-2.36-2.223-6.41-3.446-9.001l-2.224-4.71.801-2.342c.696-2.034.839-5.201 1.095-24.101.172-12.768.499-22.62.79-23.843.721-3.025 3.382-8.33 5.566-11.092 2.258-2.857 2.225-4.088-.249-9.154-.842-1.723-1.682-3.862-1.868-4.754-1.194-5.72-8.36-9.569-13.19-7.083M73.362 99.19c11.073 49.814 32.635 99.144 58.13 132.986 36.484 48.43 91.123 75.746 166.425 83.2 18.28 1.81 59.555.311 73.958-2.685l1.273-.265v3.683c0 6.813 3.711 12.595 8.084 12.595.392 0 .712.208.712.463 0 1.465-4.759-.592-6.833-2.954-2.076-2.364-2.915-4.579-3.222-8.505-.145-1.846-.401-3.356-.569-3.356-.169 0-3.628.513-7.688 1.141-87.967 13.601-174.059-10.66-225.224-63.467-36.508-37.68-60.729-92.972-65.938-150.521-.292-3.221.331-4.838.892-2.315m13.529 99.965c1.396 1.31 1.471 4.15.146 5.475-2.08 2.08-6.018.737-6.018-2.052 0-3.462 3.598-5.56 5.872-3.423m.13 23.291c4.328 2.237 1.439 9.229-3.435 8.314-3.355-.629-4.83-3.654-3.262-6.686 1.216-2.352 3.993-3.027 6.697-1.628m16.22 14.128c2.679 2.679-.756 6.455-4.197 4.613-2.149-1.149-.474-5.539 2.113-5.539.637 0 1.574.417 2.084.926m13.79 16.667c.149 1.303-1.257 2.476-2.429 2.026-.723-.277-.997-2.514-.383-3.128.791-.791 2.68-.052 2.812 1.102m15.545 8.83c2.11 1.659 1.665 5.024-.789 5.956-2.657 1.011-4.935-.627-4.935-3.547 0-3.033 3.213-4.385 5.724-2.409" fill="#fcb427"/></g></svg>