<svg version="1" xmlns="http://www.w3.org/2000/svg" width="1152" height="1152" viewBox="0 0 864.000000 864.000000"><path d="M196.6 15.5c-1.1 3-.6 12 2 34.6 4.7 41.2 2.1 53.1-9.9 45.4-2.3-1.5-17.2-15.8-33.2-31.9-29.9-30.1-36.4-35.4-40.2-33-2.8 1.7-2.7 8.2.1 16.6 1.3 4 5.9 15.2 10.1 24.8 12.5 28.3 15 37.6 10.6 39.9-4 2.2-16.9-3.4-49.1-21.4-33.3-18.6-45.7-23.8-55.1-23.3-5.4.3-5.4.3-5.3 3.5C27 77.8 39.1 95.1 68 130c20.4 24.5 28.4 35.1 31.7 41.8l2.6 5.3-2.3 2.4c-5.2 5.5-21.2 9.2-56 13-28.4 3-30 3.3-30 4.7 0 1.6 9.2 12.7 15.6 18.9 26.6 25.1 61.7 44.5 92.7 51 17.7 3.8 45.9 2.7 49.5-1.9 1.1-1.4 1.2-.9.5 3.3-.4 2.7-.8 11.3-.7 19 0 12 .4 15.4 2.8 24 4.7 17.5 12.6 32.8 24.5 47.8 3 3.9 14.4 13.7 33.6 29.1 16 12.8 57.5 46.5 92.3 74.9 95.6 78.2 124 100.6 168.8 133.2 41.9 30.5 52.5 39.2 83.3 68.8 29.2 28.1 41.3 37.9 55.6 45.4 20 10.3 33.9 20.3 59 42.4 31.7 27.8 44.6 37.5 61.5 45.9 8.6 4.3 16.3 9.8 28 20 17.4 15.2 29.3 22.7 38 23.7 4.4.5 5 .3 8.6-2.9 3.4-3.2 3.8-4.1 4.2-9.6.7-10-4.1-18.1-23.3-39.7-5.4-6-12.1-14.1-15-18-6.7-9-90.6-127.9-161.4-228.8-49.4-70.1-55.7-78.7-58-78.7-4.9 0-24.1 4.9-30.4 7.7-3.4 1.5-9.9 5.6-14.5 9.1l-8.3 6.3-6.7-6.5-6.6-6.4 3.8-5.7c5.3-7.6 11.2-12.4 23.4-19.1 11.4-6.3 18-10.8 18.8-12.8.4-1-22.3-32.6-28.6-39.9-.9-1.1-12.4 1.6-20 4.7-10 4.1-19.8 11.3-34.1 25.4-9.3 9-13.8 12.8-14.2 11.9-.3-.8-3.4-3.6-6.9-6.2-9-6.8-13.8-11.6-13.8-13.8 0-7.7 11.4-15.7 39.5-27.6 14-6 20.6-10.6 23.5-16.7 4.3-8.8.6-17.8-14.2-34.2-2.7-3-7.2-9.3-10-14.1l-5.2-8.7-18.5 10.9c-23.5 13.8-33.8 20.5-42.6 27.5-8.7 7-19.2 17.6-24.7 24.8l-4.1 5.4-1.5-2.2c-.9-1.3-4.9-5.9-9-10.3-4.1-4.3-8.1-9.4-9-11.2-1.4-3-1.4-3.5.4-6.9 4.5-8.5 19.5-20.8 40.9-33.4 8.5-5 51.3-27.2 54.4-28.2 1.2-.3.4-2.6-3.4-9.9-6.5-12.6-9.3-17-26.3-40.4-23.5-32.3-34.2-45-48.2-57.3-16-14.1-33.3-23.9-49.5-28.2-10-2.6-26.5-3.6-37-2.1-12.9 1.8-38.2 9-46.6 13.2-34.6 17.3-57.4 44.9-69.5 84.4-1.5 4.9-2.3 6.5-1.9 4 .3-2.2.8-6.3 1.1-9.2l.7-5.2-3.7 1.9c-20.9 10.6-75.7-1.4-109.1-24-7.3-4.9-17.5-13.6-17.5-14.9 0-.5 5.1-1.1 11.4-1.4 6.2-.3 24.4-2.2 40.2-4.1 15.9-2 32.8-3.9 37.5-4.3l8.6-.8L94.4 140c-26.6-31-48.1-56.6-47.9-56.8.2-.2 21 11.5 46.2 26.1 63.1 36.5 81.5 46.9 82 46.4 1.3-1.3-13-33.4-31.5-70.5-7.5-15.1-13.9-28-14.1-28.5-.2-.5 1.5.2 3.8 1.5 2.3 1.4 11.9 10.6 21.3 20.4 21.2 22.2 62.1 63.4 62.5 63 .5-.5-1.7-44.2-3.7-72.5-1.1-15.1-1.8-27.6-1.6-27.9 1.1-1 22.7 45.1 31.6 67.3 9.3 23.4 15.1 45.4 13.3 50.2-.5 1.2-.1 1.4 1.8.8 1.3-.5 5.5-1.6 9.3-2.6 3.8-1 7.3-2.2 7.8-2.7 1.6-1.6-3.7-21-9.9-36.7-9.6-24.2-27.7-58.3-41.1-77.5-6.7-9.5-15.7-20.2-19-22.7-4.2-3.1-7.8-3.9-8.6-1.8z"/></svg>