<svg width="432" height="432" xmlns="http://www.w3.org/2000/svg" display="block"><g fill-rule="evenodd"><path d="M154.167 16.742c-12.761 2.383-18.529 9.519-16.429 20.326 1.929 9.932.053 17.399-5.711 22.735-1.667 1.543-19.534 13.329-46.874 30.919-56.058 36.067-53.285 34.203-55.269 37.15-2.8 4.158-2.69-.495-2.247 95.045l.409 87.963.988 2.455c3.618 8.988 4.497 9.417 89.485 43.701 63.378 25.567 65.471 26.329 75.075 27.333 11.112 1.162 15.884-.016 41.448-10.234 10.137-4.052 43.292-17.093 73.678-28.981 66.845-26.152 62.565-24.382 65.092-26.91 3.855-3.855 3.518 4.58 3.818-95.559l.267-89.12-.992-4.114c-2.354-9.768-6.161-13.854-21.812-23.416-27.862-17.022-43.078-25.986-51.367-30.264-13.858-7.15-13.607-6.774-14.374-21.604-1.081-20.906-1.229-21.603-5.446-25.547-4.415-4.13-8.059-5.257-18.397-5.689-3.819-.16-20.59-1.11-37.268-2.112l-34.722-2.083c-9.523-.568-27.666-2.12-29.769-2.545-2.888-.585-3.777-.534-9.583.551m59.49 10.088c10.949.516 24.804 1.147 30.787 1.402 17.887.764 19.899 1.019 24.36 3.087 7.976 3.696 10.646 11.661 9.444 28.172-.898 12.325-4.347 15.435-15.517 13.993l-2.777-.359 2.457.98c3.034 1.21 5.501 3.595 5.896 5.702.643 3.423.121 4.012-28.953 32.693-15.099 14.896-33.272 33.178-40.383 40.626-13.365 13.999-15.02 15.395-19.29 16.281-2.937.61-1.56.813-22.183-3.269-8.99-1.78-16.594-3.151-16.898-3.049-.305.103.28.34 1.298.528 5.893 1.084 30.104 8.682 33.675 10.567 4.485 2.367 8.194 7.123 9.585 12.29.82 3.043 1.366 16.396 1.871 45.702.255 14.768.677 31.435.939 37.037 4.825 103.296 4.89 99.893-1.958 102.753-3.668 1.532-2.231 2.051-41.566-15.013-45.695-19.824-56.945-24.51-86.334-35.959-18.592-7.242-19.617-7.813-20.544-11.432-.43-1.677-.785-13.247-2.153-69.979-.945-39.251-1.209-88.715-.484-90.897 1.265-3.808 4.575-6.076 8.922-6.112l2.214-.018-1.425-.62c-7.241-3.153-8.266-10.837-2.219-16.636 5.282-5.065 85.703-56 98.818-62.586 5.584-2.804 9.467-3.596 14.699-2.997 5.405.62 6.375.542 3.321-.267-6.199-1.642-7.255-2.065-8.556-3.423-1.743-1.819-2.03-5.293-.982-11.886.408-2.568.742-5.833.742-7.258 0-5.089 3.245-10.428 6.817-11.217l1.628-.359c1.28-.281 38.353.75 54.749 1.523m-56.849 1.77c-2.835 1.749-3.501 4.406-3.658 14.585-.116 7.562-.025 9.229.523 9.571.718.447 3.791.897 16.003 2.345 13.52 1.603 25.905 4.013 41.667 8.107 16.076 4.176 31.517 6.783 45.358 7.659 15.7.994 17.045-.03 15.756-11.99-2.117-19.644-3.126-20.916-17.133-21.603-23.449-1.151-40.525-2.822-68.75-6.729-10.679-1.479-23.809-2.777-27.778-2.748-.382.003-1.276.364-1.988.803m-8.074 32.71c-4.001 1.481-6.433 3.033-18.024 11.502-16.473 12.037-42.329 30.411-59.414 42.221-23.306 16.111-22.961 15.862-23.803 17.148l-.776 1.184 2.452 1.115c1.348.614 4.743 1.562 7.544 2.107 12.296 2.395 68.921 16.321 105.314 25.902 20.351 5.358 18.057 6.014 33.343-9.537 14.335-14.582 65.278-70.504 65.278-71.657 0-.719-5.838-1.961-18.75-3.988-21.443-3.366-59.346-9.938-66.52-11.534-5.958-1.325-21.646-4.96-23.063-5.344-.382-.103-1.993.293-3.581.881m139.822 16.512c7.584 2.554 21.499 10.483 46.629 26.569 25.091 16.061 24.888 15.909 23.914 17.863-.604 1.211-.526 1.179-11.815 4.827-4.421 1.428-14.838 5.062-23.148 8.075-15.51 5.624-30.691 10.715-37.45 12.559-2.102.574-3.736 1.13-3.63 1.236.105.105 4.638-1.056 10.073-2.581 22.764-6.389 64.539-17.203 66.456-17.203 3.677 0 8.527 3.251 9.132 6.122.122.58.322 20.741.445 44.804.209 40.848.503 56.06 1.67 86.388 1.88 48.87 3.009 45.453-17.953 54.304-23.883 10.084-35.966 14.895-70.472 28.056-39.921 15.228-43.971 16.794-61.269 23.697-22.037 8.794-21.747 8.931-22.265-10.501-.433-16.244-1.082-34.158-2.121-58.565a12441.22 12441.22 0 0 1-1.378-33.333c-.259-6.62-.82-18.6-1.247-26.62-.426-8.021-.786-21.771-.8-30.556-.052-32.226 1.946-37.802 15.006-41.888 6.329-1.981 44.355-13.189 59.824-17.634 7.822-2.248 14.153-4.155 14.069-4.239-.083-.084-4.608.98-10.055 2.365-5.446 1.385-16.777 4.12-25.18 6.08-15.328 3.573-33.95 8.47-40.592 10.672-8.24 2.733-11.759-1.502-6.325-7.611a5995.26 5995.26 0 0 0 11.672-13.254c34.663-39.44 62.599-66.933 71.102-69.974 2.201-.787 2.39-.776 5.708.342m-6.236 9.64c-6.004 4.553-19.199 16.804-40.183 37.307a4867.155 4867.155 0 0 1-26.773 25.886c-8.21 7.871-14.854 14.532-14.764 14.802.311.934 2.423 1.031 5.187.238a2449.39 2449.39 0 0 1 11.343-3.185c4.71-1.313 19.71-6.113 33.333-10.665 32.596-10.894 44.723-14.334 71.759-20.356 26.29-5.856 36.116-8.592 36.105-10.053-.016-2.301-16.383-10.941-47.216-24.923-28.075-12.732-25.149-11.812-28.791-9.051m54.023 52.845c-34.197 11.373-63.659 20.522-110.186 34.218-23.748 6.99-22.705 6.267-24.046 16.679-.869 6.746-1.865 27.522-1.373 28.636.185.419.459 35.07.609 77.001l.273 76.24.972 1.307c2.026 2.724.991 3.123 70.544-27.266 38.492-16.817 52.271-22.696 72.697-31.014 17.714-7.213 18.193-7.475 19.371-10.586 2.273-6.001 3.291-117.962 1.443-158.674-.774-17.061.499-16.786-30.304-6.541m19.755 8.607c1.002.907 1.211 6.724.312 8.697-.886 1.945-.906 1.953-50.181 17.838-26.216 8.451-56.623 18.258-67.572 21.793-22.321 7.206-22.046 7.127-23.531 6.754-3.62-.908-2.744-11.714 1.139-14.05.857-.516 6.351-2.335 12.207-4.043 16.681-4.862 52.343-15.683 78.704-23.88 34.815-10.827 35.427-11.013 40.87-12.473 5.858-1.572 6.924-1.656 8.052-.636m-313.251 2.591c-.099.318-.298 22.349-.443 48.958-.146 26.609-.47 57.13-.72 67.824-.87 37.084-.849 41.261.214 42.33 2.06 2.07 49.029 20.995 86.806 34.976 7.766 2.874 23.14 8.6 34.165 12.725 15.808 5.914 20.183 7.386 20.695 6.961.546-.453.639-5.235.586-30.016-.038-17.466.246-40.794.696-57.254 1.505-55.01 1.404-68.638-.634-86.111-1.719-14.744-6.825-16.978-58.749-25.709-16.387-2.756-33.066-5.873-60.733-11.351-20.891-4.136-21.601-4.244-21.883-3.333m312.101 138.211c.948.603 1.533 2.829 1.533 5.835 0 3.514-.69 4.336-5.123 6.099-6.454 2.566-38.985 14.754-53.441 20.022a7434.745 7434.745 0 0 0-33.428 12.302c-26.008 9.65-47.719 17.415-48.692 17.415-1.894 0-2.517-1.574-2.561-6.474-.061-6.735-1.064-6.067 20.097-13.369 23.488-8.105 35.095-12.212 75.463-26.702 45.084-16.184 44.694-16.056 46.152-15.128" fill="#fff"/><path d="M158.908 25.307l-1.628.359c-3.572.789-6.817 6.128-6.817 11.217 0 1.425-.334 4.69-.742 7.258-1.048 6.593-.761 10.067.982 11.886 1.301 1.358 2.357 1.781 8.556 3.423 3.054.809 2.084.887-3.321.267-5.232-.599-9.115.193-14.699 2.997-13.115 6.586-93.536 57.521-98.818 62.586-6.047 5.799-5.022 13.483 2.219 16.636l1.425.62-2.214.018c-4.347.036-7.657 2.304-8.922 6.112-.725 2.182-.461 51.646.484 90.897 1.368 56.732 1.723 68.302 2.153 69.979.927 3.619 1.952 4.19 20.544 11.432 29.389 11.449 40.639 16.135 86.334 35.959 39.335 17.064 37.898 16.545 41.566 15.013 6.848-2.86 6.783.543 1.958-102.753-.262-5.602-.684-22.269-.939-37.037-.978-56.782-.306-55.064-24.529-62.662-11.135-3.493-17.618-5.348-20.602-5.897-1.018-.188-1.603-.425-1.298-.528.304-.102 7.908 1.269 16.898 3.049 20.623 4.082 19.246 3.879 22.183 3.269 4.27-.886 5.925-2.282 19.29-16.281 7.111-7.448 25.284-25.73 40.383-40.626 29.074-28.681 29.596-29.27 28.953-32.693-.395-2.107-2.862-4.492-5.896-5.702l-2.457-.98 2.777.359c11.17 1.442 14.619-1.668 15.517-13.993 1.202-16.511-1.468-24.476-9.444-28.172-4.461-2.068-6.473-2.323-24.36-3.087-5.983-.255-19.838-.886-30.787-1.402-16.396-.773-53.469-1.804-54.749-1.523m7.527 2.948c3.82.255 12.882 1.285 20.139 2.29 28.225 3.907 45.301 5.578 68.75 6.729 14.007.687 15.016 1.959 17.133 21.603 1.289 11.96-.056 12.984-15.756 11.99-13.841-.876-29.282-3.483-45.358-7.659-15.762-4.094-28.147-6.504-41.667-8.107-12.212-1.448-15.285-1.898-16.003-2.345-.548-.342-.639-2.009-.523-9.571.157-10.179.823-12.836 3.658-14.585 1.534-.946.938-.924 9.627-.345m-5.324 34.255c4.456 1.04 10.876 2.509 14.267 3.263 7.174 1.596 45.077 8.168 66.52 11.534 12.912 2.027 18.75 3.269 18.75 3.988 0 1.153-50.943 57.075-65.278 71.657-15.286 15.551-12.992 14.895-33.343 9.537-36.393-9.581-93.018-23.507-105.314-25.902-2.801-.545-6.196-1.493-7.544-2.107l-2.452-1.115.776-1.184c.842-1.286.497-1.037 23.803-17.148 17.085-11.81 42.941-30.184 59.414-42.221 13.234-9.67 19.134-13.051 21.605-12.383.382.104 4.34 1.04 8.796 2.081m121.737 14.97c-8.503 3.041-36.439 30.534-71.102 69.974a5995.26 5995.26 0 0 1-11.672 13.254c-5.434 6.109-1.915 10.344 6.325 7.611 6.642-2.202 25.264-7.099 40.592-10.672 8.403-1.96 19.734-4.695 25.18-6.08 5.447-1.385 9.972-2.449 10.055-2.365.084.084-6.247 1.991-14.069 4.239-15.469 4.445-53.495 15.653-59.824 17.634-13.06 4.086-15.058 9.662-15.006 41.888.014 8.785.374 22.535.8 30.556.427 8.02.988 20 1.247 26.62.259 6.62.879 21.62 1.378 33.333 1.039 24.407 1.688 42.321 2.121 58.565.518 19.432.228 19.295 22.265 10.501 17.298-6.903 21.348-8.469 61.269-23.697 56.714-21.632 81.065-31.837 85.202-35.706 4.67-4.369 4.785-6.038 3.223-46.654-1.167-30.328-1.461-45.54-1.67-86.388-.123-24.063-.323-44.224-.445-44.804-.605-2.871-5.455-6.122-9.132-6.122-1.917 0-43.692 10.814-66.456 17.203-5.435 1.525-9.968 2.686-10.073 2.581-.106-.106 1.528-.662 3.63-1.236 6.759-1.844 21.94-6.935 37.45-12.559 8.31-3.013 18.727-6.647 23.148-8.075 11.289-3.648 11.211-3.616 11.815-4.827.974-1.954 1.177-1.802-23.914-17.863-25.13-16.086-39.045-24.015-46.629-26.569-3.318-1.118-3.507-1.129-5.708-.342m9.513 10.605c36.209 15.69 65.948 30.725 65.966 33.351.011 1.461-9.815 4.197-36.105 10.053-27.036 6.022-39.163 9.462-71.759 20.356-13.623 4.552-28.623 9.352-33.333 10.665a2449.39 2449.39 0 0 0-11.343 3.185c-2.764.793-4.876.696-5.187-.238-.09-.27 6.554-6.931 14.764-14.802a4867.155 4867.155 0 0 0 26.773-25.886c20.984-20.503 34.179-32.754 40.183-37.307 3.337-2.53 2.669-2.572 10.041.623m70.9 45.542c3.35 1.59 3.481 3.22 4.402 55.03.584 32.832-1.109 113.302-2.459 116.865-1.178 3.111-1.657 3.373-19.371 10.586-20.426 8.318-34.205 14.197-72.697 31.014-69.553 30.389-68.518 29.99-70.544 27.266l-.972-1.307-.273-76.24c-.15-41.931-.424-76.582-.609-77.001-.492-1.114.504-21.89 1.373-28.636 1.341-10.412.298-9.689 24.046-16.679 46.527-13.696 75.989-22.845 110.186-34.218 22.947-7.632 24.236-7.952 26.918-6.68M64.73 154.838c27.667 5.478 44.346 8.595 60.733 11.351 51.924 8.731 57.03 10.965 58.749 25.709 2.038 17.473 2.139 31.101.634 86.111-.45 16.46-.734 39.788-.696 57.254.053 24.781-.04 29.563-.586 30.016-.512.425-4.887-1.047-20.695-6.961a12656.84 12656.84 0 0 0-34.165-12.725c-37.777-13.981-84.746-32.906-86.806-34.976-1.063-1.069-1.084-5.246-.214-42.33.25-10.694.574-41.215.72-67.824.145-26.609.344-48.64.443-48.958.282-.911.992-.803 21.883 3.333m148.376 189.375c.003 1.528.089 2.097.192 1.265.104-.832.101-2.082-.004-2.778-.106-.696-.19-.015-.188 1.513" fill="#fcb427"/><path d="M347.685 149.771c-3.183.856-17.141 5.096-31.018 9.423-35.68 11.124-74.433 22.897-91.667 27.847-10.883 3.126-11.788 3.972-11.799 11.032-.01 6.411.749 6.865 7.864 4.708 12.16-3.686 132.691-42.848 133.687-43.437 3.171-1.872 2.949-11.267-.264-11.163-.559.018-3.62.734-6.803 1.59m4.861 139.896c-2.145.48-7.346 2.301-42.361 14.825-42.41 15.17-74.999 26.644-86.446 30.436-10.214 3.383-10.313 3.479-10.313 10.015 0 5.3.772 6.817 3.165 6.217 1.911-.479 23.448-8.265 48.687-17.601a9658.455 9658.455 0 0 1 35.879-13.198c7.13-2.596 20.047-7.389 28.704-10.651 29.132-10.976 26.909-9.702 26.46-15.158-.278-3.382-1.269-5.379-2.553-5.146-.163.029-.712.147-1.222.261" fill="#749a4b"/></g></svg>