<svg version="1" xmlns="http://www.w3.org/2000/svg" width="1152" height="1152" viewBox="0 0 864.000000 864.000000"><path d="M56.1 28.9c-2.2 2.2-3.6 9.5-5.2 27.1-5.2 56.6 13.8 105.3 64 164 4.5 5.2 8.4 9.5 8.6 9.5.2 0 3.6-5.3 7.5-11.9l7-11.8-4.7-4.2c-8.3-7.3-22.3-23.8-30.6-36.1-12.7-19-21-38.1-25.4-58.5-1.4-6.8-1.8-12.9-1.8-30 .1-18.7.4-22.9 2.4-32 1.3-5.8 2.6-11.5 2.8-12.7.5-2.1.2-2.2-2.4-1.7-1.8.3-6.1-.3-10.5-1.5-9.1-2.6-9.3-2.6-11.7-.2zM218 173.7c-7 .7-23.5 4.5-30.4 7-23.9 8.6-40.3 21.4-54.2 42.4-7.8 11.6-12.3 22.5-15.7 37.9-3.2 14.3-3.1 42.4.1 56.9 4.3 19 9.5 31.7 18.8 45.6 6.4 9.7 10.8 14.3 29 30.7C224.2 446.9 261.5 515.6 275 596c4.7 28 10.9 47.4 22.1 70 12.9 25.9 27.1 45.4 48.8 67 17.5 17.4 23.4 21.9 49.1 37 40.3 23.7 58.3 32.3 80.5 38.1 45.3 11.9 94.9 7.3 136.5-12.7 45.5-21.9 77.1-59.2 88.6-104.7 3.5-13.6 5.6-18.6 12-28.5 7.3-11.2 21.3-25.5 41.9-42.7 24.8-20.7 39-36.3 51.7-56.8 28.1-45.1 33.4-104.7 14.1-156.7-30.2-81.1-121.4-152.3-215.8-168.4-23.9-4.1-41.2-4-79.5.4-22.7 2.7-52.5 3.6-65.3 2.1-27.4-3.2-72-17.6-145.7-46.9-34.4-13.7-42.6-16.3-58.5-18.7-9-1.3-28.3-1.8-37.5-.8zm449 162.5c5.5 3.7 11.8 12.3 13.6 18.4 2.6 9 .2 16.5-6.6 20.7-2.8 1.8-5 2.2-11.5 2.2-9.5 0-17.1-2.4-22.1-6.7-6.8-6-9.8-24.9-4.7-29.9 6.4-6.4 24.7-9.2 31.3-4.7zm80.7 55.6c3.2 1 9.1 3.7 13 6 8 4.7 9.7 7.4 10.8 17.9 1 8.8-.8 16.6-4.8 19.9-8.9 7.5-23.7 11.2-32.2 8-11.2-4.3-20.9-22.9-19-36.6.6-4.3 1.4-5.6 6-9.8 8-7.3 15.2-8.8 26.2-5.4zM654.2 417c6.4 5.5 11.1 13.2 11.1 17.8 0 7-6.6 16.1-13 18.3-11.5 3.7-23.3-7.5-24.9-23.6-.6-5.5-.4-6.3 2-9.2 3.5-4.1 10.1-7.2 15.7-7.3 4 0 5.2.5 9.1 4zm60.1 70.4c5.4 2.7 12 9.6 16.9 17.9 4.1 6.8 4.2 7.3 4.2 15.6 0 10-2.7 17.2-8.5 23-6.5 6.5-20.9 11.1-30.4 9.7-11.9-1.8-31-16.2-33.4-25.2-3.2-12.1 11.5-35.6 25.9-41.2 7-2.8 19.4-2.6 25.3.2z"/></svg>