<svg width="432" height="432" xmlns="http://www.w3.org/2000/svg" display="block"><g fill-rule="evenodd"><path d="M192.244 41.927c-3.564 9.148-7.105 19.998-11.018 33.767-4.361 15.341-4.733 16.171-7.112 15.852-4.096-.55-23.16-9.392-33.116-15.36-2.787-1.671-5.142-3.038-5.233-3.038-.091 0-.103 12.031-.026 26.736.121 23.074.044 26.99-.565 28.588l-.706 1.852-4.058-.118c-2.232-.064-11.289-.941-20.127-1.949-15.529-1.769-22.936-2.333-23.482-1.786-.144.144.775 3.674 2.042 7.844a2131.654 2131.654 0 0 1 4.439 14.84c1.175 3.992 3.062 9.701 4.195 12.687 1.133 2.986 2.06 5.565 2.06 5.731 0 .166-1.554.563-3.453.882-5.322.895-13.447 3.038-23.862 6.296-12.834 4.014-18.669 5.622-24.462 6.739-5.665 1.094-5.515 1.012-4.551 2.484 2.721 4.153 19.923 12.407 33.874 16.254 4.174 1.151 5.541 1.712 5.495 2.255-.224 2.626-5.749 9.229-16.989 20.299-6.388 6.291-11.516 11.537-11.396 11.658 2.357 2.357 19.36 1.068 26.548-2.013 2.04-.874 2.204-.887 1.894-.141-5.624 13.536-6.27 20.842-3.463 39.159 7.298 47.614 33.692 74.624 92.124 94.276 38.981 13.11 74.317 17.301 111.574 13.233 3.438-.375 10.209-.898 15.047-1.162 45.31-2.471 71.14-23.891 81.037-67.199 11.166-48.86 5.459-105.771-15.365-153.213-15.128-34.464-42.129-60.469-74.231-71.492-12.187-4.185-30.539-8.827-36.696-9.282-2.228-.165-4.049-.438-4.046-.606.003-.168.315-1.328.695-2.578 1.479-4.876.749-11.076-2.145-18.214-.918-2.265-1.69-1.769-14.99 9.648-4.583 3.934-10.046 8.455-12.14 10.048l-3.807 2.896-1.257-1.979c-.691-1.088-3.684-7.188-6.651-13.555-6.485-13.918-11.146-23.123-12.641-24.969l-1.102-1.36-2.334 5.99m70.95 43.044c35.199 10.047 48.766 17.325 66.292 35.562 35.176 36.602 52.898 113.039 42.276 182.341-4.674 30.495-16.102 49.512-36.894 61.391-29.356 16.772-84.611 18.215-135.834 3.548-74.18-21.242-105.032-51.359-116.419-113.646l-1.227-6.712 1.266-8.334c1.648-10.853 5.548-21.061 13.932-36.461 29.269-53.768 75.594-94.165 131.639-114.794 17.39-6.401 21.497-6.741 34.969-2.895m-8.336 50.408c-5.07 11.465-2.618 21.893 6.855 29.149 5.205 3.987 8.344 4.146 15.253.775 5.329-2.6 6.059-3.719 6.051-9.28-.013-9.567-3.576-13.249-19.46-20.11-8.416-3.635-7.356-3.57-8.699-.534m-61.723 55.693c-4.011 26.353 8.553 41.191 25.268 29.84 6.082-4.131 7.494-6.731 6.681-12.308-1.704-11.688-10.679-18.07-29.284-20.823l-2.116-.313-.549 3.604m78.309 29.646c.699 16.54 5.165 23.274 16.976 25.595 3.966.779 13.162-5.778 14.089-10.047.705-3.247-2.329-10.579-5.826-14.076-4.432-4.432-15.65-8.281-24.184-8.298l-1.343-.003.288 6.829M133.16 253.575c.369 1.217 1.386 5.754 2.262 10.082 3.461 17.12 7.406 21.991 17.811 21.991 7.075 0 15.83-8.196 15.033-14.072-1.612-11.889-7.448-15.301-34.081-19.92l-1.695-.294.67 2.213m77.488 18.704c0 13.149 5.302 24.945 12.679 28.209 7.804 3.452 11.652 2.707 16.245-3.145 2.794-3.561 3.076-4.805 2.029-8.964-3.192-12.67-11.174-18.447-25.513-18.465l-5.44-.007v2.372m73.398 16.455c1.994 20.198 5.399 26.535 16.031 29.844l2.822.879 2.512-1.15c6.097-2.792 10.115-8.148 9.713-12.949-.86-10.254-7.287-15.216-23.14-17.862-3.103-.518-6.218-1.059-6.923-1.202l-1.282-.26.267 2.7" fill="#fff"/><path d="M239.583 84.238c-59.979 17.936-113.41 62.644-143.879 120.392-7.945 15.057-11.168 23.671-12.874 34.403l-1.31 8.246 1.163 6.337c10.022 54.605 33.375 82.829 85.604 103.459 82.22 32.476 162.45 26.724 189.068-13.556 30.767-46.558 18.895-167.23-21.179-215.278-15.284-18.324-31.303-29.56-52.526-36.842-25.021-8.585-34.276-10.089-44.067-7.161m35.5 57.116c6.025 4.006 7.997 7.578 8.01 14.515.011 5.879-.413 6.559-5.813 9.319-8.194 4.188-11.636 3.639-18.29-2.919-7.78-7.668-9.069-18.408-3.466-28.876.578-1.08 14.456 4.569 19.559 7.961m-74.223 47.308c17.146 3.62 24.603 10.457 24.603 22.556 0 8.58-15.648 16.987-23.529 12.642-7.52-4.146-11.492-18.818-8.937-33.004.714-3.962.186-3.815 7.863-2.194m77.149 25.71c15.331 2.199 24.798 10.249 24.752 21.045-.021 4.93-9.735 11.99-15.023 10.918-10.589-2.147-15.569-9.193-16.226-22.955-.134-2.801-.331-6.083-.439-7.292l-.196-2.199 1.946.009c1.07.005 3.404.218 5.186.474m-133.187 39.133c16.789 3.314 22.659 7.978 23.559 18.718.566 6.743-9.602 14.507-17.443 13.32-9.519-1.44-12.398-5.378-15.55-21.273-.903-4.552-1.943-9.13-2.311-10.174-1.171-3.318-1.89-3.282 11.745-.591m80.539 17.15c8.932 2.326 15.276 9.773 16.976 19.924.735 4.389-6.047 12.206-10.578 12.193-12.665-.036-19.316-9.372-21.333-29.945l-.281-2.867 2.219-.199c3.439-.309 10.151.153 12.997.894m66.317 16.622c10.851 1.887 15.551 3.743 19.029 7.517 3.628 3.935 5.795 11.284 4.349 14.746-1.702 4.071-10.138 10.356-13.106 9.762-7.315-1.463-12.914-6.533-15.337-13.89-1.806-5.482-3.434-19.301-2.274-19.301.351 0 3.654.525 7.339 1.166" fill="#a32929"/><path d="M194.365 12.283c-2.954 1.604-7.505 10.099-16.112 30.078-6.34 14.715-10.18 22.573-12.191 24.944l-1.523 1.797-2.632-.766c-1.448-.42-5.917-2.452-9.932-4.515-4.014-2.062-11.28-5.79-16.145-8.283-15.875-8.137-19.062-8.296-20.578-1.029-.788 3.78-.284 17.307 1.151 30.908 1.253 11.876 1.483 21.223.585 23.819-1.316 3.803-6.79 4.399-27.831 3.031-14.323-.932-20.634-.796-22.036.472-2.032 1.839-.854 7.81 4.348 22.036 6.646 18.175 7.843 23.298 5.766 24.659-2.758 1.807-7.333 2.944-27.337 6.794-44.476 8.56-44.976 13.35-3.646 34.898 10.809 5.635 13.007 6.979 13.007 7.953 0 2.696-4.543 7.446-13.365 13.975-13.063 9.668-13.944 10.71-11.947 14.119 5.394 9.204 27.452 16.291 40.359 12.967l3.24-.834.298-2.315c.238-1.85 3.042-10.453 4.794-14.705.307-.746.144-.734-1.897.141-7.188 3.081-24.191 4.37-26.548 2.013-.12-.121 5.008-5.367 11.396-11.658 11.24-11.07 16.765-17.673 16.989-20.299.046-.543-1.321-1.104-5.495-2.255-13.951-3.847-31.153-12.101-33.874-16.254-.964-1.472-1.114-1.39 4.551-2.484 5.793-1.117 11.628-2.725 24.462-6.739 10.415-3.258 18.54-5.401 23.862-6.296 1.899-.319 3.453-.716 3.453-.882 0-.166-.927-2.745-2.06-5.731-1.133-2.986-3.02-8.695-4.195-12.687a2131.654 2131.654 0 0 0-4.439-14.84c-1.267-4.17-2.186-7.7-2.042-7.844.546-.547 7.953.017 23.482 1.786 8.838 1.008 17.895 1.885 20.127 1.949l4.058.118.706-1.852c.609-1.598.686-5.514.565-28.588-.077-14.705-.065-26.736.026-26.736s2.446 1.367 5.233 3.038c9.956 5.968 29.02 14.81 33.116 15.36 2.379.319 2.751-.511 7.112-15.852 3.913-13.769 7.454-24.619 11.018-33.767l2.334-5.99 1.102 1.36c1.495 1.846 6.156 11.051 12.641 24.969 2.967 6.367 5.96 12.467 6.651 13.555l1.257 1.979 3.807-2.896c2.094-1.593 7.557-6.114 12.14-10.048 13.3-11.417 14.072-11.913 14.99-9.648 2.921 7.207 3.618 13.279 2.108 18.365-.886 2.983-1.365 2.636 4.43 3.211 2.673.266 5.277.546 5.787.623 2.557.386 5.068-9.046 4.708-17.685-.398-9.548-2.829-15.908-8.184-21.412-4.296-4.415-5.602-4.177-13.422 2.443-21.669 18.342-22.65 18.094-34.451-8.714-8.233-18.702-10.289-21.65-13.777-19.756m55.751 70.444c.445.116 1.175.116 1.62 0 .446-.117.081-.212-.81-.212s-1.256.095-.81.212M147.888 136.69l-1.36 1.504 1.504-1.359c1.403-1.268 1.718-1.65 1.36-1.65-.08 0-.757.677-1.504 1.505m104.081 10.301c.005 1.018.1 1.38.21.805.111-.576.107-1.41-.009-1.852-.116-.443-.207.028-.201 1.047M192.285 200c0 1.91.082 2.691.182 1.736.1-.955.1-2.517 0-3.472-.1-.955-.182-.174-.182 1.736m14.081 25.327c.573.11 1.51.11 2.083 0 .573-.111.104-.201-1.042-.201-1.145 0-1.614.09-1.041.201m92.455 15.992l-1.83 1.968 1.967-1.83c1.83-1.702 2.181-2.105 1.83-2.105-.075 0-.961.885-1.967 1.967m75.855 14.237c0 1.4.087 1.973.193 1.273.106-.701.106-1.846 0-2.547-.106-.7-.193-.127-.193 1.274m.004 13.194c.003 1.528.09 2.097.193 1.265.103-.832.1-2.082-.005-2.778-.106-.696-.19-.015-.188 1.513m-159.286 1.026c.7.106 1.846.106 2.546 0 .7-.106.127-.193-1.273-.193-1.401 0-1.974.087-1.273.193m95.927 44.229l-1.83 1.967 1.967-1.83c1.83-1.702 2.181-2.105 1.83-2.105-.075 0-.961.885-1.967 1.968m-21.043-1.36c0 .08.677.757 1.504 1.504l1.505 1.36-1.36-1.504c-1.267-1.403-1.649-1.718-1.649-1.36m-174.306 12.818c1.254 1.273 2.384 2.315 2.512 2.315.127 0-.795-1.042-2.049-2.315s-2.384-2.315-2.511-2.315c-.128 0 .794 1.042 2.048 2.315" fill="#749a4b"/></g></svg>