<svg version="1" xmlns="http://www.w3.org/2000/svg" width="1152" height="1152" viewBox="0 0 864.000000 864.000000"><path d="M66 64.6C52.5 74.3 40.8 82.5 40.1 83c-1.3.7-.5 10.2 5.2 67.2 23.2 228 27.2 276.1 32.7 390.3 2.6 56 8 187.2 8 196.6 0 2.3 2.1 3.6 25.7 15.2l25.8 12.7 16 1.6c20.1 2.2 73.4 2.4 94.5.6 56.2-5 102.5-15.6 149-33.9 63.3-24.9 118-63.8 183-129.9 91.8-93.5 161.5-206.9 184.9-300.9 9.9-39.8 14.1-77.8 14.1-126.9 0-37.6-2.2-67.8-6.8-96.1l-1.7-10-16-.7c-134.1-6.1-203.5-8.4-516-17.2-67.1-1.9-127.8-3.7-135-4l-13-.5L66 64.6zm375 60.5c13.5 3.1 25.5 12.2 35 26.6 6 9.1 22.6 41.1 28.8 55.5l2 4.7-8.1 7.3c-4.5 4-9.2 8.1-10.4 9.2-2.2 1.8-2.3 1.8-15-5.2-7-3.9-20.1-10.7-29-15.1-25.3-12.7-30.9-17.8-38.2-34.9-6.7-15.4-7.4-22.9-3.1-31 7.5-14.2 22.2-20.8 38-17.1zm191.5 9.8c2.2 1 4.8 2.7 5.7 3.7 5 5.6 7.7 18.5 7.9 37.4.1 10.5-.8 13.8-6.2 21.7-3.6 5.3-17.4 19.9-23.1 24.4l-3.7 3-2.9-5.8c-4.7-9.2-11.8-28.1-14.2-37.3-4.1-15.8-2.6-24.3 6.7-38.7 6.2-9.4 19.5-13.2 29.8-8.4zM197.8 350.6c7.7 3.8 17.1 14.5 22.6 25.7 8.3 16.8 9.2 26.6 4 44.4-2.7 9.5-11.1 30.4-14.7 36.8-2.2 3.9-2.4 4-10 5.1l-7.8 1-2.8-3.5c-8.4-10.6-23.2-38.2-28.2-52.5-2.6-7.5-3.5-21.9-2-30.1 4.3-23 22.1-35.3 38.9-26.9zm203.6 70c14.5 3.7 33.4 15.4 42.7 26.6 9.7 11.7 12.8 21.2 10.4 31.7-2.9 12-9.6 21-19.4 25.8-5.2 2.6-6.5 2.8-17.6 2.7-10.8 0-12.9-.3-21.5-3.3-25.7-8.8-45.5-25.1-58.9-48.6-5-8.6-11.5-25-10.7-27 .4-1.2 25.1-6.4 39.6-8.4 11-1.5 28.6-1.3 35.4.5zM301.3 576.2c5.3 7 7.7 13.4 7.7 20.2 0 11.3-4.2 27.2-10.3 39.1-3.9 7.5-17.9 21.7-26.5 26.9-9.9 5.9-16.4 7.9-26.3 8-7.9.1-9.1-.2-15.5-3.4-8.5-4.3-12.5-9.7-14.8-19.9-5.5-24 3-44.3 24.2-57.9 15.3-9.8 35-15.9 52.4-16.1 6.4-.1 6.8 0 9.1 3.1z"/><path d="M774.2 66.6c.2.5 2.5 5.2 5.1 10.4 8 16.5 13.2 35.5 15.7 58 2.5 22.4 3.9 62.3 3 80.5-1.4 25.9-6.6 73.9-10.5 96.5-11.3 65.6-46.9 134.7-115.9 224.5-31.8 41.4-46.5 58.6-74 86.1-87.9 87.8-186.1 139-310.6 161.8-42.4 7.8-102.9 4.7-149-7.5-17.5-4.6-24-8.1-34.7-18.3-8.9-8.4-9.3-8.7-12.8-8l-3.7.7.7 13.6c.6 13.3.7 13.7 3.5 16.3 3.8 3.5 20 13 30.8 18 29.5 13.6 58.2 18.1 101.9 15.9 76.4-4 149.7-22.8 219.8-56.6 63.2-30.4 114-67.9 175.6-129.4 43.6-43.7 75.4-82.4 107.4-130.6 69-104 96.5-189.1 96.5-298.6 0-55.8-8.2-104.6-20.8-123.3-3.9-5.7-11.6-9.5-21.1-10.3-4.3-.4-7.2-.2-6.9.3z"/></svg>