<svg width="432" height="432" xmlns="http://www.w3.org/2000/svg" display="block"><g fill-rule="evenodd"><path d="M26.389 25.458c-7.766 5.116-14.305 9.57-14.531 9.898-1.343 1.95 5.656 86.009 11.963 143.688 5.775 52.806 14.142 163.968 14.142 187.877v3.734l12.206 5.87c15.558 7.482 20.06 8.594 38.705 9.56 57.593 2.986 129.078-23.324 180.57-66.459 42.229-35.374 82.675-90.933 102.76-141.154 13.911-34.785 17.751-77.126 10.883-119.994-2.041-12.736-6.639-31.506-7.806-31.863-.546-.167-32.853-2.1-55.142-3.299-10.269-.552-30.407-.81-85.648-1.098-78.788-.411-95-.759-140.972-3.022-13.73-.675-41.831-2.261-49.306-2.782l-3.704-.258-14.12 9.302m41.238-3.001c12.84.384 55.429 1.634 94.642 2.778 39.212 1.144 81.192 2.392 93.287 2.773 21.8.687 101.052 3.92 101.271 4.132.285.275 2.008 12.771 2.652 19.233 3.083 30.945 1.277 62.299-5.083 88.21-17.065 69.532-89.8 160.339-154.396 192.76-37.296 18.718-86.997 27.333-130.161 22.56l-6.319-.699-11.806-5.748-11.806-5.748-.267-3.877c-.147-2.132-.696-15.648-1.221-30.035-2.309-63.332-4.396-101.3-7.432-135.185-2.483-27.719-12.346-127.88-13.116-133.199-.252-1.742 22.588-18.653 25.193-18.653.669 0 11.722.314 24.562.698m298.909 9.107c15.57 5.794 19.945 70.751 7.977 118.42-14.538 57.902-64.559 127.925-124.108 173.734-35.017 26.938-79.698 45.63-123.553 51.689-38.849 5.368-61.817 2.025-82.712-12.036l-3.314-2.23-.283-4.066c-.156-2.236-.39-5.229-.52-6.65l-.237-2.585 1.76-.527 1.759-.527 4.158 3.934c7.367 6.97 15.648 9.758 37.954 12.778 11.678 1.58 35.546 1.584 44.444.005 84.287-14.947 142.963-56.526 200.073-141.774 22.319-33.316 32.028-57.223 36.01-88.668 5.988-47.287 4.016-78.983-6.167-99.156-.794-1.573-1.444-3.095-1.444-3.382 0-.743 5.171-.087 8.203 1.041M196.628 57.913c-8.732 2.056-12.955 10.205-9.813 18.939 3.656 10.165 6.261 12.853 18.455 19.038 4.613 2.34 10.95 5.687 14.082 7.437l5.695 3.183 4.49-3.997c5.486-4.883 5.213-3.746 2.403-9.989-12.472-27.713-22.571-37.611-35.312-34.611m88.019 4.208c-4.944 1.317-9.439 8.931-9.38 15.888.046 5.431 6.891 25.664 8.69 25.689 1.808.025 11.666-10.782 13.813-15.142l1.446-2.938-.296-6.185c-.717-14.95-4.754-19.847-14.273-17.312M83.02 161.842c-7.23 2.664-11.365 13.213-9.194 23.457 1.237 5.838 7.132 18.039 12.439 25.746l2.345 3.406 2.801-.31c4.68-.516 4.715-.538 6.28-3.882 6.819-14.573 8.735-23.51 6.513-30.387-4.234-13.107-13.393-20.902-21.184-18.03m89.897 32.416c-.764.106-3.056.416-5.093.689-3.56.477-14.445 2.515-16.057 3.006-2.568.783 5.037 15.569 11.584 22.52 18.778 19.937 47.096 18.901 47.058-1.723-.025-13.503-20.454-26.848-37.492-24.492m-41.953 71.505c-21.455 3.234-33.913 15.628-31.506 31.343 3.401 22.209 33.651 14.97 41.449-9.92 2.849-9.092 2.714-13.644-.56-18.899l-1.731-2.778-2.526-.069c-1.389-.038-3.696.107-5.126.323" fill="#fff"/><path d="M30.556 29.915c-6.239 4.462-11.645 8.286-12.014 8.498-.576.33-.229 4.731 2.451 31.101C31.725 175.11 33.584 197.371 36.091 250.231c1.231 25.946 3.714 86.656 3.722 91.001.002 1.089.972 1.663 11.923 7.051l11.921 5.866 7.408.778c42.119 4.421 91.808-4.215 128.009-22.248 64.818-32.287 137.678-122.815 155.038-192.633 7.426-29.863 8.755-70.637 3.366-103.24l-.765-4.63-7.407-.334c-62.106-2.799-94.219-3.87-238.889-7.973-31.065-.881-59.19-1.706-62.5-1.834l-6.019-.233-11.342 8.113M204.167 57.91c10.472 2.412 18.88 13.229 29.546 38.015l.936 2.176-3.786 3.38c-2.083 1.859-4.246 3.77-4.808 4.246-1.013.86-1.064.843-6.941-2.392-3.256-1.792-9.29-4.947-13.409-7.01-13.094-6.558-17.377-11.394-20.043-22.631-2.29-9.65 7.794-18.251 18.505-15.784m88.657 4.535c4.426 2.032 6.151 7.257 6.291 19.055.083 6.999-4.389 14.037-13.564 21.346l-1.717 1.369-1.351-2.686c-2.149-4.275-5.463-12.99-6.567-17.27-3.62-14.036 6.215-26.724 16.908-21.814m-201.258 99.86c7.384 3.68 14.633 17.1 13.791 25.531-.519 5.195-4.999 18.173-8.274 23.968-1.026 1.816-1.111 1.858-4.646 2.348l-3.601.498-1.303-1.654c-6.874-8.725-13.823-23.984-14.246-31.283-.84-14.506 8.41-24.326 18.279-19.408m94.247 32.399c14.781 3.752 26.899 17.063 24.581 27.001-3.307 14.176-17.626 17.538-35.102 8.242-10.134-5.39-18.499-15.203-22.862-26.821-2.035-5.417-2.355-5.081 6.444-6.765 13.329-2.551 21.45-3.051 26.939-1.657m-46.305 72.078c4.314 5.749 4.634 11.572 1.193 21.708-5.357 15.779-22.643 26.091-34.033 20.303-9.654-4.907-10.419-21.462-1.446-31.296 7.835-8.587 30.555-15.687 34.286-10.715" fill="#a32929"/><path d="M47.338 22.091c.7.106 1.846.106 2.546 0 .7-.106.128-.193-1.273-.193-1.4 0-1.973.087-1.273.193m16.204.463c.7.106 1.846.106 2.546 0 .7-.106.127-.193-1.273-.193-1.401 0-1.974.087-1.273.193m16.21.463c.703.107 1.745.104 2.315-.006.569-.11-.007-.197-1.28-.193-1.273.003-1.739.093-1.035.199m16.203.463c.704.107 1.746.104 2.315-.006.57-.11-.006-.197-1.279-.193-1.273.003-1.739.093-1.036.199m15.741.463c.704.107 1.746.104 2.315-.006s-.006-.197-1.28-.193c-1.273.003-1.739.093-1.035.199m16.204.463c.704.107 1.745.104 2.315-.006.569-.11-.007-.197-1.28-.194-1.273.004-1.739.094-1.035.2m15.741.463c.703.107 1.745.104 2.314-.006.57-.11-.006-.197-1.279-.194-1.273.004-1.739.094-1.035.2m15.74.463c.704.107 1.746.104 2.315-.006.57-.11-.006-.197-1.279-.194-1.273.004-1.739.094-1.036.2m15.741.463c.704.107 1.746.104 2.315-.006s-.006-.197-1.28-.194c-1.273.004-1.739.094-1.035.2m15.741.463c.704.107 1.745.104 2.315-.006.569-.11-.007-.197-1.28-.194-1.273.004-1.739.094-1.035.2m15.741.463c.703.107 1.745.104 2.314-.006.57-.11-.006-.197-1.279-.194-1.273.004-1.739.094-1.035.2m15.277.463c.704.106 1.746.104 2.315-.006.57-.11-.006-.197-1.279-.194-1.273.004-1.739.094-1.036.2m15.278.463c.704.106 1.746.104 2.315-.006s-.006-.197-1.28-.194c-1.273.004-1.739.094-1.035.2m15.278.463c.704.106 1.745.104 2.315-.006.569-.11-.007-.197-1.28-.194-1.273.004-1.739.094-1.035.2m14.577.457c.573.111 1.51.111 2.083 0 .573-.11.104-.2-1.041-.2-1.146 0-1.615.09-1.042.2m13.889.463c.573.111 1.51.111 2.083 0 .573-.11.104-.2-1.042-.2-1.145 0-1.614.09-1.041.2m11.805.456c.446.116 1.175.116 1.621 0 .445-.117.081-.212-.81-.212-.892 0-1.256.095-.811.212m10.648.463c.446.116 1.175.116 1.621 0 .445-.117.081-.212-.81-.212-.892 0-1.256.095-.811.212m10.886.471c.575.111 1.409.107 1.851-.009.443-.116-.028-.207-1.047-.202-1.018.005-1.38.1-.804.211m44.091.103c0 .287.65 1.809 1.444 3.382 10.183 20.173 12.155 51.869 6.167 99.156-3.982 31.445-13.691 55.352-36.01 88.668-57.11 85.248-115.786 126.827-200.073 141.774-8.898 1.579-32.766 1.575-44.444-.005-22.306-3.02-30.587-5.808-37.954-12.778l-4.158-3.934-1.759.527-1.76.527.237 2.585c.13 1.421.364 4.414.52 6.65l.283 4.066 3.314 2.23c20.895 14.061 43.863 17.404 82.712 12.036 43.855-6.059 88.536-24.751 123.553-51.689 59.549-45.809 109.57-115.832 124.108-173.734 11.968-47.669 7.593-112.626-7.977-118.42-3.032-1.128-8.203-1.784-8.203-1.041m-33.217.352c.445.116 1.175.116 1.62 0 .446-.117.081-.212-.81-.212s-1.256.095-.81.212m11.111.463c.445.116 1.175.116 1.62 0 .446-.117.081-.212-.81-.212s-1.256.095-.81.212m11.111.463c.446.116 1.175.116 1.62 0 .446-.117.081-.212-.81-.212s-1.256.095-.81.212m13.499 49.68c0 4.202.07 5.921.156 3.82.085-2.101.085-5.538 0-7.639-.086-2.101-.156-.382-.156 3.819M203.472 205.093c.995 1.018 1.913 1.851 2.04 1.851s-.582-.833-1.577-1.851c-.994-1.019-1.912-1.852-2.04-1.852-.127 0 .583.833 1.577 1.852m-39.352 16.666c1.254 1.273 2.385 2.315 2.512 2.315.127 0-.795-1.042-2.049-2.315s-2.384-2.315-2.511-2.315c-.127 0 .794 1.042 2.048 2.315m-128.364 25c0 .891.095 1.256.211.81.117-.445.117-1.174 0-1.62-.116-.446-.211-.081-.211.81m.463 9.722c0 .892.095 1.256.211.811.117-.446.117-1.175 0-1.621-.116-.445-.211-.081-.211.81m.462 10.186c0 .891.096 1.255.212.81.117-.446.117-1.175 0-1.621-.116-.445-.212-.081-.212.811m.463 10.648c0 .891.096 1.256.212.81.117-.446.117-1.175 0-1.62-.116-.446-.212-.081-.212.81m228.359 5.208l-6.012 6.134 6.134-6.011c5.698-5.585 6.344-6.257 6.012-6.257-.067 0-2.828 2.76-6.134 6.134m-227.896 5.903c0 .891.096 1.256.212.81.117-.445.117-1.175 0-1.62-.116-.446-.212-.081-.212.81m216.299 5.208l-1.36 1.505 1.505-1.36c.827-.748 1.505-1.425 1.505-1.505 0-.357-.382-.042-1.65 1.36M38.08 299.769c.005 1.018.1 1.38.21.804.111-.576.107-1.409-.009-1.852-.116-.442-.206.029-.201 1.048m.463 12.037c.005 1.018.1 1.38.21.804.111-.576.107-1.409-.009-1.852-.116-.442-.206.029-.201 1.048m.472 12.268c0 1.146.09 1.615.201 1.042.11-.573.11-1.511 0-2.084-.111-.573-.201-.104-.201 1.042m.463 12.963c0 1.146.09 1.615.201 1.042.11-.573.11-1.511 0-2.084-.111-.573-.201-.104-.201 1.042m43.045 18.838c.446.116 1.175.116 1.621 0 .445-.117.081-.212-.811-.212-.891 0-1.255.095-.81.212m21.533.008c.576.111 1.41.107 1.852-.009.443-.116-.028-.207-1.047-.202-1.018.005-1.381.1-.805.211" fill="#749a4b"/></g></svg>