<?xml version="1.0" standalone="no"?>
<!DOCTYPE svg PUBLIC "-//W3C//DTD SVG 20010904//EN"
 "http://www.w3.org/TR/2001/REC-SVG-20010904/DTD/svg10.dtd">
<svg version="1.0" xmlns="http://www.w3.org/2000/svg"
 width="16.000000pt" height="16.000000pt" viewBox="0 0 16.000000 16.000000"
 preserveAspectRatio="xMidYMid meet">
<metadata>
Created by potrace 1.11, written by Peter Selinger 2001-2013
</metadata>
<g transform="translate(0.000000,16.000000) scale(0.003030,-0.003030)"
fill="#000000" stroke="none">
<path d="M3138 4456 c-197 -99 -327 -257 -410 -500 -21 -61 -38 -118 -38 -126
0 -11 -23 -23 -72 -38 -98 -29 -189 -84 -258 -159 -72 -76 -107 -147 -127
-254 -70 -379 -177 -582 -453 -857 -177 -178 -243 -282 -307 -488 -26 -85 -27
-99 -27 -289 0 -155 4 -219 18 -285 35 -168 116 -311 240 -427 89 -83 175
-135 281 -170 110 -36 265 -38 376 -5 115 34 189 30 355 -18 183 -53 289 -67
397 -53 273 37 499 225 607 504 93 241 97 565 9 815 -38 110 -86 193 -179 309
-102 127 -150 199 -182 276 -35 84 -98 329 -138 534 -47 250 -81 327 -191 437
-65 66 -168 128 -212 128 -10 0 -20 6 -23 14 -9 24 26 138 72 233 74 155 181
262 329 332 55 26 64 34 56 49 -5 9 -14 29 -20 45 -6 15 -16 27 -23 27 -7 0
-43 -15 -80 -34z m338 -2650 c38 -38 43 -70 17 -119 -20 -40 -41 -56 -71 -57
-34 0 -60 17 -77 50 -25 48 -19 90 17 127 41 43 71 42 114 -1z m-290 -139 c24
-21 26 -28 20 -61 -8 -40 -45 -86 -70 -86 -32 0 -67 21 -76 45 -18 48 33 125
82 125 9 0 29 -10 44 -23z m262 -253 c33 -23 52 -67 52 -119 0 -37 -5 -51 -27
-71 -50 -46 -101 -44 -152 7 -84 83 31 250 127 183z m-435 -55 c75 -39 101
-101 72 -174 -32 -85 -111 -123 -182 -89 -57 29 -83 74 -83 148 0 66 16 101
54 116 31 13 114 12 139 -1z"/>
</g>
</svg>
