<?xml version="1.0" standalone="no"?>
<!DOCTYPE svg PUBLIC "-//W3C//DTD SVG 20010904//EN"
 "http://www.w3.org/TR/2001/REC-SVG-20010904/DTD/svg10.dtd">
<svg version="1.0" xmlns="http://www.w3.org/2000/svg"
 width="864.000000pt" height="865.000000pt" viewBox="0 0 864.000000 865.000000"
 preserveAspectRatio="xMidYMid meet">

<g transform="translate(0.000000,865.000000) scale(0.100000,-0.100000)"
fill="#000000" stroke="none">
<path d="M4410 8174 c-427 -38 -729 -121 -1049 -290 -328 -173 -650 -459 -825
-732 -36 -57 -49 -67 -131 -110 -98 -53 -245 -142 -314 -192 l-43 -32 78 -70
c130 -117 239 -234 379 -408 74 -91 147 -180 163 -199 l29 -35 62 79 c126 158
209 297 232 390 16 65 4 74 -112 89 -52 6 -89 15 -82 19 7 4 47 13 91 19 71
10 82 10 118 -8 31 -15 42 -28 53 -62 12 -38 11 -52 -3 -110 -37 -154 -141
-310 -330 -495 -255 -252 -473 -374 -745 -421 -101 -17 -251 -22 -251 -7 0 4
37 11 82 15 201 15 423 100 596 226 l44 32 -74 76 c-41 42 -129 145 -196 229
-67 83 -144 174 -171 201 -52 52 -248 212 -260 212 -16 -1 -310 -282 -429
-410 -389 -422 -599 -822 -707 -1343 -77 -375 -83 -715 -19 -1067 161 -883
651 -1705 1353 -2269 598 -479 1369 -834 2101 -965 430 -77 899 -87 1257 -26
604 103 1169 400 1662 875 157 151 400 429 539 616 277 375 459 797 583 1354
54 243 70 381 76 632 9 376 -33 706 -138 1078 -384 1358 -1432 2560 -2581
2960 -286 99 -524 143 -813 149 -99 2 -200 2 -225 0z m2892 -2806 c21 -12 50
-39 65 -61 25 -36 28 -49 28 -127 0 -79 -3 -90 -28 -128 -16 -22 -44 -48 -62
-56 -43 -21 -129 -21 -164 0 -54 32 -105 137 -117 239 -6 52 -5 58 22 86 74
78 170 95 256 47z m-739 -1041 c48 -21 95 -64 119 -111 44 -84 19 -220 -51
-279 -59 -49 -150 -31 -229 46 -48 46 -97 133 -107 191 -7 35 -4 41 36 83 74
76 157 101 232 70z m-788 -416 c44 -20 104 -81 131 -133 90 -174 29 -402 -118
-440 -94 -24 -247 31 -341 124 -67 65 -84 122 -66 221 24 135 68 199 162 234
52 19 185 16 232 -6z m1597 -88 c9 -10 26 -38 38 -62 19 -37 20 -47 9 -73 -7
-16 -25 -43 -41 -59 -54 -53 -121 -29 -154 56 -21 58 -9 91 48 128 49 31 79
34 100 10z"/>
<path d="M900 7306 l0 -144 30 -26 c17 -14 110 -65 208 -114 366 -183 784
-451 921 -592 49 -49 148 -181 231 -305 79 -119 169 -235 182 -235 6 0 55 44
109 98 l98 97 -106 120 c-58 66 -150 171 -205 233 -295 336 -1011 840 -1402
987 l-66 25 0 -144z"/>
</g>
</svg>
