<?xml version="1.0" standalone="no"?>
<!DOCTYPE svg PUBLIC "-//W3C//DTD SVG 20010904//EN"
 "http://www.w3.org/TR/2001/REC-SVG-20010904/DTD/svg10.dtd">
<svg version="1.0" xmlns="http://www.w3.org/2000/svg"
 width="864.000000pt" height="864.000000pt" viewBox="0 0 864.000000 864.000000"
 preserveAspectRatio="xMidYMid meet">

<g transform="translate(0.000000,864.000000) scale(0.100000,-0.100000)"
fill="#000000" stroke="none">
<path d="M1966 8485 c-11 -30 -6 -120 20 -346 47 -412 21 -531 -99 -454 -23
15 -172 158 -332 319 -299 301 -364 354 -402 330 -28 -17 -27 -82 1 -166 13
-40 59 -152 101 -248 125 -283 150 -376 106 -399 -40 -22 -169 34 -491 214
-333 186 -457 238 -551 233 -54 -3 -54 -3 -53 -35 4 -71 125 -244 414 -593
204 -245 284 -351 317 -418 l26 -53 -23 -24 c-52 -55 -212 -92 -560 -130 -284
-30 -300 -33 -300 -47 0 -16 92 -127 156 -189 266 -251 617 -445 927 -510 177
-38 459 -27 495 19 11 14 12 9 5 -33 -4 -27 -8 -113 -7 -190 0 -120 4 -154 28
-240 47 -175 126 -328 245 -478 30 -39 144 -137 336 -291 160 -128 575 -465
923 -749 956 -782 1240 -1006 1688 -1332 419 -305 525 -392 833 -688 292 -281
413 -379 556 -454 200 -103 339 -203 590 -424 317 -278 446 -375 615 -459 86
-43 163 -98 280 -200 174 -152 293 -227 380 -237 44 -5 50 -3 86 29 34 32 38
41 42 96 7 100 -41 181 -233 397 -54 60 -121 141 -150 180 -67 90 -906 1279
-1614 2288 -494 701 -557 787 -580 787 -49 0 -241 -49 -304 -77 -34 -15 -99
-56 -145 -91 l-83 -63 -67 65 -66 64 38 57 c53 76 112 124 234 191 114 63 180
108 188 128 4 10 -223 326 -286 399 -9 11 -124 -16 -200 -47 -100 -41 -198
-113 -341 -254 -93 -90 -138 -128 -142 -119 -3 8 -34 36 -69 62 -90 68 -138
116 -138 138 0 77 114 157 395 276 140 60 206 106 235 167 43 88 6 178 -142
342 -27 30 -72 93 -100 141 l-52 87 -185 -109 c-235 -138 -338 -205 -426 -275
-87 -70 -192 -176 -247 -248 l-41 -54 -15 22 c-9 13 -49 59 -90 103 -41 43
-81 94 -90 112 -14 30 -14 35 4 69 45 85 195 208 409 334 85 50 513 272 544
282 12 3 4 26 -34 99 -65 126 -93 170 -263 404 -235 323 -342 450 -482 573
-160 141 -333 239 -495 282 -100 26 -265 36 -370 21 -129 -18 -382 -90 -466
-132 -346 -173 -574 -449 -695 -844 -15 -49 -23 -65 -19 -40 3 22 8 63 11 92
l7 52 -37 -19 c-209 -106 -757 14 -1091 240 -73 49 -175 136 -175 149 0 5 51
11 114 14 62 3 244 22 402 41 159 20 328 39 375 43 l86 8 -483 565 c-266 310
-481 566 -479 568 2 2 210 -115 462 -261 631 -365 815 -469 820 -464 13 13
-130 334 -315 705 -75 151 -139 280 -141 285 -2 5 15 -2 38 -15 23 -14 119
-106 213 -204 212 -222 621 -634 625 -630 5 5 -17 442 -37 725 -11 151 -18
276 -16 279 11 10 227 -451 316 -673 93 -234 151 -454 133 -502 -5 -12 -1 -14
18 -8 13 5 55 16 93 26 38 10 73 22 78 27 16 16 -37 210 -99 367 -96 242 -277
583 -411 775 -67 95 -157 202 -190 227 -42 31 -78 39 -86 18z"/>
</g>
</svg>
