<svg width="251" height="460" viewBox="0 0 251 460" xmlns="http://www.w3.org/2000/svg">
  <title>FruitVeg-Background</title>
  <g fill="none" fill-rule="evenodd">
    <path fill="#FFB819" d="M.045 0h250v460h-250z"/>
    <path d="M174.519 36.613c3.387 4.528 17.04 10.125 18.574 8.735.855-.785-7.38-7.416-6.097-9.27.999-1.426 12.585 1.783 12.906.107.356-1.746-8.77-4.955-8.342-6.666.499-2.068 13.404-2.389 14.01-5.205-2.602-2.318-15.115-3.28-15.65-4.956-.57-1.854 6.56-8.805 7.059-9.768-1.248-.428-3.352-.677-4.528-.642-7.736-.035-13.547 3.138-15.971 7.344l-1.106 1.141v1.818l1.212 1.32 1.57-.642c-.82-3.494 8.341-9.02 14.473-8.45-2.994 2.924-5.633 6.703-8.734 9.733l17.148 3.387s-12.193 2.282-16.899 3.28c-1.64.356 11.516 6.773 11.516 6.773-.321.072-14.154-1.96-14.475-1.64-.32.286 7.63 9.804 7.63 9.804s-13.405-6.773-12.3-9.09l-2.638-2.567-2.068 1.283.357 1.96 2.353 2.211z" fill="#73984A"/>
    <g fill="#FFF">
      <path d="M176.48 16.328c-2.96-6.702-9.876-8.057-11.587-8.021-11.907.427-28.235.035-40.143.641-4.206.214-8.413.713-12.62.642-4.492-.071-10.16-1.14-13.583-.392-6.524 1.996-13.048-.392-19.18 1.426"/>
      <path d="M176.48 16.328c-.82-1.497-1.854-2.816-3.138-3.886-1.248-1.07-2.71-1.854-4.207-2.46-.748-.285-1.533-.499-2.317-.642l-.57-.106-.57-.072c-.393-.035-.678 0-1.141.036-1.676.107-3.387.25-5.063.32-3.387.143-6.773.286-10.16.393-3.387.107-6.774.142-10.125.214l-5.062.107c-1.676.035-3.352.071-5.063.142a236.71 236.71 0 0 0-5.027.179l-5.026.32a82.503 82.503 0 0 1-5.17.179c-.427 0-.855 0-1.319-.036h-.641l-.642-.036c-.891-.07-1.747-.142-2.603-.214-1.71-.178-3.35-.392-5.026-.534-1.64-.143-3.28-.214-4.742.035l.071-.035-1.247.285c-.428.071-.856.143-1.248.214-.428.035-.856.071-1.248.107-.428.035-.82.035-1.248.035h-1.247c-.428 0-.82-.035-1.248-.07-.82-.072-1.64-.108-2.424-.18l-2.39-.213c-.783-.071-1.603-.107-2.388-.143H83.04l-1.212.036-1.212.107-1.176.214 1.14-.392 1.177-.321c.392-.071.784-.178 1.212-.214.392-.036.82-.107 1.212-.143.82-.07 1.64-.142 2.424-.178l2.425-.036c.82 0 1.604-.035 2.388-.07a52.057 52.057 0 0 0 2.353-.143c.392-.036.784-.072 1.14-.143.393-.071.75-.143 1.142-.214l1.105-.285 1.07-.357.07-.035c.928-.25 1.855-.321 2.746-.392.891-.036 1.782-.036 2.638-.036 1.747.036 3.422.142 5.098.25.82.035 1.676.106 2.46.106h1.247l1.248-.035c1.64-.036 3.316-.179 4.991-.321 1.676-.143 3.352-.285 5.063-.392 1.711-.107 3.422-.179 5.098-.214 3.387-.107 6.81-.143 10.196-.143 3.387 0 6.774.036 10.16.107l10.125.178c1.676.036 3.351.072 5.063.072 1.925-.036 3.6.641 5.205 1.354 1.568.785 3.03 1.854 4.206 3.138 1.177 1.426 2.068 2.959 2.639 4.563z"/>
    </g>
    <g fill="#FFF">
      <path d="M79.403 10.624c-.071 0-.107.036-.178.036-2.21.677-9.911-1.07-9.697 2.495.214 3.137 5.419 2.852 8.52 3.779 14.795 4.528 29.59 9.127 44.35 13.726 3.422-4.1 2.994-5.42 3.565-7.416.57.072 1.64.072 2.21.143.535 4.028-1.39 5.383-1.604 8.27 1.96.536 3.707.999 5.953 1.605 2.353-2.78 2.817-6.096 3.066-10.588 1.212.392 3.53-.357 3.815.463.606 1.747-1.533 5.669-2.14 6.988-1.853 4.028-.142 5.133 3.673 5.668.855.107 1.675.57 2.923 1.034 1.533-5.134 3.672-9.09 3.423-15.294.82.642 3.886.25 4.1 1.355.534 2.994-1.534 8.378-4.528 15.472 1.105.428 1.497.784 2.78 1.283 1.605.607 4.386 1.355 5.954 1.819 7.309 2.174 14.225 2.317 18.752-4.457 0 0 .072-.142.179-.427l1.96-2.853c2.567-5.383 2.674-9.447 1.64-13.832l-1.675-3.6"/>
      <path d="M79.403 10.624c-.678.25-1.39.285-2.068.32-.713.036-1.426.036-2.103.036-1.39.036-2.817.072-4.064.535-.607.214-1.106.642-1.177 1.177a.869.869 0 0 0 0 .427l.036.25c0 .071.035.143.035.214.072.285.25.535.428.749.392.427.998.677 1.64.89.642.18 1.32.322 1.997.429 1.354.214 2.78.356 4.206.748l4.065 1.141 8.092 2.317 8.093 2.353 8.093 2.389 8.092 2.389 8.093 2.424-1.497.463c.427-.535.82-1.034 1.212-1.568.178-.25.356-.535.535-.785.07-.142.142-.285.25-.392.07-.142.142-.285.213-.392.143-.285.25-.535.356-.82.107-.285.179-.535.25-.82a9.38 9.38 0 0 0 .107-.463l.107-.5c.071-.356.143-.748.25-1.14l.285-1.141 1.283.071 2.246.107 1.212.071.143 1.213c.035.392.107.784.107 1.212 0 .214.035.427 0 .606 0 .214 0 .427-.036.641-.036.428-.107.856-.178 1.248-.107.392-.214.82-.321 1.177a4.685 4.685 0 0 0-.178.534l-.178.535c-.143.357-.25.642-.357.927-.107.285-.178.57-.25.856l-.07.392-.036.392-1.141-1.604 5.953 1.604-1.604.5.357-.464c.107-.179.213-.321.32-.5.107-.178.214-.32.321-.499.072-.178.179-.356.285-.534.179-.357.321-.749.464-1.141.143-.392.25-.784.32-1.212.18-.82.322-1.711.393-2.567.107-.891.143-1.783.214-2.71l.107-2.067 1.996.606c.072.035.464.071.892.035.463 0 .926-.07 1.568-.035h.25l.32.035c.25.036.5.107.856.286l.107.07c.036.037.107.072.143.108.107.071.178.178.285.25.178.178.32.463.428.712-.036-.142.071.214.035.179V22.959l.036.071.036.179c.035.25.071.463.071.713 0 .213 0 .356-.036.534 0 .179-.035.321-.071.464-.036.142-.036.32-.071.428-.107.57-.285 1.07-.464 1.604-.178.499-.392.962-.606 1.426-.214.463-.428.927-.641 1.355-.214.427-.464.89-.607 1.212l-.142.32c-.036.108-.107.25-.107.321-.036.179-.143.321-.178.5a3.229 3.229 0 0 0-.143.89c.036.215.071.25.143.357.107.107.32.25.641.392.321.143.713.25 1.106.321.213.036.427.107.641.107l.749.107c.749.143 1.212.357 1.675.57.464.179.856.357 1.284.535l-2.032 1.034c.392-1.283.855-2.567 1.283-3.814l.642-1.854c.214-.606.392-1.212.57-1.818.179-.606.321-1.212.464-1.819.142-.606.25-1.212.32-1.818.036-.32.072-.606.108-.927.035-.32.07-.606.07-.927 0-.32.037-.606.037-.926v-.927l2.353-1.212c-.036-.036-.107-.072-.072-.036 0 0 .072.036.143.036.107.035.32.07.499.106.392.072.82.107 1.319.179.25.035.5.071.784.178.143.036.321.107.464.143.071.035.178.07.285.107.107.035.178.07.285.142.107.071.214.143.321.25.107.107.214.25.32.356.108.107.18.285.25.464a.66.66 0 0 1 .072.25V22.744l.035.321c0 .107.036.214.036.356 0 .286.036.607 0 .82-.036.25-.036.5-.071.75l-.107.712-.143.677c-.107.464-.214.892-.32 1.355-.108.428-.25.891-.393 1.284-.25.855-.57 1.675-.855 2.53l-.963 2.46c-.677 1.605-1.355 3.21-2.068 4.814l-.677-1.64c.642.25 1.283.606 1.782.855.5.25 1.034.464 1.605.678 1.14.392 2.353.748 3.53 1.105l1.817.535c.606.178 1.212.392 1.783.534.57.179 1.176.285 1.782.428.286.071.606.107.892.178.285.036.606.107.89.143 2.39.32 4.814.214 6.988-.642.25-.107.535-.214.82-.356l.785-.428c.25-.143.499-.321.748-.5l.357-.249c.107-.071.214-.178.32-.285.215-.178.464-.392.678-.57l.606-.642c.214-.214.392-.464.57-.677l.571-.713-.071.106.178-.392.036-.071.035-.036 2.032-2.816-.035.071.392-.784c.142-.25.25-.535.356-.784.107-.25.214-.535.321-.82.107-.286.214-.535.321-.82.107-.285.214-.535.285-.82.072-.285.178-.57.25-.82.142-.57.285-1.141.356-1.711.107-.57.179-1.141.179-1.747a14.28 14.28 0 0 0 0-1.747c0-.285-.036-.57-.072-.891 0-.286-.071-.57-.107-.892a29.689 29.689 0 0 0-.285-1.747v.036l-1.533-3.672 1.818 3.53v.035c.143.57.285 1.14.428 1.747.036.285.107.57.143.891.035.285.107.606.107.892.07.606.107 1.212.107 1.818 0 .606-.036 1.212-.072 1.818-.071.606-.142 1.212-.285 1.782-.036.286-.143.606-.214.892-.071.285-.142.57-.25.89-.07.286-.178.571-.285.857-.107.285-.178.57-.32.855l-.321.856-.357.82v.035l-.035.036-1.89 2.923.071-.107-.178.428-.036.072-.035.035-.57.82a4.2 4.2 0 0 1-.607.784l-.641.75c-.25.249-.464.463-.713.677l-.357.356-.392.32c-.285.215-.535.429-.82.607l-.856.535c-.285.178-.606.285-.927.427-.32.143-.641.25-.926.357-.321.107-.642.214-.963.285-.32.072-.642.143-.998.214l-.998.143c-.321.071-.678.035-.999.071-.32.036-.677.036-.998.036h-.998l-.998-.072c-.321 0-.642-.07-.963-.107a8.956 8.956 0 0 1-.962-.142c-.642-.107-1.284-.214-1.926-.392-.641-.143-1.247-.321-1.853-.464l-1.819-.499c-1.212-.32-2.46-.642-3.707-1.07a17.352 17.352 0 0 1-1.89-.748c-.641-.285-1.105-.57-1.64-.749l-1.176-.428.499-1.212a268.536 268.536 0 0 0 1.89-4.813c.285-.784.606-1.604.89-2.388.286-.82.535-1.604.785-2.389.107-.392.214-.784.32-1.212.108-.392.18-.784.25-1.176l.107-.57.072-.571c.035-.178.035-.357.035-.57v-.464c0-.071 0-.178-.035-.285l-.036-.321V22.995v.071c0 .036 0 .071.036.107a.78.78 0 0 0 .107.178c.035.036.07.107.107.107 0 .036.035.036.035.036h-.035c-.072 0-.072-.036-.179-.036-.142-.036-.32-.071-.499-.107l-1.283-.142c-.25-.036-.5-.072-.785-.143-.142-.036-.285-.071-.499-.143-.142-.035-.427-.178-.641-.356l2.353-1.212.035 1.034v1.033c0 .357-.035.713-.071 1.034 0 .357-.071.713-.107 1.034-.071.713-.178 1.39-.32 2.068a41.667 41.667 0 0 1-.464 2.032c-.357 1.32-.785 2.603-1.212 3.85-.428 1.248-.856 2.46-1.213 3.708L145 38.752l-1.569-.57c-.499-.178-.962-.392-1.39-.57-.428-.179-.82-.321-1.034-.357l-.677-.107c-.25-.036-.535-.107-.785-.143a7.786 7.786 0 0 1-1.64-.499 4.681 4.681 0 0 1-1.782-1.176c-.57-.606-.927-1.498-.998-2.246 0-.357-.036-.749.035-1.07.036-.356.107-.641.179-.927.071-.285.178-.57.285-.855.036-.143.107-.25.142-.357l.143-.32c.25-.571.464-.963.642-1.391.214-.428.392-.856.57-1.248.178-.428.357-.82.5-1.248.142-.392.285-.82.356-1.176.035-.107.035-.178.035-.25 0-.07.036-.178.036-.25v-.177h.036l-.036-.179-.036-.07V23.493c0-.036.072.285.036.142.107.321.392.535.5.606a.576.576 0 0 0 .177.072H138.583c-.321 0-.82.035-1.32.035-.534 0-1.14.036-1.996-.178l2.104-1.462c-.072.963-.107 1.926-.214 2.888-.107.963-.25 1.96-.5 2.96-.106.498-.249.997-.427 1.496-.178.5-.357.999-.606 1.462-.107.25-.25.464-.357.713-.142.25-.285.464-.427.678-.143.213-.321.427-.464.677l-.499.642-.606.784-.998-.285-5.954-1.64-1.283-.357.142-1.247.072-.642c.035-.214.07-.428.107-.642.106-.428.213-.82.356-1.176.143-.357.285-.713.392-1.034l.178-.464c.072-.142.107-.285.179-.463.107-.285.178-.57.25-.856.07-.285.106-.57.142-.855.035-.143 0-.286.035-.428v-.428c0-.285-.035-.606-.07-.927l1.354 1.283-2.21-.142 1.568-1.07c-.071.286-.142.57-.214.892l-.107.534c-.035.179-.071.357-.142.57-.107.393-.214.785-.357 1.177-.142.392-.32.749-.499 1.105-.107.179-.178.357-.285.5-.107.178-.178.32-.285.499-.214.32-.428.641-.642.927a22 22 0 0 1-1.355 1.71l-.606.75-.891-.286-8.021-2.567-8.022-2.602-8.021-2.603-8.022-2.638-7.985-2.674-3.993-1.354c-1.248-.428-2.638-.606-4.029-.892-.713-.142-1.39-.32-2.103-.57-.677-.25-1.39-.606-1.96-1.248a2.524 2.524 0 0 1-.571-1.105c-.036-.107-.036-.214-.072-.32l-.142-.25c0-.214 0-.428.071-.606.107-.428.357-.82.642-1.07.32-.25.677-.428 1.034-.535 1.426-.427 2.887-.32 4.278-.285l2.103.107c.677 0 1.39.036 2.068-.178z"/>
    </g>
    <path d="M176.48 33.761c4.313-9.02 0-17.433 0-17.433-2.96-6.702-9.876-8.057-11.587-8.021-11.907.427-28.235.035-40.143.641-4.206.214-8.413.713-12.62.642-4.492-.071-10.16-1.14-13.583-.392-6.56 2.032-13.19-.464-19.322 1.497-2.21.678-9.911-1.07-9.697 2.496.214 3.137 5.419 2.852 8.52 3.779 14.795 4.527 29.59 9.126 44.35 13.725 3.422-4.1 2.994-5.419 3.565-7.415.57.071 1.64.071 2.21.142.535 4.029-1.39 5.384-1.604 8.271 1.96.535 3.707.999 5.953 1.605 2.353-2.781 2.817-6.097 3.066-10.589 1.212.393 3.53-.356 3.815.464.606 1.747-1.533 5.668-2.14 6.987-1.853 4.029-.142 5.134 3.673 5.669.855.107 1.675.57 2.923 1.034 1.533-5.134 3.672-9.091 3.423-15.294.82.641 3.886.25 4.1 1.354.534 2.995-1.534 8.378-4.528 15.473 1.105.428 1.497.784 2.78 1.283 1.605.606 4.386 1.355 5.954 1.818 7.309 2.175 14.225 2.318 18.752-4.456l2.14-3.28z" fill="#D4451D"/>
    <path d="M137.264 50.945c1.319 1.07 2.46 2.388 3.244 3.921l.036.072c.32.962.641 1.96.962 2.923V57.967c.25 1.82.107 3.744-.535 5.491-.606 1.783-1.568 3.387-2.745 4.849a16.006 16.006 0 0 1-4.313 3.565c-1.569.89-3.066 1.675-4.6 2.495-3.03 1.64-6.024 3.316-8.805 5.24l-.5.357-.463.357c-.178.142-.356.285-.499.392l-.392.357a24.955 24.955 0 0 0-1.64 1.71c-1.034 1.249-2.032 2.639-3.03 4.065l-.784 1.07-.214.32-.214.25-.392.499c-.286.356-.642.713-.963 1.07-.32.32-.642.677-.998.998-1.355 1.283-2.888 2.353-4.456 3.28a32.727 32.727 0 0 1-4.92 2.352c-1.711.607-3.458 1.106-5.24 1.427-.429.07-.892.178-1.32.213-.463.072-.891.143-1.355.179-.463.035-.89.071-1.354.107-.464.035-.892.035-1.355.035-1.818 0-3.6-.142-5.383-.499-1.747-.392-3.494-.927-5.063-1.747a16.088 16.088 0 0 1-4.313-3.066 18.079 18.079 0 0 0 4.634 2.282c1.64.535 3.28.891 4.991 1.034 1.676.142 3.387.142 5.063 0 .427-.036.82-.071 1.247-.143.428-.035.82-.107 1.248-.214.428-.071.82-.142 1.248-.25.428-.07.82-.177 1.212-.284a31.034 31.034 0 0 0 4.742-1.64 28.597 28.597 0 0 0 4.385-2.318 26.697 26.697 0 0 0 3.85-3.03l.855-.856c.25-.285.5-.57.75-.89l.391-.536.214-.25.143-.213.748-1.07c.999-1.426 1.997-2.923 3.173-4.313a21.04 21.04 0 0 1 1.961-2.032c.178-.179.392-.321.57-.5l.535-.392.179-.107.142-.107.285-.178.57-.392a60.61 60.61 0 0 1 4.6-2.78c1.568-.856 3.137-1.64 4.706-2.425l4.705-2.246c1.427-.713 2.781-1.64 3.886-2.816 1.141-1.141 2.104-2.46 2.746-3.958.677-1.497 1.033-3.101.998-4.741v.071a76.136 76.136 0 0 1-.57-3.03l.035.071a12.637 12.637 0 0 0-1.07-2.21c-.534-.606-1.033-1.284-1.568-1.925z" fill="#FFF"/>
    <path d="M75.588 93.44a19.965 19.965 0 0 1-3.173-2.852 15.563 15.563 0 0 1-2.424-3.6c-1.319-2.603-1.925-5.562-2.032-8.485-.036-.357-.036-.713-.036-1.105v-1.07c0-.677 0-1.355-.071-2.032-.107-1.355-.356-2.674-.82-3.815a5.367 5.367 0 0 0-.392-.784c-.071-.143-.143-.214-.25-.357l-.32-.463-.321-.428a6.082 6.082 0 0 1-.321-.499l-.321-.499-.285-.5c-.713-1.354-1.284-2.78-1.605-4.313-.677-2.995-.463-6.167.393-9.09.427-1.462.998-2.888 1.747-4.208.713-1.354 1.604-2.602 2.602-3.743a23.024 23.024 0 0 1 3.316-3.137c1.212-.927 2.566-1.711 3.921-2.353 2.745-1.283 5.562-1.96 8.164-2.888l.143-.035.107-.036a41.315 41.315 0 0 1 3.672-.464c1.247-.07 2.46-.106 3.707 0 1.248.072 2.46.214 3.708.5 1.212.285 2.424.606 3.6 1.033 1.177.464 2.318.963 3.387 1.57.286.142.535.32.82.463l.75.463c.498.285.997.642 1.496.927.963.57 1.961 1.105 2.96 1.604.499.25 1.033.5 1.532.713l.785.321.784.285c1.07.392 2.14.713 3.244.998.535.143 1.105.25 1.64.393.57.107 1.105.214 1.676.285 1.14.142 2.246.285 3.422.32.57.036 1.141.036 1.711.036.57 0 1.141 0 1.712-.035l.855-.036.856-.071.891-.072c.285 0 .57-.035.891-.035 1.284 0 2.46.214 3.637.606 1.14.392 2.246.927 3.208 1.568.999.678 1.89 1.427 2.674 2.318-1.782-1.498-3.886-2.603-6.132-3.102a10.474 10.474 0 0 0-3.315-.214c-.25 0-.57.072-.856.107l-.855.143-.892.142-.891.107c-1.176.179-2.389.25-3.565.25-1.212.036-2.389 0-3.6-.107-.607-.071-1.213-.107-1.819-.178-.606-.107-1.212-.179-1.783-.285a42.614 42.614 0 0 1-3.529-.892l-.856-.285-.855-.32c-.57-.215-1.141-.429-1.676-.678a39.407 39.407 0 0 1-3.28-1.569 21.513 21.513 0 0 1-1.533-.891l-.748-.428c-.25-.142-.464-.285-.713-.392-.963-.535-1.997-.927-3.03-1.283-1.034-.357-2.104-.606-3.173-.82-1.07-.214-2.175-.321-3.28-.393-1.105-.07-2.21-.035-3.316.036-1.105.071-2.21.25-3.315.428l.25-.071c-1.391.499-2.746.927-4.065 1.354-1.319.464-2.602.892-3.815 1.426-1.212.535-2.317 1.212-3.35 1.961a22.43 22.43 0 0 0-2.888 2.638 24.614 24.614 0 0 0-2.282 3.173c-.642 1.141-1.212 2.353-1.604 3.565-.392 1.248-.678 2.531-.785 3.815a15.797 15.797 0 0 0 .179 3.886 13.622 13.622 0 0 0 1.176 3.707l.214.428.214.392c.071.143.142.286.25.428l.285.428.285.428c.107.178.25.356.32.535.215.356.393.748.5 1.14.535 1.533.677 3.066.677 4.528 0 .749-.035 1.462-.071 2.21l-.071 1.034c-.036.357-.036.678-.036 1.034-.036 1.355 0 2.745.178 4.1a17.038 17.038 0 0 0 1.034 3.957 17.013 17.013 0 0 0 1.96 3.637c.856 1.426 1.783 2.495 2.817 3.493z" fill="#FFF"/>
    <path d="M140.9 58.004c.5 4.955-2.78 10.267-7.986 12.905-4.92 2.496-9.946 4.884-14.367 8.093-2.816 2.032-4.813 5.347-6.916 8.235-7.094 9.768-25.847 14.581-36.078 6.132-5.312-4.385-7.13-9.875-6.774-16.613.143-2.71 0-6.132-1.497-8.164-6.703-9.091-1.676-22.14 8.27-26.88 2.639-1.249 5.562-1.997 8.343-2.995 6.56-1.213 12.905-.357 18.396 3.101 7.629 4.813 15.579 6.524 24.492 5.24 5.418-.783 11.23 3.067 13.369 7.915l.748 3.03z" fill="#73984A"/>
    <path d="M140.9 58.004c7.63-.785 13.619 1.889 17.505 7.272.32.464-.072-.25.998-.82.927-.499 1.283-.927.749-1.568-4.136-5.277-10.018-8.414-20.036-7.843 0 0-.428 1.07-.321 1.889.178 1.034 1.105 1.07 1.105 1.07z" fill="#A32A29"/>
    <path d="M83.217 80.82c.5-1.248-.213-3.922-1.283-4.563-1.034-.606-3.779.107-4.563 1.14-.749.963-2.068 3.352.891 5.241 3.565 1.07 4.528-.713 4.955-1.818zM83.574 87.273c-.998.534-1.604 2.103-1.533 3.208.071.749 1.925 2.21 2.674 1.961 1.105-.392 3.672-.962 3.137-3.743-1.14-1.747-3.565-1.818-4.278-1.426zM96.301 89.234c.785-.214 1.676-1.819 1.569-2.71-.071-.642-1.783-1.676-2.567-1.533-.998.214-2.995 1.604-2.46 3.03.535 1.39 2.496 1.498 3.458 1.213zM88.779 82.531c.392.464 2.032.57 2.78.214.535-.25.963-1.747.607-2.21-.464-.606-2.21-1.569-3.316-.713-1.07.748-.57 2.103-.071 2.71z" fill="#FFF"/>
    <g>
      <path d="M158.44 86.524c0-2.139 2.71-3.922 4.6-3.387.677.179-.215 3.637.784 4.385.82.5 5.418-1.497 5.81-.927.642.785-3.065 6.346-2.923 7.344.535.713 5.348 2.104 5.42 2.852.106 1.284-5.562 3.886-5.634 4.92-.071.963 3.78 4.064 3.637 4.742-.179.748-4.564 1.675-5.17 2.46-.178.962 3.708 6.345 3.03 7.272-.748.999-5.846-1.853-6.203-1.675-.82.463.036 4.1-.463 4.492-.57.428-4.171-.606-4.848-3.565l1.96-28.913zm2.46 15.009c-.356 5.098-3.101 12.335-3.101 12.335.285 1.747 1.461 2.745 1.96 3.173.286-1.569.036-3.494.82-5.24 2.14 1.675 4.6 2.566 4.92 2.317-1.283-2.14-1.711-4.278-3.066-6.489 1.89-.535 2.888-1.14 4.92-1.925.071-.25-3.922-3.779-4.064-4.171-.143-.5 5.24-4.278 5.205-4.563-1.248-.321-4.706-1.89-4.813-2.282-.107-.392 1.782-2.424 3.743-6.06-.677-.143-5.17 1.319-5.561 1.176-.143-1.854.071-3.102-.072-4.67-.463.178-1.996.285-2.638 2.424.072 0 2.104 8.877 1.747 13.975z" fill="#73984A"/>
      <g fill="#FFF">
        <path d="M157.763 114.01s3.565-5.383 3.921-13.582c.321-7.558-2.495-13.048-2.495-13.048l-.749-.82c-1.64-1.105-3.244-2.353-5.026-3.066-3.601-1.426-7.309-1.284-11.016.071-5.42 1.996-10.054 5.098-13.833 9.483-3.458 4.029-3.6 8.022-.143 13.084"/>
        <path d="M157.656 113.94c.57-.999 1.07-2.033 1.462-3.102.214-.535.392-1.07.57-1.604.178-.535.357-1.106.5-1.64.142-.535.284-1.106.391-1.676.107-.57.214-1.105.286-1.676l.106-.855.072-.856c.071-.57.071-1.14.107-1.711.035-.535 0-1.14 0-1.711-.036-.57-.036-1.105-.107-1.676-.036-.57-.107-1.14-.214-1.675-.071-.57-.178-1.106-.285-1.676-.107-.57-.25-1.105-.392-1.64-.143-.535-.286-1.105-.464-1.64-.178-.535-.356-1.07-.57-1.604-.214-.5-.428-1.034-.678-1.497l.107.142-.784-.82.143.107c-.856-.57-1.712-1.14-2.532-1.64-.82-.499-1.675-.962-2.53-1.283-.5-.178-.928-.321-1.391-.428-.464-.107-.927-.214-1.39-.25-.928-.142-1.89-.142-2.817-.07-.927.07-1.89.249-2.78.498-.464.143-.928.285-1.355.428l-.321.143-.143.07-.178.072-.713.285c-.891.393-1.783.785-2.638 1.248-.856.464-1.712.927-2.532 1.462-.82.499-1.64 1.07-2.424 1.64a36.398 36.398 0 0 0-2.281 1.818 28.299 28.299 0 0 0-2.104 2.032c-.677.713-1.319 1.426-1.818 2.175-.5.784-.927 1.604-1.176 2.46-.25.89-.321 1.818-.25 2.745.107.927.32 1.89.642 2.816.32.927.784 1.818 1.247 2.71l-.178.142c-.642-.784-1.248-1.604-1.782-2.531-.5-.927-.927-1.89-1.141-2.959a7.816 7.816 0 0 1-.071-3.28c.178-1.105.606-2.139 1.14-3.101a17.89 17.89 0 0 1 1.854-2.603 32.37 32.37 0 0 1 2.14-2.282 25.694 25.694 0 0 1 2.352-2.067 25.354 25.354 0 0 1 2.567-1.783c.891-.57 1.818-1.034 2.745-1.497.927-.464 1.89-.856 2.888-1.212l.713-.25.178-.071.214-.071.392-.107c.5-.179 1.034-.286 1.533-.428a15.804 15.804 0 0 1 3.173-.428 16.19 16.19 0 0 1 3.209.214c.534.071 1.07.214 1.568.356.535.143 1.07.321 1.498.5 1.033.392 1.96.962 2.816 1.532.856.57 1.676 1.177 2.495 1.747l.107.072.072.071.748.856.072.07.035.072c.286.57.464 1.105.678 1.676.214.57.392 1.105.534 1.675.179.57.321 1.141.428 1.712.143.57.25 1.14.321 1.746.071.57.178 1.177.214 1.747.071.57.107 1.177.107 1.747.036.57.036 1.177.036 1.783-.036.57-.036 1.14-.107 1.747-.036.57-.107 1.176-.179 1.746l-.142.856-.178.856c-.107.57-.25 1.14-.393 1.711-.142.57-.285 1.14-.499 1.676a22.15 22.15 0 0 1-.57 1.64c-.214.534-.428 1.069-.677 1.604-.5 1.07-1.034 2.103-1.676 3.066v-.072z"/>
        <g>
          <path d="M128.422 106.132c3.03 4.456 7.309 7.736 12.05 10.196 6.204 3.209 10.874 2.139 16.008-.891l1.283-1.426"/>
          <path d="M128.53 106.06l.641.785.677.749.678.748.713.713c.499.464.998.927 1.497 1.355.535.428 1.034.856 1.604 1.248a36.86 36.86 0 0 0 3.387 2.21c.57.32 1.177.642 1.783.963.285.142.606.32.891.463l.464.214.463.214c.32.143.642.285.927.392l.891.32.927.25c.32.072.642.143.927.179.642.107 1.248.142 1.89.178h.926c.321 0 .606-.036.927-.036l.927-.107.927-.142.927-.214c.32-.107.642-.143.927-.25.606-.178 1.248-.392 1.89-.606.32-.107.641-.25.962-.356.32-.107.642-.25.963-.357l-.107.107c.499-.392.998-.82 1.568-1.176l.179.142c-.321.57-.642 1.141-.999 1.676l-.107.107c-.534.428-1.105.855-1.71 1.248-.286.178-.607.392-.928.57-.32.178-.642.32-.962.5-.321.142-.678.284-.999.427-.356.143-.677.25-1.033.356-.357.107-.713.179-1.07.286a11.875 11.875 0 0 1-2.21.25c-.357-.036-.749 0-1.105-.072-.357-.071-.75-.071-1.106-.178a11.587 11.587 0 0 1-1.07-.25l-1.033-.32-1.034-.393-.998-.463c-.357-.143-.606-.321-.927-.464l-.463-.25-.464-.249c-.32-.178-.606-.356-.891-.535a29.416 29.416 0 0 1-1.747-1.14 32.478 32.478 0 0 1-3.28-2.567 19.39 19.39 0 0 1-1.497-1.462c-.5-.5-.963-.998-1.39-1.533-.464-.535-.856-1.07-1.284-1.64l-.57-.856-.535-.855.035-.178z"/>
        </g>
      </g>
      <path d="M157.763 114.01s3.565-5.383 3.921-13.582c.321-7.558-2.495-13.048-2.495-13.048l-.749-.82c-1.64-1.105-3.244-2.353-5.026-3.066-3.601-1.426-7.309-1.284-11.016.071-5.42 1.996-10.054 5.098-13.833 9.483-3.458 4.029-3.6 8.022-.143 13.084 3.03 4.456 7.309 7.736 12.05 10.196 6.204 3.209 10.874 2.139 16.008-.891l1.283-1.426z" fill="#A32A29"/>
      <path d="M153.414 100.32c-1.605 2.033-3.78 2.782-4.635 1.57-.428-.607-.57-2.247-.143-2.567 1.854-1.533 3.352-.179 4.778.998zM152.201 111.016c-1.96.677-3.208 2.424-4.848.677-.428-.427-.392-2.032-.036-2.317 1.818-1.355 3.03.107 4.884 1.64zM144.43 105.17c-1.605 1.176-3.138 2.031-4.706.498-.285-.285-.107-1.64.25-1.853 1.675-.999 3.208-.57 4.456 1.354zM153.734 90.303c-.855 2.032-2.353 2.389-3.992 1.783-.464-.179-.927-1.747-.678-2.068 1.533-1.854 2.96-.464 4.67.285zM145 95.152c-1.497 1.176-2.852 2.281-4.492.784-.356-.321-.285-1.89.071-2.104 1.747-1.07 3.066-.07 4.421 1.32zM137.264 99.537c-1.533 1.07-2.888 2.103-4.492.855-.357-.285-.321-1.854.071-2.139 1.783-1.355 2.96.036 4.42 1.284z" fill="#FFF"/>
    </g>
    <g>
      <path d="M98.868 144.991c0 2.14-2.71 3.922-4.599 3.387-.677-.178.214-3.636-.784-4.385-.82-.5-5.419 1.497-5.811.927-.642-.785 3.066-6.346 2.923-7.344-.535-.713-5.347-2.104-5.419-2.852-.107-1.284 5.562-3.886 5.633-4.92.071-.963-3.779-4.064-3.636-4.742.178-.748 4.563-1.675 5.169-2.46.178-.962-3.708-6.345-3.03-7.272.748-.998 5.846 1.854 6.203 1.675.82-.463-.036-4.1.463-4.492.57-.427 4.172.606 4.849 3.565l-1.96 28.913zm-2.495-15.009c.356-5.098 3.101-12.335 3.101-12.335-.285-1.747-1.462-2.745-1.96-3.173-.286 1.569-.036 3.494-.82 5.24-2.14-1.675-4.6-2.566-4.92-2.316 1.283 2.139 1.71 4.278 3.066 6.488-1.89.535-2.888 1.14-4.92 1.925-.072.25 3.921 3.779 4.064 4.171.143.5-5.24 4.278-5.205 4.563 1.248.321 4.706 1.89 4.813 2.282.107.392-1.783 2.424-3.744 6.06.678.143 5.17-1.318 5.562-1.176.143 1.854-.071 3.102.071 4.67.464-.178 1.997-.285 2.638-2.424-.07 0-2.067-8.877-1.746-13.975z" fill="#73984A"/>
      <g fill="#FFF">
        <path d="M99.51 117.504s-3.565 5.384-3.922 13.583c-.32 7.558 2.496 13.048 2.496 13.048l.748.82c1.64 1.106 3.245 2.353 5.027 3.066 3.6 1.426 7.309 1.284 11.016-.07 5.42-1.997 10.054-5.099 13.833-9.484 3.458-4.028 3.6-8.021.142-13.084"/>
        <path d="M99.617 117.576c-.57.998-1.07 2.032-1.462 3.101-.214.535-.392 1.07-.57 1.605a28.725 28.725 0 0 0-.5 1.64 23.049 23.049 0 0 0-.392 1.675c-.107.57-.213 1.105-.285 1.676l-.107.855-.071.856c-.071.57-.071 1.14-.107 1.711-.036.535 0 1.141 0 1.711.036.57.036 1.106.107 1.676.036.57.107 1.14.214 1.676.071.57.178 1.105.285 1.675.107.57.25 1.105.392 1.64.143.535.285 1.105.464 1.64.178.535.356 1.07.57 1.604.214.5.428 1.034.677 1.498l-.107-.143.785.82-.143-.107c.856.57 1.711 1.14 2.531 1.64.82.5 1.676.963 2.532 1.283.499.179.927.321 1.39.428.463.107.927.214 1.39.25.927.142 1.89.142 2.817.071.927-.071 1.89-.25 2.78-.5a62.65 62.65 0 0 0 1.355-.427l.321-.142.143-.072.178-.071.713-.285c.891-.392 1.782-.785 2.638-1.248.856-.464 1.711-.927 2.531-1.462.82-.499 1.64-1.07 2.425-1.64a36.398 36.398 0 0 0 2.281-1.818 28.299 28.299 0 0 0 2.104-2.032c.677-.713 1.319-1.426 1.818-2.175.499-.784.927-1.604 1.176-2.46.25-.89.321-1.818.25-2.745-.107-.927-.321-1.89-.642-2.816-.32-.927-.784-1.818-1.248-2.71l.179-.142c.641.784 1.247 1.604 1.782 2.531.5.927.927 1.89 1.14 2.96.25 1.069.286 2.174.072 3.279-.178 1.105-.606 2.139-1.14 3.102a17.89 17.89 0 0 1-1.854 2.602 32.37 32.37 0 0 1-2.14 2.282 25.694 25.694 0 0 1-2.352 2.067 25.354 25.354 0 0 1-2.567 1.783c-.892.57-1.818 1.034-2.745 1.497-.927.464-1.89.856-2.888 1.212l-.713.25-.178.071-.214.072-.392.107c-.5.178-1.034.285-1.533.427-1.034.25-2.104.393-3.173.428a16.19 16.19 0 0 1-3.209-.214c-.535-.071-1.07-.214-1.568-.356-.535-.143-1.07-.321-1.498-.5-1.034-.392-1.96-.962-2.816-1.532-.856-.57-1.676-1.177-2.496-1.747l-.107-.072-.071-.07-.749-.856-.071-.072-.036-.071c-.285-.57-.463-1.105-.677-1.676a15.192 15.192 0 0 1-.535-1.675c-.178-.57-.32-1.141-.428-1.711-.142-.57-.25-1.141-.32-1.747-.072-.57-.179-1.177-.214-1.747a14.36 14.36 0 0 1-.107-1.747c-.036-.57-.036-1.177-.036-1.783.036-.57.036-1.14.107-1.746.036-.57.107-1.177.178-1.747l.143-.856.178-.856c.107-.57.25-1.14.392-1.71.143-.571.286-1.142.5-1.676.178-.57.356-1.106.57-1.64.214-.535.428-1.07.677-1.605.5-1.07 1.034-2.103 1.676-3.066v.072z"/>
        <g>
          <path d="M128.85 125.383c-3.03-4.456-7.308-7.736-12.05-10.196-6.203-3.208-10.873-2.139-16.007.891l-1.283 1.426"/>
          <path d="M128.779 125.455l-.642-.785-.677-.748-.677-.75-.713-.712a51.41 51.41 0 0 0-1.498-1.355c-.535-.428-1.034-.855-1.604-1.248a36.86 36.86 0 0 0-3.387-2.21 80.75 80.75 0 0 0-1.782-.963c-.286-.142-.606-.32-.892-.463l-.463-.214-.464-.214c-.32-.142-.641-.285-.927-.392l-.89-.32-.928-.25c-.32-.072-.641-.143-.927-.179-.641-.107-1.247-.142-1.89-.178h-.926c-.32 0-.606.036-.927.036l-.927.107-.927.142-.927.214c-.32.107-.641.143-.927.25-.606.178-1.247.392-1.89.606-.32.107-.64.25-.962.356-.32.107-.641.25-.962.357l.107-.107c-.5.392-.998.82-1.569 1.176l-.178-.142c.32-.57.642-1.141.998-1.676l.107-.107a21.122 21.122 0 0 1 1.711-1.247c.285-.179.606-.393.927-.57.321-.18.642-.322.963-.5.32-.143.677-.285.998-.428.356-.142.677-.25 1.034-.356.356-.107.713-.179 1.07-.286a11.875 11.875 0 0 1 2.21-.25c.356.037.748 0 1.105.072.356.072.749.072 1.105.178.357.072.713.143 1.07.25l1.033.32 1.034.393.998.463c.357.143.607.321.927.464l.464.25.463.25c.321.177.606.356.892.534.606.356 1.176.748 1.746 1.14 1.141.785 2.246 1.64 3.28 2.567a19.39 19.39 0 0 1 1.498 1.462c.499.5.962.998 1.39 1.533.463.535.856 1.07 1.283 1.64l.57.856.536.855-.036.179z"/>
        </g>
      </g>
      <path d="M99.51 117.504s-3.565 5.384-3.922 13.583c-.32 7.558 2.496 13.048 2.496 13.048l.748.82c1.64 1.106 3.245 2.353 5.027 3.066 3.6 1.426 7.309 1.284 11.016-.07 5.42-1.997 10.054-5.099 13.833-9.484 3.458-4.028 3.6-8.021.142-13.084-3.03-4.456-7.308-7.736-12.05-10.196-6.203-3.208-10.873-2.139-16.007.891l-1.283 1.426z" fill="#A32A29"/>
      <path d="M103.86 131.194c1.603-2.032 3.778-2.78 4.634-1.568.428.606.57 2.246.142 2.567-1.853 1.532-3.315.178-4.777-.999zM105.107 120.5c1.96-.678 3.209-2.425 4.848-.678.428.428.393 2.032.036 2.317-1.854 1.355-3.03-.107-4.884-1.64zM112.879 126.346c1.604-1.177 3.137-2.032 4.706-.5.285.286.107 1.64-.25 1.855-1.711.998-3.208.57-4.456-1.355zM103.538 141.212c.856-2.032 2.353-2.388 3.993-1.782.464.178.927 1.746.678 2.067-1.498 1.854-2.96.464-4.67-.285zM112.308 136.364c1.498-1.177 2.852-2.282 4.492-.785.357.321.286 1.89-.07 2.104-1.748 1.07-3.103.071-4.422-1.32zM120.045 131.979c1.533-1.07 2.887-2.104 4.492-.856.356.285.32 1.854-.072 2.139-1.818 1.32-2.994-.036-4.42-1.283z" fill="#FFF"/>
    </g>
    <g>
      <path d="M119.474 180.107c-1.319-1.07-2.46-2.389-3.244-3.922l-.036-.07c-.32-.963-.641-1.962-.962-2.924V173.084c-.25-1.818-.107-3.744.534-5.49.607-1.783 1.57-3.387 2.746-4.849a16.006 16.006 0 0 1 4.313-3.565c1.569-.891 3.066-1.676 4.6-2.496 3.03-1.64 6.024-3.315 8.805-5.24l.5-.357.463-.356c.178-.143.356-.285.499-.392l.392-.357a24.955 24.955 0 0 0 1.64-1.711c1.034-1.248 2.032-2.638 3.03-4.064l.784-1.07.214-.32.214-.25.392-.5c.285-.356.642-.712.963-1.069.32-.32.642-.677.998-.998 1.355-1.283 2.888-2.353 4.456-3.28a32.727 32.727 0 0 1 4.92-2.353c1.711-.606 3.458-1.105 5.24-1.426.429-.071.892-.178 1.32-.214.463-.071.891-.142 1.355-.178l1.354-.107c.464-.036.892-.036 1.355-.036 1.818 0 3.6.143 5.383.5 1.747.392 3.494.926 5.063 1.746a16.088 16.088 0 0 1 4.313 3.066 18.079 18.079 0 0 0-4.634-2.281c-1.64-.535-3.28-.892-4.991-1.034a30.006 30.006 0 0 0-5.063 0c-.427.036-.82.071-1.247.142-.428.036-.82.107-1.248.214-.428.072-.82.143-1.248.25-.428.071-.82.178-1.212.285-1.64.428-3.209.963-4.742 1.64a28.597 28.597 0 0 0-4.385 2.317 26.697 26.697 0 0 0-3.85 3.03l-.856.856c-.25.285-.499.57-.748.892l-.392.534-.214.25-.143.214-.748 1.07c-.999 1.425-1.997 2.923-3.173 4.313a21.04 21.04 0 0 1-1.961 2.032c-.178.178-.392.32-.57.5l-.535.391-.179.107-.142.107-.285.178-.57.393a60.61 60.61 0 0 1-4.6 2.78c-1.568.856-3.137 1.64-4.706 2.425l-4.706 2.246c-1.426.713-2.78 1.64-3.885 2.816-1.141 1.14-2.104 2.46-2.746 3.957-.677 1.498-1.033 3.102-.998 4.742v-.072c.214.999.392 1.997.57 3.03l-.035-.07c.285.784.642 1.497 1.07 2.21.534.606 1.033 1.248 1.568 1.925z" fill="#FFF"/>
      <path d="M181.15 137.611c1.14.82 2.21 1.783 3.173 2.852a15.563 15.563 0 0 1 2.424 3.601c1.319 2.603 1.925 5.562 2.032 8.485.036.357.036.713.036 1.105v1.07c0 .677 0 1.354.07 2.032.108 1.355.357 2.674.82 3.814.108.286.25.535.393.785.071.142.143.214.25.356l.32.464.321.427c.107.143.214.321.321.5l.321.499.285.499c.713 1.355 1.284 2.78 1.604 4.314.678 2.994.464 6.167-.392 9.09-.427 1.462-.998 2.888-1.747 4.207-.713 1.355-1.604 2.603-2.602 3.744a23.024 23.024 0 0 1-3.316 3.137c-1.212.927-2.566 1.711-3.921 2.353-2.745 1.283-5.562 1.96-8.164 2.887l-.143.036-.107.036a41.315 41.315 0 0 1-3.672.463c-1.247.072-2.46.107-3.707 0-1.248-.071-2.46-.214-3.708-.499-1.212-.285-2.424-.606-3.6-1.034-1.177-.463-2.318-.962-3.388-1.568-.285-.143-.534-.321-.82-.464l-.748-.463c-.5-.286-.998-.642-1.497-.927a47.414 47.414 0 0 0-2.96-1.605c-.499-.25-1.033-.499-1.532-.713l-.785-.32-.784-.286a34.096 34.096 0 0 0-3.244-.998c-.535-.142-1.105-.25-1.64-.392-.57-.107-1.105-.214-1.676-.285-1.14-.143-2.246-.285-3.422-.321-.57-.036-1.141-.036-1.711-.036-.57 0-1.141 0-1.712.036l-.855.036-.856.07-.891.072c-.285 0-.57.036-.891.036-1.284 0-2.46-.214-3.637-.606a14.111 14.111 0 0 1-3.208-1.569c-.999-.677-1.89-1.426-2.674-2.317 1.782 1.497 3.886 2.602 6.132 3.102 1.105.25 2.246.32 3.315.213.25 0 .57-.07.856-.107l.855-.142.892-.143.891-.107a23.975 23.975 0 0 1 3.565-.25c1.212-.035 2.389 0 3.6.108.607.071 1.213.107 1.819.178.606.107 1.212.178 1.782.285 1.177.25 2.353.535 3.53.891l.855.286.856.32c.57.214 1.14.428 1.676.678 1.105.463 2.21.998 3.28 1.568.534.286 1.033.57 1.533.892l.748.428c.25.142.464.285.713.392.963.534 1.997.927 3.03 1.283 1.034.357 2.104.606 3.173.82 1.07.214 2.175.32 3.28.392 1.105.072 2.21.036 3.316-.035 1.105-.072 2.21-.25 3.315-.428l-.25.071c1.391-.499 2.746-.927 4.065-1.355 1.319-.463 2.602-.89 3.815-1.426 1.212-.534 2.317-1.212 3.35-1.96a22.43 22.43 0 0 0 2.888-2.639 24.614 24.614 0 0 0 2.282-3.172c.642-1.141 1.212-2.353 1.604-3.566.392-1.247.678-2.53.785-3.814a15.797 15.797 0 0 0-.179-3.886 13.622 13.622 0 0 0-1.176-3.708l-.214-.428-.214-.392c-.071-.142-.143-.285-.25-.428l-.285-.427-.285-.428c-.107-.178-.25-.357-.32-.535a4.624 4.624 0 0 1-.5-1.14c-.535-1.534-.677-3.067-.677-4.528 0-.749.035-1.462.071-2.21l.071-1.035c.036-.356.036-.677.036-1.033.036-1.355 0-2.746-.178-4.1a17.038 17.038 0 0 0-1.034-3.957 17.013 17.013 0 0 0-1.96-3.637c-.856-1.462-1.783-2.495-2.817-3.494z" fill="#FFF"/>
      <path d="M115.838 173.012c-.5-4.955 2.78-10.267 7.986-12.905 4.92-2.496 9.946-4.884 14.367-8.093 2.816-2.032 4.813-5.347 6.916-8.235 7.094-9.768 25.847-14.581 36.078-6.132 5.312 4.385 7.13 9.875 6.774 16.613-.143 2.71 0 6.132 1.497 8.164 6.703 9.091 1.676 22.14-8.27 26.88-2.639 1.249-5.562 1.997-8.343 2.995-6.56 1.213-12.905.357-18.396-3.101-7.629-4.813-15.579-6.524-24.492-5.24-5.418.784-11.23-3.067-13.369-7.915l-.748-3.03z" fill="#73984A"/>
      <path d="M115.838 173.012c-7.63.785-13.619-1.889-17.505-7.272-.32-.464.072.25-.998.82-.927.499-1.283.927-.749 1.568 4.136 5.277 10.018 8.414 20.036 7.843 0 0 .428-1.069.321-1.889-.178-.998-1.105-1.07-1.105-1.07z" fill="#A32A29"/>
      <path d="M173.52 150.232c-.499 1.248.214 3.921 1.284 4.563 1.034.606 3.779-.107 4.563-1.14.749-.963 2.068-3.352-.891-5.241-3.565-1.07-4.528.677-4.956 1.818zM173.164 143.743c.998-.534 1.604-2.103 1.533-3.208-.071-.749-1.925-2.21-2.674-1.961-1.105.392-3.672.963-3.137 3.743 1.14 1.783 3.565 1.818 4.278 1.426zM160.401 141.818c-.784.214-1.676 1.818-1.569 2.71.072.641 1.783 1.675 2.567 1.533.999-.214 2.995-1.605 2.46-3.03-.499-1.391-2.46-1.498-3.458-1.213zM167.959 148.52c-.392-.463-2.032-.57-2.78-.213-.536.25-.963 1.746-.607 2.21.464.606 2.21 1.569 3.316.713 1.07-.749.57-2.103.071-2.71z" fill="#FFF"/>
    </g>
    <g>
      <path d="M75.553 193.405c-3.28-4.6-16.792-10.517-18.36-9.163-.892.785 7.2 7.594 5.882 9.412-1.034 1.39-12.514-2.068-12.906-.392-.392 1.747 8.663 5.17 8.2 6.88-.57 2.068-13.476 2.068-14.118 4.85 2.567 2.388 15.01 3.635 15.508 5.347.535 1.854-6.738 8.627-7.272 9.625 1.212.464 3.315.785 4.527.749 7.736.214 13.619-2.816 16.114-6.988l1.141-1.105.036-1.818-1.177-1.319-1.568.606c.748 3.494-8.556 8.806-14.653 8.093 3.066-2.852 5.811-6.56 8.949-9.519l-17.077-3.779s12.264-1.996 16.97-2.852c1.64-.32-11.337-7.059-11.337-7.059.32-.035 14.082 2.282 14.438 1.961.321-.285-7.415-9.982-7.415-9.982s13.226 7.094 12.085 9.376l2.567 2.602 2.104-1.247-.321-1.961-2.317-2.317z" fill="#73984A"/>
      <g fill="#FFF">
        <path d="M73.128 213.619c2.781 6.738 9.697 8.306 11.373 8.27 11.907-.142 28.235.607 40.142.286 4.207-.107 8.414-.5 12.62-.321 4.493.178 10.126 1.39 13.548.713 6.56-1.854 13.048.713 19.216-.998"/>
        <path d="M73.128 213.619a13.917 13.917 0 0 0 3.03 3.957 15.193 15.193 0 0 0 4.172 2.531c.748.285 1.533.535 2.317.677l.57.107.57.072c.393.035.678.035 1.142 0 1.675-.072 3.387-.143 5.098-.214 3.387-.072 6.773-.143 10.16-.143h20.25c1.675 0 3.35-.036 5.026-.071l5.063-.178a83.117 83.117 0 0 1 5.17-.036c.427 0 .855.036 1.318.036h.321l.321.035.642.036c.89.071 1.747.178 2.602.285 1.711.214 3.351.5 4.991.677 1.64.179 3.28.286 4.742.072l-.072.035 1.248-.25c.428-.07.856-.106 1.248-.177.428-.036.856-.072 1.248-.072.428 0 .82 0 1.248-.035.427 0 .82.035 1.247.035.428 0 .82.072 1.212.072.82.07 1.64.142 2.425.25l2.388.249c.785.07 1.605.142 2.389.214l1.212.035 1.212-.035 1.212-.107 1.212-.179-1.14.357-1.177.285c-.392.071-.82.143-1.212.178-.392.036-.82.072-1.212.107-.82.072-1.64.107-2.46.107h-4.813c-.784.036-1.568.036-2.353.107l-1.176.107c-.392.071-.749.107-1.141.178l-1.105.25-1.105.32-.072.036c-.927.214-1.854.286-2.745.321-.891.036-1.782 0-2.638-.035-1.747-.072-3.422-.25-5.098-.393a61.477 61.477 0 0 0-2.46-.178l-.642-.035h-1.853c-1.64 0-3.316.107-4.992.178-1.675.107-3.35.214-5.098.285-1.71.071-3.422.107-5.098.107-3.386.036-6.809-.036-10.196-.107-3.387-.071-6.773-.214-10.16-.356l-10.125-.428c-1.675-.072-3.351-.143-5.062-.214-1.925-.036-3.601-.713-5.17-1.498-1.568-.82-2.994-1.925-4.135-3.244-1.105-1.14-1.96-2.71-2.496-4.313z"/>
      </g>
      <g fill="#FFF">
        <path d="M170.027 221.604c.071 0 .107-.035.178-.035 2.21-.642 9.875 1.283 9.733-2.246-.143-3.138-5.348-2.96-8.414-3.993-14.688-4.884-29.34-9.84-44.028-14.795-3.53 4.028-3.138 5.347-3.708 7.308-.57-.071-1.64-.107-2.21-.178-.464-4.064 1.533-5.348 1.782-8.235-1.96-.57-3.708-1.106-5.918-1.747-2.424 2.745-2.959 6.025-3.315 10.517-1.213-.428-3.566.285-3.815-.57-.57-1.748 1.676-5.634 2.317-6.917 1.925-3.993.285-5.098-3.53-5.74-.855-.142-1.64-.641-2.887-1.105-1.675 5.098-3.886 8.984-3.779 15.223-.82-.642-3.886-.32-4.064-1.426-.463-2.995 1.747-8.342 4.884-15.366-1.07-.463-1.462-.82-2.745-1.354-1.569-.642-4.35-1.426-5.918-1.961-7.237-2.353-14.189-2.674-18.86 4.028 0 0-.07.143-.177.393l-2.033 2.816c-2.709 5.348-2.887 9.376-1.996 13.761l1.569 3.637"/>
        <path d="M170.027 221.604c.677-.25 1.39-.25 2.103-.25h2.104c1.39 0 2.816 0 4.1-.427.605-.214 1.14-.606 1.211-1.177.036-.142.036-.285.036-.427l-.036-.25c0-.071-.035-.143-.035-.214a1.587 1.587 0 0 0-.428-.748c-.392-.428-.998-.713-1.604-.927a12.072 12.072 0 0 0-1.961-.464c-1.355-.25-2.78-.392-4.207-.82l-4.028-1.248-8.057-2.53-8.057-2.532-8.022-2.567-8.021-2.567-8.022-2.602 1.498-.428c-.428.5-.856 1.034-1.248 1.533-.178.25-.357.535-.535.784-.107.143-.178.25-.25.392-.07.143-.142.25-.213.393-.143.25-.25.534-.357.784-.107.25-.178.535-.25.82a9.38 9.38 0 0 0-.106.463l-.107.5c-.072.356-.178.748-.285 1.14l-.321 1.141-1.284-.107-2.21-.178-1.212-.107-.107-1.248a13.043 13.043 0 0 1-.071-1.212v-.606c0-.214 0-.428.035-.642.036-.428.107-.82.214-1.247.107-.393.214-.82.357-1.177.07-.178.142-.392.214-.535l.213-.499c.143-.32.25-.642.393-.927.107-.285.178-.57.25-.855l.07-.393.036-.392 1.105 1.64-5.918-1.747 1.64-.463-.392.463c-.107.179-.25.321-.356.5-.107.178-.214.32-.321.499-.107.178-.214.356-.286.534-.178.357-.356.749-.463 1.141-.143.392-.25.784-.356 1.212a19.25 19.25 0 0 0-.464 2.567 63.654 63.654 0 0 0-.25 2.71l-.142 2.067-1.96-.677c-.072-.036-.464-.071-.892-.071-.464 0-.927.035-1.569 0l-.25-.036-.32-.036c-.25-.035-.5-.107-.856-.32l-.107-.072c-.035-.035-.107-.071-.142-.107-.107-.071-.179-.178-.286-.25-.178-.178-.32-.463-.427-.712.035.142-.072-.214-.036-.179V207.843l-.036-.071-.035-.178c-.036-.25-.036-.464-.036-.713 0-.214.036-.357.036-.535 0-.178.035-.321.071-.464.036-.142.071-.32.107-.427.143-.57.32-1.07.499-1.57.214-.498.392-.962.642-1.425.214-.464.428-.927.677-1.355.214-.428.464-.891.606-1.212l.143-.32c.035-.108.107-.215.142-.322.072-.178.143-.32.179-.499.107-.356.142-.677.142-.891-.035-.214-.035-.25-.142-.357-.072-.106-.286-.285-.642-.392-.32-.142-.713-.25-1.105-.356-.214-.036-.428-.107-.642-.143l-.749-.142c-.748-.179-1.212-.393-1.675-.606-.464-.214-.856-.393-1.284-.535l2.068-.963a117.838 117.838 0 0 1-1.355 3.78l-.677 1.817c-.214.606-.428 1.212-.606 1.819-.178.606-.357 1.212-.5 1.818-.142.606-.284 1.212-.356 1.818-.035.32-.107.606-.142.927-.036.32-.072.606-.072.927 0 .32-.035.606-.035.927v.927l-2.389 1.176c.036.036.107.071.071.036 0 0-.07-.036-.142-.036a3.788 3.788 0 0 0-.5-.107c-.391-.071-.82-.107-1.283-.214-.25-.035-.499-.107-.784-.178-.143-.036-.32-.107-.463-.143-.072-.035-.179-.071-.25-.142a.63.63 0 0 1-.285-.179 1.96 1.96 0 0 1-.321-.25c-.107-.106-.214-.249-.32-.391a1.351 1.351 0 0 1-.215-.464.672.672 0 0 1-.071-.285v-.214l-.036-.32c0-.108-.035-.215-.035-.357 0-.285 0-.606.035-.82.036-.25.036-.5.072-.749l.107-.713.142-.677c.107-.464.214-.891.357-1.32.142-.427.25-.855.427-1.283.286-.855.606-1.675.927-2.495.321-.82.678-1.64 1.034-2.424a191.905 191.905 0 0 1 2.175-4.742l.642 1.64a20.419 20.419 0 0 1-1.783-.927c-.499-.285-1.034-.5-1.569-.713a81.615 81.615 0 0 0-3.529-1.212l-1.782-.606c-.607-.178-1.213-.392-1.783-.57-.57-.179-1.176-.321-1.747-.464-.285-.071-.606-.107-.891-.178-.285-.072-.606-.143-.891-.143-2.389-.356-4.813-.32-6.988.464-.285.107-.535.213-.82.32l-.784.393c-.25.142-.5.32-.749.463l-.356.25c-.107.07-.214.178-.357.285-.214.178-.463.356-.677.57l-.642.642c-.214.214-.392.428-.606.677l-.57.713.07-.107-.177.392-.036.072-.036.035-2.103 2.781.036-.071-.393.784c-.142.25-.25.535-.392.785-.142.25-.25.534-.356.784-.107.25-.214.535-.321.82-.107.285-.214.535-.285.82a7.186 7.186 0 0 0-.25.82 14.23 14.23 0 0 0-.392 1.675c-.107.57-.178 1.141-.214 1.712a28.61 28.61 0 0 0-.071 1.746c0 .286.035.57.035.892 0 .285.036.57.072.89.071.571.142 1.177.25 1.748v-.036l1.46 3.708-1.71-3.6v-.037c-.143-.57-.285-1.176-.357-1.746-.035-.286-.107-.606-.142-.892-.036-.285-.072-.606-.107-.89-.036-.607-.072-1.213-.036-1.82 0-.605.071-1.211.143-1.817.07-.606.178-1.212.32-1.783.072-.285.143-.606.214-.891.072-.285.179-.57.25-.856.071-.285.178-.57.285-.855l.321-.856c.107-.285.214-.57.356-.82l.393-.82v-.036l.035-.035 1.961-2.852-.071.107.178-.428.036-.071.035-.036.57-.784c.179-.286.393-.535.607-.785l.677-.748c.25-.214.5-.464.749-.678.142-.107.25-.214.392-.32l.392-.286c.285-.178.535-.428.82-.57l.891-.5c.286-.142.606-.284.927-.427.321-.143.642-.25.963-.357.32-.107.642-.213.962-.285.321-.071.642-.142.999-.214l.998-.107c.32-.035.677-.035.998-.07.32 0 .677-.037.998 0 .321 0 .678.035.999.035l.998.107c.32.035.641.071.962.142.321.072.642.107.963.179.642.142 1.283.25 1.925.427.642.143 1.248.321 1.854.5l1.818.534c1.212.357 2.424.713 3.672 1.141.642.214 1.248.463 1.89.784.606.321 1.069.57 1.604.785l1.176.463-.535 1.212a268.522 268.522 0 0 0-1.996 4.742 65.843 65.843 0 0 0-1.747 4.777c-.142.392-.25.784-.356 1.176-.107.393-.214.785-.286 1.177l-.106.57-.072.57c-.035.179-.035.357-.035.571v.464c0 .07 0 .178.035.285l.036.32V207.488c0-.036 0-.072-.036-.107-.035-.072-.071-.143-.107-.179-.035-.035-.071-.107-.107-.142 0-.036-.035-.036-.035-.036-.036 0 0 0 0 0h.035c.072 0 .072.036.179.036.142.035.285.071.499.107l1.283.178c.25.036.5.071.784.143.143.035.286.07.5.178.142.036.427.214.641.356l-2.388 1.177v-1.034c0-.357.035-.713.035-1.034 0-.356.072-.713.072-1.034a98.1 98.1 0 0 1 .107-1.034c.106-.677.213-1.39.392-2.067.142-.678.32-1.355.534-1.997.393-1.319.856-2.602 1.32-3.814a90.8 90.8 0 0 0 1.283-3.672l.5-1.569 1.568.606c.499.178.962.392 1.39.606.428.178.82.357 1.034.392l.677.143c.25.035.535.107.785.178.534.143 1.07.285 1.64.535.57.25 1.212.606 1.746 1.212.57.606.892 1.497.927 2.282 0 .356 0 .748-.071 1.07-.036.356-.143.64-.214.926-.071.285-.214.57-.285.856-.071.142-.107.25-.143.356l-.142.321c-.25.57-.464.927-.678 1.355-.214.428-.427.82-.606 1.248-.178.427-.356.82-.534 1.247-.143.392-.286.82-.393 1.177-.035.107-.035.178-.07.25 0 .07-.037.178-.037.249v.178h-.035l.035.178.036.072V207.45c0 .036-.071-.285-.036-.143-.07-.32-.356-.57-.499-.606-.142-.071-.178-.071-.178-.071h.143c.32.036.82 0 1.319 0 .534 0 1.14-.036 1.996.25l-2.139 1.39c.071-.963.178-1.925.285-2.888.143-.962.286-1.96.57-2.959.143-.499.286-.998.464-1.497.178-.5.392-.998.642-1.462.107-.25.25-.463.392-.713.143-.25.285-.463.428-.677.142-.214.32-.428.463-.642l.5-.606.641-.749.998.286 5.883 1.747 1.283.392-.178 1.247-.071.642a4.145 4.145 0 0 1-.143.642c-.107.428-.25.82-.392 1.176-.143.357-.285.713-.428 1.034l-.214.464c-.071.142-.107.285-.178.463-.107.285-.214.57-.285.856-.072.285-.107.57-.143.855-.036.143-.036.286-.036.428v.428c0 .285.036.606.036.927l-1.319-1.32 2.21.215-1.604 1.034c.071-.286.143-.57.214-.892l.107-.534c.036-.179.107-.357.143-.57.106-.393.25-.785.392-1.142.142-.392.32-.748.534-1.07.107-.177.179-.356.286-.498.107-.179.214-.321.32-.5.214-.32.428-.605.642-.926.464-.606.927-1.141 1.39-1.676l.642-.713.892.32 7.95 2.782 7.95 2.78 7.95 2.817 7.95 2.852 7.95 2.852 3.957 1.426c1.248.428 2.638.677 4.029.998.713.178 1.39.357 2.103.642.677.285 1.39.642 1.925 1.283.25.321.464.713.535 1.105a.987.987 0 0 1 .036.321v.286c0 .213-.036.392-.072.606a1.892 1.892 0 0 1-.677 1.033c-.32.25-.677.393-1.034.5-1.462.392-2.888.25-4.278.178-.713-.036-1.39-.107-2.103-.143-.963-.25-1.676-.285-2.353-.107z"/>
      </g>
      <path d="M73.52 196.221c-4.527 8.913-.392 17.433-.392 17.433 2.781 6.738 9.697 8.307 11.373 8.271 11.907-.142 28.235.606 40.142.285 4.207-.107 8.414-.499 12.62-.32 4.493.178 10.126 1.39 13.548.712 6.595-1.889 13.155.75 19.358-1.033 2.21-.642 9.876 1.283 9.733-2.246-.143-3.138-5.348-2.96-8.414-3.993-14.688-4.884-29.34-9.84-44.028-14.795-3.53 4.028-3.137 5.347-3.708 7.308-.57-.071-1.64-.107-2.21-.178-.464-4.064 1.533-5.348 1.782-8.235-1.96-.57-3.707-1.106-5.918-1.747-2.424 2.745-2.959 6.025-3.315 10.517-1.212-.428-3.565.285-3.815-.57-.57-1.748 1.676-5.634 2.318-6.917 1.925-3.993.285-5.098-3.53-5.74-.855-.142-1.64-.641-2.888-1.105-1.675 5.098-3.885 8.984-3.778 15.223-.82-.642-3.886-.32-4.065-1.426-.463-2.995 1.747-8.342 4.884-15.366-1.069-.463-1.461-.82-2.745-1.354-1.568-.642-4.349-1.426-5.918-1.961-7.237-2.353-14.189-2.674-18.859 4.028l-2.175 3.209z" fill="#D4451D"/>
    </g>
    <g>
      <path d="M174.519 266.453c3.387 4.527 17.04 10.125 18.574 8.734.855-.784-7.38-7.415-6.097-9.269.999-1.426 12.585 1.783 12.906.107.356-1.747-8.77-4.955-8.342-6.667.499-2.067 13.404-2.388 14.01-5.205-2.602-2.317-15.115-3.28-15.65-4.955-.57-1.854 6.56-8.806 7.059-9.768-1.248-.428-3.352-.678-4.528-.642-7.736-.036-13.547 3.137-15.971 7.344l-1.106 1.14v1.819l1.212 1.319 1.57-.642c-.82-3.493 8.341-9.02 14.473-8.449-2.994 2.923-5.633 6.702-8.734 9.733l17.148 3.387s-12.193 2.281-16.899 3.28c-1.64.356 11.516 6.773 11.516 6.773-.321.071-14.154-1.96-14.475-1.64-.32.285 7.63 9.804 7.63 9.804s-13.405-6.774-12.3-9.09l-2.638-2.568-2.068 1.284.357 1.96 2.353 2.21z" fill="#73984A"/>
      <g fill="#FFF">
        <path d="M176.48 246.168c-2.96-6.703-9.876-8.057-11.587-8.022-11.907.428-28.235.036-40.143.642-4.206.214-8.413.713-12.62.642-4.492-.072-10.16-1.141-13.583-.393-6.524 1.997-13.048-.392-19.18 1.426"/>
        <path d="M176.48 246.168c-.82-1.498-1.854-2.817-3.138-3.886-1.248-1.07-2.71-1.854-4.207-2.46-.748-.285-1.533-.5-2.317-.642l-.57-.107-.57-.071c-.393-.036-.678 0-1.141.035-1.676.107-3.387.25-5.063.321-3.387.143-6.773.285-10.16.392-3.387.107-6.774.143-10.125.214l-5.062.107c-1.676.036-3.352.072-5.063.143-1.675.036-3.351.107-5.027.178l-5.026.321a82.503 82.503 0 0 1-5.17.178c-.427 0-.855 0-1.319-.035h-.641l-.642-.036c-.891-.071-1.747-.143-2.603-.214-1.71-.178-3.35-.392-5.026-.535-1.64-.142-3.28-.214-4.742.036l.071-.036-1.247.286a88.65 88.65 0 0 0-1.248.213c-.428.036-.856.072-1.248.107-.428.036-.82.036-1.248.036h-1.247c-.428 0-.82-.036-1.248-.071-.82-.072-1.64-.107-2.424-.179l-2.39-.213c-.783-.072-1.603-.107-2.388-.143H83.04l-1.212.036-1.212.142-1.176.214 1.14-.392 1.177-.32c.392-.072.784-.18 1.212-.215.392-.035.82-.107 1.212-.142.82-.072 1.64-.143 2.424-.179l2.425-.035c.82 0 1.604-.036 2.388-.072.784-.035 1.569-.07 2.353-.142.392-.036.784-.072 1.14-.143.393-.071.75-.142 1.142-.214l1.105-.285 1.07-.356.07-.036c.928-.25 1.855-.32 2.746-.392.891-.036 1.782-.036 2.638-.036 1.747.036 3.422.143 5.098.25.82.035 1.676.107 2.46.107h1.247l1.248-.036c1.64-.036 3.316-.178 4.991-.32 1.676-.143 3.352-.286 5.063-.393 1.711-.107 3.422-.178 5.098-.214 3.387-.107 6.81-.143 10.196-.143 3.387 0 6.774.036 10.16.107l10.125.179c1.676.035 3.351.071 5.063.071 1.925-.036 3.6.642 5.205 1.355 1.568.784 3.03 1.854 4.206 3.137 1.177 1.39 2.068 2.923 2.639 4.528z"/>
      </g>
      <g fill="#FFF">
        <path d="M79.403 240.5c-.071 0-.107.035-.178.035-2.21.677-9.911-1.07-9.697 2.495.214 3.138 5.419 2.852 8.52 3.78 14.795 4.527 29.59 9.126 44.35 13.725 3.422-4.1 2.994-5.42 3.565-7.416.57.072 1.64.072 2.21.143.535 4.029-1.39 5.383-1.604 8.271 1.96.535 3.707.998 5.953 1.604 2.353-2.78 2.817-6.096 3.066-10.588 1.212.392 3.53-.356 3.815.463.606 1.747-1.533 5.669-2.14 6.988-1.853 4.029-.142 5.134 3.673 5.668.855.107 1.675.57 2.923 1.034 1.533-5.133 3.672-9.09 3.423-15.294.82.642 3.886.25 4.1 1.355.534 2.995-1.534 8.378-4.528 15.472 1.105.428 1.497.785 2.78 1.284 1.605.606 4.386 1.354 5.954 1.818 7.309 2.175 14.225 2.317 18.752-4.456 0 0 .072-.143.179-.428l1.96-2.852c2.567-5.384 2.674-9.448 1.64-13.833l-1.675-3.6"/>
        <path d="M79.403 240.5c-.678.249-1.39.284-2.068.32-.713.036-1.426.036-2.103.036-1.39.035-2.817.07-4.064.534-.607.214-1.106.642-1.177 1.177a.869.869 0 0 0 0 .428l.036.25c0 .07.035.142.035.213.072.285.25.535.428.749.392.428.998.677 1.64.891.642.178 1.32.32 1.997.428 1.354.214 2.78.356 4.206.749l4.065 1.14 8.092 2.318 8.093 2.353 8.093 2.388 8.092 2.389 8.093 2.424-1.497.463c.427-.534.82-1.033 1.212-1.568.178-.25.356-.535.535-.784.07-.143.142-.286.25-.393.07-.142.142-.285.213-.392.143-.285.25-.535.356-.82.107-.285.179-.535.25-.82a9.38 9.38 0 0 0 .107-.463l.107-.5c.071-.356.143-.748.25-1.14l.285-1.14 1.283.07 2.246.107 1.212.072.143 1.212c.035.392.107.784.107 1.212 0 .214.035.428 0 .606 0 .214 0 .428-.036.642-.036.427-.107.855-.178 1.247-.107.393-.214.82-.321 1.177a4.685 4.685 0 0 0-.178.535l-.178.534c-.143.357-.25.642-.357.927-.107.286-.178.57-.25.856l-.07.392-.036.392-1.141-1.604 5.953 1.604-1.604.5.357-.464c.107-.178.213-.321.32-.5.107-.177.214-.32.321-.498.072-.179.179-.357.285-.535.179-.357.321-.749.464-1.14.143-.393.25-.785.32-1.213.18-.82.322-1.711.393-2.567.107-.891.143-1.782.214-2.71l.107-2.067 1.996.606c.072.036.464.071.892.036.463 0 .926-.072 1.568-.036h.25l.32.036c.25.035.5.107.856.285l.107.071c.036.036.107.071.143.107.107.071.178.178.285.25.178.178.32.463.428.713-.036-.143.071.214.035.178V252.834l.036.072.036.178c.035.25.071.463.071.713 0 .214 0 .356-.036.535 0 .178-.035.32-.071.463-.036.143-.036.32-.071.428-.107.57-.285 1.07-.464 1.604-.178.5-.392.963-.606 1.426-.214.464-.428.927-.641 1.355-.214.428-.464.891-.607 1.212l-.142.32c-.036.108-.107.25-.107.322-.036.178-.143.32-.178.499a3.229 3.229 0 0 0-.143.891c.036.214.071.25.143.357.107.107.32.25.641.392.321.142.713.25 1.106.32.213.036.427.108.641.108l.749.106c.749.143 1.212.357 1.675.57.464.18.856.357 1.284.536l-2.032 1.034c.392-1.284.855-2.567 1.283-3.815l.642-1.854c.214-.606.392-1.212.57-1.818.179-.606.321-1.212.464-1.818.142-.606.25-1.212.32-1.818.036-.321.072-.607.108-.927.035-.321.07-.606.07-.927 0-.321.037-.606.037-.927v-.927l2.353-1.212c-.036-.036-.107-.072-.072-.036 0 0 .072.036.143.036.107.035.32.071.499.107.392.071.82.107 1.319.178.25.036.5.071.784.178.143.036.321.107.464.143.071.035.178.071.285.107.107.035.178.071.285.142.107.072.214.143.321.25.107.107.214.25.32.356.108.107.18.286.25.464a.66.66 0 0 1 .072.25V252.62l.035.321c0 .107.036.214.036.357 0 .285.036.606 0 .82-.036.25-.036.499-.071.748l-.107.713-.143.678c-.107.463-.214.891-.32 1.354-.108.428-.25.892-.393 1.284-.25.855-.57 1.675-.855 2.531l-.963 2.46c-.677 1.604-1.355 3.208-2.068 4.813l-.677-1.64c.642.25 1.283.606 1.782.855.5.25 1.034.464 1.605.678 1.14.392 2.353.748 3.53 1.105l1.817.535c.606.178 1.212.392 1.783.534.57.179 1.176.286 1.782.428.286.072.606.107.892.179.285.035.606.107.89.142 2.39.321 4.814.214 6.988-.642.25-.107.535-.213.82-.356l.785-.428c.25-.142.499-.32.748-.499l.357-.25c.107-.07.214-.178.32-.285.215-.178.464-.392.678-.57l.606-.642c.214-.214.392-.463.57-.677l.571-.713-.071.107.178-.392.036-.072.035-.035 2.032-2.817-.035.072.392-.785c.142-.25.25-.535.356-.784.107-.25.214-.535.321-.82.107-.285.214-.535.321-.82.107-.285.214-.535.285-.82.072-.285.178-.57.25-.82.142-.57.285-1.14.356-1.711.107-.57.179-1.141.179-1.747a14.28 14.28 0 0 0 0-1.747c0-.285-.036-.57-.072-.891 0-.285-.071-.57-.107-.891a29.689 29.689 0 0 0-.285-1.747v.035l-1.533-3.672 1.818 3.53v.035c.143.57.285 1.141.428 1.747.036.285.107.57.143.891.035.286.107.607.107.892.07.606.107 1.212.107 1.818 0 .606-.036 1.212-.072 1.818-.071.606-.142 1.212-.285 1.783-.036.285-.143.606-.214.89-.071.286-.142.571-.25.892-.07.285-.178.57-.285.856-.107.285-.178.57-.32.855l-.321.856-.357.82v.036l-.035.035-1.89 2.924.071-.107-.178.427-.036.072-.035.035-.57.82a4.2 4.2 0 0 1-.607.785l-.641.748c-.25.25-.464.464-.713.678l-.357.356-.392.321c-.285.214-.535.428-.82.606l-.856.535c-.285.178-.606.285-.927.428-.32.142-.641.25-.926.356-.321.107-.642.214-.963.285-.32.072-.642.143-.998.214l-.998.143c-.321.071-.678.036-.999.071-.32.036-.677.036-.998.036h-.998l-.998-.071c-.321 0-.642-.072-.963-.107a8.956 8.956 0 0 1-.962-.143c-.642-.107-1.284-.214-1.926-.392-.641-.143-1.247-.321-1.853-.464l-1.819-.499c-1.212-.32-2.46-.641-3.707-1.07a17.352 17.352 0 0 1-1.89-.748c-.641-.285-1.105-.57-1.64-.749l-1.176-.427.499-1.212a268.536 268.536 0 0 0 1.89-4.813c.285-.785.606-1.605.89-2.389.286-.82.535-1.604.785-2.388.107-.393.214-.785.32-1.213.108-.392.18-.784.25-1.176l.107-.57.072-.57c.035-.18.035-.357.035-.571v-.464c0-.071 0-.178-.035-.285l-.036-.32v-.072.071c0 .036 0 .071.036.107a.78.78 0 0 0 .107.178c.035.036.07.107.107.107 0 .036.035.036.035.036h-.035c-.072 0-.072-.036-.179-.036-.142-.035-.32-.071-.499-.107l-1.283-.142c-.25-.036-.5-.072-.785-.143a6.038 6.038 0 0 1-.499-.142c-.142-.036-.427-.179-.641-.357l2.353-1.212.035 1.034v1.034c0 .356-.035.713-.071 1.034 0 .356-.071.713-.107 1.033-.071.713-.178 1.39-.32 2.068-.143.678-.286 1.355-.464 2.032-.357 1.32-.785 2.603-1.212 3.85-.428 1.248-.856 2.46-1.213 3.708l-.463 1.604-1.569-.57c-.499-.178-.962-.392-1.39-.57-.428-.179-.82-.321-1.034-.357l-.677-.107c-.25-.035-.535-.107-.785-.142a7.786 7.786 0 0 1-1.64-.5 4.681 4.681 0 0 1-1.782-1.176c-.57-.606-.927-1.497-.998-2.246 0-.357-.036-.749.035-1.07.036-.356.107-.641.179-.926.071-.286.178-.57.285-.856.036-.143.107-.25.142-.357l.143-.32c.25-.57.464-.963.642-1.39.214-.429.392-.856.57-1.249.178-.427.357-.82.5-1.247.142-.392.285-.82.356-1.177.035-.107.035-.178.035-.25 0-.07.036-.178.036-.249v-.178h.036l-.036-.178-.036-.072V253.37c0-.036.072.285.036.143.107.32.392.534.5.606.142.07.177.07.177.07H138.583c-.321 0-.82.037-1.32.037-.534 0-1.14.035-1.996-.179l2.104-1.461c-.072.962-.107 1.925-.214 2.887-.107.963-.25 1.961-.5 2.96-.106.498-.249.998-.427 1.497-.178.499-.357.998-.606 1.461-.107.25-.25.464-.357.713-.142.25-.285.464-.427.678-.143.214-.321.428-.464.677l-.499.642-.606.784-.998-.285-5.954-1.64-1.283-.357.142-1.247.072-.642c.035-.214.07-.428.107-.642.106-.428.213-.82.356-1.176.143-.357.285-.713.392-1.034l.178-.463c.072-.143.107-.286.179-.464.107-.285.178-.57.25-.856.07-.285.106-.57.142-.855.035-.143 0-.285.035-.428v-.428c0-.285-.035-.606-.07-.927l1.354 1.284-2.21-.143 1.568-1.07c-.071.286-.142.571-.214.892l-.107.535c-.035.178-.071.356-.142.57a14.77 14.77 0 0 1-.357 1.176c-.142.393-.32.75-.499 1.106-.107.178-.178.356-.285.499-.107.178-.178.32-.285.499-.214.32-.428.642-.642.927a22 22 0 0 1-1.355 1.711l-.606.749-.891-.286-8.021-2.566-8.022-2.603-8.021-2.602-8.022-2.638-7.985-2.674-3.993-1.355c-1.248-.428-2.638-.606-4.029-.891-.713-.143-1.39-.321-2.103-.57-.677-.25-1.39-.607-1.96-1.248a2.524 2.524 0 0 1-.571-1.106c-.036-.107-.036-.214-.072-.32l-.035-.286c0-.214 0-.428.071-.606.107-.428.357-.82.642-1.07.32-.249.677-.427 1.034-.534 1.426-.428 2.887-.32 4.278-.285.713.035 1.39.071 2.103.107.57 0 1.283.035 1.96-.143z"/>
      </g>
      <path d="M176.48 263.6c4.313-9.019 0-17.432 0-17.432-2.96-6.703-9.876-8.057-11.587-8.022-11.907.428-28.235.036-40.143.642-4.206.214-8.413.713-12.62.642-4.492-.072-10.16-1.141-13.583-.393-6.56 2.033-13.19-.463-19.322 1.498-2.21.677-9.911-1.07-9.697 2.495.214 3.138 5.419 2.852 8.52 3.78 14.795 4.527 29.59 9.126 44.35 13.725 3.422-4.1 2.994-5.42 3.565-7.416.57.072 1.64.072 2.21.143.535 4.029-1.39 5.383-1.604 8.271 1.96.535 3.707.998 5.953 1.604 2.353-2.78 2.817-6.096 3.066-10.588 1.212.392 3.53-.356 3.815.463.606 1.747-1.533 5.669-2.14 6.988-1.853 4.029-.142 5.134 3.673 5.668.855.107 1.675.57 2.923 1.034 1.533-5.133 3.672-9.09 3.423-15.294.82.642 3.886.25 4.1 1.355.534 2.995-1.534 8.378-4.528 15.472 1.105.428 1.497.785 2.78 1.284 1.605.606 4.386 1.354 5.954 1.818 7.309 2.175 14.225 2.317 18.752-4.456l2.14-3.28z" fill="#D4451D"/>
      <path d="M137.264 280.784c1.319 1.07 2.46 2.389 3.244 3.922l.036.071c.32.963.641 1.961.962 2.924v.106c.25 1.819.107 3.744-.535 5.49-.606 1.783-1.568 3.387-2.745 4.85a16.006 16.006 0 0 1-4.313 3.564c-1.569.891-3.066 1.676-4.6 2.496-3.03 1.64-6.024 3.315-8.805 5.24l-.5.357-.463.356a22.28 22.28 0 0 1-.499.393l-.392.356a24.955 24.955 0 0 0-1.64 1.711c-1.034 1.248-2.032 2.638-3.03 4.064l-.784 1.07-.214.32-.285.286-.393.5c-.285.356-.641.712-.962 1.069-.321.32-.642.677-.998.998-1.355 1.283-2.888 2.353-4.457 3.28a32.727 32.727 0 0 1-4.92 2.353c-1.71.606-3.458 1.105-5.24 1.426-.428.071-.891.178-1.32.214-.463.07-.89.142-1.354.178l-1.355.107c-.463.035-.89.035-1.354.035-1.819 0-3.601-.142-5.384-.499-1.747-.392-3.493-.927-5.062-1.746a16.088 16.088 0 0 1-4.314-3.066 18.079 18.079 0 0 0 4.635 2.281c1.64.535 3.28.891 4.99 1.034 1.676.143 3.388.143 5.063 0 .428-.036.82-.071 1.248-.143.428-.035.82-.106 1.248-.213.428-.072.82-.143 1.248-.25.427-.071.82-.178 1.212-.285a31.034 31.034 0 0 0 4.741-1.64 28.597 28.597 0 0 0 4.385-2.317 26.697 26.697 0 0 0 3.85-3.03l.856-.856c.25-.286.5-.57.749-.892l.392-.534.214-.25.142-.214.75-1.07c.997-1.425 1.996-2.923 3.172-4.313a21.04 21.04 0 0 1 1.96-2.032c.18-.178.393-.321.571-.5l.535-.391.178-.107.143-.107.285-.179.57-.392a60.61 60.61 0 0 1 4.6-2.78c1.568-.856 3.137-1.64 4.705-2.425l4.706-2.246c1.426-.713 2.78-1.64 3.886-2.816 1.14-1.14 2.103-2.46 2.745-3.957.678-1.498 1.034-3.102.998-4.742v.071a76.135 76.135 0 0 1-.57-3.03l.036.071a12.637 12.637 0 0 0-1.07-2.21 35.807 35.807 0 0 0-1.497-1.96z" fill="#FFF"/>
      <path d="M75.588 323.28a19.965 19.965 0 0 1-3.173-2.852 15.563 15.563 0 0 1-2.424-3.6c-1.319-2.603-1.925-5.562-2.032-8.486-.036-.356-.036-.713-.036-1.105v-1.07c0-.677 0-1.354-.071-2.032-.107-1.354-.356-2.673-.82-3.814a5.367 5.367 0 0 0-.392-.784c-.071-.143-.143-.214-.25-.357l-.32-.463-.321-.428a6.082 6.082 0 0 1-.321-.5l-.321-.498-.285-.5c-.713-1.354-1.284-2.78-1.605-4.313-.677-2.995-.463-6.168.393-9.091.427-1.462.998-2.888 1.747-4.207.713-1.355 1.604-2.602 2.602-3.743a23.024 23.024 0 0 1 3.316-3.138c1.212-.926 2.566-1.71 3.921-2.352 2.745-1.284 5.562-1.961 8.164-2.888l.143-.036.107-.035a41.315 41.315 0 0 1 3.672-.464c1.247-.071 2.46-.107 3.707 0 1.248.071 2.46.214 3.708.5 1.212.284 2.424.605 3.6 1.033 1.177.463 2.318.963 3.387 1.569.286.142.535.32.82.463l.75.464c.498.285.997.641 1.496.927.963.57 1.961 1.105 2.96 1.604.499.25 1.033.499 1.532.713l.785.32.784.286c1.07.392 2.14.713 3.244.998.535.143 1.105.25 1.64.392.57.107 1.105.214 1.676.285 1.14.143 2.246.286 3.422.321.57.036 1.141.036 1.711.036.57 0 1.141 0 1.712-.036l.855-.035.856-.072.891-.071c.285 0 .57-.036.891-.036 1.284 0 2.46.214 3.637.606 1.14.393 2.246.927 3.208 1.57.999.676 1.89 1.425 2.674 2.316-1.782-1.497-3.886-2.602-6.132-3.101a10.474 10.474 0 0 0-3.315-.214c-.25 0-.57.071-.856.107l-.855.142-.892.143-.891.107c-1.176.178-2.389.25-3.565.25-1.212.035-2.389 0-3.6-.107-.607-.072-1.213-.107-1.819-.179-.606-.107-1.212-.178-1.783-.285a42.614 42.614 0 0 1-3.529-.891l-.856-.285-.855-.321c-.57-.214-1.141-.428-1.676-.678a39.407 39.407 0 0 1-3.28-1.568 21.513 21.513 0 0 1-1.533-.891l-.748-.428c-.25-.143-.464-.285-.713-.392-.963-.535-1.997-.927-3.03-1.284-1.034-.356-2.104-.606-3.173-.82-1.07-.214-2.175-.32-3.28-.392-1.105-.071-2.21-.036-3.316.036-1.105.071-2.21.25-3.315.427l.25-.07c-1.391.498-2.746.926-4.065 1.354-1.319.463-2.602.891-3.815 1.426-1.212.535-2.317 1.212-3.35 1.96a22.43 22.43 0 0 0-2.888 2.639 24.614 24.614 0 0 0-2.282 3.173c-.642 1.14-1.212 2.353-1.604 3.565-.392 1.248-.678 2.531-.785 3.814a15.797 15.797 0 0 0 .179 3.886 13.622 13.622 0 0 0 1.176 3.708l.214.428.214.392c.071.143.142.285.25.428l.285.428.285.427c.107.179.25.357.32.535.215.357.393.749.5 1.141.535 1.533.677 3.066.677 4.528 0 .748-.035 1.461-.071 2.21l-.071 1.034c-.036.356-.036.677-.036 1.034-.036 1.354 0 2.745.178 4.1a17.038 17.038 0 0 0 1.034 3.957 17.013 17.013 0 0 0 1.96 3.636c.856 1.426 1.783 2.496 2.817 3.494z" fill="#FFF"/>
      <path d="M140.9 287.843c.5 4.956-2.78 10.268-7.986 12.906-4.92 2.495-9.946 4.884-14.367 8.092-2.816 2.032-4.813 5.348-6.916 8.236-7.094 9.768-25.847 14.58-36.078 6.132-5.312-4.385-7.13-9.876-6.774-16.614.143-2.71 0-6.132-1.497-8.164-6.703-9.09-1.676-22.139 8.27-26.88 2.639-1.248 5.562-1.997 8.343-2.995 6.56-1.212 12.905-.356 18.396 3.102 7.629 4.813 15.579 6.524 24.492 5.24 5.418-.784 11.23 3.066 13.369 7.915l.748 3.03z" fill="#73984A"/>
      <path d="M140.9 287.843c7.63-.784 13.619 1.89 17.505 7.273.32.463-.072-.25.998-.82.927-.5 1.283-.927.749-1.569-4.136-5.276-10.018-8.413-20.036-7.843 0 0-.428 1.07-.321 1.89a1.215 1.215 0 0 0 1.105 1.07z" fill="#A32A29"/>
      <path d="M83.217 310.66c.5-1.248-.213-3.922-1.283-4.564-1.034-.606-3.779.107-4.563 1.141-.749.963-2.068 3.351.891 5.24 3.565 1.07 4.528-.712 4.955-1.817zM83.574 317.112c-.998.535-1.604 2.104-1.533 3.209.071.749 1.925 2.21 2.674 1.96 1.105-.392 3.672-.962 3.137-3.743-1.14-1.747-3.565-1.818-4.278-1.426zM96.301 319.073c.785-.214 1.676-1.818 1.569-2.71-.071-.641-1.783-1.675-2.567-1.532-.998.214-2.995 1.604-2.46 3.03.535 1.39 2.496 1.497 3.458 1.212zM88.779 312.37c.392.464 2.032.571 2.78.215.535-.25.963-1.747.607-2.21-.464-.607-2.21-1.57-3.316-.714-1.07.749-.57 2.104-.071 2.71z" fill="#FFF"/>
      <g>
        <path d="M158.44 316.364c0-2.14 2.71-3.922 4.6-3.387.677.178-.215 3.636.784 4.385.82.499 5.418-1.497 5.81-.927.642.784-3.065 6.346-2.923 7.344.535.713 5.348 2.103 5.42 2.852.106 1.283-5.562 3.886-5.634 4.92-.071.962 3.78 4.064 3.637 4.741-.179.749-4.564 1.676-5.17 2.46-.178.963 3.708 6.346 3.03 7.273-.748.998-5.846-1.854-6.203-1.676-.82.464.036 4.1-.463 4.492-.57.428-4.171-.606-4.848-3.565l1.96-28.912zm2.46 15.009c-.356 5.098-3.101 12.335-3.101 12.335.285 1.747 1.461 2.745 1.96 3.173.286-1.57.036-3.494.82-5.241 2.14 1.676 4.6 2.567 4.92 2.317-1.283-2.139-1.711-4.278-3.066-6.488 1.89-.535 2.888-1.141 4.92-1.925.071-.25-3.922-3.78-4.064-4.171-.143-.5 5.24-4.279 5.205-4.564-1.248-.32-4.706-1.89-4.813-2.281-.107-.393 1.782-2.425 3.743-6.061-.677-.143-5.17 1.32-5.561 1.176-.143-1.853.071-3.101-.072-4.67-.463.179-1.996.285-2.638 2.425.072 0 2.104 8.877 1.747 13.975z" fill="#73984A"/>
        <g fill="#FFF">
          <path d="M157.763 343.85s3.565-5.383 3.921-13.583c.321-7.558-2.495-13.048-2.495-13.048l-.749-.82c-1.64-1.105-3.244-2.353-5.026-3.066-3.601-1.426-7.309-1.283-11.016.072-5.42 1.996-10.054 5.098-13.833 9.483-3.458 4.028-3.6 8.021-.143 13.083"/>
          <path d="M157.656 343.779c.57-.998 1.07-2.032 1.462-3.102.214-.534.392-1.07.57-1.604.178-.535.357-1.105.5-1.64.142-.535.284-1.105.391-1.675.107-.57.214-1.106.286-1.676l.106-.856.072-.855c.071-.57.071-1.141.107-1.711.035-.535 0-1.141 0-1.712-.036-.57-.036-1.105-.107-1.675-.036-.57-.107-1.141-.214-1.676-.071-.57-.178-1.105-.285-1.675-.107-.57-.25-1.106-.392-1.64-.143-.535-.286-1.106-.464-1.64-.178-.535-.356-1.07-.57-1.605-.214-.499-.428-1.033-.678-1.497l.107.143-.784-.82.143.107a74.936 74.936 0 0 0-2.532-1.64c-.82-.5-1.675-.963-2.53-1.284-.5-.178-.928-.32-1.391-.427-.464-.107-.927-.214-1.39-.25-.928-.143-1.89-.143-2.817-.071-.927.071-1.89.25-2.78.499-.464.142-.928.285-1.355.428l-.321.142-.143.072-.178.07-.713.286c-.891.392-1.783.784-2.638 1.248-.856.463-1.712.927-2.532 1.461-.82.5-1.64 1.07-2.424 1.64a36.398 36.398 0 0 0-2.281 1.819 28.299 28.299 0 0 0-2.104 2.032c-.677.713-1.319 1.426-1.818 2.174-.5.785-.927 1.605-1.176 2.46-.25.891-.321 1.818-.25 2.745.107.927.32 1.89.642 2.817.32.927.784 1.818 1.247 2.71l-.178.142c-.642-.785-1.248-1.604-1.782-2.531-.5-.927-.927-1.89-1.141-2.96a7.816 7.816 0 0 1-.071-3.28c.178-1.104.606-2.138 1.14-3.1a17.89 17.89 0 0 1 1.854-2.603 32.37 32.37 0 0 1 2.14-2.282 25.694 25.694 0 0 1 2.352-2.068 25.354 25.354 0 0 1 2.567-1.782c.891-.57 1.818-1.034 2.745-1.498.927-.463 1.89-.855 2.888-1.212l.713-.25.178-.07.214-.072.392-.107c.5-.178 1.034-.285 1.533-.428a15.804 15.804 0 0 1 3.173-.427 16.19 16.19 0 0 1 3.209.213c.534.072 1.07.214 1.568.357.535.143 1.07.32 1.498.5 1.033.391 1.96.962 2.816 1.532.856.57 1.676 1.177 2.495 1.747l.107.071.072.072.748.855.072.071.035.072c.286.57.464 1.105.678 1.675.214.57.392 1.105.534 1.676.179.57.321 1.14.428 1.711.143.57.25 1.141.321 1.747.071.57.178 1.176.214 1.747.071.57.107 1.176.107 1.747.036.57.036 1.176.036 1.782-.036.57-.036 1.141-.107 1.747-.036.57-.107 1.177-.179 1.747l-.142.856-.178.855c-.107.57-.25 1.141-.393 1.712-.142.57-.285 1.14-.499 1.675-.178.57-.356 1.105-.57 1.64-.214.535-.428 1.07-.677 1.604-.5 1.07-1.034 2.104-1.676 3.066v-.071z"/>
          <g>
            <path d="M128.422 335.971c3.03 4.457 7.309 7.737 12.05 10.197 6.204 3.208 10.874 2.139 16.008-.892l1.283-1.426"/>
            <path d="M128.53 335.9l.641.784.677.75.678.748.713.713c.499.463.998.927 1.497 1.355.535.427 1.034.855 1.604 1.247a36.86 36.86 0 0 0 3.387 2.21c.57.322 1.177.642 1.783.963.285.143.606.321.891.464l.464.214.463.213c.32.143.642.286.927.393l.891.32.927.25c.32.071.642.143.927.178.642.107 1.248.143 1.89.179h.926c.321 0 .606-.036.927-.036l.927-.107.927-.143.927-.214c.32-.106.642-.142.927-.25a56.908 56.908 0 0 0 1.89-.605c.32-.107.641-.25.962-.357.32-.107.642-.25.963-.356l-.107.107c.499-.392.998-.82 1.568-1.177l.179.143c-.321.57-.642 1.14-.999 1.675l-.107.107c-.534.428-1.105.856-1.71 1.248-.286.178-.607.392-.928.57-.32.179-.642.321-.962.5-.321.142-.678.285-.999.428-.356.142-.677.25-1.033.356-.357.107-.713.178-1.07.285a11.875 11.875 0 0 1-2.21.25c-.357-.036-.749 0-1.105-.071-.357-.072-.75-.072-1.106-.179-.356-.071-.713-.142-1.07-.25l-1.033-.32-1.034-.392-.998-.464c-.357-.142-.606-.32-.927-.463l-.463-.25-.464-.25c-.32-.178-.606-.356-.891-.534-.606-.357-1.177-.749-1.747-1.14a32.478 32.478 0 0 1-3.28-2.568 19.39 19.39 0 0 1-1.497-1.461c-.5-.5-.963-.999-1.39-1.533-.464-.535-.856-1.07-1.284-1.64l-.57-.856-.535-.856.035-.178z"/>
          </g>
        </g>
        <path d="M157.763 343.85s3.565-5.383 3.921-13.583c.321-7.558-2.495-13.048-2.495-13.048l-.749-.82c-1.64-1.105-3.244-2.353-5.026-3.066-3.601-1.426-7.309-1.283-11.016.072-5.42 1.996-10.054 5.098-13.833 9.483-3.458 4.028-3.6 8.021-.143 13.083 3.03 4.457 7.309 7.737 12.05 10.197 6.204 3.208 10.874 2.139 16.008-.892l1.283-1.426z" fill="#A32A29"/>
        <path d="M153.414 330.16c-1.605 2.033-3.78 2.781-4.635 1.57-.428-.607-.57-2.247-.143-2.568 1.854-1.533 3.352-.178 4.778.998zM152.201 340.856c-1.96.677-3.208 2.424-4.848.677-.428-.428-.392-2.032-.036-2.317 1.818-1.355 3.03.107 4.884 1.64zM144.43 335.009c-1.605 1.176-3.138 2.032-4.706.499-.285-.285-.107-1.64.25-1.854 1.675-.998 3.208-.57 4.456 1.355zM153.734 320.143c-.855 2.032-2.353 2.388-3.992 1.782-.464-.178-.927-1.747-.678-2.068 1.533-1.853 2.96-.463 4.67.286zM145 324.991c-1.497 1.177-2.852 2.282-4.492.784-.356-.32-.285-1.89.071-2.103 1.747-1.07 3.066-.071 4.421 1.32zM137.264 329.376c-1.533 1.07-2.888 2.104-4.492.856-.357-.285-.321-1.854.071-2.14 1.783-1.318 2.96.036 4.42 1.284z" fill="#FFF"/>
      </g>
      <g>
        <path d="M98.868 374.83c0 2.14-2.71 3.922-4.599 3.387-.677-.178.214-3.636-.784-4.385-.82-.499-5.419 1.498-5.811.927-.642-.784 3.066-6.345 2.923-7.344-.535-.713-5.347-2.103-5.419-2.852-.107-1.283 5.562-3.886 5.633-4.92.071-.962-3.779-4.064-3.636-4.741.178-.749 4.563-1.676 5.169-2.46.178-.962-3.708-6.346-3.03-7.273.748-.998 5.846 1.854 6.203 1.676.82-.464-.036-4.1.463-4.492.57-.428 4.172.606 4.849 3.565l-1.96 28.913zm-2.495-15.008c.356-5.098 3.101-12.335 3.101-12.335-.285-1.747-1.462-2.745-1.96-3.173-.286 1.568-.036 3.493-.82 5.24-2.14-1.675-4.6-2.566-4.92-2.317 1.283 2.14 1.71 4.278 3.066 6.488-1.89.535-2.888 1.141-4.92 1.926-.072.25 3.921 3.779 4.064 4.17.143.5-5.24 4.279-5.205 4.564 1.248.32 4.706 1.89 4.813 2.282.107.392-1.783 2.424-3.744 6.06.678.143 5.17-1.319 5.562-1.176.143 1.854-.071 3.101.071 4.67.464-.178 1.997-.285 2.638-2.424-.07 0-2.067-8.877-1.746-13.975z" fill="#73984A"/>
        <g fill="#FFF">
          <path d="M99.51 347.344s-3.565 5.383-3.922 13.583c-.32 7.558 2.496 13.048 2.496 13.048l.748.82c1.64 1.105 3.245 2.353 5.027 3.066 3.6 1.426 7.309 1.283 11.016-.071 5.42-1.997 10.054-5.098 13.833-9.483 3.458-4.029 3.6-8.022.142-13.084"/>
          <path d="M99.617 347.415c-.57.999-1.07 2.032-1.462 3.102-.214.535-.392 1.07-.57 1.604a28.725 28.725 0 0 0-.5 1.64 23.049 23.049 0 0 0-.392 1.676c-.107.57-.213 1.105-.285 1.675l-.107.856-.071.856c-.071.57-.071 1.14-.107 1.71-.036.536 0 1.142 0 1.712.036.57.036 1.105.107 1.676.036.57.107 1.14.214 1.675.071.57.178 1.105.285 1.676.107.57.25 1.105.392 1.64.143.534.285 1.105.464 1.64.178.534.356 1.07.57 1.604.214.499.428 1.034.677 1.497l-.107-.142.785.82-.143-.107c.856.57 1.711 1.14 2.531 1.64.82.499 1.676.962 2.532 1.283.499.178.927.32 1.39.428.463.107.927.214 1.39.25.927.142 1.89.142 2.817.07.927-.07 1.89-.249 2.78-.498.464-.143.927-.286 1.355-.428l.321-.143.143-.071.178-.072.713-.285c.891-.392 1.782-.784 2.638-1.247.856-.464 1.711-.927 2.531-1.462.82-.5 1.64-1.07 2.425-1.64a36.398 36.398 0 0 0 2.281-1.818 28.299 28.299 0 0 0 2.104-2.032c.677-.713 1.319-1.426 1.818-2.175.499-.784.927-1.604 1.176-2.46.25-.891.321-1.818.25-2.745-.107-.927-.321-1.89-.642-2.816-.32-.927-.784-1.819-1.248-2.71l.179-.142c.641.784 1.247 1.604 1.782 2.53.5.928.927 1.89 1.14 2.96.25 1.07.286 2.174.072 3.28-.178 1.105-.606 2.139-1.14 3.101a17.89 17.89 0 0 1-1.854 2.603 32.37 32.37 0 0 1-2.14 2.281 25.694 25.694 0 0 1-2.352 2.068 25.354 25.354 0 0 1-2.567 1.783c-.892.57-1.818 1.033-2.745 1.497-.927.463-1.89.856-2.888 1.212l-.713.25-.178.07-.214.072-.392.107c-.5.178-1.034.285-1.533.428-1.034.25-2.104.392-3.173.428a16.19 16.19 0 0 1-3.209-.214c-.535-.071-1.07-.214-1.568-.357-.535-.142-1.07-.32-1.498-.499-1.034-.392-1.96-.962-2.816-1.533-.856-.57-1.676-1.176-2.496-1.747l-.107-.07-.071-.072-.749-.856-.071-.071-.036-.071c-.285-.57-.463-1.106-.677-1.676a15.192 15.192 0 0 1-.535-1.676c-.178-.57-.32-1.14-.428-1.71-.142-.571-.25-1.142-.32-1.748-.072-.57-.179-1.176-.214-1.747a14.36 14.36 0 0 1-.107-1.746c-.036-.57-.036-1.177-.036-1.783.036-.57.036-1.14.107-1.747.036-.57.107-1.176.178-1.747l.143-.855.178-.856c.107-.57.25-1.14.392-1.711.143-.57.286-1.141.5-1.676.178-.57.356-1.105.57-1.64.214-.534.428-1.07.677-1.604.5-1.07 1.034-2.103 1.676-3.066v.071z"/>
          <g>
            <path d="M128.85 355.223c-3.03-4.457-7.308-7.736-12.05-10.196-6.203-3.209-10.873-2.14-16.007.891l-1.283 1.426"/>
            <path d="M128.779 355.294l-.642-.784-.677-.749-.677-.749-.713-.713a51.41 51.41 0 0 0-1.498-1.354c-.535-.428-1.034-.856-1.604-1.248a36.86 36.86 0 0 0-3.387-2.21 80.75 80.75 0 0 0-1.782-.963c-.286-.143-.606-.32-.892-.463l-.463-.214-.464-.214c-.32-.143-.641-.285-.927-.392l-.89-.321-.928-.25c-.32-.071-.641-.142-.927-.178-.641-.107-1.247-.143-1.89-.178h-.926c-.32 0-.606.035-.927.035l-.927.107-.927.143-.927.214c-.32.107-.641.142-.927.25-.606.178-1.247.392-1.89.605-.32.107-.64.25-.962.357-.32.107-.641.25-.962.356l.107-.106c-.5.392-.998.82-1.569 1.176l-.178-.143c.32-.57.642-1.14.998-1.675l.107-.107a21.122 21.122 0 0 1 1.711-1.248c.285-.178.606-.392.927-.57.321-.179.642-.321.963-.5.32-.142.677-.285.998-.427.356-.143.677-.25 1.034-.357.356-.107.713-.178 1.07-.285a11.875 11.875 0 0 1 2.21-.25c.356.036.748 0 1.105.072.356.071.749.071 1.105.178.357.071.713.143 1.07.25l1.033.32 1.034.393.998.463c.357.143.607.32.927.464l.464.25.463.249c.321.178.606.356.892.534.606.357 1.176.75 1.746 1.141 1.141.785 2.246 1.64 3.28 2.567a19.39 19.39 0 0 1 1.498 1.462c.499.499.962.998 1.39 1.533.463.534.856 1.07 1.283 1.64l.57.855.536.856-.036.178z"/>
          </g>
        </g>
        <path d="M99.51 347.344s-3.565 5.383-3.922 13.583c-.32 7.558 2.496 13.048 2.496 13.048l.748.82c1.64 1.105 3.245 2.353 5.027 3.066 3.6 1.426 7.309 1.283 11.016-.071 5.42-1.997 10.054-5.098 13.833-9.483 3.458-4.029 3.6-8.022.142-13.084-3.03-4.457-7.308-7.736-12.05-10.196-6.203-3.209-10.873-2.14-16.007.891l-1.283 1.426z" fill="#A32A29"/>
        <path d="M103.86 361.034c1.603-2.032 3.778-2.78 4.634-1.569.428.606.57 2.246.142 2.567-1.853 1.533-3.315.178-4.777-.998zM105.107 350.339c1.96-.678 3.209-2.425 4.848-.678.428.428.393 2.032.036 2.318-1.854 1.354-3.03-.107-4.884-1.64zM112.879 356.185c1.604-1.176 3.137-2.032 4.706-.499.285.285.107 1.64-.25 1.854-1.711.998-3.208.57-4.456-1.355zM103.538 371.052c.856-2.032 2.353-2.389 3.993-1.783.464.178.927 1.747.678 2.068-1.498 1.854-2.96.463-4.67-.285zM112.308 366.203c1.498-1.176 2.852-2.281 4.492-.784.357.32.286 1.89-.07 2.103-1.748 1.07-3.103.072-4.422-1.319zM120.045 361.818c1.533-1.07 2.887-2.103 4.492-.855.356.285.32 1.853-.072 2.139-1.818 1.354-2.994-.036-4.42-1.284z" fill="#FFF"/>
      </g>
      <g>
        <path d="M119.474 409.947c-1.319-1.07-2.46-2.39-3.244-3.922l-.036-.071c-.32-.963-.641-1.961-.962-2.924v-.107c-.25-1.818-.107-3.743.534-5.49.607-1.782 1.57-3.387 2.746-4.848a16.006 16.006 0 0 1 4.313-3.565c1.569-.892 3.066-1.676 4.6-2.496 3.03-1.64 6.024-3.315 8.805-5.24l.5-.357.463-.357c.178-.142.356-.285.499-.392l.392-.356a24.955 24.955 0 0 0 1.64-1.711c1.034-1.248 2.032-2.639 3.03-4.065l.784-1.07.214-.32.214-.25.392-.499c.285-.356.642-.713.963-1.07.32-.32.642-.677.998-.997 1.355-1.284 2.888-2.353 4.456-3.28a32.727 32.727 0 0 1 4.92-2.353c1.711-.606 3.458-1.105 5.24-1.426.429-.072.892-.179 1.32-.214.463-.071.891-.143 1.355-.178.463-.036.89-.072 1.354-.107.464-.036.892-.036 1.355-.036 1.818 0 3.6.143 5.383.5 1.747.391 3.494.926 5.063 1.746a16.088 16.088 0 0 1 4.313 3.066 18.079 18.079 0 0 0-4.634-2.282c-1.64-.534-3.28-.891-4.991-1.034a30.006 30.006 0 0 0-5.063 0c-.427.036-.82.072-1.247.143-.428.036-.82.107-1.248.214-.428.071-.82.143-1.248.25-.428.07-.82.178-1.212.285-1.64.427-3.209.962-4.742 1.64a28.597 28.597 0 0 0-4.385 2.317 26.697 26.697 0 0 0-3.85 3.03l-.856.856c-.25.285-.499.57-.748.891l-.392.535-.214.25-.143.213-.748 1.07c-.999 1.426-1.997 2.923-3.173 4.314a21.04 21.04 0 0 1-1.961 2.032c-.178.178-.392.32-.57.499l-.535.392-.179.107-.142.107-.285.178-.57.392a60.61 60.61 0 0 1-4.6 2.781c-1.568.856-3.137 1.64-4.706 2.424l-4.706 2.246c-1.426.713-2.78 1.64-3.885 2.817-1.141 1.14-2.104 2.46-2.746 3.957-.677 1.497-1.033 3.101-.998 4.741v-.07c.214.997.392 1.995.57 3.03l-.035-.072c.285.784.642 1.497 1.07 2.21.534.606 1.033 1.248 1.568 1.926z" fill="#FFF"/>
        <path d="M181.15 367.451c1.14.82 2.21 1.783 3.173 2.852a15.563 15.563 0 0 1 2.424 3.6c1.319 2.603 1.925 5.562 2.032 8.486.036.356.036.713.036 1.105v1.07c0 .677 0 1.354.07 2.031.108 1.355.357 2.674.82 3.815.108.285.25.535.393.784.071.143.143.214.25.357l.32.463.321.428c.107.143.214.32.321.5l.321.498.285.5c.713 1.354 1.284 2.78 1.604 4.313.678 2.995.464 6.168-.392 9.091-.427 1.462-.998 2.888-1.747 4.207-.713 1.355-1.604 2.602-2.602 3.743a23.024 23.024 0 0 1-3.316 3.137c-1.212.927-2.566 1.712-3.921 2.353-2.745 1.284-5.562 1.961-8.164 2.888l-.143.036-.107.035a41.315 41.315 0 0 1-3.672.464c-1.247.071-2.46.107-3.707 0-1.248-.072-2.46-.214-3.708-.5-1.212-.285-2.424-.605-3.6-1.033-1.177-.464-2.318-.963-3.388-1.569-.285-.142-.534-.32-.82-.463l-.748-.464c-.5-.285-.998-.641-1.497-.927a47.414 47.414 0 0 0-2.96-1.604c-.499-.25-1.033-.499-1.532-.713l-.785-.32-.784-.286a34.096 34.096 0 0 0-3.244-.998c-.535-.143-1.105-.25-1.64-.392-.57-.107-1.105-.214-1.676-.286-1.14-.142-2.246-.285-3.422-.32-.57-.036-1.141-.036-1.711-.036-.57 0-1.141 0-1.712.036l-.855.035-.856.072-.891.07c-.285 0-.57.036-.891.036-1.284 0-2.46-.213-3.637-.606a14.111 14.111 0 0 1-3.208-1.568c-.999-.678-1.89-1.426-2.674-2.318 1.782 1.498 3.886 2.603 6.132 3.102 1.105.25 2.246.32 3.315.214.25 0 .57-.071.856-.107l.855-.143.892-.142.891-.107a23.975 23.975 0 0 1 3.565-.25c1.212-.035 2.389 0 3.6.107.607.072 1.213.107 1.819.179.606.106 1.212.178 1.782.285 1.177.25 2.353.534 3.53.891l.855.285.856.321c.57.214 1.14.428 1.676.677 1.105.464 2.21.999 3.28 1.569.534.285 1.033.57 1.533.891l.748.428c.25.143.464.285.713.392.963.535 1.997.927 3.03 1.284 1.034.356 2.104.606 3.173.82 1.07.214 2.175.32 3.28.392 1.105.071 2.21.035 3.316-.036 1.105-.071 2.21-.25 3.315-.428l-.25.072c1.391-.5 2.746-.927 4.065-1.355 1.319-.464 2.602-.891 3.815-1.426 1.212-.535 2.317-1.212 3.35-1.96a22.43 22.43 0 0 0 2.888-2.639 24.614 24.614 0 0 0 2.282-3.173c.642-1.14 1.212-2.353 1.604-3.565.392-1.248.678-2.531.785-3.815a15.797 15.797 0 0 0-.179-3.886 13.622 13.622 0 0 0-1.176-3.707l-.214-.428-.214-.392c-.071-.143-.143-.285-.25-.428l-.285-.428-.285-.428c-.107-.178-.25-.356-.32-.534a4.624 4.624 0 0 1-.5-1.141c-.535-1.533-.677-3.066-.677-4.528 0-.748.035-1.461.071-2.21l.071-1.034c.036-.356.036-.677.036-1.034.036-1.355 0-2.745-.178-4.1a17.038 17.038 0 0 0-1.034-3.957 17.013 17.013 0 0 0-1.96-3.636c-.856-1.426-1.783-2.496-2.817-3.494z" fill="#FFF"/>
        <path d="M115.838 402.852c-.5-4.955 2.78-10.267 7.986-12.905 4.92-2.496 9.946-4.885 14.367-8.093 2.816-2.032 4.813-5.348 6.916-8.235 7.094-9.769 25.847-14.582 36.078-6.132 5.312 4.385 7.13 9.875 6.774 16.613-.143 2.71 0 6.132 1.497 8.164 6.703 9.09 1.676 22.139-8.27 26.88-2.639 1.248-5.562 1.997-8.343 2.995-6.56 1.212-12.905.357-18.396-3.102-7.629-4.812-15.579-6.524-24.492-5.24-5.418.784-11.23-3.066-13.369-7.915l-.748-3.03z" fill="#73984A"/>
        <path d="M115.838 402.852c-7.63.784-13.619-1.89-17.505-7.273-.32-.463.072.25-.998.82-.927.5-1.283.927-.749 1.569 4.136 5.276 10.018 8.413 20.036 7.843 0 0 .428-1.07.321-1.89-.178-.998-1.105-1.069-1.105-1.069z" fill="#A32A29"/>
        <path d="M173.52 380.071c-.499 1.248.214 3.922 1.284 4.564 1.034.606 3.779-.107 4.563-1.141.749-.963 2.068-3.351-.891-5.24-3.565-1.07-4.528.676-4.956 1.817zM173.164 373.583c.998-.535 1.604-2.103 1.533-3.209-.071-.748-1.925-2.21-2.674-1.96-1.105.392-3.672.962-3.137 3.743 1.14 1.782 3.565 1.818 4.278 1.426zM160.401 371.658c-.784.214-1.676 1.818-1.569 2.71.072.64 1.783 1.675 2.567 1.532.999-.214 2.995-1.604 2.46-3.03-.499-1.39-2.46-1.497-3.458-1.212zM167.959 378.36c-.392-.463-2.032-.57-2.78-.214-.536.25-.963 1.747-.607 2.21.464.607 2.21 1.57 3.316.714 1.07-.75.57-2.104.071-2.71z" fill="#FFF"/>
      </g>
      <g>
        <path d="M75.553 423.244c-3.28-4.599-16.792-10.517-18.36-9.162-.892.784 7.2 7.594 5.882 9.412-1.034 1.39-12.514-2.068-12.906-.392-.392 1.746 8.663 5.169 8.2 6.88-.57 2.068-13.476 2.068-14.118 4.849 2.567 2.388 15.01 3.636 15.508 5.347.535 1.854-6.738 8.628-7.272 9.626 1.212.463 3.315.784 4.527.749 7.736.213 13.619-2.817 16.114-6.988l1.141-1.105.036-1.818-1.177-1.32-1.568.607c.748 3.493-8.556 8.805-14.653 8.092 3.066-2.852 5.811-6.56 8.949-9.518l-17.077-3.78s12.264-1.996 16.97-2.851c1.64-.321-11.337-7.06-11.337-7.06.32-.035 14.082 2.282 14.438 1.962.321-.286-7.415-9.983-7.415-9.983s13.226 7.095 12.085 9.377l2.567 2.602 2.104-1.248-.321-1.96-2.317-2.318z" fill="#73984A"/>
        <g fill="#FFF">
          <path d="M73.128 443.494c2.781 6.738 9.697 8.306 11.373 8.27 11.907-.142 28.235.607 40.142.286 4.207-.107 8.414-.5 12.62-.32 4.493.177 10.126 1.39 13.548.712 6.56-1.854 13.048.713 19.216-.998"/>
          <path d="M73.128 443.494a13.917 13.917 0 0 0 3.03 3.957 15.193 15.193 0 0 0 4.172 2.531c.748.285 1.533.535 2.317.678l.57.106.57.072c.393.035.678.035 1.142 0 1.675-.072 3.387-.143 5.098-.214 3.387-.071 6.773-.143 10.16-.143h20.25c1.675 0 3.35-.035 5.026-.071l5.063-.178a83.117 83.117 0 0 1 5.17-.036c.427 0 .855.036 1.318.036h.321l.321.035.642.036c.89.071 1.747.178 2.602.285 1.711.214 3.351.5 4.991.678 1.64.178 3.28.285 4.742.07l-.072.037 1.248-.25c.428-.071.856-.107 1.248-.178.428-.036.856-.072 1.248-.072.428 0 .82 0 1.248-.035.427 0 .82.035 1.247.035.428 0 .82.072 1.212.072.82.071 1.64.142 2.425.25l2.388.249c.785.071 1.605.142 2.389.214l1.212.035 1.212-.035 1.212-.107 1.212-.178-1.14.356-1.177.285c-.392.072-.82.143-1.212.179-.392.035-.82.07-1.212.106-.82.072-1.64.107-2.46.107h-4.813c-.784.036-1.568.036-2.353.107l-1.176.107c-.392.072-.749.107-1.141.179l-1.105.25-1.105.32-.072.036c-.927.214-1.854.285-2.745.32-.891.036-1.782 0-2.638-.035-1.747-.071-3.422-.25-5.098-.392a61.477 61.477 0 0 0-2.46-.179l-.642-.035h-1.853c-1.64 0-3.316.107-4.992.178-1.675.107-3.35.214-5.098.285-1.71.072-3.422.107-5.098.107-3.386.036-6.809-.035-10.196-.107-3.387-.071-6.773-.214-10.16-.356l-10.125-.428c-1.675-.071-3.351-.143-5.062-.214-1.925-.036-3.601-.713-5.17-1.497-1.568-.82-2.994-1.925-4.135-3.245-1.105-1.176-1.96-2.745-2.496-4.313z"/>
        </g>
        <g fill="#FFF">
          <path d="M170.027 451.444c.071 0 .107-.036.178-.036 2.21-.642 9.875 1.284 9.733-2.246-.143-3.137-5.348-2.959-8.414-3.993-14.688-4.884-29.34-9.84-44.028-14.795-3.53 4.029-3.138 5.348-3.708 7.309-.57-.072-1.64-.107-2.21-.179-.464-4.064 1.533-5.347 1.782-8.235-1.96-.57-3.708-1.105-5.918-1.747-2.424 2.745-2.959 6.025-3.315 10.517-1.213-.428-3.566.285-3.815-.57-.57-1.747 1.676-5.633 2.317-6.916 1.925-3.993.285-5.098-3.53-5.74-.855-.143-1.64-.642-2.887-1.105-1.675 5.098-3.886 8.984-3.779 15.222-.82-.641-3.886-.32-4.064-1.426-.463-2.994 1.747-8.342 4.884-15.365-1.07-.463-1.462-.82-2.745-1.355-1.569-.641-4.35-1.426-5.918-1.96-7.237-2.353-14.189-2.674-18.86 4.028 0 0-.07.143-.177.392l-2.033 2.817c-2.709 5.347-2.887 9.376-1.996 13.76l1.569 3.637"/>
          <path d="M170.027 451.444c.677-.25 1.39-.25 2.103-.25h2.104c1.39 0 2.816 0 4.1-.428.605-.213 1.14-.606 1.211-1.176.036-.143.036-.285.036-.428l-.036-.25c0-.07-.035-.142-.035-.213a1.587 1.587 0 0 0-.428-.749c-.392-.428-.998-.713-1.604-.927a12.072 12.072 0 0 0-1.961-.463c-1.355-.25-2.78-.392-4.207-.82l-4.028-1.248-8.057-2.531-8.057-2.531-8.022-2.567-8.021-2.567-8.022-2.603 1.498-.427c-.428.499-.856 1.033-1.248 1.533-.178.25-.357.534-.535.784-.107.142-.178.25-.25.392-.07.143-.142.25-.213.392-.143.25-.25.535-.357.785-.107.25-.178.534-.25.82a9.38 9.38 0 0 0-.106.463l-.107.499c-.072.357-.178.749-.285 1.14l-.321 1.142-1.284-.107-2.21-.179-1.212-.106-.107-1.248a13.043 13.043 0 0 1-.071-1.212v-.606c0-.214 0-.428.035-.642.036-.428.107-.82.214-1.248.107-.392.214-.82.357-1.176.07-.179.142-.393.214-.535l.213-.5c.143-.32.25-.641.393-.926.107-.285.178-.57.25-.856l.07-.392.036-.392 1.105 1.64-5.918-1.747 1.64-.464-.392.464c-.107.178-.25.32-.356.5-.107.177-.214.32-.321.498-.107.178-.214.357-.286.535-.178.356-.356.749-.463 1.14-.143.393-.25.785-.356 1.213a19.25 19.25 0 0 0-.464 2.567 63.654 63.654 0 0 0-.25 2.71l-.142 2.067-1.96-.677c-.072-.036-.464-.072-.892-.072-.464 0-.927.036-1.569 0l-.25-.035-.32-.036c-.25-.036-.5-.107-.856-.32l-.107-.072c-.035-.036-.107-.072-.142-.107-.107-.071-.179-.178-.286-.25-.178-.178-.32-.463-.427-.713.035.143-.072-.214-.036-.178V437.683l-.036-.072-.035-.178c-.036-.25-.036-.463-.036-.713 0-.214.036-.356.036-.535 0-.178.035-.32.071-.463.036-.143.071-.32.107-.428.143-.57.32-1.07.499-1.569.214-.499.392-.962.642-1.426.214-.463.428-.926.677-1.354.214-.428.464-.892.606-1.212l.143-.321c.035-.107.107-.214.142-.321.072-.178.143-.32.179-.5.107-.356.142-.677.142-.89-.035-.214-.035-.25-.142-.357-.072-.107-.286-.285-.642-.392-.32-.143-.713-.25-1.105-.357-.214-.035-.428-.107-.642-.142l-.749-.143c-.748-.178-1.212-.392-1.675-.606-.464-.214-.856-.392-1.284-.535l2.068-.962a117.838 117.838 0 0 1-1.355 3.779l-.677 1.818c-.214.606-.428 1.212-.606 1.818a34.474 34.474 0 0 0-.5 1.818c-.142.606-.284 1.212-.356 1.818-.035.321-.107.607-.142.927-.036.321-.072.606-.072.927 0 .321-.035.606-.035.927v.927l-2.389 1.177c.036.035.107.07.071.035 0 0-.07-.035-.142-.035a3.788 3.788 0 0 0-.5-.107c-.391-.072-.82-.107-1.283-.214-.25-.036-.499-.107-.784-.179-.143-.035-.32-.106-.463-.142-.072-.036-.179-.071-.25-.143a.63.63 0 0 1-.285-.178 1.96 1.96 0 0 1-.321-.25c-.107-.106-.214-.25-.32-.392a1.351 1.351 0 0 1-.215-.463.672.672 0 0 1-.071-.285v-.214l-.036-.321c0-.107-.035-.214-.035-.357 0-.285 0-.606.035-.82.036-.25.036-.499.072-.748l.107-.713.142-.678c.107-.463.214-.89.357-1.319.142-.427.25-.855.427-1.283.286-.856.606-1.676.927-2.496.321-.82.678-1.64 1.034-2.424a191.905 191.905 0 0 1 2.175-4.741l.642 1.64a20.419 20.419 0 0 1-1.783-.927c-.499-.286-1.034-.5-1.569-.713a81.615 81.615 0 0 0-3.529-1.213l-1.782-.606c-.607-.178-1.213-.392-1.783-.57-.57-.178-1.176-.32-1.747-.463-.285-.072-.606-.107-.891-.179-.285-.071-.606-.142-.891-.142-2.389-.357-4.813-.321-6.988.463-.285.107-.535.214-.82.321l-.784.392c-.25.143-.5.321-.749.464l-.356.25c-.107.07-.214.177-.357.284-.214.179-.463.357-.677.57l-.642.642c-.214.214-.392.428-.606.678l-.57.713.07-.107-.177.392-.036.071-.036.036-2.103 2.78.036-.07-.393.784c-.142.25-.25.535-.392.784-.142.25-.25.535-.356.784-.107.25-.214.535-.321.82-.107.286-.214.535-.285.82a7.186 7.186 0 0 0-.25.82 14.23 14.23 0 0 0-.392 1.676c-.107.57-.178 1.14-.214 1.711a28.61 28.61 0 0 0-.071 1.747c0 .285.035.57.035.891 0 .285.036.57.072.892.071.57.142 1.176.25 1.746v-.035l1.46 3.707-1.71-3.6v-.036c-.143-.57-.285-1.176-.357-1.747-.035-.285-.107-.606-.142-.891-.036-.285-.072-.606-.107-.891-.036-.606-.072-1.212-.036-1.819 0-.606.071-1.212.143-1.818.07-.606.178-1.212.32-1.782.072-.285.143-.606.214-.892.072-.285.179-.57.25-.855.071-.285.178-.57.285-.856l.321-.855c.107-.286.214-.57.356-.82l.393-.82v-.036l.035-.036 1.961-2.852-.071.107.178-.428.036-.07.035-.036.57-.785c.179-.285.393-.535.607-.784l.677-.749c.25-.214.5-.463.749-.677.142-.107.25-.214.392-.321l.392-.285c.285-.178.535-.428.82-.57l.891-.5c.286-.142.606-.285.927-.427.321-.143.642-.25.963-.357.32-.107.642-.214.962-.285.321-.072.642-.143.999-.214l.998-.107c.32-.036.677-.036.998-.071.32 0 .677-.036.998 0 .321 0 .678.035.999.035l.998.107c.32.036.641.072.962.143.321.071.642.107.963.178.642.143 1.283.25 1.925.428.642.143 1.248.32 1.854.499l1.818.535c1.212.356 2.424.713 3.672 1.14.642.214 1.248.464 1.89.785.606.32 1.069.57 1.604.784l1.176.464-.535 1.212a268.522 268.522 0 0 0-1.996 4.741 65.843 65.843 0 0 0-1.747 4.778c-.142.392-.25.784-.356 1.176-.107.392-.214.784-.286 1.176l-.106.57-.072.571c-.035.179-.035.357-.035.57v.464c0 .071 0 .178.035.285l.036.321v0c0-.035 0-.071-.036-.107a.78.78 0 0 0-.107-.178c-.035-.036-.071-.107-.107-.143 0-.035-.035-.035-.035-.035-.036 0 0 0 0 0h.035c.072 0 .072.035.179.035.142.036.285.072.499.107l1.283.179c.25.035.5.07.784.142.143.036.286.072.5.178.142.036.427.214.641.357l-2.388 1.176v-1.033c0-.357.035-.713.035-1.034 0-.357.072-.713.072-1.034.035-.357.07-.713.107-1.034.106-.677.213-1.39.392-2.068.142-.677.32-1.354.534-1.996.393-1.32.856-2.603 1.32-3.815a90.8 90.8 0 0 0 1.283-3.672l.5-1.568 1.568.606c.499.178.962.392 1.39.606.428.178.82.356 1.034.392l.677.142c.25.036.535.107.785.179.534.142 1.07.285 1.64.534.57.25 1.212.606 1.746 1.213.57.606.892 1.497.927 2.281 0 .357 0 .749-.071 1.07-.036.356-.143.641-.214.927-.071.285-.214.57-.285.855-.071.143-.107.25-.143.357l-.142.32c-.25.571-.464.928-.678 1.355-.214.428-.427.82-.606 1.248-.178.428-.356.82-.534 1.248-.143.392-.286.82-.393 1.176-.035.107-.035.179-.07.25 0 .071-.037.178-.037.25v.178h-.035l.035.178.036.071v.072c0 .035-.071-.286-.036-.143-.07-.32-.356-.57-.499-.606-.142-.071-.178-.071-.178-.071h.143c.32.035.82 0 1.319 0 .534 0 1.14-.036 1.996.25l-2.139 1.39c.071-.963.178-1.926.285-2.888.143-.963.286-1.961.57-2.96.143-.498.286-.997.464-1.497.178-.499.392-.998.642-1.461.107-.25.25-.464.392-.713.143-.25.285-.464.428-.678.142-.213.32-.427.463-.641l.5-.606.641-.749.998.285 5.883 1.747 1.283.392-.178 1.248-.071.642c-.036.214-.072.428-.143.641-.107.428-.25.82-.392 1.177-.143.356-.285.713-.428 1.034l-.214.463c-.071.143-.107.285-.178.464-.107.285-.214.57-.285.855-.072.286-.107.57-.143.856-.036.143-.036.285-.036.428v.428c0 .285.036.606.036.926l-1.319-1.319 2.21.214-1.604 1.034c.071-.285.143-.57.214-.891l.107-.535c.036-.178.107-.356.143-.57.106-.392.25-.785.392-1.141.142-.392.32-.749.534-1.07.107-.178.179-.356.286-.499.107-.178.214-.32.32-.499.214-.32.428-.606.642-.927.464-.606.927-1.14 1.39-1.675l.642-.713.892.32 7.95 2.781 7.95 2.781 7.95 2.816 7.95 2.852 7.95 2.853 3.957 1.426c1.248.427 2.638.677 4.029.998.713.178 1.39.356 2.103.641.677.286 1.39.642 1.925 1.284.25.32.464.713.535 1.105a.987.987 0 0 1 .036.32v.286c0 .214-.036.392-.072.606a1.892 1.892 0 0 1-.677 1.034c-.32.25-.677.392-1.034.5-1.462.391-2.888.249-4.278.177-.713-.035-1.39-.107-2.103-.142-.963-.25-1.676-.285-2.353-.107z"/>
        </g>
        <path d="M73.52 426.06c-4.527 8.913-.392 17.434-.392 17.434 2.781 6.738 9.697 8.306 11.373 8.27 11.907-.142 28.235.607 40.142.286 4.207-.107 8.414-.5 12.62-.32 4.493.177 10.126 1.39 13.548.712 6.595-1.89 13.155.749 19.358-1.034 2.21-.642 9.876 1.284 9.733-2.246-.143-3.137-5.348-2.959-8.414-3.993-14.688-4.884-29.34-9.84-44.028-14.795-3.53 4.029-3.137 5.348-3.708 7.309-.57-.072-1.64-.107-2.21-.179-.464-4.064 1.533-5.347 1.782-8.235-1.96-.57-3.707-1.105-5.918-1.747-2.424 2.745-2.959 6.025-3.315 10.517-1.212-.428-3.565.285-3.815-.57-.57-1.747 1.676-5.633 2.318-6.916 1.925-3.993.285-5.098-3.53-5.74-.855-.143-1.64-.642-2.888-1.105-1.675 5.098-3.885 8.984-3.778 15.222-.82-.641-3.886-.32-4.065-1.426-.463-2.994 1.747-8.342 4.884-15.365-1.069-.463-1.461-.82-2.745-1.355-1.568-.641-4.349-1.426-5.918-1.96-7.237-2.353-14.189-2.674-18.859 4.028l-2.175 3.209z" fill="#D4451D"/>
      </g>
    </g>
  </g>
</svg>
