<svg id="svg" version="1.1" width="432" height="432" xmlns="http://www.w3.org/2000/svg" xmlns:xlink="http://www.w3.org/1999/xlink" style="display: block;"><g id="svgg"><path id="path0" d="M25.265 12.656 C 21.942 15.979,20.658 39.675,23.131 52.058 C 26.777 70.321,35.435 85.709,51.066 101.706 L 56.577 107.347 55.602 110.277 C 54.213 114.450,53.298 119.636,53.026 124.871 L 52.791 129.398 53.475 125.243 C 55.902 110.499,61.730 99.663,71.390 91.934 C 85.780 80.421,107.761 76.784,127.821 82.597 C 130.002 83.229,139.167 86.689,148.185 90.286 C 201.100 111.388,212.408 113.631,245.602 109.609 C 256.565 108.280,270.631 108.196,277.929 109.416 C 333.614 118.722,380.965 163.362,385.117 210.469 L 385.521 215.046 385.585 211.276 C 386.385 163.863,339.369 114.414,282.646 103.010 C 270.769 100.622,260.886 100.441,243.981 102.300 C 212.922 105.717,204.765 104.172,152.732 85.022 C 127.700 75.808,123.538 74.794,110.880 74.819 C 93.148 74.853,78.800 80.251,67.425 91.165 L 64.249 94.213 61.255 90.972 C 40.761 68.786,33.356 45.205,37.973 16.836 C 38.481 13.715,38.244 13.045,37.529 15.582 C 30.022 42.212,37.382 68.021,58.728 89.920 L 64.021 95.349 60.692 100.915 C 58.862 103.977,57.282 106.481,57.181 106.481 C 56.860 106.481,47.501 95.279,44.612 91.435 C 26.388 67.194,20.050 44.452,24.251 18.374 C 25.238 12.243,26.010 11.751,32.112 13.364 C 35.080 14.148,37.500 14.194,37.500 13.465 C 37.500 13.291,36.805 13.230,35.955 13.329 C 35.105 13.428,33.000 13.074,31.277 12.542 C 27.303 11.315,26.593 11.328,25.265 12.656 M52.319 136.894 C 52.378 156.477,57.629 168.160,73.819 184.735 C 101.545 213.120,114.052 237.883,120.812 277.778 C 128.316 322.061,151.601 351.062,197.917 373.811 C 252.698 400.717,316.371 375.459,329.850 321.474 C 332.467 310.991,336.028 305.473,346.592 295.533 C 367.232 276.109,371.219 271.375,377.562 258.754 C 383.140 247.657,385.191 238.895,385.410 225.231 C 385.549 216.606,385.526 216.214,385.204 221.759 C 383.615 249.194,373.417 267.073,346.715 289.238 C 333.251 300.414,327.470 308.211,324.835 318.750 C 316.068 353.810,283.432 377.287,243.426 377.311 C 223.613 377.323,209.771 372.660,183.333 357.070 C 161.938 344.453,147.301 328.834,137.009 307.639 C 131.483 296.258,129.821 290.676,126.182 271.267 C 119.457 235.393,102.431 205.731,73.900 180.177 C 60.953 168.582,54.453 155.968,53.392 140.377 C 53.125 136.456,52.309 133.810,52.319 136.894 M300.332 155.135 C 295.276 156.326,293.519 158.105,293.519 162.034 C 293.519 170.543,297.787 174.538,306.877 174.536 C 315.959 174.534,318.370 165.487,311.246 158.145 C 307.874 154.671,305.308 153.963,300.332 155.135 M336.343 182.333 C 332.137 184.812,331.713 185.555,331.713 190.432 C 331.714 199.525,337.125 205.863,344.566 205.487 C 354.187 205.001,358.964 198.550,356.491 189.384 C 354.832 183.236,342.269 178.839,336.343 182.333 M296.060 191.818 C 291.630 193.545,290.538 195.034,290.822 198.960 C 291.595 209.646,302.309 213.755,306.656 205.033 C 309.930 198.463,302.567 189.280,296.060 191.818 M321.173 225.013 C 311.503 227.444,304.024 240.864,308.696 247.403 C 318.765 261.500,340.024 257.448,340.041 241.430 L 340.046 236.795 337.825 233.229 C 333.422 226.161,327.747 223.361,321.173 225.013 " stroke="none" fill="#ffffff" fill-rule="evenodd"></path><path id="path1" d="M25.983 13.368 C 24.967 14.384,24.310 17.794,23.563 25.926 C 21.155 52.118,29.969 74.691,53.209 101.852 C 55.279 104.271,57.061 106.250,57.170 106.250 C 57.278 106.250,58.836 103.778,60.631 100.756 L 63.895 95.261 61.722 93.348 C 40.966 75.079,30.566 45.672,36.077 20.833 C 36.670 18.160,37.257 15.504,37.382 14.931 C 37.585 13.993,37.472 13.918,36.235 14.165 C 35.431 14.326,33.430 14.038,31.406 13.470 C 27.193 12.287,27.067 12.285,25.983 13.368 " stroke="none" fill="#a32929" fill-rule="evenodd"></path><path id="path2" d="M101.856 80.106 C 70.064 83.389,50.484 107.110,53.232 139.016 C 54.750 156.652,60.567 168.237,73.900 180.177 C 102.431 205.731,119.457 235.393,126.182 271.267 C 129.821 290.676,131.483 296.258,137.009 307.639 C 147.301 328.834,161.938 344.453,183.333 357.070 C 209.771 372.660,223.613 377.323,243.426 377.311 C 283.432 377.287,316.068 353.810,324.835 318.750 C 327.485 308.149,333.292 300.353,346.974 289.024 C 367.789 271.788,377.779 257.834,382.589 239.277 C 392.820 199.808,373.770 158.797,332.407 131.246 C 304.520 112.672,276.979 105.806,245.602 109.609 C 212.408 113.631,201.100 111.388,148.185 90.286 C 123.808 80.565,115.372 78.711,101.856 80.106 M56.019 87.627 C 56.019 87.697,57.633 89.312,59.606 91.215 L 63.194 94.676 59.734 91.088 C 56.520 87.756,56.019 87.289,56.019 87.627 M308.102 155.485 C 318.295 161.738,317.473 174.534,306.877 174.536 C 297.787 174.538,293.519 170.543,293.519 162.034 C 293.519 156.447,302.844 152.260,308.102 155.485 M349.693 183.080 C 356.079 186.235,357.200 188.177,356.852 195.484 C 356.404 204.904,342.957 209.338,336.328 202.251 C 324.833 189.963,334.771 175.707,349.693 183.080 M301.764 192.358 C 306.922 195.771,308.820 200.690,306.656 205.033 C 302.309 213.755,291.595 209.646,290.822 198.960 C 290.404 193.182,296.997 189.204,301.764 192.358 M330.195 225.664 C 332.963 226.978,335.493 229.487,337.825 233.229 L 340.046 236.795 340.041 241.430 C 340.024 257.448,318.765 261.500,308.696 247.403 C 301.600 237.470,318.680 220.200,330.195 225.664 " stroke="none" fill="#749a4b" fill-rule="evenodd"></path></g></svg>
