<?xml version="1.0" encoding="utf-8"?>
<!-- Generator: Adobe Illustrator 20.1.0, SVG Export Plug-In . SVG Version: 6.00 Build 0)  -->
<svg version="1.1" id="Layer_1" xmlns="http://www.w3.org/2000/svg" xmlns:xlink="http://www.w3.org/1999/xlink" x="0px" y="0px"
	 viewBox="0 0 612 488.4" style="enable-background:new 0 0 612 488.4;" xml:space="preserve">
<style type="text/css">
	.st0{fill:#FFB819;}
	.st1{fill:#FFFFFF;}
	.st2{font-family:'MyriadPro-Regular';}
	.st3{font-size:12px;}
</style>
<g>
	<g>
		<circle class="st0" cx="254.2" cy="137.3" r="29.7"/>
		<path class="st1" d="M261.7,137.3h-4.9v17.6h-7.3v-17.6h-5.4v-6.2h5.4v-4c0-2.9,1.4-7.4,7.4-7.4h5.4v6h-3.9
			c-0.6,0-1.5,0.3-1.5,1.7v3.7h5.6L261.7,137.3z"/>
	</g>
	<g>
		<circle class="st0" cx="338.4" cy="137.3" r="29.7"/>
		<g>
			<path class="st1" d="M356.1,130.1c0-2.9-2.4-5.3-5.3-5.3h-24.9c-2.9,0-5.3,2.4-5.3,5.3v14.2c0,2.9,2.4,5.3,5.3,5.3h24.9
				c2.9,0,5.3-2.4,5.3-5.3V130.1z M334.8,143.3v-13.4l10.1,6.7L334.8,143.3z"/>
		</g>
	</g>
	<g>
		<circle class="st0" cx="422.5" cy="137.3" r="29.7"/>
		<g>
			<path class="st1" d="M440.8,125.9c-1.3,0.6-2.8,1-4.3,1.2c1.6-0.9,2.7-2.4,3.3-4.2c-1.5,0.9-3.1,1.5-4.8,1.8
				c-1.4-1.5-3.3-2.4-5.5-2.4c-4.2,0-7.5,3.4-7.5,7.5c0,0.6,0.1,1.2,0.2,1.7c-6.3-0.3-11.8-3.3-15.5-7.9c-0.6,1.1-1,2.4-1,3.8
				c0,2.6,1.3,4.9,3.3,6.3c-1.2,0-2.4-0.4-3.4-0.9v0.1c0,3.6,2.6,6.7,6,7.4c-0.6,0.2-1.3,0.3-2,0.3c-0.5,0-1,0-1.4-0.1
				c1,3,3.7,5.2,7,5.2c-2.6,2-5.8,3.2-9.3,3.2c-0.6,0-1.2,0-1.8-0.1c3.3,2.1,7.3,3.4,11.5,3.4c13.8,0,21.4-11.5,21.4-21.4
				c0-0.3,0-0.7,0-1C438.6,128.7,439.8,127.4,440.8,125.9L440.8,125.9z"/>
		</g>
	</g>
</g>
<g>
	<g>
		<path class="st0" d="M271.8,337.9h-4.9v17.6h-7.3v-17.6h-5.4v-6.2h5.4v-4c0-2.9,1.4-7.4,7.4-7.4h5.4v6h-3.9
			c-0.6,0-1.5,0.3-1.5,1.7v3.7h5.6L271.8,337.9z"/>
	</g>
	<g>
		<g>
			<path class="st0" d="M366.2,330.7c0-2.9-2.4-5.3-5.3-5.3H336c-2.9,0-5.3,2.4-5.3,5.3V345c0,2.9,2.4,5.3,5.3,5.3h24.9
				c2.9,0,5.3-2.4,5.3-5.3L366.2,330.7L366.2,330.7z M344.9,343.9v-13.4l10.1,6.7L344.9,343.9z"/>
		</g>
	</g>
	<g>
		<g>
			<path class="st0" d="M450.9,326.5c-1.3,0.6-2.8,1-4.3,1.2c1.6-0.9,2.7-2.4,3.3-4.2c-1.5,0.9-3.1,1.5-4.8,1.8
				c-1.4-1.5-3.3-2.4-5.5-2.4c-4.2,0-7.5,3.4-7.5,7.5c0,0.6,0.1,1.2,0.2,1.7c-6.3-0.3-11.8-3.3-15.5-7.9c-0.6,1.1-1,2.4-1,3.8
				c0,2.6,1.3,4.9,3.3,6.3c-1.2,0-2.4-0.4-3.4-0.9v0.1c0,3.6,2.6,6.7,6,7.4c-0.6,0.2-1.3,0.3-2,0.3c-0.5,0-1,0-1.4-0.1
				c1,3,3.7,5.2,7,5.2c-2.6,2-5.8,3.2-9.3,3.2c-0.6,0-1.2,0-1.8-0.1c3.3,2.1,7.3,3.4,11.5,3.4c13.8,0,21.4-11.5,21.4-21.4
				c0-0.3,0-0.7,0-1C448.6,329.3,449.9,328,450.9,326.5L450.9,326.5z"/>
		</g>
	</g>
</g>
<text transform="matrix(1 0 0 1 253.3 397)" class="st2 st3">use the non-circle icons for the Articles</text>
</svg>
