<?xml version="1.0" encoding="UTF-8" standalone="no"?>
<!-- Generator: Adobe Illustrator 20.1.0, SVG Export Plug-In . SVG Version: 6.00 Build 0)  -->

<svg
   xmlns:dc="http://purl.org/dc/elements/1.1/"
   xmlns:cc="http://creativecommons.org/ns#"
   xmlns:rdf="http://www.w3.org/1999/02/22-rdf-syntax-ns#"
   xmlns:svg="http://www.w3.org/2000/svg"
   xmlns="http://www.w3.org/2000/svg"
   xmlns:sodipodi="http://sodipodi.sourceforge.net/DTD/sodipodi-0.dtd"
   xmlns:inkscape="http://www.inkscape.org/namespaces/inkscape"
   version="1.1"
   id="Layer_1"
   x="0px"
   y="0px"
   viewBox="0 0 36.700001 29.9"
   xml:space="preserve"
   inkscape:version="0.91 r13725"
   sodipodi:docname="fb-round.svg"
   width="36.700001"
   height="29.9"><metadata
     id="metadata53"><rdf:RDF><cc:Work
         rdf:about=""><dc:format>image/svg+xml</dc:format><dc:type
           rdf:resource="http://purl.org/dc/dcmitype/StillImage" /><dc:title></dc:title></cc:Work></rdf:RDF></metadata><defs
     id="defs51" /><sodipodi:namedview
     pagecolor="#ffffff"
     bordercolor="#666666"
     borderopacity="1"
     objecttolerance="10"
     gridtolerance="10"
     guidetolerance="10"
     inkscape:pageopacity="0"
     inkscape:pageshadow="2"
     inkscape:window-width="1069"
     inkscape:window-height="663"
     id="namedview49"
     showgrid="false"
     inkscape:zoom="0.48321049"
     inkscape:cx="-586.9"
     inkscape:cy="-345.69998"
     inkscape:window-x="0"
     inkscape:window-y="0"
     inkscape:window-maximized="0"
     inkscape:current-layer="Layer_1"
     fit-margin-top="0"
     fit-margin-left="0"
     fit-margin-right="0"
     fit-margin-bottom="0" /><style
     type="text/css"
     id="style3">
	.st0{fill:#FFB819;}
	.st1{fill:#FFFFFF;}
	.st2{font-family:'MyriadPro-Regular';}
	.st3{font-size:12px;}
</style><g
     id="g41"
     transform="translate(-414.2,-322.9)"><g
       id="g43"><path
         style="fill:#ffb819"
         inkscape:connector-curvature="0"
         id="path45"
         d="m 450.9,326.5 c -1.3,0.6 -2.8,1 -4.3,1.2 1.6,-0.9 2.7,-2.4 3.3,-4.2 -1.5,0.9 -3.1,1.5 -4.8,1.8 -1.4,-1.5 -3.3,-2.4 -5.5,-2.4 -4.2,0 -7.5,3.4 -7.5,7.5 0,0.6 0.1,1.2 0.2,1.7 -6.3,-0.3 -11.8,-3.3 -15.5,-7.9 -0.6,1.1 -1,2.4 -1,3.8 0,2.6 1.3,4.9 3.3,6.3 -1.2,0 -2.4,-0.4 -3.4,-0.9 l 0,0.1 c 0,3.6 2.6,6.7 6,7.4 -0.6,0.2 -1.3,0.3 -2,0.3 -0.5,0 -1,0 -1.4,-0.1 1,3 3.7,5.2 7,5.2 -2.6,2 -5.8,3.2 -9.3,3.2 -0.6,0 -1.2,0 -1.8,-0.1 3.3,2.1 7.3,3.4 11.5,3.4 13.8,0 21.4,-11.5 21.4,-21.4 0,-0.3 0,-0.7 0,-1 1.5,-1.1 2.8,-2.4 3.8,-3.9 l 0,0 z"
         class="st0" /></g></g></svg>