<svg id="svg" version="1.1" width="432" height="432" xmlns="http://www.w3.org/2000/svg" xmlns:xlink="http://www.w3.org/1999/xlink" style="display: block;"><g id="svgg"><path id="path0" d="M26.389 25.458 C 18.623 30.574,12.084 35.028,11.858 35.356 C 10.515 37.306,17.514 121.365,23.821 179.044 C 29.596 231.850,37.963 343.012,37.963 366.921 L 37.963 370.655 50.169 376.525 C 65.727 384.007,70.229 385.119,88.874 386.085 C 146.467 389.071,217.952 362.761,269.444 319.626 C 311.673 284.252,352.119 228.693,372.204 178.472 C 386.115 143.687,389.955 101.346,383.087 58.478 C 381.046 45.742,376.448 26.972,375.281 26.615 C 374.735 26.448,342.428 24.515,320.139 23.316 C 309.870 22.764,289.732 22.506,234.491 22.218 C 155.703 21.807,139.491 21.459,93.519 19.196 C 79.789 18.521,51.688 16.935,44.213 16.414 L 40.509 16.156 26.389 25.458 M67.627 22.457 C 80.467 22.841,123.056 24.091,162.269 25.235 C 201.481 26.379,243.461 27.627,255.556 28.008 C 277.356 28.695,356.608 31.928,356.827 32.140 C 357.112 32.415,358.835 44.911,359.479 51.373 C 362.562 82.318,360.756 113.672,354.396 139.583 C 337.331 209.115,264.596 299.922,200.000 332.343 C 162.704 351.061,113.003 359.676,69.839 354.903 L 63.520 354.204 51.714 348.456 L 39.908 342.708 39.641 338.831 C 39.494 336.699,38.945 323.183,38.420 308.796 C 36.111 245.464,34.024 207.496,30.988 173.611 C 28.505 145.892,18.642 45.731,17.872 40.412 C 17.620 38.670,40.460 21.759,43.065 21.759 C 43.734 21.759,54.787 22.073,67.627 22.457 M366.536 31.564 C 382.106 37.358,386.481 102.315,374.513 149.984 C 359.975 207.886,309.954 277.909,250.405 323.718 C 215.388 350.656,170.707 369.348,126.852 375.407 C 88.003 380.775,65.035 377.432,44.140 363.371 L 40.826 361.141 40.543 357.075 C 40.387 354.839,40.153 351.846,40.023 350.425 L 39.786 347.840 41.546 347.313 L 43.305 346.786 47.463 350.720 C 54.830 357.690,63.111 360.478,85.417 363.498 C 97.095 365.078,120.963 365.082,129.861 363.503 C 214.148 348.556,272.824 306.977,329.934 221.729 C 352.253 188.413,361.962 164.506,365.944 133.061 C 371.932 85.774,369.960 54.078,359.777 33.905 C 358.983 32.332,358.333 30.810,358.333 30.523 C 358.333 29.780,363.504 30.436,366.536 31.564 M196.628 57.913 C 187.896 59.969,183.673 68.118,186.815 76.852 C 190.471 87.017,193.076 89.705,205.270 95.890 C 209.883 98.230,216.220 101.577,219.352 103.327 L 225.047 106.510 229.537 102.513 C 235.023 97.630,234.750 98.767,231.940 92.524 C 219.468 64.811,209.369 54.913,196.628 57.913 M284.647 62.121 C 279.703 63.438,275.208 71.052,275.267 78.009 C 275.313 83.440,282.158 103.673,283.957 103.698 C 285.765 103.723,295.623 92.916,297.770 88.556 L 299.216 85.618 298.920 79.433 C 298.203 64.483,294.166 59.586,284.647 62.121 M83.020 161.842 C 75.790 164.506,71.655 175.055,73.826 185.299 C 75.063 191.137,80.958 203.338,86.265 211.045 L 88.610 214.451 91.411 214.141 C 96.091 213.625,96.126 213.603,97.691 210.259 C 104.510 195.686,106.426 186.749,104.204 179.872 C 99.970 166.765,90.811 158.970,83.020 161.842 M172.917 194.258 C 172.153 194.364,169.861 194.674,167.824 194.947 C 164.264 195.424,153.379 197.462,151.767 197.953 C 149.199 198.736,156.804 213.522,163.351 220.473 C 182.129 240.410,210.447 239.374,210.409 218.750 C 210.384 205.247,189.955 191.902,172.917 194.258 M130.964 265.763 C 109.509 268.997,97.051 281.391,99.458 297.106 C 102.859 319.315,133.109 312.076,140.907 287.186 C 143.756 278.094,143.621 273.542,140.347 268.287 L 138.616 265.509 136.090 265.440 C 134.701 265.402,132.394 265.547,130.964 265.763 " stroke="none" fill="#ffffff" fill-rule="evenodd"></path><path id="path1" d="M30.556 29.915 C 24.317 34.377,18.911 38.201,18.542 38.413 C 17.966 38.743,18.313 43.144,20.993 69.514 C 31.725 175.110,33.584 197.371,36.091 250.231 C 37.322 276.177,39.805 336.887,39.813 341.232 C 39.815 342.321,40.785 342.895,51.736 348.283 L 63.657 354.149 71.065 354.927 C 113.184 359.348,162.873 350.712,199.074 332.679 C 263.892 300.392,336.752 209.864,354.112 140.046 C 361.538 110.183,362.867 69.409,357.478 36.806 L 356.713 32.176 349.306 31.842 C 287.200 29.043,255.087 27.972,110.417 23.869 C 79.352 22.988,51.227 22.163,47.917 22.035 L 41.898 21.802 30.556 29.915 M204.167 57.910 C 214.639 60.322,223.047 71.139,233.713 95.925 L 234.649 98.101 230.863 101.481 C 228.780 103.340,226.617 105.251,226.055 105.727 C 225.042 106.587,224.991 106.570,219.114 103.335 C 215.858 101.543,209.824 98.388,205.705 96.325 C 192.611 89.767,188.328 84.931,185.662 73.694 C 183.372 64.044,193.456 55.443,204.167 57.910 M292.824 62.445 C 297.250 64.477,298.975 69.702,299.115 81.500 C 299.198 88.499,294.726 95.537,285.551 102.846 L 283.834 104.215 282.483 101.529 C 280.334 97.254,277.020 88.539,275.916 84.259 C 272.296 70.223,282.131 57.535,292.824 62.445 M91.566 162.305 C 98.950 165.985,106.199 179.405,105.357 187.836 C 104.838 193.031,100.358 206.009,97.083 211.804 C 96.057 213.620,95.972 213.662,92.437 214.152 L 88.836 214.650 87.533 212.996 C 80.659 204.271,73.710 189.012,73.287 181.713 C 72.447 167.207,81.697 157.387,91.566 162.305 M185.813 194.704 C 200.594 198.456,212.712 211.767,210.394 221.705 C 207.087 235.881,192.768 239.243,175.292 229.947 C 165.158 224.557,156.793 214.744,152.430 203.126 C 150.395 197.709,150.075 198.045,158.874 196.361 C 172.203 193.810,180.324 193.310,185.813 194.704 M139.508 266.782 C 143.822 272.531,144.142 278.354,140.701 288.490 C 135.344 304.269,118.058 314.581,106.668 308.793 C 97.014 303.886,96.249 287.331,105.222 277.497 C 113.057 268.910,135.777 261.810,139.508 266.782 " stroke="none" fill="#a32929" fill-rule="evenodd"></path><path id="path2" d="M47.338 22.091 C 48.038 22.197,49.184 22.197,49.884 22.091 C 50.584 21.985,50.012 21.898,48.611 21.898 C 47.211 21.898,46.638 21.985,47.338 22.091 M63.542 22.554 C 64.242 22.660,65.388 22.660,66.088 22.554 C 66.788 22.448,66.215 22.361,64.815 22.361 C 63.414 22.361,62.841 22.448,63.542 22.554 M79.752 23.017 C 80.455 23.124,81.497 23.121,82.067 23.011 C 82.636 22.901,82.060 22.814,80.787 22.818 C 79.514 22.821,79.048 22.911,79.752 23.017 M95.955 23.480 C 96.659 23.587,97.701 23.584,98.270 23.474 C 98.840 23.364,98.264 23.277,96.991 23.281 C 95.718 23.284,95.252 23.374,95.955 23.480 M111.696 23.943 C 112.400 24.050,113.442 24.047,114.011 23.937 C 114.580 23.827,114.005 23.740,112.731 23.744 C 111.458 23.747,110.992 23.837,111.696 23.943 M127.900 24.406 C 128.604 24.513,129.645 24.510,130.215 24.400 C 130.784 24.290,130.208 24.203,128.935 24.206 C 127.662 24.210,127.196 24.300,127.900 24.406 M143.641 24.869 C 144.344 24.976,145.386 24.973,145.955 24.863 C 146.525 24.753,145.949 24.666,144.676 24.669 C 143.403 24.673,142.937 24.763,143.641 24.869 M159.381 25.332 C 160.085 25.439,161.127 25.436,161.696 25.326 C 162.266 25.216,161.690 25.129,160.417 25.132 C 159.144 25.136,158.678 25.226,159.381 25.332 M175.122 25.795 C 175.826 25.902,176.868 25.899,177.437 25.789 C 178.006 25.679,177.431 25.592,176.157 25.595 C 174.884 25.599,174.418 25.689,175.122 25.795 M190.863 26.258 C 191.567 26.365,192.608 26.362,193.178 26.252 C 193.747 26.142,193.171 26.055,191.898 26.058 C 190.625 26.062,190.159 26.152,190.863 26.258 M206.604 26.721 C 207.307 26.828,208.349 26.825,208.918 26.715 C 209.488 26.605,208.912 26.518,207.639 26.521 C 206.366 26.525,205.900 26.615,206.604 26.721 M221.881 27.184 C 222.585 27.290,223.627 27.288,224.196 27.178 C 224.766 27.068,224.190 26.981,222.917 26.984 C 221.644 26.988,221.178 27.078,221.881 27.184 M237.159 27.647 C 237.863 27.753,238.905 27.751,239.474 27.641 C 240.043 27.531,239.468 27.444,238.194 27.447 C 236.921 27.451,236.455 27.541,237.159 27.647 M252.437 28.110 C 253.141 28.216,254.182 28.214,254.752 28.104 C 255.321 27.994,254.745 27.907,253.472 27.910 C 252.199 27.914,251.733 28.004,252.437 28.110 M267.014 28.567 C 267.587 28.678,268.524 28.678,269.097 28.567 C 269.670 28.457,269.201 28.367,268.056 28.367 C 266.910 28.367,266.441 28.457,267.014 28.567 M280.903 29.030 C 281.476 29.141,282.413 29.141,282.986 29.030 C 283.559 28.920,283.090 28.830,281.944 28.830 C 280.799 28.830,280.330 28.920,280.903 29.030 M292.708 29.486 C 293.154 29.602,293.883 29.602,294.329 29.486 C 294.774 29.369,294.410 29.274,293.519 29.274 C 292.627 29.274,292.263 29.369,292.708 29.486 M303.356 29.949 C 303.802 30.065,304.531 30.065,304.977 29.949 C 305.422 29.832,305.058 29.737,304.167 29.737 C 303.275 29.737,302.911 29.832,303.356 29.949 M314.242 30.420 C 314.817 30.531,315.651 30.527,316.093 30.411 C 316.536 30.295,316.065 30.204,315.046 30.209 C 314.028 30.214,313.666 30.309,314.242 30.420 M358.333 30.523 C 358.333 30.810,358.983 32.332,359.777 33.905 C 369.960 54.078,371.932 85.774,365.944 133.061 C 361.962 164.506,352.253 188.413,329.934 221.729 C 272.824 306.977,214.148 348.556,129.861 363.503 C 120.963 365.082,97.095 365.078,85.417 363.498 C 63.111 360.478,54.830 357.690,47.463 350.720 L 43.305 346.786 41.546 347.313 L 39.786 347.840 40.023 350.425 C 40.153 351.846,40.387 354.839,40.543 357.075 L 40.826 361.141 44.140 363.371 C 65.035 377.432,88.003 380.775,126.852 375.407 C 170.707 369.348,215.388 350.656,250.405 323.718 C 309.954 277.909,359.975 207.886,374.513 149.984 C 386.481 102.315,382.106 37.358,366.536 31.564 C 363.504 30.436,358.333 29.780,358.333 30.523 M325.116 30.875 C 325.561 30.991,326.291 30.991,326.736 30.875 C 327.182 30.758,326.817 30.663,325.926 30.663 C 325.035 30.663,324.670 30.758,325.116 30.875 M336.227 31.338 C 336.672 31.454,337.402 31.454,337.847 31.338 C 338.293 31.221,337.928 31.126,337.037 31.126 C 336.146 31.126,335.781 31.221,336.227 31.338 M347.338 31.801 C 347.784 31.917,348.513 31.917,348.958 31.801 C 349.404 31.684,349.039 31.589,348.148 31.589 C 347.257 31.589,346.892 31.684,347.338 31.801 M360.837 81.481 C 360.837 85.683,360.907 87.402,360.993 85.301 C 361.078 83.200,361.078 79.763,360.993 77.662 C 360.907 75.561,360.837 77.280,360.837 81.481 M203.472 205.093 C 204.467 206.111,205.385 206.944,205.512 206.944 C 205.639 206.944,204.930 206.111,203.935 205.093 C 202.941 204.074,202.023 203.241,201.895 203.241 C 201.768 203.241,202.478 204.074,203.472 205.093 M164.120 221.759 C 165.374 223.032,166.505 224.074,166.632 224.074 C 166.759 224.074,165.837 223.032,164.583 221.759 C 163.329 220.486,162.199 219.444,162.072 219.444 C 161.945 219.444,162.866 220.486,164.120 221.759 M35.756 246.759 C 35.756 247.650,35.851 248.015,35.967 247.569 C 36.084 247.124,36.084 246.395,35.967 245.949 C 35.851 245.503,35.756 245.868,35.756 246.759 M36.219 256.481 C 36.219 257.373,36.314 257.737,36.430 257.292 C 36.547 256.846,36.547 256.117,36.430 255.671 C 36.314 255.226,36.219 255.590,36.219 256.481 M36.681 266.667 C 36.681 267.558,36.777 267.922,36.893 267.477 C 37.010 267.031,37.010 266.302,36.893 265.856 C 36.777 265.411,36.681 265.775,36.681 266.667 M37.144 277.315 C 37.144 278.206,37.240 278.571,37.356 278.125 C 37.473 277.679,37.473 276.950,37.356 276.505 C 37.240 276.059,37.144 276.424,37.144 277.315 M265.503 282.523 L 259.491 288.657 265.625 282.646 C 271.323 277.061,271.969 276.389,271.637 276.389 C 271.570 276.389,268.809 279.149,265.503 282.523 M37.607 288.426 C 37.607 289.317,37.703 289.682,37.819 289.236 C 37.936 288.791,37.936 288.061,37.819 287.616 C 37.703 287.170,37.607 287.535,37.607 288.426 M253.906 293.634 L 252.546 295.139 254.051 293.779 C 254.878 293.031,255.556 292.354,255.556 292.274 C 255.556 291.917,255.174 292.232,253.906 293.634 M38.080 299.769 C 38.085 300.787,38.180 301.149,38.290 300.573 C 38.401 299.997,38.397 299.164,38.281 298.721 C 38.165 298.279,38.075 298.750,38.080 299.769 M38.543 311.806 C 38.548 312.824,38.643 313.186,38.753 312.610 C 38.864 312.034,38.860 311.201,38.744 310.758 C 38.628 310.316,38.538 310.787,38.543 311.806 M39.015 324.074 C 39.015 325.220,39.105 325.689,39.216 325.116 C 39.326 324.543,39.326 323.605,39.216 323.032 C 39.105 322.459,39.015 322.928,39.015 324.074 M39.478 337.037 C 39.478 338.183,39.568 338.652,39.679 338.079 C 39.789 337.506,39.789 336.568,39.679 335.995 C 39.568 335.422,39.478 335.891,39.478 337.037 M82.523 355.875 C 82.969 355.991,83.698 355.991,84.144 355.875 C 84.589 355.758,84.225 355.663,83.333 355.663 C 82.442 355.663,82.078 355.758,82.523 355.875 M104.056 355.883 C 104.632 355.994,105.466 355.990,105.908 355.874 C 106.351 355.758,105.880 355.667,104.861 355.672 C 103.843 355.677,103.480 355.772,104.056 355.883 " stroke="none" fill="#749a4b" fill-rule="evenodd"></path></g></svg>
